G04 #@! TF.GenerationSoftware,KiCad,Pcbnew,5.0.2-bee76a0~70~ubuntu18.04.1*
G04 #@! TF.CreationDate,2020-11-03T11:03:39+00:00*
G04 #@! TF.ProjectId,picostation,7069636f-7374-4617-9469-6f6e2e6b6963,rev?*
G04 #@! TF.SameCoordinates,Original*
G04 #@! TF.FileFunction,Paste,Bot*
G04 #@! TF.FilePolarity,Positive*
%FSLAX46Y46*%
G04 Gerber Fmt 4.6, Leading zero omitted, Abs format (unit mm)*
G04 Created by KiCad (PCBNEW 5.0.2-bee76a0~70~ubuntu18.04.1) date Tue 03 Nov 2020 11:03:39 GMT*
%MOMM*%
%LPD*%
G01*
G04 APERTURE LIST*
%ADD10C,0.100000*%
%ADD11C,0.590000*%
%ADD12C,0.875000*%
G04 APERTURE END LIST*
D10*
G04 #@! TO.C,C1*
G36*
X227186958Y-90220710D02*
X227201276Y-90222834D01*
X227215317Y-90226351D01*
X227228946Y-90231228D01*
X227242031Y-90237417D01*
X227254447Y-90244858D01*
X227266073Y-90253481D01*
X227276798Y-90263202D01*
X227286519Y-90273927D01*
X227295142Y-90285553D01*
X227302583Y-90297969D01*
X227308772Y-90311054D01*
X227313649Y-90324683D01*
X227317166Y-90338724D01*
X227319290Y-90353042D01*
X227320000Y-90367500D01*
X227320000Y-90662500D01*
X227319290Y-90676958D01*
X227317166Y-90691276D01*
X227313649Y-90705317D01*
X227308772Y-90718946D01*
X227302583Y-90732031D01*
X227295142Y-90744447D01*
X227286519Y-90756073D01*
X227276798Y-90766798D01*
X227266073Y-90776519D01*
X227254447Y-90785142D01*
X227242031Y-90792583D01*
X227228946Y-90798772D01*
X227215317Y-90803649D01*
X227201276Y-90807166D01*
X227186958Y-90809290D01*
X227172500Y-90810000D01*
X226827500Y-90810000D01*
X226813042Y-90809290D01*
X226798724Y-90807166D01*
X226784683Y-90803649D01*
X226771054Y-90798772D01*
X226757969Y-90792583D01*
X226745553Y-90785142D01*
X226733927Y-90776519D01*
X226723202Y-90766798D01*
X226713481Y-90756073D01*
X226704858Y-90744447D01*
X226697417Y-90732031D01*
X226691228Y-90718946D01*
X226686351Y-90705317D01*
X226682834Y-90691276D01*
X226680710Y-90676958D01*
X226680000Y-90662500D01*
X226680000Y-90367500D01*
X226680710Y-90353042D01*
X226682834Y-90338724D01*
X226686351Y-90324683D01*
X226691228Y-90311054D01*
X226697417Y-90297969D01*
X226704858Y-90285553D01*
X226713481Y-90273927D01*
X226723202Y-90263202D01*
X226733927Y-90253481D01*
X226745553Y-90244858D01*
X226757969Y-90237417D01*
X226771054Y-90231228D01*
X226784683Y-90226351D01*
X226798724Y-90222834D01*
X226813042Y-90220710D01*
X226827500Y-90220000D01*
X227172500Y-90220000D01*
X227186958Y-90220710D01*
X227186958Y-90220710D01*
G37*
D11*
X227000000Y-90515000D03*
D10*
G36*
X227186958Y-91190710D02*
X227201276Y-91192834D01*
X227215317Y-91196351D01*
X227228946Y-91201228D01*
X227242031Y-91207417D01*
X227254447Y-91214858D01*
X227266073Y-91223481D01*
X227276798Y-91233202D01*
X227286519Y-91243927D01*
X227295142Y-91255553D01*
X227302583Y-91267969D01*
X227308772Y-91281054D01*
X227313649Y-91294683D01*
X227317166Y-91308724D01*
X227319290Y-91323042D01*
X227320000Y-91337500D01*
X227320000Y-91632500D01*
X227319290Y-91646958D01*
X227317166Y-91661276D01*
X227313649Y-91675317D01*
X227308772Y-91688946D01*
X227302583Y-91702031D01*
X227295142Y-91714447D01*
X227286519Y-91726073D01*
X227276798Y-91736798D01*
X227266073Y-91746519D01*
X227254447Y-91755142D01*
X227242031Y-91762583D01*
X227228946Y-91768772D01*
X227215317Y-91773649D01*
X227201276Y-91777166D01*
X227186958Y-91779290D01*
X227172500Y-91780000D01*
X226827500Y-91780000D01*
X226813042Y-91779290D01*
X226798724Y-91777166D01*
X226784683Y-91773649D01*
X226771054Y-91768772D01*
X226757969Y-91762583D01*
X226745553Y-91755142D01*
X226733927Y-91746519D01*
X226723202Y-91736798D01*
X226713481Y-91726073D01*
X226704858Y-91714447D01*
X226697417Y-91702031D01*
X226691228Y-91688946D01*
X226686351Y-91675317D01*
X226682834Y-91661276D01*
X226680710Y-91646958D01*
X226680000Y-91632500D01*
X226680000Y-91337500D01*
X226680710Y-91323042D01*
X226682834Y-91308724D01*
X226686351Y-91294683D01*
X226691228Y-91281054D01*
X226697417Y-91267969D01*
X226704858Y-91255553D01*
X226713481Y-91243927D01*
X226723202Y-91233202D01*
X226733927Y-91223481D01*
X226745553Y-91214858D01*
X226757969Y-91207417D01*
X226771054Y-91201228D01*
X226784683Y-91196351D01*
X226798724Y-91192834D01*
X226813042Y-91190710D01*
X226827500Y-91190000D01*
X227172500Y-91190000D01*
X227186958Y-91190710D01*
X227186958Y-91190710D01*
G37*
D11*
X227000000Y-91485000D03*
G04 #@! TD*
D10*
G04 #@! TO.C,C2*
G36*
X226186958Y-91190710D02*
X226201276Y-91192834D01*
X226215317Y-91196351D01*
X226228946Y-91201228D01*
X226242031Y-91207417D01*
X226254447Y-91214858D01*
X226266073Y-91223481D01*
X226276798Y-91233202D01*
X226286519Y-91243927D01*
X226295142Y-91255553D01*
X226302583Y-91267969D01*
X226308772Y-91281054D01*
X226313649Y-91294683D01*
X226317166Y-91308724D01*
X226319290Y-91323042D01*
X226320000Y-91337500D01*
X226320000Y-91632500D01*
X226319290Y-91646958D01*
X226317166Y-91661276D01*
X226313649Y-91675317D01*
X226308772Y-91688946D01*
X226302583Y-91702031D01*
X226295142Y-91714447D01*
X226286519Y-91726073D01*
X226276798Y-91736798D01*
X226266073Y-91746519D01*
X226254447Y-91755142D01*
X226242031Y-91762583D01*
X226228946Y-91768772D01*
X226215317Y-91773649D01*
X226201276Y-91777166D01*
X226186958Y-91779290D01*
X226172500Y-91780000D01*
X225827500Y-91780000D01*
X225813042Y-91779290D01*
X225798724Y-91777166D01*
X225784683Y-91773649D01*
X225771054Y-91768772D01*
X225757969Y-91762583D01*
X225745553Y-91755142D01*
X225733927Y-91746519D01*
X225723202Y-91736798D01*
X225713481Y-91726073D01*
X225704858Y-91714447D01*
X225697417Y-91702031D01*
X225691228Y-91688946D01*
X225686351Y-91675317D01*
X225682834Y-91661276D01*
X225680710Y-91646958D01*
X225680000Y-91632500D01*
X225680000Y-91337500D01*
X225680710Y-91323042D01*
X225682834Y-91308724D01*
X225686351Y-91294683D01*
X225691228Y-91281054D01*
X225697417Y-91267969D01*
X225704858Y-91255553D01*
X225713481Y-91243927D01*
X225723202Y-91233202D01*
X225733927Y-91223481D01*
X225745553Y-91214858D01*
X225757969Y-91207417D01*
X225771054Y-91201228D01*
X225784683Y-91196351D01*
X225798724Y-91192834D01*
X225813042Y-91190710D01*
X225827500Y-91190000D01*
X226172500Y-91190000D01*
X226186958Y-91190710D01*
X226186958Y-91190710D01*
G37*
D11*
X226000000Y-91485000D03*
D10*
G36*
X226186958Y-90220710D02*
X226201276Y-90222834D01*
X226215317Y-90226351D01*
X226228946Y-90231228D01*
X226242031Y-90237417D01*
X226254447Y-90244858D01*
X226266073Y-90253481D01*
X226276798Y-90263202D01*
X226286519Y-90273927D01*
X226295142Y-90285553D01*
X226302583Y-90297969D01*
X226308772Y-90311054D01*
X226313649Y-90324683D01*
X226317166Y-90338724D01*
X226319290Y-90353042D01*
X226320000Y-90367500D01*
X226320000Y-90662500D01*
X226319290Y-90676958D01*
X226317166Y-90691276D01*
X226313649Y-90705317D01*
X226308772Y-90718946D01*
X226302583Y-90732031D01*
X226295142Y-90744447D01*
X226286519Y-90756073D01*
X226276798Y-90766798D01*
X226266073Y-90776519D01*
X226254447Y-90785142D01*
X226242031Y-90792583D01*
X226228946Y-90798772D01*
X226215317Y-90803649D01*
X226201276Y-90807166D01*
X226186958Y-90809290D01*
X226172500Y-90810000D01*
X225827500Y-90810000D01*
X225813042Y-90809290D01*
X225798724Y-90807166D01*
X225784683Y-90803649D01*
X225771054Y-90798772D01*
X225757969Y-90792583D01*
X225745553Y-90785142D01*
X225733927Y-90776519D01*
X225723202Y-90766798D01*
X225713481Y-90756073D01*
X225704858Y-90744447D01*
X225697417Y-90732031D01*
X225691228Y-90718946D01*
X225686351Y-90705317D01*
X225682834Y-90691276D01*
X225680710Y-90676958D01*
X225680000Y-90662500D01*
X225680000Y-90367500D01*
X225680710Y-90353042D01*
X225682834Y-90338724D01*
X225686351Y-90324683D01*
X225691228Y-90311054D01*
X225697417Y-90297969D01*
X225704858Y-90285553D01*
X225713481Y-90273927D01*
X225723202Y-90263202D01*
X225733927Y-90253481D01*
X225745553Y-90244858D01*
X225757969Y-90237417D01*
X225771054Y-90231228D01*
X225784683Y-90226351D01*
X225798724Y-90222834D01*
X225813042Y-90220710D01*
X225827500Y-90220000D01*
X226172500Y-90220000D01*
X226186958Y-90220710D01*
X226186958Y-90220710D01*
G37*
D11*
X226000000Y-90515000D03*
G04 #@! TD*
D10*
G04 #@! TO.C,C3*
G36*
X225186958Y-91190710D02*
X225201276Y-91192834D01*
X225215317Y-91196351D01*
X225228946Y-91201228D01*
X225242031Y-91207417D01*
X225254447Y-91214858D01*
X225266073Y-91223481D01*
X225276798Y-91233202D01*
X225286519Y-91243927D01*
X225295142Y-91255553D01*
X225302583Y-91267969D01*
X225308772Y-91281054D01*
X225313649Y-91294683D01*
X225317166Y-91308724D01*
X225319290Y-91323042D01*
X225320000Y-91337500D01*
X225320000Y-91632500D01*
X225319290Y-91646958D01*
X225317166Y-91661276D01*
X225313649Y-91675317D01*
X225308772Y-91688946D01*
X225302583Y-91702031D01*
X225295142Y-91714447D01*
X225286519Y-91726073D01*
X225276798Y-91736798D01*
X225266073Y-91746519D01*
X225254447Y-91755142D01*
X225242031Y-91762583D01*
X225228946Y-91768772D01*
X225215317Y-91773649D01*
X225201276Y-91777166D01*
X225186958Y-91779290D01*
X225172500Y-91780000D01*
X224827500Y-91780000D01*
X224813042Y-91779290D01*
X224798724Y-91777166D01*
X224784683Y-91773649D01*
X224771054Y-91768772D01*
X224757969Y-91762583D01*
X224745553Y-91755142D01*
X224733927Y-91746519D01*
X224723202Y-91736798D01*
X224713481Y-91726073D01*
X224704858Y-91714447D01*
X224697417Y-91702031D01*
X224691228Y-91688946D01*
X224686351Y-91675317D01*
X224682834Y-91661276D01*
X224680710Y-91646958D01*
X224680000Y-91632500D01*
X224680000Y-91337500D01*
X224680710Y-91323042D01*
X224682834Y-91308724D01*
X224686351Y-91294683D01*
X224691228Y-91281054D01*
X224697417Y-91267969D01*
X224704858Y-91255553D01*
X224713481Y-91243927D01*
X224723202Y-91233202D01*
X224733927Y-91223481D01*
X224745553Y-91214858D01*
X224757969Y-91207417D01*
X224771054Y-91201228D01*
X224784683Y-91196351D01*
X224798724Y-91192834D01*
X224813042Y-91190710D01*
X224827500Y-91190000D01*
X225172500Y-91190000D01*
X225186958Y-91190710D01*
X225186958Y-91190710D01*
G37*
D11*
X225000000Y-91485000D03*
D10*
G36*
X225186958Y-90220710D02*
X225201276Y-90222834D01*
X225215317Y-90226351D01*
X225228946Y-90231228D01*
X225242031Y-90237417D01*
X225254447Y-90244858D01*
X225266073Y-90253481D01*
X225276798Y-90263202D01*
X225286519Y-90273927D01*
X225295142Y-90285553D01*
X225302583Y-90297969D01*
X225308772Y-90311054D01*
X225313649Y-90324683D01*
X225317166Y-90338724D01*
X225319290Y-90353042D01*
X225320000Y-90367500D01*
X225320000Y-90662500D01*
X225319290Y-90676958D01*
X225317166Y-90691276D01*
X225313649Y-90705317D01*
X225308772Y-90718946D01*
X225302583Y-90732031D01*
X225295142Y-90744447D01*
X225286519Y-90756073D01*
X225276798Y-90766798D01*
X225266073Y-90776519D01*
X225254447Y-90785142D01*
X225242031Y-90792583D01*
X225228946Y-90798772D01*
X225215317Y-90803649D01*
X225201276Y-90807166D01*
X225186958Y-90809290D01*
X225172500Y-90810000D01*
X224827500Y-90810000D01*
X224813042Y-90809290D01*
X224798724Y-90807166D01*
X224784683Y-90803649D01*
X224771054Y-90798772D01*
X224757969Y-90792583D01*
X224745553Y-90785142D01*
X224733927Y-90776519D01*
X224723202Y-90766798D01*
X224713481Y-90756073D01*
X224704858Y-90744447D01*
X224697417Y-90732031D01*
X224691228Y-90718946D01*
X224686351Y-90705317D01*
X224682834Y-90691276D01*
X224680710Y-90676958D01*
X224680000Y-90662500D01*
X224680000Y-90367500D01*
X224680710Y-90353042D01*
X224682834Y-90338724D01*
X224686351Y-90324683D01*
X224691228Y-90311054D01*
X224697417Y-90297969D01*
X224704858Y-90285553D01*
X224713481Y-90273927D01*
X224723202Y-90263202D01*
X224733927Y-90253481D01*
X224745553Y-90244858D01*
X224757969Y-90237417D01*
X224771054Y-90231228D01*
X224784683Y-90226351D01*
X224798724Y-90222834D01*
X224813042Y-90220710D01*
X224827500Y-90220000D01*
X225172500Y-90220000D01*
X225186958Y-90220710D01*
X225186958Y-90220710D01*
G37*
D11*
X225000000Y-90515000D03*
G04 #@! TD*
D10*
G04 #@! TO.C,C4*
G36*
X227186958Y-94190710D02*
X227201276Y-94192834D01*
X227215317Y-94196351D01*
X227228946Y-94201228D01*
X227242031Y-94207417D01*
X227254447Y-94214858D01*
X227266073Y-94223481D01*
X227276798Y-94233202D01*
X227286519Y-94243927D01*
X227295142Y-94255553D01*
X227302583Y-94267969D01*
X227308772Y-94281054D01*
X227313649Y-94294683D01*
X227317166Y-94308724D01*
X227319290Y-94323042D01*
X227320000Y-94337500D01*
X227320000Y-94632500D01*
X227319290Y-94646958D01*
X227317166Y-94661276D01*
X227313649Y-94675317D01*
X227308772Y-94688946D01*
X227302583Y-94702031D01*
X227295142Y-94714447D01*
X227286519Y-94726073D01*
X227276798Y-94736798D01*
X227266073Y-94746519D01*
X227254447Y-94755142D01*
X227242031Y-94762583D01*
X227228946Y-94768772D01*
X227215317Y-94773649D01*
X227201276Y-94777166D01*
X227186958Y-94779290D01*
X227172500Y-94780000D01*
X226827500Y-94780000D01*
X226813042Y-94779290D01*
X226798724Y-94777166D01*
X226784683Y-94773649D01*
X226771054Y-94768772D01*
X226757969Y-94762583D01*
X226745553Y-94755142D01*
X226733927Y-94746519D01*
X226723202Y-94736798D01*
X226713481Y-94726073D01*
X226704858Y-94714447D01*
X226697417Y-94702031D01*
X226691228Y-94688946D01*
X226686351Y-94675317D01*
X226682834Y-94661276D01*
X226680710Y-94646958D01*
X226680000Y-94632500D01*
X226680000Y-94337500D01*
X226680710Y-94323042D01*
X226682834Y-94308724D01*
X226686351Y-94294683D01*
X226691228Y-94281054D01*
X226697417Y-94267969D01*
X226704858Y-94255553D01*
X226713481Y-94243927D01*
X226723202Y-94233202D01*
X226733927Y-94223481D01*
X226745553Y-94214858D01*
X226757969Y-94207417D01*
X226771054Y-94201228D01*
X226784683Y-94196351D01*
X226798724Y-94192834D01*
X226813042Y-94190710D01*
X226827500Y-94190000D01*
X227172500Y-94190000D01*
X227186958Y-94190710D01*
X227186958Y-94190710D01*
G37*
D11*
X227000000Y-94485000D03*
D10*
G36*
X227186958Y-93220710D02*
X227201276Y-93222834D01*
X227215317Y-93226351D01*
X227228946Y-93231228D01*
X227242031Y-93237417D01*
X227254447Y-93244858D01*
X227266073Y-93253481D01*
X227276798Y-93263202D01*
X227286519Y-93273927D01*
X227295142Y-93285553D01*
X227302583Y-93297969D01*
X227308772Y-93311054D01*
X227313649Y-93324683D01*
X227317166Y-93338724D01*
X227319290Y-93353042D01*
X227320000Y-93367500D01*
X227320000Y-93662500D01*
X227319290Y-93676958D01*
X227317166Y-93691276D01*
X227313649Y-93705317D01*
X227308772Y-93718946D01*
X227302583Y-93732031D01*
X227295142Y-93744447D01*
X227286519Y-93756073D01*
X227276798Y-93766798D01*
X227266073Y-93776519D01*
X227254447Y-93785142D01*
X227242031Y-93792583D01*
X227228946Y-93798772D01*
X227215317Y-93803649D01*
X227201276Y-93807166D01*
X227186958Y-93809290D01*
X227172500Y-93810000D01*
X226827500Y-93810000D01*
X226813042Y-93809290D01*
X226798724Y-93807166D01*
X226784683Y-93803649D01*
X226771054Y-93798772D01*
X226757969Y-93792583D01*
X226745553Y-93785142D01*
X226733927Y-93776519D01*
X226723202Y-93766798D01*
X226713481Y-93756073D01*
X226704858Y-93744447D01*
X226697417Y-93732031D01*
X226691228Y-93718946D01*
X226686351Y-93705317D01*
X226682834Y-93691276D01*
X226680710Y-93676958D01*
X226680000Y-93662500D01*
X226680000Y-93367500D01*
X226680710Y-93353042D01*
X226682834Y-93338724D01*
X226686351Y-93324683D01*
X226691228Y-93311054D01*
X226697417Y-93297969D01*
X226704858Y-93285553D01*
X226713481Y-93273927D01*
X226723202Y-93263202D01*
X226733927Y-93253481D01*
X226745553Y-93244858D01*
X226757969Y-93237417D01*
X226771054Y-93231228D01*
X226784683Y-93226351D01*
X226798724Y-93222834D01*
X226813042Y-93220710D01*
X226827500Y-93220000D01*
X227172500Y-93220000D01*
X227186958Y-93220710D01*
X227186958Y-93220710D01*
G37*
D11*
X227000000Y-93515000D03*
G04 #@! TD*
D10*
G04 #@! TO.C,C8*
G36*
X225186958Y-93220710D02*
X225201276Y-93222834D01*
X225215317Y-93226351D01*
X225228946Y-93231228D01*
X225242031Y-93237417D01*
X225254447Y-93244858D01*
X225266073Y-93253481D01*
X225276798Y-93263202D01*
X225286519Y-93273927D01*
X225295142Y-93285553D01*
X225302583Y-93297969D01*
X225308772Y-93311054D01*
X225313649Y-93324683D01*
X225317166Y-93338724D01*
X225319290Y-93353042D01*
X225320000Y-93367500D01*
X225320000Y-93662500D01*
X225319290Y-93676958D01*
X225317166Y-93691276D01*
X225313649Y-93705317D01*
X225308772Y-93718946D01*
X225302583Y-93732031D01*
X225295142Y-93744447D01*
X225286519Y-93756073D01*
X225276798Y-93766798D01*
X225266073Y-93776519D01*
X225254447Y-93785142D01*
X225242031Y-93792583D01*
X225228946Y-93798772D01*
X225215317Y-93803649D01*
X225201276Y-93807166D01*
X225186958Y-93809290D01*
X225172500Y-93810000D01*
X224827500Y-93810000D01*
X224813042Y-93809290D01*
X224798724Y-93807166D01*
X224784683Y-93803649D01*
X224771054Y-93798772D01*
X224757969Y-93792583D01*
X224745553Y-93785142D01*
X224733927Y-93776519D01*
X224723202Y-93766798D01*
X224713481Y-93756073D01*
X224704858Y-93744447D01*
X224697417Y-93732031D01*
X224691228Y-93718946D01*
X224686351Y-93705317D01*
X224682834Y-93691276D01*
X224680710Y-93676958D01*
X224680000Y-93662500D01*
X224680000Y-93367500D01*
X224680710Y-93353042D01*
X224682834Y-93338724D01*
X224686351Y-93324683D01*
X224691228Y-93311054D01*
X224697417Y-93297969D01*
X224704858Y-93285553D01*
X224713481Y-93273927D01*
X224723202Y-93263202D01*
X224733927Y-93253481D01*
X224745553Y-93244858D01*
X224757969Y-93237417D01*
X224771054Y-93231228D01*
X224784683Y-93226351D01*
X224798724Y-93222834D01*
X224813042Y-93220710D01*
X224827500Y-93220000D01*
X225172500Y-93220000D01*
X225186958Y-93220710D01*
X225186958Y-93220710D01*
G37*
D11*
X225000000Y-93515000D03*
D10*
G36*
X225186958Y-94190710D02*
X225201276Y-94192834D01*
X225215317Y-94196351D01*
X225228946Y-94201228D01*
X225242031Y-94207417D01*
X225254447Y-94214858D01*
X225266073Y-94223481D01*
X225276798Y-94233202D01*
X225286519Y-94243927D01*
X225295142Y-94255553D01*
X225302583Y-94267969D01*
X225308772Y-94281054D01*
X225313649Y-94294683D01*
X225317166Y-94308724D01*
X225319290Y-94323042D01*
X225320000Y-94337500D01*
X225320000Y-94632500D01*
X225319290Y-94646958D01*
X225317166Y-94661276D01*
X225313649Y-94675317D01*
X225308772Y-94688946D01*
X225302583Y-94702031D01*
X225295142Y-94714447D01*
X225286519Y-94726073D01*
X225276798Y-94736798D01*
X225266073Y-94746519D01*
X225254447Y-94755142D01*
X225242031Y-94762583D01*
X225228946Y-94768772D01*
X225215317Y-94773649D01*
X225201276Y-94777166D01*
X225186958Y-94779290D01*
X225172500Y-94780000D01*
X224827500Y-94780000D01*
X224813042Y-94779290D01*
X224798724Y-94777166D01*
X224784683Y-94773649D01*
X224771054Y-94768772D01*
X224757969Y-94762583D01*
X224745553Y-94755142D01*
X224733927Y-94746519D01*
X224723202Y-94736798D01*
X224713481Y-94726073D01*
X224704858Y-94714447D01*
X224697417Y-94702031D01*
X224691228Y-94688946D01*
X224686351Y-94675317D01*
X224682834Y-94661276D01*
X224680710Y-94646958D01*
X224680000Y-94632500D01*
X224680000Y-94337500D01*
X224680710Y-94323042D01*
X224682834Y-94308724D01*
X224686351Y-94294683D01*
X224691228Y-94281054D01*
X224697417Y-94267969D01*
X224704858Y-94255553D01*
X224713481Y-94243927D01*
X224723202Y-94233202D01*
X224733927Y-94223481D01*
X224745553Y-94214858D01*
X224757969Y-94207417D01*
X224771054Y-94201228D01*
X224784683Y-94196351D01*
X224798724Y-94192834D01*
X224813042Y-94190710D01*
X224827500Y-94190000D01*
X225172500Y-94190000D01*
X225186958Y-94190710D01*
X225186958Y-94190710D01*
G37*
D11*
X225000000Y-94485000D03*
G04 #@! TD*
D10*
G04 #@! TO.C,C11*
G36*
X226186958Y-94190710D02*
X226201276Y-94192834D01*
X226215317Y-94196351D01*
X226228946Y-94201228D01*
X226242031Y-94207417D01*
X226254447Y-94214858D01*
X226266073Y-94223481D01*
X226276798Y-94233202D01*
X226286519Y-94243927D01*
X226295142Y-94255553D01*
X226302583Y-94267969D01*
X226308772Y-94281054D01*
X226313649Y-94294683D01*
X226317166Y-94308724D01*
X226319290Y-94323042D01*
X226320000Y-94337500D01*
X226320000Y-94632500D01*
X226319290Y-94646958D01*
X226317166Y-94661276D01*
X226313649Y-94675317D01*
X226308772Y-94688946D01*
X226302583Y-94702031D01*
X226295142Y-94714447D01*
X226286519Y-94726073D01*
X226276798Y-94736798D01*
X226266073Y-94746519D01*
X226254447Y-94755142D01*
X226242031Y-94762583D01*
X226228946Y-94768772D01*
X226215317Y-94773649D01*
X226201276Y-94777166D01*
X226186958Y-94779290D01*
X226172500Y-94780000D01*
X225827500Y-94780000D01*
X225813042Y-94779290D01*
X225798724Y-94777166D01*
X225784683Y-94773649D01*
X225771054Y-94768772D01*
X225757969Y-94762583D01*
X225745553Y-94755142D01*
X225733927Y-94746519D01*
X225723202Y-94736798D01*
X225713481Y-94726073D01*
X225704858Y-94714447D01*
X225697417Y-94702031D01*
X225691228Y-94688946D01*
X225686351Y-94675317D01*
X225682834Y-94661276D01*
X225680710Y-94646958D01*
X225680000Y-94632500D01*
X225680000Y-94337500D01*
X225680710Y-94323042D01*
X225682834Y-94308724D01*
X225686351Y-94294683D01*
X225691228Y-94281054D01*
X225697417Y-94267969D01*
X225704858Y-94255553D01*
X225713481Y-94243927D01*
X225723202Y-94233202D01*
X225733927Y-94223481D01*
X225745553Y-94214858D01*
X225757969Y-94207417D01*
X225771054Y-94201228D01*
X225784683Y-94196351D01*
X225798724Y-94192834D01*
X225813042Y-94190710D01*
X225827500Y-94190000D01*
X226172500Y-94190000D01*
X226186958Y-94190710D01*
X226186958Y-94190710D01*
G37*
D11*
X226000000Y-94485000D03*
D10*
G36*
X226186958Y-93220710D02*
X226201276Y-93222834D01*
X226215317Y-93226351D01*
X226228946Y-93231228D01*
X226242031Y-93237417D01*
X226254447Y-93244858D01*
X226266073Y-93253481D01*
X226276798Y-93263202D01*
X226286519Y-93273927D01*
X226295142Y-93285553D01*
X226302583Y-93297969D01*
X226308772Y-93311054D01*
X226313649Y-93324683D01*
X226317166Y-93338724D01*
X226319290Y-93353042D01*
X226320000Y-93367500D01*
X226320000Y-93662500D01*
X226319290Y-93676958D01*
X226317166Y-93691276D01*
X226313649Y-93705317D01*
X226308772Y-93718946D01*
X226302583Y-93732031D01*
X226295142Y-93744447D01*
X226286519Y-93756073D01*
X226276798Y-93766798D01*
X226266073Y-93776519D01*
X226254447Y-93785142D01*
X226242031Y-93792583D01*
X226228946Y-93798772D01*
X226215317Y-93803649D01*
X226201276Y-93807166D01*
X226186958Y-93809290D01*
X226172500Y-93810000D01*
X225827500Y-93810000D01*
X225813042Y-93809290D01*
X225798724Y-93807166D01*
X225784683Y-93803649D01*
X225771054Y-93798772D01*
X225757969Y-93792583D01*
X225745553Y-93785142D01*
X225733927Y-93776519D01*
X225723202Y-93766798D01*
X225713481Y-93756073D01*
X225704858Y-93744447D01*
X225697417Y-93732031D01*
X225691228Y-93718946D01*
X225686351Y-93705317D01*
X225682834Y-93691276D01*
X225680710Y-93676958D01*
X225680000Y-93662500D01*
X225680000Y-93367500D01*
X225680710Y-93353042D01*
X225682834Y-93338724D01*
X225686351Y-93324683D01*
X225691228Y-93311054D01*
X225697417Y-93297969D01*
X225704858Y-93285553D01*
X225713481Y-93273927D01*
X225723202Y-93263202D01*
X225733927Y-93253481D01*
X225745553Y-93244858D01*
X225757969Y-93237417D01*
X225771054Y-93231228D01*
X225784683Y-93226351D01*
X225798724Y-93222834D01*
X225813042Y-93220710D01*
X225827500Y-93220000D01*
X226172500Y-93220000D01*
X226186958Y-93220710D01*
X226186958Y-93220710D01*
G37*
D11*
X226000000Y-93515000D03*
G04 #@! TD*
D10*
G04 #@! TO.C,C13*
G36*
X224186958Y-91190710D02*
X224201276Y-91192834D01*
X224215317Y-91196351D01*
X224228946Y-91201228D01*
X224242031Y-91207417D01*
X224254447Y-91214858D01*
X224266073Y-91223481D01*
X224276798Y-91233202D01*
X224286519Y-91243927D01*
X224295142Y-91255553D01*
X224302583Y-91267969D01*
X224308772Y-91281054D01*
X224313649Y-91294683D01*
X224317166Y-91308724D01*
X224319290Y-91323042D01*
X224320000Y-91337500D01*
X224320000Y-91632500D01*
X224319290Y-91646958D01*
X224317166Y-91661276D01*
X224313649Y-91675317D01*
X224308772Y-91688946D01*
X224302583Y-91702031D01*
X224295142Y-91714447D01*
X224286519Y-91726073D01*
X224276798Y-91736798D01*
X224266073Y-91746519D01*
X224254447Y-91755142D01*
X224242031Y-91762583D01*
X224228946Y-91768772D01*
X224215317Y-91773649D01*
X224201276Y-91777166D01*
X224186958Y-91779290D01*
X224172500Y-91780000D01*
X223827500Y-91780000D01*
X223813042Y-91779290D01*
X223798724Y-91777166D01*
X223784683Y-91773649D01*
X223771054Y-91768772D01*
X223757969Y-91762583D01*
X223745553Y-91755142D01*
X223733927Y-91746519D01*
X223723202Y-91736798D01*
X223713481Y-91726073D01*
X223704858Y-91714447D01*
X223697417Y-91702031D01*
X223691228Y-91688946D01*
X223686351Y-91675317D01*
X223682834Y-91661276D01*
X223680710Y-91646958D01*
X223680000Y-91632500D01*
X223680000Y-91337500D01*
X223680710Y-91323042D01*
X223682834Y-91308724D01*
X223686351Y-91294683D01*
X223691228Y-91281054D01*
X223697417Y-91267969D01*
X223704858Y-91255553D01*
X223713481Y-91243927D01*
X223723202Y-91233202D01*
X223733927Y-91223481D01*
X223745553Y-91214858D01*
X223757969Y-91207417D01*
X223771054Y-91201228D01*
X223784683Y-91196351D01*
X223798724Y-91192834D01*
X223813042Y-91190710D01*
X223827500Y-91190000D01*
X224172500Y-91190000D01*
X224186958Y-91190710D01*
X224186958Y-91190710D01*
G37*
D11*
X224000000Y-91485000D03*
D10*
G36*
X224186958Y-90220710D02*
X224201276Y-90222834D01*
X224215317Y-90226351D01*
X224228946Y-90231228D01*
X224242031Y-90237417D01*
X224254447Y-90244858D01*
X224266073Y-90253481D01*
X224276798Y-90263202D01*
X224286519Y-90273927D01*
X224295142Y-90285553D01*
X224302583Y-90297969D01*
X224308772Y-90311054D01*
X224313649Y-90324683D01*
X224317166Y-90338724D01*
X224319290Y-90353042D01*
X224320000Y-90367500D01*
X224320000Y-90662500D01*
X224319290Y-90676958D01*
X224317166Y-90691276D01*
X224313649Y-90705317D01*
X224308772Y-90718946D01*
X224302583Y-90732031D01*
X224295142Y-90744447D01*
X224286519Y-90756073D01*
X224276798Y-90766798D01*
X224266073Y-90776519D01*
X224254447Y-90785142D01*
X224242031Y-90792583D01*
X224228946Y-90798772D01*
X224215317Y-90803649D01*
X224201276Y-90807166D01*
X224186958Y-90809290D01*
X224172500Y-90810000D01*
X223827500Y-90810000D01*
X223813042Y-90809290D01*
X223798724Y-90807166D01*
X223784683Y-90803649D01*
X223771054Y-90798772D01*
X223757969Y-90792583D01*
X223745553Y-90785142D01*
X223733927Y-90776519D01*
X223723202Y-90766798D01*
X223713481Y-90756073D01*
X223704858Y-90744447D01*
X223697417Y-90732031D01*
X223691228Y-90718946D01*
X223686351Y-90705317D01*
X223682834Y-90691276D01*
X223680710Y-90676958D01*
X223680000Y-90662500D01*
X223680000Y-90367500D01*
X223680710Y-90353042D01*
X223682834Y-90338724D01*
X223686351Y-90324683D01*
X223691228Y-90311054D01*
X223697417Y-90297969D01*
X223704858Y-90285553D01*
X223713481Y-90273927D01*
X223723202Y-90263202D01*
X223733927Y-90253481D01*
X223745553Y-90244858D01*
X223757969Y-90237417D01*
X223771054Y-90231228D01*
X223784683Y-90226351D01*
X223798724Y-90222834D01*
X223813042Y-90220710D01*
X223827500Y-90220000D01*
X224172500Y-90220000D01*
X224186958Y-90220710D01*
X224186958Y-90220710D01*
G37*
D11*
X224000000Y-90515000D03*
G04 #@! TD*
D10*
G04 #@! TO.C,C16*
G36*
X201326958Y-80530710D02*
X201341276Y-80532834D01*
X201355317Y-80536351D01*
X201368946Y-80541228D01*
X201382031Y-80547417D01*
X201394447Y-80554858D01*
X201406073Y-80563481D01*
X201416798Y-80573202D01*
X201426519Y-80583927D01*
X201435142Y-80595553D01*
X201442583Y-80607969D01*
X201448772Y-80621054D01*
X201453649Y-80634683D01*
X201457166Y-80648724D01*
X201459290Y-80663042D01*
X201460000Y-80677500D01*
X201460000Y-81022500D01*
X201459290Y-81036958D01*
X201457166Y-81051276D01*
X201453649Y-81065317D01*
X201448772Y-81078946D01*
X201442583Y-81092031D01*
X201435142Y-81104447D01*
X201426519Y-81116073D01*
X201416798Y-81126798D01*
X201406073Y-81136519D01*
X201394447Y-81145142D01*
X201382031Y-81152583D01*
X201368946Y-81158772D01*
X201355317Y-81163649D01*
X201341276Y-81167166D01*
X201326958Y-81169290D01*
X201312500Y-81170000D01*
X201017500Y-81170000D01*
X201003042Y-81169290D01*
X200988724Y-81167166D01*
X200974683Y-81163649D01*
X200961054Y-81158772D01*
X200947969Y-81152583D01*
X200935553Y-81145142D01*
X200923927Y-81136519D01*
X200913202Y-81126798D01*
X200903481Y-81116073D01*
X200894858Y-81104447D01*
X200887417Y-81092031D01*
X200881228Y-81078946D01*
X200876351Y-81065317D01*
X200872834Y-81051276D01*
X200870710Y-81036958D01*
X200870000Y-81022500D01*
X200870000Y-80677500D01*
X200870710Y-80663042D01*
X200872834Y-80648724D01*
X200876351Y-80634683D01*
X200881228Y-80621054D01*
X200887417Y-80607969D01*
X200894858Y-80595553D01*
X200903481Y-80583927D01*
X200913202Y-80573202D01*
X200923927Y-80563481D01*
X200935553Y-80554858D01*
X200947969Y-80547417D01*
X200961054Y-80541228D01*
X200974683Y-80536351D01*
X200988724Y-80532834D01*
X201003042Y-80530710D01*
X201017500Y-80530000D01*
X201312500Y-80530000D01*
X201326958Y-80530710D01*
X201326958Y-80530710D01*
G37*
D11*
X201165000Y-80850000D03*
D10*
G36*
X202296958Y-80530710D02*
X202311276Y-80532834D01*
X202325317Y-80536351D01*
X202338946Y-80541228D01*
X202352031Y-80547417D01*
X202364447Y-80554858D01*
X202376073Y-80563481D01*
X202386798Y-80573202D01*
X202396519Y-80583927D01*
X202405142Y-80595553D01*
X202412583Y-80607969D01*
X202418772Y-80621054D01*
X202423649Y-80634683D01*
X202427166Y-80648724D01*
X202429290Y-80663042D01*
X202430000Y-80677500D01*
X202430000Y-81022500D01*
X202429290Y-81036958D01*
X202427166Y-81051276D01*
X202423649Y-81065317D01*
X202418772Y-81078946D01*
X202412583Y-81092031D01*
X202405142Y-81104447D01*
X202396519Y-81116073D01*
X202386798Y-81126798D01*
X202376073Y-81136519D01*
X202364447Y-81145142D01*
X202352031Y-81152583D01*
X202338946Y-81158772D01*
X202325317Y-81163649D01*
X202311276Y-81167166D01*
X202296958Y-81169290D01*
X202282500Y-81170000D01*
X201987500Y-81170000D01*
X201973042Y-81169290D01*
X201958724Y-81167166D01*
X201944683Y-81163649D01*
X201931054Y-81158772D01*
X201917969Y-81152583D01*
X201905553Y-81145142D01*
X201893927Y-81136519D01*
X201883202Y-81126798D01*
X201873481Y-81116073D01*
X201864858Y-81104447D01*
X201857417Y-81092031D01*
X201851228Y-81078946D01*
X201846351Y-81065317D01*
X201842834Y-81051276D01*
X201840710Y-81036958D01*
X201840000Y-81022500D01*
X201840000Y-80677500D01*
X201840710Y-80663042D01*
X201842834Y-80648724D01*
X201846351Y-80634683D01*
X201851228Y-80621054D01*
X201857417Y-80607969D01*
X201864858Y-80595553D01*
X201873481Y-80583927D01*
X201883202Y-80573202D01*
X201893927Y-80563481D01*
X201905553Y-80554858D01*
X201917969Y-80547417D01*
X201931054Y-80541228D01*
X201944683Y-80536351D01*
X201958724Y-80532834D01*
X201973042Y-80530710D01*
X201987500Y-80530000D01*
X202282500Y-80530000D01*
X202296958Y-80530710D01*
X202296958Y-80530710D01*
G37*
D11*
X202135000Y-80850000D03*
G04 #@! TD*
D10*
G04 #@! TO.C,C18*
G36*
X178676958Y-106680710D02*
X178691276Y-106682834D01*
X178705317Y-106686351D01*
X178718946Y-106691228D01*
X178732031Y-106697417D01*
X178744447Y-106704858D01*
X178756073Y-106713481D01*
X178766798Y-106723202D01*
X178776519Y-106733927D01*
X178785142Y-106745553D01*
X178792583Y-106757969D01*
X178798772Y-106771054D01*
X178803649Y-106784683D01*
X178807166Y-106798724D01*
X178809290Y-106813042D01*
X178810000Y-106827500D01*
X178810000Y-107172500D01*
X178809290Y-107186958D01*
X178807166Y-107201276D01*
X178803649Y-107215317D01*
X178798772Y-107228946D01*
X178792583Y-107242031D01*
X178785142Y-107254447D01*
X178776519Y-107266073D01*
X178766798Y-107276798D01*
X178756073Y-107286519D01*
X178744447Y-107295142D01*
X178732031Y-107302583D01*
X178718946Y-107308772D01*
X178705317Y-107313649D01*
X178691276Y-107317166D01*
X178676958Y-107319290D01*
X178662500Y-107320000D01*
X178367500Y-107320000D01*
X178353042Y-107319290D01*
X178338724Y-107317166D01*
X178324683Y-107313649D01*
X178311054Y-107308772D01*
X178297969Y-107302583D01*
X178285553Y-107295142D01*
X178273927Y-107286519D01*
X178263202Y-107276798D01*
X178253481Y-107266073D01*
X178244858Y-107254447D01*
X178237417Y-107242031D01*
X178231228Y-107228946D01*
X178226351Y-107215317D01*
X178222834Y-107201276D01*
X178220710Y-107186958D01*
X178220000Y-107172500D01*
X178220000Y-106827500D01*
X178220710Y-106813042D01*
X178222834Y-106798724D01*
X178226351Y-106784683D01*
X178231228Y-106771054D01*
X178237417Y-106757969D01*
X178244858Y-106745553D01*
X178253481Y-106733927D01*
X178263202Y-106723202D01*
X178273927Y-106713481D01*
X178285553Y-106704858D01*
X178297969Y-106697417D01*
X178311054Y-106691228D01*
X178324683Y-106686351D01*
X178338724Y-106682834D01*
X178353042Y-106680710D01*
X178367500Y-106680000D01*
X178662500Y-106680000D01*
X178676958Y-106680710D01*
X178676958Y-106680710D01*
G37*
D11*
X178515000Y-107000000D03*
D10*
G36*
X179646958Y-106680710D02*
X179661276Y-106682834D01*
X179675317Y-106686351D01*
X179688946Y-106691228D01*
X179702031Y-106697417D01*
X179714447Y-106704858D01*
X179726073Y-106713481D01*
X179736798Y-106723202D01*
X179746519Y-106733927D01*
X179755142Y-106745553D01*
X179762583Y-106757969D01*
X179768772Y-106771054D01*
X179773649Y-106784683D01*
X179777166Y-106798724D01*
X179779290Y-106813042D01*
X179780000Y-106827500D01*
X179780000Y-107172500D01*
X179779290Y-107186958D01*
X179777166Y-107201276D01*
X179773649Y-107215317D01*
X179768772Y-107228946D01*
X179762583Y-107242031D01*
X179755142Y-107254447D01*
X179746519Y-107266073D01*
X179736798Y-107276798D01*
X179726073Y-107286519D01*
X179714447Y-107295142D01*
X179702031Y-107302583D01*
X179688946Y-107308772D01*
X179675317Y-107313649D01*
X179661276Y-107317166D01*
X179646958Y-107319290D01*
X179632500Y-107320000D01*
X179337500Y-107320000D01*
X179323042Y-107319290D01*
X179308724Y-107317166D01*
X179294683Y-107313649D01*
X179281054Y-107308772D01*
X179267969Y-107302583D01*
X179255553Y-107295142D01*
X179243927Y-107286519D01*
X179233202Y-107276798D01*
X179223481Y-107266073D01*
X179214858Y-107254447D01*
X179207417Y-107242031D01*
X179201228Y-107228946D01*
X179196351Y-107215317D01*
X179192834Y-107201276D01*
X179190710Y-107186958D01*
X179190000Y-107172500D01*
X179190000Y-106827500D01*
X179190710Y-106813042D01*
X179192834Y-106798724D01*
X179196351Y-106784683D01*
X179201228Y-106771054D01*
X179207417Y-106757969D01*
X179214858Y-106745553D01*
X179223481Y-106733927D01*
X179233202Y-106723202D01*
X179243927Y-106713481D01*
X179255553Y-106704858D01*
X179267969Y-106697417D01*
X179281054Y-106691228D01*
X179294683Y-106686351D01*
X179308724Y-106682834D01*
X179323042Y-106680710D01*
X179337500Y-106680000D01*
X179632500Y-106680000D01*
X179646958Y-106680710D01*
X179646958Y-106680710D01*
G37*
D11*
X179485000Y-107000000D03*
G04 #@! TD*
D10*
G04 #@! TO.C,C20*
G36*
X251676958Y-106680710D02*
X251691276Y-106682834D01*
X251705317Y-106686351D01*
X251718946Y-106691228D01*
X251732031Y-106697417D01*
X251744447Y-106704858D01*
X251756073Y-106713481D01*
X251766798Y-106723202D01*
X251776519Y-106733927D01*
X251785142Y-106745553D01*
X251792583Y-106757969D01*
X251798772Y-106771054D01*
X251803649Y-106784683D01*
X251807166Y-106798724D01*
X251809290Y-106813042D01*
X251810000Y-106827500D01*
X251810000Y-107172500D01*
X251809290Y-107186958D01*
X251807166Y-107201276D01*
X251803649Y-107215317D01*
X251798772Y-107228946D01*
X251792583Y-107242031D01*
X251785142Y-107254447D01*
X251776519Y-107266073D01*
X251766798Y-107276798D01*
X251756073Y-107286519D01*
X251744447Y-107295142D01*
X251732031Y-107302583D01*
X251718946Y-107308772D01*
X251705317Y-107313649D01*
X251691276Y-107317166D01*
X251676958Y-107319290D01*
X251662500Y-107320000D01*
X251367500Y-107320000D01*
X251353042Y-107319290D01*
X251338724Y-107317166D01*
X251324683Y-107313649D01*
X251311054Y-107308772D01*
X251297969Y-107302583D01*
X251285553Y-107295142D01*
X251273927Y-107286519D01*
X251263202Y-107276798D01*
X251253481Y-107266073D01*
X251244858Y-107254447D01*
X251237417Y-107242031D01*
X251231228Y-107228946D01*
X251226351Y-107215317D01*
X251222834Y-107201276D01*
X251220710Y-107186958D01*
X251220000Y-107172500D01*
X251220000Y-106827500D01*
X251220710Y-106813042D01*
X251222834Y-106798724D01*
X251226351Y-106784683D01*
X251231228Y-106771054D01*
X251237417Y-106757969D01*
X251244858Y-106745553D01*
X251253481Y-106733927D01*
X251263202Y-106723202D01*
X251273927Y-106713481D01*
X251285553Y-106704858D01*
X251297969Y-106697417D01*
X251311054Y-106691228D01*
X251324683Y-106686351D01*
X251338724Y-106682834D01*
X251353042Y-106680710D01*
X251367500Y-106680000D01*
X251662500Y-106680000D01*
X251676958Y-106680710D01*
X251676958Y-106680710D01*
G37*
D11*
X251515000Y-107000000D03*
D10*
G36*
X252646958Y-106680710D02*
X252661276Y-106682834D01*
X252675317Y-106686351D01*
X252688946Y-106691228D01*
X252702031Y-106697417D01*
X252714447Y-106704858D01*
X252726073Y-106713481D01*
X252736798Y-106723202D01*
X252746519Y-106733927D01*
X252755142Y-106745553D01*
X252762583Y-106757969D01*
X252768772Y-106771054D01*
X252773649Y-106784683D01*
X252777166Y-106798724D01*
X252779290Y-106813042D01*
X252780000Y-106827500D01*
X252780000Y-107172500D01*
X252779290Y-107186958D01*
X252777166Y-107201276D01*
X252773649Y-107215317D01*
X252768772Y-107228946D01*
X252762583Y-107242031D01*
X252755142Y-107254447D01*
X252746519Y-107266073D01*
X252736798Y-107276798D01*
X252726073Y-107286519D01*
X252714447Y-107295142D01*
X252702031Y-107302583D01*
X252688946Y-107308772D01*
X252675317Y-107313649D01*
X252661276Y-107317166D01*
X252646958Y-107319290D01*
X252632500Y-107320000D01*
X252337500Y-107320000D01*
X252323042Y-107319290D01*
X252308724Y-107317166D01*
X252294683Y-107313649D01*
X252281054Y-107308772D01*
X252267969Y-107302583D01*
X252255553Y-107295142D01*
X252243927Y-107286519D01*
X252233202Y-107276798D01*
X252223481Y-107266073D01*
X252214858Y-107254447D01*
X252207417Y-107242031D01*
X252201228Y-107228946D01*
X252196351Y-107215317D01*
X252192834Y-107201276D01*
X252190710Y-107186958D01*
X252190000Y-107172500D01*
X252190000Y-106827500D01*
X252190710Y-106813042D01*
X252192834Y-106798724D01*
X252196351Y-106784683D01*
X252201228Y-106771054D01*
X252207417Y-106757969D01*
X252214858Y-106745553D01*
X252223481Y-106733927D01*
X252233202Y-106723202D01*
X252243927Y-106713481D01*
X252255553Y-106704858D01*
X252267969Y-106697417D01*
X252281054Y-106691228D01*
X252294683Y-106686351D01*
X252308724Y-106682834D01*
X252323042Y-106680710D01*
X252337500Y-106680000D01*
X252632500Y-106680000D01*
X252646958Y-106680710D01*
X252646958Y-106680710D01*
G37*
D11*
X252485000Y-107000000D03*
G04 #@! TD*
D10*
G04 #@! TO.C,C21*
G36*
X248186958Y-94470710D02*
X248201276Y-94472834D01*
X248215317Y-94476351D01*
X248228946Y-94481228D01*
X248242031Y-94487417D01*
X248254447Y-94494858D01*
X248266073Y-94503481D01*
X248276798Y-94513202D01*
X248286519Y-94523927D01*
X248295142Y-94535553D01*
X248302583Y-94547969D01*
X248308772Y-94561054D01*
X248313649Y-94574683D01*
X248317166Y-94588724D01*
X248319290Y-94603042D01*
X248320000Y-94617500D01*
X248320000Y-94912500D01*
X248319290Y-94926958D01*
X248317166Y-94941276D01*
X248313649Y-94955317D01*
X248308772Y-94968946D01*
X248302583Y-94982031D01*
X248295142Y-94994447D01*
X248286519Y-95006073D01*
X248276798Y-95016798D01*
X248266073Y-95026519D01*
X248254447Y-95035142D01*
X248242031Y-95042583D01*
X248228946Y-95048772D01*
X248215317Y-95053649D01*
X248201276Y-95057166D01*
X248186958Y-95059290D01*
X248172500Y-95060000D01*
X247827500Y-95060000D01*
X247813042Y-95059290D01*
X247798724Y-95057166D01*
X247784683Y-95053649D01*
X247771054Y-95048772D01*
X247757969Y-95042583D01*
X247745553Y-95035142D01*
X247733927Y-95026519D01*
X247723202Y-95016798D01*
X247713481Y-95006073D01*
X247704858Y-94994447D01*
X247697417Y-94982031D01*
X247691228Y-94968946D01*
X247686351Y-94955317D01*
X247682834Y-94941276D01*
X247680710Y-94926958D01*
X247680000Y-94912500D01*
X247680000Y-94617500D01*
X247680710Y-94603042D01*
X247682834Y-94588724D01*
X247686351Y-94574683D01*
X247691228Y-94561054D01*
X247697417Y-94547969D01*
X247704858Y-94535553D01*
X247713481Y-94523927D01*
X247723202Y-94513202D01*
X247733927Y-94503481D01*
X247745553Y-94494858D01*
X247757969Y-94487417D01*
X247771054Y-94481228D01*
X247784683Y-94476351D01*
X247798724Y-94472834D01*
X247813042Y-94470710D01*
X247827500Y-94470000D01*
X248172500Y-94470000D01*
X248186958Y-94470710D01*
X248186958Y-94470710D01*
G37*
D11*
X248000000Y-94765000D03*
D10*
G36*
X248186958Y-95440710D02*
X248201276Y-95442834D01*
X248215317Y-95446351D01*
X248228946Y-95451228D01*
X248242031Y-95457417D01*
X248254447Y-95464858D01*
X248266073Y-95473481D01*
X248276798Y-95483202D01*
X248286519Y-95493927D01*
X248295142Y-95505553D01*
X248302583Y-95517969D01*
X248308772Y-95531054D01*
X248313649Y-95544683D01*
X248317166Y-95558724D01*
X248319290Y-95573042D01*
X248320000Y-95587500D01*
X248320000Y-95882500D01*
X248319290Y-95896958D01*
X248317166Y-95911276D01*
X248313649Y-95925317D01*
X248308772Y-95938946D01*
X248302583Y-95952031D01*
X248295142Y-95964447D01*
X248286519Y-95976073D01*
X248276798Y-95986798D01*
X248266073Y-95996519D01*
X248254447Y-96005142D01*
X248242031Y-96012583D01*
X248228946Y-96018772D01*
X248215317Y-96023649D01*
X248201276Y-96027166D01*
X248186958Y-96029290D01*
X248172500Y-96030000D01*
X247827500Y-96030000D01*
X247813042Y-96029290D01*
X247798724Y-96027166D01*
X247784683Y-96023649D01*
X247771054Y-96018772D01*
X247757969Y-96012583D01*
X247745553Y-96005142D01*
X247733927Y-95996519D01*
X247723202Y-95986798D01*
X247713481Y-95976073D01*
X247704858Y-95964447D01*
X247697417Y-95952031D01*
X247691228Y-95938946D01*
X247686351Y-95925317D01*
X247682834Y-95911276D01*
X247680710Y-95896958D01*
X247680000Y-95882500D01*
X247680000Y-95587500D01*
X247680710Y-95573042D01*
X247682834Y-95558724D01*
X247686351Y-95544683D01*
X247691228Y-95531054D01*
X247697417Y-95517969D01*
X247704858Y-95505553D01*
X247713481Y-95493927D01*
X247723202Y-95483202D01*
X247733927Y-95473481D01*
X247745553Y-95464858D01*
X247757969Y-95457417D01*
X247771054Y-95451228D01*
X247784683Y-95446351D01*
X247798724Y-95442834D01*
X247813042Y-95440710D01*
X247827500Y-95440000D01*
X248172500Y-95440000D01*
X248186958Y-95440710D01*
X248186958Y-95440710D01*
G37*
D11*
X248000000Y-95735000D03*
G04 #@! TD*
D10*
G04 #@! TO.C,C22*
G36*
X249186958Y-88720710D02*
X249201276Y-88722834D01*
X249215317Y-88726351D01*
X249228946Y-88731228D01*
X249242031Y-88737417D01*
X249254447Y-88744858D01*
X249266073Y-88753481D01*
X249276798Y-88763202D01*
X249286519Y-88773927D01*
X249295142Y-88785553D01*
X249302583Y-88797969D01*
X249308772Y-88811054D01*
X249313649Y-88824683D01*
X249317166Y-88838724D01*
X249319290Y-88853042D01*
X249320000Y-88867500D01*
X249320000Y-89162500D01*
X249319290Y-89176958D01*
X249317166Y-89191276D01*
X249313649Y-89205317D01*
X249308772Y-89218946D01*
X249302583Y-89232031D01*
X249295142Y-89244447D01*
X249286519Y-89256073D01*
X249276798Y-89266798D01*
X249266073Y-89276519D01*
X249254447Y-89285142D01*
X249242031Y-89292583D01*
X249228946Y-89298772D01*
X249215317Y-89303649D01*
X249201276Y-89307166D01*
X249186958Y-89309290D01*
X249172500Y-89310000D01*
X248827500Y-89310000D01*
X248813042Y-89309290D01*
X248798724Y-89307166D01*
X248784683Y-89303649D01*
X248771054Y-89298772D01*
X248757969Y-89292583D01*
X248745553Y-89285142D01*
X248733927Y-89276519D01*
X248723202Y-89266798D01*
X248713481Y-89256073D01*
X248704858Y-89244447D01*
X248697417Y-89232031D01*
X248691228Y-89218946D01*
X248686351Y-89205317D01*
X248682834Y-89191276D01*
X248680710Y-89176958D01*
X248680000Y-89162500D01*
X248680000Y-88867500D01*
X248680710Y-88853042D01*
X248682834Y-88838724D01*
X248686351Y-88824683D01*
X248691228Y-88811054D01*
X248697417Y-88797969D01*
X248704858Y-88785553D01*
X248713481Y-88773927D01*
X248723202Y-88763202D01*
X248733927Y-88753481D01*
X248745553Y-88744858D01*
X248757969Y-88737417D01*
X248771054Y-88731228D01*
X248784683Y-88726351D01*
X248798724Y-88722834D01*
X248813042Y-88720710D01*
X248827500Y-88720000D01*
X249172500Y-88720000D01*
X249186958Y-88720710D01*
X249186958Y-88720710D01*
G37*
D11*
X249000000Y-89015000D03*
D10*
G36*
X249186958Y-89690710D02*
X249201276Y-89692834D01*
X249215317Y-89696351D01*
X249228946Y-89701228D01*
X249242031Y-89707417D01*
X249254447Y-89714858D01*
X249266073Y-89723481D01*
X249276798Y-89733202D01*
X249286519Y-89743927D01*
X249295142Y-89755553D01*
X249302583Y-89767969D01*
X249308772Y-89781054D01*
X249313649Y-89794683D01*
X249317166Y-89808724D01*
X249319290Y-89823042D01*
X249320000Y-89837500D01*
X249320000Y-90132500D01*
X249319290Y-90146958D01*
X249317166Y-90161276D01*
X249313649Y-90175317D01*
X249308772Y-90188946D01*
X249302583Y-90202031D01*
X249295142Y-90214447D01*
X249286519Y-90226073D01*
X249276798Y-90236798D01*
X249266073Y-90246519D01*
X249254447Y-90255142D01*
X249242031Y-90262583D01*
X249228946Y-90268772D01*
X249215317Y-90273649D01*
X249201276Y-90277166D01*
X249186958Y-90279290D01*
X249172500Y-90280000D01*
X248827500Y-90280000D01*
X248813042Y-90279290D01*
X248798724Y-90277166D01*
X248784683Y-90273649D01*
X248771054Y-90268772D01*
X248757969Y-90262583D01*
X248745553Y-90255142D01*
X248733927Y-90246519D01*
X248723202Y-90236798D01*
X248713481Y-90226073D01*
X248704858Y-90214447D01*
X248697417Y-90202031D01*
X248691228Y-90188946D01*
X248686351Y-90175317D01*
X248682834Y-90161276D01*
X248680710Y-90146958D01*
X248680000Y-90132500D01*
X248680000Y-89837500D01*
X248680710Y-89823042D01*
X248682834Y-89808724D01*
X248686351Y-89794683D01*
X248691228Y-89781054D01*
X248697417Y-89767969D01*
X248704858Y-89755553D01*
X248713481Y-89743927D01*
X248723202Y-89733202D01*
X248733927Y-89723481D01*
X248745553Y-89714858D01*
X248757969Y-89707417D01*
X248771054Y-89701228D01*
X248784683Y-89696351D01*
X248798724Y-89692834D01*
X248813042Y-89690710D01*
X248827500Y-89690000D01*
X249172500Y-89690000D01*
X249186958Y-89690710D01*
X249186958Y-89690710D01*
G37*
D11*
X249000000Y-89985000D03*
G04 #@! TD*
D10*
G04 #@! TO.C,C23*
G36*
X242786958Y-93420710D02*
X242801276Y-93422834D01*
X242815317Y-93426351D01*
X242828946Y-93431228D01*
X242842031Y-93437417D01*
X242854447Y-93444858D01*
X242866073Y-93453481D01*
X242876798Y-93463202D01*
X242886519Y-93473927D01*
X242895142Y-93485553D01*
X242902583Y-93497969D01*
X242908772Y-93511054D01*
X242913649Y-93524683D01*
X242917166Y-93538724D01*
X242919290Y-93553042D01*
X242920000Y-93567500D01*
X242920000Y-93862500D01*
X242919290Y-93876958D01*
X242917166Y-93891276D01*
X242913649Y-93905317D01*
X242908772Y-93918946D01*
X242902583Y-93932031D01*
X242895142Y-93944447D01*
X242886519Y-93956073D01*
X242876798Y-93966798D01*
X242866073Y-93976519D01*
X242854447Y-93985142D01*
X242842031Y-93992583D01*
X242828946Y-93998772D01*
X242815317Y-94003649D01*
X242801276Y-94007166D01*
X242786958Y-94009290D01*
X242772500Y-94010000D01*
X242427500Y-94010000D01*
X242413042Y-94009290D01*
X242398724Y-94007166D01*
X242384683Y-94003649D01*
X242371054Y-93998772D01*
X242357969Y-93992583D01*
X242345553Y-93985142D01*
X242333927Y-93976519D01*
X242323202Y-93966798D01*
X242313481Y-93956073D01*
X242304858Y-93944447D01*
X242297417Y-93932031D01*
X242291228Y-93918946D01*
X242286351Y-93905317D01*
X242282834Y-93891276D01*
X242280710Y-93876958D01*
X242280000Y-93862500D01*
X242280000Y-93567500D01*
X242280710Y-93553042D01*
X242282834Y-93538724D01*
X242286351Y-93524683D01*
X242291228Y-93511054D01*
X242297417Y-93497969D01*
X242304858Y-93485553D01*
X242313481Y-93473927D01*
X242323202Y-93463202D01*
X242333927Y-93453481D01*
X242345553Y-93444858D01*
X242357969Y-93437417D01*
X242371054Y-93431228D01*
X242384683Y-93426351D01*
X242398724Y-93422834D01*
X242413042Y-93420710D01*
X242427500Y-93420000D01*
X242772500Y-93420000D01*
X242786958Y-93420710D01*
X242786958Y-93420710D01*
G37*
D11*
X242600000Y-93715000D03*
D10*
G36*
X242786958Y-94390710D02*
X242801276Y-94392834D01*
X242815317Y-94396351D01*
X242828946Y-94401228D01*
X242842031Y-94407417D01*
X242854447Y-94414858D01*
X242866073Y-94423481D01*
X242876798Y-94433202D01*
X242886519Y-94443927D01*
X242895142Y-94455553D01*
X242902583Y-94467969D01*
X242908772Y-94481054D01*
X242913649Y-94494683D01*
X242917166Y-94508724D01*
X242919290Y-94523042D01*
X242920000Y-94537500D01*
X242920000Y-94832500D01*
X242919290Y-94846958D01*
X242917166Y-94861276D01*
X242913649Y-94875317D01*
X242908772Y-94888946D01*
X242902583Y-94902031D01*
X242895142Y-94914447D01*
X242886519Y-94926073D01*
X242876798Y-94936798D01*
X242866073Y-94946519D01*
X242854447Y-94955142D01*
X242842031Y-94962583D01*
X242828946Y-94968772D01*
X242815317Y-94973649D01*
X242801276Y-94977166D01*
X242786958Y-94979290D01*
X242772500Y-94980000D01*
X242427500Y-94980000D01*
X242413042Y-94979290D01*
X242398724Y-94977166D01*
X242384683Y-94973649D01*
X242371054Y-94968772D01*
X242357969Y-94962583D01*
X242345553Y-94955142D01*
X242333927Y-94946519D01*
X242323202Y-94936798D01*
X242313481Y-94926073D01*
X242304858Y-94914447D01*
X242297417Y-94902031D01*
X242291228Y-94888946D01*
X242286351Y-94875317D01*
X242282834Y-94861276D01*
X242280710Y-94846958D01*
X242280000Y-94832500D01*
X242280000Y-94537500D01*
X242280710Y-94523042D01*
X242282834Y-94508724D01*
X242286351Y-94494683D01*
X242291228Y-94481054D01*
X242297417Y-94467969D01*
X242304858Y-94455553D01*
X242313481Y-94443927D01*
X242323202Y-94433202D01*
X242333927Y-94423481D01*
X242345553Y-94414858D01*
X242357969Y-94407417D01*
X242371054Y-94401228D01*
X242384683Y-94396351D01*
X242398724Y-94392834D01*
X242413042Y-94390710D01*
X242427500Y-94390000D01*
X242772500Y-94390000D01*
X242786958Y-94390710D01*
X242786958Y-94390710D01*
G37*
D11*
X242600000Y-94685000D03*
G04 #@! TD*
D10*
G04 #@! TO.C,C24*
G36*
X247186958Y-88720710D02*
X247201276Y-88722834D01*
X247215317Y-88726351D01*
X247228946Y-88731228D01*
X247242031Y-88737417D01*
X247254447Y-88744858D01*
X247266073Y-88753481D01*
X247276798Y-88763202D01*
X247286519Y-88773927D01*
X247295142Y-88785553D01*
X247302583Y-88797969D01*
X247308772Y-88811054D01*
X247313649Y-88824683D01*
X247317166Y-88838724D01*
X247319290Y-88853042D01*
X247320000Y-88867500D01*
X247320000Y-89162500D01*
X247319290Y-89176958D01*
X247317166Y-89191276D01*
X247313649Y-89205317D01*
X247308772Y-89218946D01*
X247302583Y-89232031D01*
X247295142Y-89244447D01*
X247286519Y-89256073D01*
X247276798Y-89266798D01*
X247266073Y-89276519D01*
X247254447Y-89285142D01*
X247242031Y-89292583D01*
X247228946Y-89298772D01*
X247215317Y-89303649D01*
X247201276Y-89307166D01*
X247186958Y-89309290D01*
X247172500Y-89310000D01*
X246827500Y-89310000D01*
X246813042Y-89309290D01*
X246798724Y-89307166D01*
X246784683Y-89303649D01*
X246771054Y-89298772D01*
X246757969Y-89292583D01*
X246745553Y-89285142D01*
X246733927Y-89276519D01*
X246723202Y-89266798D01*
X246713481Y-89256073D01*
X246704858Y-89244447D01*
X246697417Y-89232031D01*
X246691228Y-89218946D01*
X246686351Y-89205317D01*
X246682834Y-89191276D01*
X246680710Y-89176958D01*
X246680000Y-89162500D01*
X246680000Y-88867500D01*
X246680710Y-88853042D01*
X246682834Y-88838724D01*
X246686351Y-88824683D01*
X246691228Y-88811054D01*
X246697417Y-88797969D01*
X246704858Y-88785553D01*
X246713481Y-88773927D01*
X246723202Y-88763202D01*
X246733927Y-88753481D01*
X246745553Y-88744858D01*
X246757969Y-88737417D01*
X246771054Y-88731228D01*
X246784683Y-88726351D01*
X246798724Y-88722834D01*
X246813042Y-88720710D01*
X246827500Y-88720000D01*
X247172500Y-88720000D01*
X247186958Y-88720710D01*
X247186958Y-88720710D01*
G37*
D11*
X247000000Y-89015000D03*
D10*
G36*
X247186958Y-89690710D02*
X247201276Y-89692834D01*
X247215317Y-89696351D01*
X247228946Y-89701228D01*
X247242031Y-89707417D01*
X247254447Y-89714858D01*
X247266073Y-89723481D01*
X247276798Y-89733202D01*
X247286519Y-89743927D01*
X247295142Y-89755553D01*
X247302583Y-89767969D01*
X247308772Y-89781054D01*
X247313649Y-89794683D01*
X247317166Y-89808724D01*
X247319290Y-89823042D01*
X247320000Y-89837500D01*
X247320000Y-90132500D01*
X247319290Y-90146958D01*
X247317166Y-90161276D01*
X247313649Y-90175317D01*
X247308772Y-90188946D01*
X247302583Y-90202031D01*
X247295142Y-90214447D01*
X247286519Y-90226073D01*
X247276798Y-90236798D01*
X247266073Y-90246519D01*
X247254447Y-90255142D01*
X247242031Y-90262583D01*
X247228946Y-90268772D01*
X247215317Y-90273649D01*
X247201276Y-90277166D01*
X247186958Y-90279290D01*
X247172500Y-90280000D01*
X246827500Y-90280000D01*
X246813042Y-90279290D01*
X246798724Y-90277166D01*
X246784683Y-90273649D01*
X246771054Y-90268772D01*
X246757969Y-90262583D01*
X246745553Y-90255142D01*
X246733927Y-90246519D01*
X246723202Y-90236798D01*
X246713481Y-90226073D01*
X246704858Y-90214447D01*
X246697417Y-90202031D01*
X246691228Y-90188946D01*
X246686351Y-90175317D01*
X246682834Y-90161276D01*
X246680710Y-90146958D01*
X246680000Y-90132500D01*
X246680000Y-89837500D01*
X246680710Y-89823042D01*
X246682834Y-89808724D01*
X246686351Y-89794683D01*
X246691228Y-89781054D01*
X246697417Y-89767969D01*
X246704858Y-89755553D01*
X246713481Y-89743927D01*
X246723202Y-89733202D01*
X246733927Y-89723481D01*
X246745553Y-89714858D01*
X246757969Y-89707417D01*
X246771054Y-89701228D01*
X246784683Y-89696351D01*
X246798724Y-89692834D01*
X246813042Y-89690710D01*
X246827500Y-89690000D01*
X247172500Y-89690000D01*
X247186958Y-89690710D01*
X247186958Y-89690710D01*
G37*
D11*
X247000000Y-89985000D03*
G04 #@! TD*
D10*
G04 #@! TO.C,C25*
G36*
X245186958Y-95440710D02*
X245201276Y-95442834D01*
X245215317Y-95446351D01*
X245228946Y-95451228D01*
X245242031Y-95457417D01*
X245254447Y-95464858D01*
X245266073Y-95473481D01*
X245276798Y-95483202D01*
X245286519Y-95493927D01*
X245295142Y-95505553D01*
X245302583Y-95517969D01*
X245308772Y-95531054D01*
X245313649Y-95544683D01*
X245317166Y-95558724D01*
X245319290Y-95573042D01*
X245320000Y-95587500D01*
X245320000Y-95882500D01*
X245319290Y-95896958D01*
X245317166Y-95911276D01*
X245313649Y-95925317D01*
X245308772Y-95938946D01*
X245302583Y-95952031D01*
X245295142Y-95964447D01*
X245286519Y-95976073D01*
X245276798Y-95986798D01*
X245266073Y-95996519D01*
X245254447Y-96005142D01*
X245242031Y-96012583D01*
X245228946Y-96018772D01*
X245215317Y-96023649D01*
X245201276Y-96027166D01*
X245186958Y-96029290D01*
X245172500Y-96030000D01*
X244827500Y-96030000D01*
X244813042Y-96029290D01*
X244798724Y-96027166D01*
X244784683Y-96023649D01*
X244771054Y-96018772D01*
X244757969Y-96012583D01*
X244745553Y-96005142D01*
X244733927Y-95996519D01*
X244723202Y-95986798D01*
X244713481Y-95976073D01*
X244704858Y-95964447D01*
X244697417Y-95952031D01*
X244691228Y-95938946D01*
X244686351Y-95925317D01*
X244682834Y-95911276D01*
X244680710Y-95896958D01*
X244680000Y-95882500D01*
X244680000Y-95587500D01*
X244680710Y-95573042D01*
X244682834Y-95558724D01*
X244686351Y-95544683D01*
X244691228Y-95531054D01*
X244697417Y-95517969D01*
X244704858Y-95505553D01*
X244713481Y-95493927D01*
X244723202Y-95483202D01*
X244733927Y-95473481D01*
X244745553Y-95464858D01*
X244757969Y-95457417D01*
X244771054Y-95451228D01*
X244784683Y-95446351D01*
X244798724Y-95442834D01*
X244813042Y-95440710D01*
X244827500Y-95440000D01*
X245172500Y-95440000D01*
X245186958Y-95440710D01*
X245186958Y-95440710D01*
G37*
D11*
X245000000Y-95735000D03*
D10*
G36*
X245186958Y-94470710D02*
X245201276Y-94472834D01*
X245215317Y-94476351D01*
X245228946Y-94481228D01*
X245242031Y-94487417D01*
X245254447Y-94494858D01*
X245266073Y-94503481D01*
X245276798Y-94513202D01*
X245286519Y-94523927D01*
X245295142Y-94535553D01*
X245302583Y-94547969D01*
X245308772Y-94561054D01*
X245313649Y-94574683D01*
X245317166Y-94588724D01*
X245319290Y-94603042D01*
X245320000Y-94617500D01*
X245320000Y-94912500D01*
X245319290Y-94926958D01*
X245317166Y-94941276D01*
X245313649Y-94955317D01*
X245308772Y-94968946D01*
X245302583Y-94982031D01*
X245295142Y-94994447D01*
X245286519Y-95006073D01*
X245276798Y-95016798D01*
X245266073Y-95026519D01*
X245254447Y-95035142D01*
X245242031Y-95042583D01*
X245228946Y-95048772D01*
X245215317Y-95053649D01*
X245201276Y-95057166D01*
X245186958Y-95059290D01*
X245172500Y-95060000D01*
X244827500Y-95060000D01*
X244813042Y-95059290D01*
X244798724Y-95057166D01*
X244784683Y-95053649D01*
X244771054Y-95048772D01*
X244757969Y-95042583D01*
X244745553Y-95035142D01*
X244733927Y-95026519D01*
X244723202Y-95016798D01*
X244713481Y-95006073D01*
X244704858Y-94994447D01*
X244697417Y-94982031D01*
X244691228Y-94968946D01*
X244686351Y-94955317D01*
X244682834Y-94941276D01*
X244680710Y-94926958D01*
X244680000Y-94912500D01*
X244680000Y-94617500D01*
X244680710Y-94603042D01*
X244682834Y-94588724D01*
X244686351Y-94574683D01*
X244691228Y-94561054D01*
X244697417Y-94547969D01*
X244704858Y-94535553D01*
X244713481Y-94523927D01*
X244723202Y-94513202D01*
X244733927Y-94503481D01*
X244745553Y-94494858D01*
X244757969Y-94487417D01*
X244771054Y-94481228D01*
X244784683Y-94476351D01*
X244798724Y-94472834D01*
X244813042Y-94470710D01*
X244827500Y-94470000D01*
X245172500Y-94470000D01*
X245186958Y-94470710D01*
X245186958Y-94470710D01*
G37*
D11*
X245000000Y-94765000D03*
G04 #@! TD*
D10*
G04 #@! TO.C,C26*
G36*
X247186958Y-94470710D02*
X247201276Y-94472834D01*
X247215317Y-94476351D01*
X247228946Y-94481228D01*
X247242031Y-94487417D01*
X247254447Y-94494858D01*
X247266073Y-94503481D01*
X247276798Y-94513202D01*
X247286519Y-94523927D01*
X247295142Y-94535553D01*
X247302583Y-94547969D01*
X247308772Y-94561054D01*
X247313649Y-94574683D01*
X247317166Y-94588724D01*
X247319290Y-94603042D01*
X247320000Y-94617500D01*
X247320000Y-94912500D01*
X247319290Y-94926958D01*
X247317166Y-94941276D01*
X247313649Y-94955317D01*
X247308772Y-94968946D01*
X247302583Y-94982031D01*
X247295142Y-94994447D01*
X247286519Y-95006073D01*
X247276798Y-95016798D01*
X247266073Y-95026519D01*
X247254447Y-95035142D01*
X247242031Y-95042583D01*
X247228946Y-95048772D01*
X247215317Y-95053649D01*
X247201276Y-95057166D01*
X247186958Y-95059290D01*
X247172500Y-95060000D01*
X246827500Y-95060000D01*
X246813042Y-95059290D01*
X246798724Y-95057166D01*
X246784683Y-95053649D01*
X246771054Y-95048772D01*
X246757969Y-95042583D01*
X246745553Y-95035142D01*
X246733927Y-95026519D01*
X246723202Y-95016798D01*
X246713481Y-95006073D01*
X246704858Y-94994447D01*
X246697417Y-94982031D01*
X246691228Y-94968946D01*
X246686351Y-94955317D01*
X246682834Y-94941276D01*
X246680710Y-94926958D01*
X246680000Y-94912500D01*
X246680000Y-94617500D01*
X246680710Y-94603042D01*
X246682834Y-94588724D01*
X246686351Y-94574683D01*
X246691228Y-94561054D01*
X246697417Y-94547969D01*
X246704858Y-94535553D01*
X246713481Y-94523927D01*
X246723202Y-94513202D01*
X246733927Y-94503481D01*
X246745553Y-94494858D01*
X246757969Y-94487417D01*
X246771054Y-94481228D01*
X246784683Y-94476351D01*
X246798724Y-94472834D01*
X246813042Y-94470710D01*
X246827500Y-94470000D01*
X247172500Y-94470000D01*
X247186958Y-94470710D01*
X247186958Y-94470710D01*
G37*
D11*
X247000000Y-94765000D03*
D10*
G36*
X247186958Y-95440710D02*
X247201276Y-95442834D01*
X247215317Y-95446351D01*
X247228946Y-95451228D01*
X247242031Y-95457417D01*
X247254447Y-95464858D01*
X247266073Y-95473481D01*
X247276798Y-95483202D01*
X247286519Y-95493927D01*
X247295142Y-95505553D01*
X247302583Y-95517969D01*
X247308772Y-95531054D01*
X247313649Y-95544683D01*
X247317166Y-95558724D01*
X247319290Y-95573042D01*
X247320000Y-95587500D01*
X247320000Y-95882500D01*
X247319290Y-95896958D01*
X247317166Y-95911276D01*
X247313649Y-95925317D01*
X247308772Y-95938946D01*
X247302583Y-95952031D01*
X247295142Y-95964447D01*
X247286519Y-95976073D01*
X247276798Y-95986798D01*
X247266073Y-95996519D01*
X247254447Y-96005142D01*
X247242031Y-96012583D01*
X247228946Y-96018772D01*
X247215317Y-96023649D01*
X247201276Y-96027166D01*
X247186958Y-96029290D01*
X247172500Y-96030000D01*
X246827500Y-96030000D01*
X246813042Y-96029290D01*
X246798724Y-96027166D01*
X246784683Y-96023649D01*
X246771054Y-96018772D01*
X246757969Y-96012583D01*
X246745553Y-96005142D01*
X246733927Y-95996519D01*
X246723202Y-95986798D01*
X246713481Y-95976073D01*
X246704858Y-95964447D01*
X246697417Y-95952031D01*
X246691228Y-95938946D01*
X246686351Y-95925317D01*
X246682834Y-95911276D01*
X246680710Y-95896958D01*
X246680000Y-95882500D01*
X246680000Y-95587500D01*
X246680710Y-95573042D01*
X246682834Y-95558724D01*
X246686351Y-95544683D01*
X246691228Y-95531054D01*
X246697417Y-95517969D01*
X246704858Y-95505553D01*
X246713481Y-95493927D01*
X246723202Y-95483202D01*
X246733927Y-95473481D01*
X246745553Y-95464858D01*
X246757969Y-95457417D01*
X246771054Y-95451228D01*
X246784683Y-95446351D01*
X246798724Y-95442834D01*
X246813042Y-95440710D01*
X246827500Y-95440000D01*
X247172500Y-95440000D01*
X247186958Y-95440710D01*
X247186958Y-95440710D01*
G37*
D11*
X247000000Y-95735000D03*
G04 #@! TD*
D10*
G04 #@! TO.C,C28*
G36*
X253186958Y-93720710D02*
X253201276Y-93722834D01*
X253215317Y-93726351D01*
X253228946Y-93731228D01*
X253242031Y-93737417D01*
X253254447Y-93744858D01*
X253266073Y-93753481D01*
X253276798Y-93763202D01*
X253286519Y-93773927D01*
X253295142Y-93785553D01*
X253302583Y-93797969D01*
X253308772Y-93811054D01*
X253313649Y-93824683D01*
X253317166Y-93838724D01*
X253319290Y-93853042D01*
X253320000Y-93867500D01*
X253320000Y-94162500D01*
X253319290Y-94176958D01*
X253317166Y-94191276D01*
X253313649Y-94205317D01*
X253308772Y-94218946D01*
X253302583Y-94232031D01*
X253295142Y-94244447D01*
X253286519Y-94256073D01*
X253276798Y-94266798D01*
X253266073Y-94276519D01*
X253254447Y-94285142D01*
X253242031Y-94292583D01*
X253228946Y-94298772D01*
X253215317Y-94303649D01*
X253201276Y-94307166D01*
X253186958Y-94309290D01*
X253172500Y-94310000D01*
X252827500Y-94310000D01*
X252813042Y-94309290D01*
X252798724Y-94307166D01*
X252784683Y-94303649D01*
X252771054Y-94298772D01*
X252757969Y-94292583D01*
X252745553Y-94285142D01*
X252733927Y-94276519D01*
X252723202Y-94266798D01*
X252713481Y-94256073D01*
X252704858Y-94244447D01*
X252697417Y-94232031D01*
X252691228Y-94218946D01*
X252686351Y-94205317D01*
X252682834Y-94191276D01*
X252680710Y-94176958D01*
X252680000Y-94162500D01*
X252680000Y-93867500D01*
X252680710Y-93853042D01*
X252682834Y-93838724D01*
X252686351Y-93824683D01*
X252691228Y-93811054D01*
X252697417Y-93797969D01*
X252704858Y-93785553D01*
X252713481Y-93773927D01*
X252723202Y-93763202D01*
X252733927Y-93753481D01*
X252745553Y-93744858D01*
X252757969Y-93737417D01*
X252771054Y-93731228D01*
X252784683Y-93726351D01*
X252798724Y-93722834D01*
X252813042Y-93720710D01*
X252827500Y-93720000D01*
X253172500Y-93720000D01*
X253186958Y-93720710D01*
X253186958Y-93720710D01*
G37*
D11*
X253000000Y-94015000D03*
D10*
G36*
X253186958Y-94690710D02*
X253201276Y-94692834D01*
X253215317Y-94696351D01*
X253228946Y-94701228D01*
X253242031Y-94707417D01*
X253254447Y-94714858D01*
X253266073Y-94723481D01*
X253276798Y-94733202D01*
X253286519Y-94743927D01*
X253295142Y-94755553D01*
X253302583Y-94767969D01*
X253308772Y-94781054D01*
X253313649Y-94794683D01*
X253317166Y-94808724D01*
X253319290Y-94823042D01*
X253320000Y-94837500D01*
X253320000Y-95132500D01*
X253319290Y-95146958D01*
X253317166Y-95161276D01*
X253313649Y-95175317D01*
X253308772Y-95188946D01*
X253302583Y-95202031D01*
X253295142Y-95214447D01*
X253286519Y-95226073D01*
X253276798Y-95236798D01*
X253266073Y-95246519D01*
X253254447Y-95255142D01*
X253242031Y-95262583D01*
X253228946Y-95268772D01*
X253215317Y-95273649D01*
X253201276Y-95277166D01*
X253186958Y-95279290D01*
X253172500Y-95280000D01*
X252827500Y-95280000D01*
X252813042Y-95279290D01*
X252798724Y-95277166D01*
X252784683Y-95273649D01*
X252771054Y-95268772D01*
X252757969Y-95262583D01*
X252745553Y-95255142D01*
X252733927Y-95246519D01*
X252723202Y-95236798D01*
X252713481Y-95226073D01*
X252704858Y-95214447D01*
X252697417Y-95202031D01*
X252691228Y-95188946D01*
X252686351Y-95175317D01*
X252682834Y-95161276D01*
X252680710Y-95146958D01*
X252680000Y-95132500D01*
X252680000Y-94837500D01*
X252680710Y-94823042D01*
X252682834Y-94808724D01*
X252686351Y-94794683D01*
X252691228Y-94781054D01*
X252697417Y-94767969D01*
X252704858Y-94755553D01*
X252713481Y-94743927D01*
X252723202Y-94733202D01*
X252733927Y-94723481D01*
X252745553Y-94714858D01*
X252757969Y-94707417D01*
X252771054Y-94701228D01*
X252784683Y-94696351D01*
X252798724Y-94692834D01*
X252813042Y-94690710D01*
X252827500Y-94690000D01*
X253172500Y-94690000D01*
X253186958Y-94690710D01*
X253186958Y-94690710D01*
G37*
D11*
X253000000Y-94985000D03*
G04 #@! TD*
D10*
G04 #@! TO.C,C29*
G36*
X255176958Y-92680710D02*
X255191276Y-92682834D01*
X255205317Y-92686351D01*
X255218946Y-92691228D01*
X255232031Y-92697417D01*
X255244447Y-92704858D01*
X255256073Y-92713481D01*
X255266798Y-92723202D01*
X255276519Y-92733927D01*
X255285142Y-92745553D01*
X255292583Y-92757969D01*
X255298772Y-92771054D01*
X255303649Y-92784683D01*
X255307166Y-92798724D01*
X255309290Y-92813042D01*
X255310000Y-92827500D01*
X255310000Y-93172500D01*
X255309290Y-93186958D01*
X255307166Y-93201276D01*
X255303649Y-93215317D01*
X255298772Y-93228946D01*
X255292583Y-93242031D01*
X255285142Y-93254447D01*
X255276519Y-93266073D01*
X255266798Y-93276798D01*
X255256073Y-93286519D01*
X255244447Y-93295142D01*
X255232031Y-93302583D01*
X255218946Y-93308772D01*
X255205317Y-93313649D01*
X255191276Y-93317166D01*
X255176958Y-93319290D01*
X255162500Y-93320000D01*
X254867500Y-93320000D01*
X254853042Y-93319290D01*
X254838724Y-93317166D01*
X254824683Y-93313649D01*
X254811054Y-93308772D01*
X254797969Y-93302583D01*
X254785553Y-93295142D01*
X254773927Y-93286519D01*
X254763202Y-93276798D01*
X254753481Y-93266073D01*
X254744858Y-93254447D01*
X254737417Y-93242031D01*
X254731228Y-93228946D01*
X254726351Y-93215317D01*
X254722834Y-93201276D01*
X254720710Y-93186958D01*
X254720000Y-93172500D01*
X254720000Y-92827500D01*
X254720710Y-92813042D01*
X254722834Y-92798724D01*
X254726351Y-92784683D01*
X254731228Y-92771054D01*
X254737417Y-92757969D01*
X254744858Y-92745553D01*
X254753481Y-92733927D01*
X254763202Y-92723202D01*
X254773927Y-92713481D01*
X254785553Y-92704858D01*
X254797969Y-92697417D01*
X254811054Y-92691228D01*
X254824683Y-92686351D01*
X254838724Y-92682834D01*
X254853042Y-92680710D01*
X254867500Y-92680000D01*
X255162500Y-92680000D01*
X255176958Y-92680710D01*
X255176958Y-92680710D01*
G37*
D11*
X255015000Y-93000000D03*
D10*
G36*
X256146958Y-92680710D02*
X256161276Y-92682834D01*
X256175317Y-92686351D01*
X256188946Y-92691228D01*
X256202031Y-92697417D01*
X256214447Y-92704858D01*
X256226073Y-92713481D01*
X256236798Y-92723202D01*
X256246519Y-92733927D01*
X256255142Y-92745553D01*
X256262583Y-92757969D01*
X256268772Y-92771054D01*
X256273649Y-92784683D01*
X256277166Y-92798724D01*
X256279290Y-92813042D01*
X256280000Y-92827500D01*
X256280000Y-93172500D01*
X256279290Y-93186958D01*
X256277166Y-93201276D01*
X256273649Y-93215317D01*
X256268772Y-93228946D01*
X256262583Y-93242031D01*
X256255142Y-93254447D01*
X256246519Y-93266073D01*
X256236798Y-93276798D01*
X256226073Y-93286519D01*
X256214447Y-93295142D01*
X256202031Y-93302583D01*
X256188946Y-93308772D01*
X256175317Y-93313649D01*
X256161276Y-93317166D01*
X256146958Y-93319290D01*
X256132500Y-93320000D01*
X255837500Y-93320000D01*
X255823042Y-93319290D01*
X255808724Y-93317166D01*
X255794683Y-93313649D01*
X255781054Y-93308772D01*
X255767969Y-93302583D01*
X255755553Y-93295142D01*
X255743927Y-93286519D01*
X255733202Y-93276798D01*
X255723481Y-93266073D01*
X255714858Y-93254447D01*
X255707417Y-93242031D01*
X255701228Y-93228946D01*
X255696351Y-93215317D01*
X255692834Y-93201276D01*
X255690710Y-93186958D01*
X255690000Y-93172500D01*
X255690000Y-92827500D01*
X255690710Y-92813042D01*
X255692834Y-92798724D01*
X255696351Y-92784683D01*
X255701228Y-92771054D01*
X255707417Y-92757969D01*
X255714858Y-92745553D01*
X255723481Y-92733927D01*
X255733202Y-92723202D01*
X255743927Y-92713481D01*
X255755553Y-92704858D01*
X255767969Y-92697417D01*
X255781054Y-92691228D01*
X255794683Y-92686351D01*
X255808724Y-92682834D01*
X255823042Y-92680710D01*
X255837500Y-92680000D01*
X256132500Y-92680000D01*
X256146958Y-92680710D01*
X256146958Y-92680710D01*
G37*
D11*
X255985000Y-93000000D03*
G04 #@! TD*
D10*
G04 #@! TO.C,C30*
G36*
X256176958Y-95680710D02*
X256191276Y-95682834D01*
X256205317Y-95686351D01*
X256218946Y-95691228D01*
X256232031Y-95697417D01*
X256244447Y-95704858D01*
X256256073Y-95713481D01*
X256266798Y-95723202D01*
X256276519Y-95733927D01*
X256285142Y-95745553D01*
X256292583Y-95757969D01*
X256298772Y-95771054D01*
X256303649Y-95784683D01*
X256307166Y-95798724D01*
X256309290Y-95813042D01*
X256310000Y-95827500D01*
X256310000Y-96172500D01*
X256309290Y-96186958D01*
X256307166Y-96201276D01*
X256303649Y-96215317D01*
X256298772Y-96228946D01*
X256292583Y-96242031D01*
X256285142Y-96254447D01*
X256276519Y-96266073D01*
X256266798Y-96276798D01*
X256256073Y-96286519D01*
X256244447Y-96295142D01*
X256232031Y-96302583D01*
X256218946Y-96308772D01*
X256205317Y-96313649D01*
X256191276Y-96317166D01*
X256176958Y-96319290D01*
X256162500Y-96320000D01*
X255867500Y-96320000D01*
X255853042Y-96319290D01*
X255838724Y-96317166D01*
X255824683Y-96313649D01*
X255811054Y-96308772D01*
X255797969Y-96302583D01*
X255785553Y-96295142D01*
X255773927Y-96286519D01*
X255763202Y-96276798D01*
X255753481Y-96266073D01*
X255744858Y-96254447D01*
X255737417Y-96242031D01*
X255731228Y-96228946D01*
X255726351Y-96215317D01*
X255722834Y-96201276D01*
X255720710Y-96186958D01*
X255720000Y-96172500D01*
X255720000Y-95827500D01*
X255720710Y-95813042D01*
X255722834Y-95798724D01*
X255726351Y-95784683D01*
X255731228Y-95771054D01*
X255737417Y-95757969D01*
X255744858Y-95745553D01*
X255753481Y-95733927D01*
X255763202Y-95723202D01*
X255773927Y-95713481D01*
X255785553Y-95704858D01*
X255797969Y-95697417D01*
X255811054Y-95691228D01*
X255824683Y-95686351D01*
X255838724Y-95682834D01*
X255853042Y-95680710D01*
X255867500Y-95680000D01*
X256162500Y-95680000D01*
X256176958Y-95680710D01*
X256176958Y-95680710D01*
G37*
D11*
X256015000Y-96000000D03*
D10*
G36*
X257146958Y-95680710D02*
X257161276Y-95682834D01*
X257175317Y-95686351D01*
X257188946Y-95691228D01*
X257202031Y-95697417D01*
X257214447Y-95704858D01*
X257226073Y-95713481D01*
X257236798Y-95723202D01*
X257246519Y-95733927D01*
X257255142Y-95745553D01*
X257262583Y-95757969D01*
X257268772Y-95771054D01*
X257273649Y-95784683D01*
X257277166Y-95798724D01*
X257279290Y-95813042D01*
X257280000Y-95827500D01*
X257280000Y-96172500D01*
X257279290Y-96186958D01*
X257277166Y-96201276D01*
X257273649Y-96215317D01*
X257268772Y-96228946D01*
X257262583Y-96242031D01*
X257255142Y-96254447D01*
X257246519Y-96266073D01*
X257236798Y-96276798D01*
X257226073Y-96286519D01*
X257214447Y-96295142D01*
X257202031Y-96302583D01*
X257188946Y-96308772D01*
X257175317Y-96313649D01*
X257161276Y-96317166D01*
X257146958Y-96319290D01*
X257132500Y-96320000D01*
X256837500Y-96320000D01*
X256823042Y-96319290D01*
X256808724Y-96317166D01*
X256794683Y-96313649D01*
X256781054Y-96308772D01*
X256767969Y-96302583D01*
X256755553Y-96295142D01*
X256743927Y-96286519D01*
X256733202Y-96276798D01*
X256723481Y-96266073D01*
X256714858Y-96254447D01*
X256707417Y-96242031D01*
X256701228Y-96228946D01*
X256696351Y-96215317D01*
X256692834Y-96201276D01*
X256690710Y-96186958D01*
X256690000Y-96172500D01*
X256690000Y-95827500D01*
X256690710Y-95813042D01*
X256692834Y-95798724D01*
X256696351Y-95784683D01*
X256701228Y-95771054D01*
X256707417Y-95757969D01*
X256714858Y-95745553D01*
X256723481Y-95733927D01*
X256733202Y-95723202D01*
X256743927Y-95713481D01*
X256755553Y-95704858D01*
X256767969Y-95697417D01*
X256781054Y-95691228D01*
X256794683Y-95686351D01*
X256808724Y-95682834D01*
X256823042Y-95680710D01*
X256837500Y-95680000D01*
X257132500Y-95680000D01*
X257146958Y-95680710D01*
X257146958Y-95680710D01*
G37*
D11*
X256985000Y-96000000D03*
G04 #@! TD*
D10*
G04 #@! TO.C,R13*
G36*
X253146958Y-88680710D02*
X253161276Y-88682834D01*
X253175317Y-88686351D01*
X253188946Y-88691228D01*
X253202031Y-88697417D01*
X253214447Y-88704858D01*
X253226073Y-88713481D01*
X253236798Y-88723202D01*
X253246519Y-88733927D01*
X253255142Y-88745553D01*
X253262583Y-88757969D01*
X253268772Y-88771054D01*
X253273649Y-88784683D01*
X253277166Y-88798724D01*
X253279290Y-88813042D01*
X253280000Y-88827500D01*
X253280000Y-89172500D01*
X253279290Y-89186958D01*
X253277166Y-89201276D01*
X253273649Y-89215317D01*
X253268772Y-89228946D01*
X253262583Y-89242031D01*
X253255142Y-89254447D01*
X253246519Y-89266073D01*
X253236798Y-89276798D01*
X253226073Y-89286519D01*
X253214447Y-89295142D01*
X253202031Y-89302583D01*
X253188946Y-89308772D01*
X253175317Y-89313649D01*
X253161276Y-89317166D01*
X253146958Y-89319290D01*
X253132500Y-89320000D01*
X252837500Y-89320000D01*
X252823042Y-89319290D01*
X252808724Y-89317166D01*
X252794683Y-89313649D01*
X252781054Y-89308772D01*
X252767969Y-89302583D01*
X252755553Y-89295142D01*
X252743927Y-89286519D01*
X252733202Y-89276798D01*
X252723481Y-89266073D01*
X252714858Y-89254447D01*
X252707417Y-89242031D01*
X252701228Y-89228946D01*
X252696351Y-89215317D01*
X252692834Y-89201276D01*
X252690710Y-89186958D01*
X252690000Y-89172500D01*
X252690000Y-88827500D01*
X252690710Y-88813042D01*
X252692834Y-88798724D01*
X252696351Y-88784683D01*
X252701228Y-88771054D01*
X252707417Y-88757969D01*
X252714858Y-88745553D01*
X252723481Y-88733927D01*
X252733202Y-88723202D01*
X252743927Y-88713481D01*
X252755553Y-88704858D01*
X252767969Y-88697417D01*
X252781054Y-88691228D01*
X252794683Y-88686351D01*
X252808724Y-88682834D01*
X252823042Y-88680710D01*
X252837500Y-88680000D01*
X253132500Y-88680000D01*
X253146958Y-88680710D01*
X253146958Y-88680710D01*
G37*
D11*
X252985000Y-89000000D03*
D10*
G36*
X252176958Y-88680710D02*
X252191276Y-88682834D01*
X252205317Y-88686351D01*
X252218946Y-88691228D01*
X252232031Y-88697417D01*
X252244447Y-88704858D01*
X252256073Y-88713481D01*
X252266798Y-88723202D01*
X252276519Y-88733927D01*
X252285142Y-88745553D01*
X252292583Y-88757969D01*
X252298772Y-88771054D01*
X252303649Y-88784683D01*
X252307166Y-88798724D01*
X252309290Y-88813042D01*
X252310000Y-88827500D01*
X252310000Y-89172500D01*
X252309290Y-89186958D01*
X252307166Y-89201276D01*
X252303649Y-89215317D01*
X252298772Y-89228946D01*
X252292583Y-89242031D01*
X252285142Y-89254447D01*
X252276519Y-89266073D01*
X252266798Y-89276798D01*
X252256073Y-89286519D01*
X252244447Y-89295142D01*
X252232031Y-89302583D01*
X252218946Y-89308772D01*
X252205317Y-89313649D01*
X252191276Y-89317166D01*
X252176958Y-89319290D01*
X252162500Y-89320000D01*
X251867500Y-89320000D01*
X251853042Y-89319290D01*
X251838724Y-89317166D01*
X251824683Y-89313649D01*
X251811054Y-89308772D01*
X251797969Y-89302583D01*
X251785553Y-89295142D01*
X251773927Y-89286519D01*
X251763202Y-89276798D01*
X251753481Y-89266073D01*
X251744858Y-89254447D01*
X251737417Y-89242031D01*
X251731228Y-89228946D01*
X251726351Y-89215317D01*
X251722834Y-89201276D01*
X251720710Y-89186958D01*
X251720000Y-89172500D01*
X251720000Y-88827500D01*
X251720710Y-88813042D01*
X251722834Y-88798724D01*
X251726351Y-88784683D01*
X251731228Y-88771054D01*
X251737417Y-88757969D01*
X251744858Y-88745553D01*
X251753481Y-88733927D01*
X251763202Y-88723202D01*
X251773927Y-88713481D01*
X251785553Y-88704858D01*
X251797969Y-88697417D01*
X251811054Y-88691228D01*
X251824683Y-88686351D01*
X251838724Y-88682834D01*
X251853042Y-88680710D01*
X251867500Y-88680000D01*
X252162500Y-88680000D01*
X252176958Y-88680710D01*
X252176958Y-88680710D01*
G37*
D11*
X252015000Y-89000000D03*
G04 #@! TD*
D10*
G04 #@! TO.C,R14*
G36*
X252176958Y-86680710D02*
X252191276Y-86682834D01*
X252205317Y-86686351D01*
X252218946Y-86691228D01*
X252232031Y-86697417D01*
X252244447Y-86704858D01*
X252256073Y-86713481D01*
X252266798Y-86723202D01*
X252276519Y-86733927D01*
X252285142Y-86745553D01*
X252292583Y-86757969D01*
X252298772Y-86771054D01*
X252303649Y-86784683D01*
X252307166Y-86798724D01*
X252309290Y-86813042D01*
X252310000Y-86827500D01*
X252310000Y-87172500D01*
X252309290Y-87186958D01*
X252307166Y-87201276D01*
X252303649Y-87215317D01*
X252298772Y-87228946D01*
X252292583Y-87242031D01*
X252285142Y-87254447D01*
X252276519Y-87266073D01*
X252266798Y-87276798D01*
X252256073Y-87286519D01*
X252244447Y-87295142D01*
X252232031Y-87302583D01*
X252218946Y-87308772D01*
X252205317Y-87313649D01*
X252191276Y-87317166D01*
X252176958Y-87319290D01*
X252162500Y-87320000D01*
X251867500Y-87320000D01*
X251853042Y-87319290D01*
X251838724Y-87317166D01*
X251824683Y-87313649D01*
X251811054Y-87308772D01*
X251797969Y-87302583D01*
X251785553Y-87295142D01*
X251773927Y-87286519D01*
X251763202Y-87276798D01*
X251753481Y-87266073D01*
X251744858Y-87254447D01*
X251737417Y-87242031D01*
X251731228Y-87228946D01*
X251726351Y-87215317D01*
X251722834Y-87201276D01*
X251720710Y-87186958D01*
X251720000Y-87172500D01*
X251720000Y-86827500D01*
X251720710Y-86813042D01*
X251722834Y-86798724D01*
X251726351Y-86784683D01*
X251731228Y-86771054D01*
X251737417Y-86757969D01*
X251744858Y-86745553D01*
X251753481Y-86733927D01*
X251763202Y-86723202D01*
X251773927Y-86713481D01*
X251785553Y-86704858D01*
X251797969Y-86697417D01*
X251811054Y-86691228D01*
X251824683Y-86686351D01*
X251838724Y-86682834D01*
X251853042Y-86680710D01*
X251867500Y-86680000D01*
X252162500Y-86680000D01*
X252176958Y-86680710D01*
X252176958Y-86680710D01*
G37*
D11*
X252015000Y-87000000D03*
D10*
G36*
X253146958Y-86680710D02*
X253161276Y-86682834D01*
X253175317Y-86686351D01*
X253188946Y-86691228D01*
X253202031Y-86697417D01*
X253214447Y-86704858D01*
X253226073Y-86713481D01*
X253236798Y-86723202D01*
X253246519Y-86733927D01*
X253255142Y-86745553D01*
X253262583Y-86757969D01*
X253268772Y-86771054D01*
X253273649Y-86784683D01*
X253277166Y-86798724D01*
X253279290Y-86813042D01*
X253280000Y-86827500D01*
X253280000Y-87172500D01*
X253279290Y-87186958D01*
X253277166Y-87201276D01*
X253273649Y-87215317D01*
X253268772Y-87228946D01*
X253262583Y-87242031D01*
X253255142Y-87254447D01*
X253246519Y-87266073D01*
X253236798Y-87276798D01*
X253226073Y-87286519D01*
X253214447Y-87295142D01*
X253202031Y-87302583D01*
X253188946Y-87308772D01*
X253175317Y-87313649D01*
X253161276Y-87317166D01*
X253146958Y-87319290D01*
X253132500Y-87320000D01*
X252837500Y-87320000D01*
X252823042Y-87319290D01*
X252808724Y-87317166D01*
X252794683Y-87313649D01*
X252781054Y-87308772D01*
X252767969Y-87302583D01*
X252755553Y-87295142D01*
X252743927Y-87286519D01*
X252733202Y-87276798D01*
X252723481Y-87266073D01*
X252714858Y-87254447D01*
X252707417Y-87242031D01*
X252701228Y-87228946D01*
X252696351Y-87215317D01*
X252692834Y-87201276D01*
X252690710Y-87186958D01*
X252690000Y-87172500D01*
X252690000Y-86827500D01*
X252690710Y-86813042D01*
X252692834Y-86798724D01*
X252696351Y-86784683D01*
X252701228Y-86771054D01*
X252707417Y-86757969D01*
X252714858Y-86745553D01*
X252723481Y-86733927D01*
X252733202Y-86723202D01*
X252743927Y-86713481D01*
X252755553Y-86704858D01*
X252767969Y-86697417D01*
X252781054Y-86691228D01*
X252794683Y-86686351D01*
X252808724Y-86682834D01*
X252823042Y-86680710D01*
X252837500Y-86680000D01*
X253132500Y-86680000D01*
X253146958Y-86680710D01*
X253146958Y-86680710D01*
G37*
D11*
X252985000Y-87000000D03*
G04 #@! TD*
D10*
G04 #@! TO.C,R19*
G36*
X253146958Y-85680710D02*
X253161276Y-85682834D01*
X253175317Y-85686351D01*
X253188946Y-85691228D01*
X253202031Y-85697417D01*
X253214447Y-85704858D01*
X253226073Y-85713481D01*
X253236798Y-85723202D01*
X253246519Y-85733927D01*
X253255142Y-85745553D01*
X253262583Y-85757969D01*
X253268772Y-85771054D01*
X253273649Y-85784683D01*
X253277166Y-85798724D01*
X253279290Y-85813042D01*
X253280000Y-85827500D01*
X253280000Y-86172500D01*
X253279290Y-86186958D01*
X253277166Y-86201276D01*
X253273649Y-86215317D01*
X253268772Y-86228946D01*
X253262583Y-86242031D01*
X253255142Y-86254447D01*
X253246519Y-86266073D01*
X253236798Y-86276798D01*
X253226073Y-86286519D01*
X253214447Y-86295142D01*
X253202031Y-86302583D01*
X253188946Y-86308772D01*
X253175317Y-86313649D01*
X253161276Y-86317166D01*
X253146958Y-86319290D01*
X253132500Y-86320000D01*
X252837500Y-86320000D01*
X252823042Y-86319290D01*
X252808724Y-86317166D01*
X252794683Y-86313649D01*
X252781054Y-86308772D01*
X252767969Y-86302583D01*
X252755553Y-86295142D01*
X252743927Y-86286519D01*
X252733202Y-86276798D01*
X252723481Y-86266073D01*
X252714858Y-86254447D01*
X252707417Y-86242031D01*
X252701228Y-86228946D01*
X252696351Y-86215317D01*
X252692834Y-86201276D01*
X252690710Y-86186958D01*
X252690000Y-86172500D01*
X252690000Y-85827500D01*
X252690710Y-85813042D01*
X252692834Y-85798724D01*
X252696351Y-85784683D01*
X252701228Y-85771054D01*
X252707417Y-85757969D01*
X252714858Y-85745553D01*
X252723481Y-85733927D01*
X252733202Y-85723202D01*
X252743927Y-85713481D01*
X252755553Y-85704858D01*
X252767969Y-85697417D01*
X252781054Y-85691228D01*
X252794683Y-85686351D01*
X252808724Y-85682834D01*
X252823042Y-85680710D01*
X252837500Y-85680000D01*
X253132500Y-85680000D01*
X253146958Y-85680710D01*
X253146958Y-85680710D01*
G37*
D11*
X252985000Y-86000000D03*
D10*
G36*
X252176958Y-85680710D02*
X252191276Y-85682834D01*
X252205317Y-85686351D01*
X252218946Y-85691228D01*
X252232031Y-85697417D01*
X252244447Y-85704858D01*
X252256073Y-85713481D01*
X252266798Y-85723202D01*
X252276519Y-85733927D01*
X252285142Y-85745553D01*
X252292583Y-85757969D01*
X252298772Y-85771054D01*
X252303649Y-85784683D01*
X252307166Y-85798724D01*
X252309290Y-85813042D01*
X252310000Y-85827500D01*
X252310000Y-86172500D01*
X252309290Y-86186958D01*
X252307166Y-86201276D01*
X252303649Y-86215317D01*
X252298772Y-86228946D01*
X252292583Y-86242031D01*
X252285142Y-86254447D01*
X252276519Y-86266073D01*
X252266798Y-86276798D01*
X252256073Y-86286519D01*
X252244447Y-86295142D01*
X252232031Y-86302583D01*
X252218946Y-86308772D01*
X252205317Y-86313649D01*
X252191276Y-86317166D01*
X252176958Y-86319290D01*
X252162500Y-86320000D01*
X251867500Y-86320000D01*
X251853042Y-86319290D01*
X251838724Y-86317166D01*
X251824683Y-86313649D01*
X251811054Y-86308772D01*
X251797969Y-86302583D01*
X251785553Y-86295142D01*
X251773927Y-86286519D01*
X251763202Y-86276798D01*
X251753481Y-86266073D01*
X251744858Y-86254447D01*
X251737417Y-86242031D01*
X251731228Y-86228946D01*
X251726351Y-86215317D01*
X251722834Y-86201276D01*
X251720710Y-86186958D01*
X251720000Y-86172500D01*
X251720000Y-85827500D01*
X251720710Y-85813042D01*
X251722834Y-85798724D01*
X251726351Y-85784683D01*
X251731228Y-85771054D01*
X251737417Y-85757969D01*
X251744858Y-85745553D01*
X251753481Y-85733927D01*
X251763202Y-85723202D01*
X251773927Y-85713481D01*
X251785553Y-85704858D01*
X251797969Y-85697417D01*
X251811054Y-85691228D01*
X251824683Y-85686351D01*
X251838724Y-85682834D01*
X251853042Y-85680710D01*
X251867500Y-85680000D01*
X252162500Y-85680000D01*
X252176958Y-85680710D01*
X252176958Y-85680710D01*
G37*
D11*
X252015000Y-86000000D03*
G04 #@! TD*
D10*
G04 #@! TO.C,R24*
G36*
X252176958Y-87680710D02*
X252191276Y-87682834D01*
X252205317Y-87686351D01*
X252218946Y-87691228D01*
X252232031Y-87697417D01*
X252244447Y-87704858D01*
X252256073Y-87713481D01*
X252266798Y-87723202D01*
X252276519Y-87733927D01*
X252285142Y-87745553D01*
X252292583Y-87757969D01*
X252298772Y-87771054D01*
X252303649Y-87784683D01*
X252307166Y-87798724D01*
X252309290Y-87813042D01*
X252310000Y-87827500D01*
X252310000Y-88172500D01*
X252309290Y-88186958D01*
X252307166Y-88201276D01*
X252303649Y-88215317D01*
X252298772Y-88228946D01*
X252292583Y-88242031D01*
X252285142Y-88254447D01*
X252276519Y-88266073D01*
X252266798Y-88276798D01*
X252256073Y-88286519D01*
X252244447Y-88295142D01*
X252232031Y-88302583D01*
X252218946Y-88308772D01*
X252205317Y-88313649D01*
X252191276Y-88317166D01*
X252176958Y-88319290D01*
X252162500Y-88320000D01*
X251867500Y-88320000D01*
X251853042Y-88319290D01*
X251838724Y-88317166D01*
X251824683Y-88313649D01*
X251811054Y-88308772D01*
X251797969Y-88302583D01*
X251785553Y-88295142D01*
X251773927Y-88286519D01*
X251763202Y-88276798D01*
X251753481Y-88266073D01*
X251744858Y-88254447D01*
X251737417Y-88242031D01*
X251731228Y-88228946D01*
X251726351Y-88215317D01*
X251722834Y-88201276D01*
X251720710Y-88186958D01*
X251720000Y-88172500D01*
X251720000Y-87827500D01*
X251720710Y-87813042D01*
X251722834Y-87798724D01*
X251726351Y-87784683D01*
X251731228Y-87771054D01*
X251737417Y-87757969D01*
X251744858Y-87745553D01*
X251753481Y-87733927D01*
X251763202Y-87723202D01*
X251773927Y-87713481D01*
X251785553Y-87704858D01*
X251797969Y-87697417D01*
X251811054Y-87691228D01*
X251824683Y-87686351D01*
X251838724Y-87682834D01*
X251853042Y-87680710D01*
X251867500Y-87680000D01*
X252162500Y-87680000D01*
X252176958Y-87680710D01*
X252176958Y-87680710D01*
G37*
D11*
X252015000Y-88000000D03*
D10*
G36*
X253146958Y-87680710D02*
X253161276Y-87682834D01*
X253175317Y-87686351D01*
X253188946Y-87691228D01*
X253202031Y-87697417D01*
X253214447Y-87704858D01*
X253226073Y-87713481D01*
X253236798Y-87723202D01*
X253246519Y-87733927D01*
X253255142Y-87745553D01*
X253262583Y-87757969D01*
X253268772Y-87771054D01*
X253273649Y-87784683D01*
X253277166Y-87798724D01*
X253279290Y-87813042D01*
X253280000Y-87827500D01*
X253280000Y-88172500D01*
X253279290Y-88186958D01*
X253277166Y-88201276D01*
X253273649Y-88215317D01*
X253268772Y-88228946D01*
X253262583Y-88242031D01*
X253255142Y-88254447D01*
X253246519Y-88266073D01*
X253236798Y-88276798D01*
X253226073Y-88286519D01*
X253214447Y-88295142D01*
X253202031Y-88302583D01*
X253188946Y-88308772D01*
X253175317Y-88313649D01*
X253161276Y-88317166D01*
X253146958Y-88319290D01*
X253132500Y-88320000D01*
X252837500Y-88320000D01*
X252823042Y-88319290D01*
X252808724Y-88317166D01*
X252794683Y-88313649D01*
X252781054Y-88308772D01*
X252767969Y-88302583D01*
X252755553Y-88295142D01*
X252743927Y-88286519D01*
X252733202Y-88276798D01*
X252723481Y-88266073D01*
X252714858Y-88254447D01*
X252707417Y-88242031D01*
X252701228Y-88228946D01*
X252696351Y-88215317D01*
X252692834Y-88201276D01*
X252690710Y-88186958D01*
X252690000Y-88172500D01*
X252690000Y-87827500D01*
X252690710Y-87813042D01*
X252692834Y-87798724D01*
X252696351Y-87784683D01*
X252701228Y-87771054D01*
X252707417Y-87757969D01*
X252714858Y-87745553D01*
X252723481Y-87733927D01*
X252733202Y-87723202D01*
X252743927Y-87713481D01*
X252755553Y-87704858D01*
X252767969Y-87697417D01*
X252781054Y-87691228D01*
X252794683Y-87686351D01*
X252808724Y-87682834D01*
X252823042Y-87680710D01*
X252837500Y-87680000D01*
X253132500Y-87680000D01*
X253146958Y-87680710D01*
X253146958Y-87680710D01*
G37*
D11*
X252985000Y-88000000D03*
G04 #@! TD*
D10*
G04 #@! TO.C,R25*
G36*
X246186958Y-94470710D02*
X246201276Y-94472834D01*
X246215317Y-94476351D01*
X246228946Y-94481228D01*
X246242031Y-94487417D01*
X246254447Y-94494858D01*
X246266073Y-94503481D01*
X246276798Y-94513202D01*
X246286519Y-94523927D01*
X246295142Y-94535553D01*
X246302583Y-94547969D01*
X246308772Y-94561054D01*
X246313649Y-94574683D01*
X246317166Y-94588724D01*
X246319290Y-94603042D01*
X246320000Y-94617500D01*
X246320000Y-94912500D01*
X246319290Y-94926958D01*
X246317166Y-94941276D01*
X246313649Y-94955317D01*
X246308772Y-94968946D01*
X246302583Y-94982031D01*
X246295142Y-94994447D01*
X246286519Y-95006073D01*
X246276798Y-95016798D01*
X246266073Y-95026519D01*
X246254447Y-95035142D01*
X246242031Y-95042583D01*
X246228946Y-95048772D01*
X246215317Y-95053649D01*
X246201276Y-95057166D01*
X246186958Y-95059290D01*
X246172500Y-95060000D01*
X245827500Y-95060000D01*
X245813042Y-95059290D01*
X245798724Y-95057166D01*
X245784683Y-95053649D01*
X245771054Y-95048772D01*
X245757969Y-95042583D01*
X245745553Y-95035142D01*
X245733927Y-95026519D01*
X245723202Y-95016798D01*
X245713481Y-95006073D01*
X245704858Y-94994447D01*
X245697417Y-94982031D01*
X245691228Y-94968946D01*
X245686351Y-94955317D01*
X245682834Y-94941276D01*
X245680710Y-94926958D01*
X245680000Y-94912500D01*
X245680000Y-94617500D01*
X245680710Y-94603042D01*
X245682834Y-94588724D01*
X245686351Y-94574683D01*
X245691228Y-94561054D01*
X245697417Y-94547969D01*
X245704858Y-94535553D01*
X245713481Y-94523927D01*
X245723202Y-94513202D01*
X245733927Y-94503481D01*
X245745553Y-94494858D01*
X245757969Y-94487417D01*
X245771054Y-94481228D01*
X245784683Y-94476351D01*
X245798724Y-94472834D01*
X245813042Y-94470710D01*
X245827500Y-94470000D01*
X246172500Y-94470000D01*
X246186958Y-94470710D01*
X246186958Y-94470710D01*
G37*
D11*
X246000000Y-94765000D03*
D10*
G36*
X246186958Y-95440710D02*
X246201276Y-95442834D01*
X246215317Y-95446351D01*
X246228946Y-95451228D01*
X246242031Y-95457417D01*
X246254447Y-95464858D01*
X246266073Y-95473481D01*
X246276798Y-95483202D01*
X246286519Y-95493927D01*
X246295142Y-95505553D01*
X246302583Y-95517969D01*
X246308772Y-95531054D01*
X246313649Y-95544683D01*
X246317166Y-95558724D01*
X246319290Y-95573042D01*
X246320000Y-95587500D01*
X246320000Y-95882500D01*
X246319290Y-95896958D01*
X246317166Y-95911276D01*
X246313649Y-95925317D01*
X246308772Y-95938946D01*
X246302583Y-95952031D01*
X246295142Y-95964447D01*
X246286519Y-95976073D01*
X246276798Y-95986798D01*
X246266073Y-95996519D01*
X246254447Y-96005142D01*
X246242031Y-96012583D01*
X246228946Y-96018772D01*
X246215317Y-96023649D01*
X246201276Y-96027166D01*
X246186958Y-96029290D01*
X246172500Y-96030000D01*
X245827500Y-96030000D01*
X245813042Y-96029290D01*
X245798724Y-96027166D01*
X245784683Y-96023649D01*
X245771054Y-96018772D01*
X245757969Y-96012583D01*
X245745553Y-96005142D01*
X245733927Y-95996519D01*
X245723202Y-95986798D01*
X245713481Y-95976073D01*
X245704858Y-95964447D01*
X245697417Y-95952031D01*
X245691228Y-95938946D01*
X245686351Y-95925317D01*
X245682834Y-95911276D01*
X245680710Y-95896958D01*
X245680000Y-95882500D01*
X245680000Y-95587500D01*
X245680710Y-95573042D01*
X245682834Y-95558724D01*
X245686351Y-95544683D01*
X245691228Y-95531054D01*
X245697417Y-95517969D01*
X245704858Y-95505553D01*
X245713481Y-95493927D01*
X245723202Y-95483202D01*
X245733927Y-95473481D01*
X245745553Y-95464858D01*
X245757969Y-95457417D01*
X245771054Y-95451228D01*
X245784683Y-95446351D01*
X245798724Y-95442834D01*
X245813042Y-95440710D01*
X245827500Y-95440000D01*
X246172500Y-95440000D01*
X246186958Y-95440710D01*
X246186958Y-95440710D01*
G37*
D11*
X246000000Y-95735000D03*
G04 #@! TD*
D10*
G04 #@! TO.C,R26*
G36*
X255186958Y-90890710D02*
X255201276Y-90892834D01*
X255215317Y-90896351D01*
X255228946Y-90901228D01*
X255242031Y-90907417D01*
X255254447Y-90914858D01*
X255266073Y-90923481D01*
X255276798Y-90933202D01*
X255286519Y-90943927D01*
X255295142Y-90955553D01*
X255302583Y-90967969D01*
X255308772Y-90981054D01*
X255313649Y-90994683D01*
X255317166Y-91008724D01*
X255319290Y-91023042D01*
X255320000Y-91037500D01*
X255320000Y-91332500D01*
X255319290Y-91346958D01*
X255317166Y-91361276D01*
X255313649Y-91375317D01*
X255308772Y-91388946D01*
X255302583Y-91402031D01*
X255295142Y-91414447D01*
X255286519Y-91426073D01*
X255276798Y-91436798D01*
X255266073Y-91446519D01*
X255254447Y-91455142D01*
X255242031Y-91462583D01*
X255228946Y-91468772D01*
X255215317Y-91473649D01*
X255201276Y-91477166D01*
X255186958Y-91479290D01*
X255172500Y-91480000D01*
X254827500Y-91480000D01*
X254813042Y-91479290D01*
X254798724Y-91477166D01*
X254784683Y-91473649D01*
X254771054Y-91468772D01*
X254757969Y-91462583D01*
X254745553Y-91455142D01*
X254733927Y-91446519D01*
X254723202Y-91436798D01*
X254713481Y-91426073D01*
X254704858Y-91414447D01*
X254697417Y-91402031D01*
X254691228Y-91388946D01*
X254686351Y-91375317D01*
X254682834Y-91361276D01*
X254680710Y-91346958D01*
X254680000Y-91332500D01*
X254680000Y-91037500D01*
X254680710Y-91023042D01*
X254682834Y-91008724D01*
X254686351Y-90994683D01*
X254691228Y-90981054D01*
X254697417Y-90967969D01*
X254704858Y-90955553D01*
X254713481Y-90943927D01*
X254723202Y-90933202D01*
X254733927Y-90923481D01*
X254745553Y-90914858D01*
X254757969Y-90907417D01*
X254771054Y-90901228D01*
X254784683Y-90896351D01*
X254798724Y-90892834D01*
X254813042Y-90890710D01*
X254827500Y-90890000D01*
X255172500Y-90890000D01*
X255186958Y-90890710D01*
X255186958Y-90890710D01*
G37*
D11*
X255000000Y-91185000D03*
D10*
G36*
X255186958Y-89920710D02*
X255201276Y-89922834D01*
X255215317Y-89926351D01*
X255228946Y-89931228D01*
X255242031Y-89937417D01*
X255254447Y-89944858D01*
X255266073Y-89953481D01*
X255276798Y-89963202D01*
X255286519Y-89973927D01*
X255295142Y-89985553D01*
X255302583Y-89997969D01*
X255308772Y-90011054D01*
X255313649Y-90024683D01*
X255317166Y-90038724D01*
X255319290Y-90053042D01*
X255320000Y-90067500D01*
X255320000Y-90362500D01*
X255319290Y-90376958D01*
X255317166Y-90391276D01*
X255313649Y-90405317D01*
X255308772Y-90418946D01*
X255302583Y-90432031D01*
X255295142Y-90444447D01*
X255286519Y-90456073D01*
X255276798Y-90466798D01*
X255266073Y-90476519D01*
X255254447Y-90485142D01*
X255242031Y-90492583D01*
X255228946Y-90498772D01*
X255215317Y-90503649D01*
X255201276Y-90507166D01*
X255186958Y-90509290D01*
X255172500Y-90510000D01*
X254827500Y-90510000D01*
X254813042Y-90509290D01*
X254798724Y-90507166D01*
X254784683Y-90503649D01*
X254771054Y-90498772D01*
X254757969Y-90492583D01*
X254745553Y-90485142D01*
X254733927Y-90476519D01*
X254723202Y-90466798D01*
X254713481Y-90456073D01*
X254704858Y-90444447D01*
X254697417Y-90432031D01*
X254691228Y-90418946D01*
X254686351Y-90405317D01*
X254682834Y-90391276D01*
X254680710Y-90376958D01*
X254680000Y-90362500D01*
X254680000Y-90067500D01*
X254680710Y-90053042D01*
X254682834Y-90038724D01*
X254686351Y-90024683D01*
X254691228Y-90011054D01*
X254697417Y-89997969D01*
X254704858Y-89985553D01*
X254713481Y-89973927D01*
X254723202Y-89963202D01*
X254733927Y-89953481D01*
X254745553Y-89944858D01*
X254757969Y-89937417D01*
X254771054Y-89931228D01*
X254784683Y-89926351D01*
X254798724Y-89922834D01*
X254813042Y-89920710D01*
X254827500Y-89920000D01*
X255172500Y-89920000D01*
X255186958Y-89920710D01*
X255186958Y-89920710D01*
G37*
D11*
X255000000Y-90215000D03*
G04 #@! TD*
D10*
G04 #@! TO.C,C31*
G36*
X224186958Y-94190710D02*
X224201276Y-94192834D01*
X224215317Y-94196351D01*
X224228946Y-94201228D01*
X224242031Y-94207417D01*
X224254447Y-94214858D01*
X224266073Y-94223481D01*
X224276798Y-94233202D01*
X224286519Y-94243927D01*
X224295142Y-94255553D01*
X224302583Y-94267969D01*
X224308772Y-94281054D01*
X224313649Y-94294683D01*
X224317166Y-94308724D01*
X224319290Y-94323042D01*
X224320000Y-94337500D01*
X224320000Y-94632500D01*
X224319290Y-94646958D01*
X224317166Y-94661276D01*
X224313649Y-94675317D01*
X224308772Y-94688946D01*
X224302583Y-94702031D01*
X224295142Y-94714447D01*
X224286519Y-94726073D01*
X224276798Y-94736798D01*
X224266073Y-94746519D01*
X224254447Y-94755142D01*
X224242031Y-94762583D01*
X224228946Y-94768772D01*
X224215317Y-94773649D01*
X224201276Y-94777166D01*
X224186958Y-94779290D01*
X224172500Y-94780000D01*
X223827500Y-94780000D01*
X223813042Y-94779290D01*
X223798724Y-94777166D01*
X223784683Y-94773649D01*
X223771054Y-94768772D01*
X223757969Y-94762583D01*
X223745553Y-94755142D01*
X223733927Y-94746519D01*
X223723202Y-94736798D01*
X223713481Y-94726073D01*
X223704858Y-94714447D01*
X223697417Y-94702031D01*
X223691228Y-94688946D01*
X223686351Y-94675317D01*
X223682834Y-94661276D01*
X223680710Y-94646958D01*
X223680000Y-94632500D01*
X223680000Y-94337500D01*
X223680710Y-94323042D01*
X223682834Y-94308724D01*
X223686351Y-94294683D01*
X223691228Y-94281054D01*
X223697417Y-94267969D01*
X223704858Y-94255553D01*
X223713481Y-94243927D01*
X223723202Y-94233202D01*
X223733927Y-94223481D01*
X223745553Y-94214858D01*
X223757969Y-94207417D01*
X223771054Y-94201228D01*
X223784683Y-94196351D01*
X223798724Y-94192834D01*
X223813042Y-94190710D01*
X223827500Y-94190000D01*
X224172500Y-94190000D01*
X224186958Y-94190710D01*
X224186958Y-94190710D01*
G37*
D11*
X224000000Y-94485000D03*
D10*
G36*
X224186958Y-93220710D02*
X224201276Y-93222834D01*
X224215317Y-93226351D01*
X224228946Y-93231228D01*
X224242031Y-93237417D01*
X224254447Y-93244858D01*
X224266073Y-93253481D01*
X224276798Y-93263202D01*
X224286519Y-93273927D01*
X224295142Y-93285553D01*
X224302583Y-93297969D01*
X224308772Y-93311054D01*
X224313649Y-93324683D01*
X224317166Y-93338724D01*
X224319290Y-93353042D01*
X224320000Y-93367500D01*
X224320000Y-93662500D01*
X224319290Y-93676958D01*
X224317166Y-93691276D01*
X224313649Y-93705317D01*
X224308772Y-93718946D01*
X224302583Y-93732031D01*
X224295142Y-93744447D01*
X224286519Y-93756073D01*
X224276798Y-93766798D01*
X224266073Y-93776519D01*
X224254447Y-93785142D01*
X224242031Y-93792583D01*
X224228946Y-93798772D01*
X224215317Y-93803649D01*
X224201276Y-93807166D01*
X224186958Y-93809290D01*
X224172500Y-93810000D01*
X223827500Y-93810000D01*
X223813042Y-93809290D01*
X223798724Y-93807166D01*
X223784683Y-93803649D01*
X223771054Y-93798772D01*
X223757969Y-93792583D01*
X223745553Y-93785142D01*
X223733927Y-93776519D01*
X223723202Y-93766798D01*
X223713481Y-93756073D01*
X223704858Y-93744447D01*
X223697417Y-93732031D01*
X223691228Y-93718946D01*
X223686351Y-93705317D01*
X223682834Y-93691276D01*
X223680710Y-93676958D01*
X223680000Y-93662500D01*
X223680000Y-93367500D01*
X223680710Y-93353042D01*
X223682834Y-93338724D01*
X223686351Y-93324683D01*
X223691228Y-93311054D01*
X223697417Y-93297969D01*
X223704858Y-93285553D01*
X223713481Y-93273927D01*
X223723202Y-93263202D01*
X223733927Y-93253481D01*
X223745553Y-93244858D01*
X223757969Y-93237417D01*
X223771054Y-93231228D01*
X223784683Y-93226351D01*
X223798724Y-93222834D01*
X223813042Y-93220710D01*
X223827500Y-93220000D01*
X224172500Y-93220000D01*
X224186958Y-93220710D01*
X224186958Y-93220710D01*
G37*
D11*
X224000000Y-93515000D03*
G04 #@! TD*
D10*
G04 #@! TO.C,C27*
G36*
X244077691Y-95951053D02*
X244098926Y-95954203D01*
X244119750Y-95959419D01*
X244139962Y-95966651D01*
X244159368Y-95975830D01*
X244177781Y-95986866D01*
X244195024Y-95999654D01*
X244210930Y-96014070D01*
X244225346Y-96029976D01*
X244238134Y-96047219D01*
X244249170Y-96065632D01*
X244258349Y-96085038D01*
X244265581Y-96105250D01*
X244270797Y-96126074D01*
X244273947Y-96147309D01*
X244275000Y-96168750D01*
X244275000Y-96606250D01*
X244273947Y-96627691D01*
X244270797Y-96648926D01*
X244265581Y-96669750D01*
X244258349Y-96689962D01*
X244249170Y-96709368D01*
X244238134Y-96727781D01*
X244225346Y-96745024D01*
X244210930Y-96760930D01*
X244195024Y-96775346D01*
X244177781Y-96788134D01*
X244159368Y-96799170D01*
X244139962Y-96808349D01*
X244119750Y-96815581D01*
X244098926Y-96820797D01*
X244077691Y-96823947D01*
X244056250Y-96825000D01*
X243543750Y-96825000D01*
X243522309Y-96823947D01*
X243501074Y-96820797D01*
X243480250Y-96815581D01*
X243460038Y-96808349D01*
X243440632Y-96799170D01*
X243422219Y-96788134D01*
X243404976Y-96775346D01*
X243389070Y-96760930D01*
X243374654Y-96745024D01*
X243361866Y-96727781D01*
X243350830Y-96709368D01*
X243341651Y-96689962D01*
X243334419Y-96669750D01*
X243329203Y-96648926D01*
X243326053Y-96627691D01*
X243325000Y-96606250D01*
X243325000Y-96168750D01*
X243326053Y-96147309D01*
X243329203Y-96126074D01*
X243334419Y-96105250D01*
X243341651Y-96085038D01*
X243350830Y-96065632D01*
X243361866Y-96047219D01*
X243374654Y-96029976D01*
X243389070Y-96014070D01*
X243404976Y-95999654D01*
X243422219Y-95986866D01*
X243440632Y-95975830D01*
X243460038Y-95966651D01*
X243480250Y-95959419D01*
X243501074Y-95954203D01*
X243522309Y-95951053D01*
X243543750Y-95950000D01*
X244056250Y-95950000D01*
X244077691Y-95951053D01*
X244077691Y-95951053D01*
G37*
D12*
X243800000Y-96387500D03*
D10*
G36*
X244077691Y-94376053D02*
X244098926Y-94379203D01*
X244119750Y-94384419D01*
X244139962Y-94391651D01*
X244159368Y-94400830D01*
X244177781Y-94411866D01*
X244195024Y-94424654D01*
X244210930Y-94439070D01*
X244225346Y-94454976D01*
X244238134Y-94472219D01*
X244249170Y-94490632D01*
X244258349Y-94510038D01*
X244265581Y-94530250D01*
X244270797Y-94551074D01*
X244273947Y-94572309D01*
X244275000Y-94593750D01*
X244275000Y-95031250D01*
X244273947Y-95052691D01*
X244270797Y-95073926D01*
X244265581Y-95094750D01*
X244258349Y-95114962D01*
X244249170Y-95134368D01*
X244238134Y-95152781D01*
X244225346Y-95170024D01*
X244210930Y-95185930D01*
X244195024Y-95200346D01*
X244177781Y-95213134D01*
X244159368Y-95224170D01*
X244139962Y-95233349D01*
X244119750Y-95240581D01*
X244098926Y-95245797D01*
X244077691Y-95248947D01*
X244056250Y-95250000D01*
X243543750Y-95250000D01*
X243522309Y-95248947D01*
X243501074Y-95245797D01*
X243480250Y-95240581D01*
X243460038Y-95233349D01*
X243440632Y-95224170D01*
X243422219Y-95213134D01*
X243404976Y-95200346D01*
X243389070Y-95185930D01*
X243374654Y-95170024D01*
X243361866Y-95152781D01*
X243350830Y-95134368D01*
X243341651Y-95114962D01*
X243334419Y-95094750D01*
X243329203Y-95073926D01*
X243326053Y-95052691D01*
X243325000Y-95031250D01*
X243325000Y-94593750D01*
X243326053Y-94572309D01*
X243329203Y-94551074D01*
X243334419Y-94530250D01*
X243341651Y-94510038D01*
X243350830Y-94490632D01*
X243361866Y-94472219D01*
X243374654Y-94454976D01*
X243389070Y-94439070D01*
X243404976Y-94424654D01*
X243422219Y-94411866D01*
X243440632Y-94400830D01*
X243460038Y-94391651D01*
X243480250Y-94384419D01*
X243501074Y-94379203D01*
X243522309Y-94376053D01*
X243543750Y-94375000D01*
X244056250Y-94375000D01*
X244077691Y-94376053D01*
X244077691Y-94376053D01*
G37*
D12*
X243800000Y-94812500D03*
G04 #@! TD*
M02*
