G04 #@! TF.GenerationSoftware,KiCad,Pcbnew,5.0.2-bee76a0~70~ubuntu18.04.1*
G04 #@! TF.CreationDate,2020-11-03T11:03:39+00:00*
G04 #@! TF.ProjectId,picostation,7069636f-7374-4617-9469-6f6e2e6b6963,rev?*
G04 #@! TF.SameCoordinates,Original*
G04 #@! TF.FileFunction,Soldermask,Bot*
G04 #@! TF.FilePolarity,Negative*
%FSLAX46Y46*%
G04 Gerber Fmt 4.6, Leading zero omitted, Abs format (unit mm)*
G04 Created by KiCad (PCBNEW 5.0.2-bee76a0~70~ubuntu18.04.1) date Tue 03 Nov 2020 11:03:39 GMT*
%MOMM*%
%LPD*%
G01*
G04 APERTURE LIST*
%ADD10C,0.100000*%
G04 APERTURE END LIST*
D10*
G36*
X263068795Y-120624937D02*
X263423670Y-120771932D01*
X263743053Y-120985337D01*
X264014663Y-121256947D01*
X264228068Y-121576330D01*
X264375063Y-121931205D01*
X264450000Y-122307942D01*
X264450000Y-122692058D01*
X264375063Y-123068795D01*
X264228068Y-123423670D01*
X264014663Y-123743053D01*
X263743053Y-124014663D01*
X263423670Y-124228068D01*
X263068795Y-124375063D01*
X262692058Y-124450000D01*
X262307942Y-124450000D01*
X261931205Y-124375063D01*
X261576330Y-124228068D01*
X261256947Y-124014663D01*
X260985337Y-123743053D01*
X260771932Y-123423670D01*
X260624937Y-123068795D01*
X260550000Y-122692058D01*
X260550000Y-122307942D01*
X260624937Y-121931205D01*
X260771932Y-121576330D01*
X260985337Y-121256947D01*
X261256947Y-120985337D01*
X261576330Y-120771932D01*
X261931205Y-120624937D01*
X262307942Y-120550000D01*
X262692058Y-120550000D01*
X263068795Y-120624937D01*
X263068795Y-120624937D01*
G37*
G36*
X168068795Y-120624937D02*
X168423670Y-120771932D01*
X168743053Y-120985337D01*
X169014663Y-121256947D01*
X169228068Y-121576330D01*
X169375063Y-121931205D01*
X169450000Y-122307942D01*
X169450000Y-122692058D01*
X169375063Y-123068795D01*
X169228068Y-123423670D01*
X169014663Y-123743053D01*
X168743053Y-124014663D01*
X168423670Y-124228068D01*
X168068795Y-124375063D01*
X167692058Y-124450000D01*
X167307942Y-124450000D01*
X166931205Y-124375063D01*
X166576330Y-124228068D01*
X166256947Y-124014663D01*
X165985337Y-123743053D01*
X165771932Y-123423670D01*
X165624937Y-123068795D01*
X165550000Y-122692058D01*
X165550000Y-122307942D01*
X165624937Y-121931205D01*
X165771932Y-121576330D01*
X165985337Y-121256947D01*
X166256947Y-120985337D01*
X166576330Y-120771932D01*
X166931205Y-120624937D01*
X167307942Y-120550000D01*
X167692058Y-120550000D01*
X168068795Y-120624937D01*
X168068795Y-120624937D01*
G37*
G36*
X233753617Y-108724979D02*
X233879197Y-108749958D01*
X234115779Y-108847954D01*
X234115781Y-108847955D01*
X234328702Y-108990224D01*
X234509776Y-109171298D01*
X234652045Y-109384219D01*
X234750042Y-109620804D01*
X234800000Y-109871961D01*
X234800000Y-110128039D01*
X234750042Y-110379196D01*
X234652045Y-110615781D01*
X234509776Y-110828702D01*
X234328702Y-111009776D01*
X234115781Y-111152045D01*
X234115780Y-111152046D01*
X234115779Y-111152046D01*
X233879197Y-111250042D01*
X233753617Y-111275021D01*
X233628039Y-111300000D01*
X233371961Y-111300000D01*
X233246383Y-111275021D01*
X233120803Y-111250042D01*
X232884221Y-111152046D01*
X232884220Y-111152046D01*
X232884219Y-111152045D01*
X232671298Y-111009776D01*
X232490224Y-110828702D01*
X232347955Y-110615781D01*
X232249958Y-110379196D01*
X232200000Y-110128039D01*
X232200000Y-109871961D01*
X232249958Y-109620804D01*
X232347955Y-109384219D01*
X232490224Y-109171298D01*
X232671298Y-108990224D01*
X232884219Y-108847955D01*
X232884221Y-108847954D01*
X233120803Y-108749958D01*
X233246383Y-108724979D01*
X233371961Y-108700000D01*
X233628039Y-108700000D01*
X233753617Y-108724979D01*
X233753617Y-108724979D01*
G37*
G36*
X178253617Y-108724979D02*
X178379197Y-108749958D01*
X178615779Y-108847954D01*
X178615781Y-108847955D01*
X178828702Y-108990224D01*
X179009776Y-109171298D01*
X179152045Y-109384219D01*
X179250042Y-109620804D01*
X179300000Y-109871961D01*
X179300000Y-110128039D01*
X179250042Y-110379196D01*
X179152045Y-110615781D01*
X179009776Y-110828702D01*
X178828702Y-111009776D01*
X178615781Y-111152045D01*
X178615780Y-111152046D01*
X178615779Y-111152046D01*
X178379197Y-111250042D01*
X178253617Y-111275021D01*
X178128039Y-111300000D01*
X177871961Y-111300000D01*
X177746383Y-111275021D01*
X177620803Y-111250042D01*
X177384221Y-111152046D01*
X177384220Y-111152046D01*
X177384219Y-111152045D01*
X177171298Y-111009776D01*
X176990224Y-110828702D01*
X176847955Y-110615781D01*
X176749958Y-110379196D01*
X176700000Y-110128039D01*
X176700000Y-109871961D01*
X176749958Y-109620804D01*
X176847955Y-109384219D01*
X176990224Y-109171298D01*
X177171298Y-108990224D01*
X177384219Y-108847955D01*
X177384221Y-108847954D01*
X177620803Y-108749958D01*
X177746383Y-108724979D01*
X177871961Y-108700000D01*
X178128039Y-108700000D01*
X178253617Y-108724979D01*
X178253617Y-108724979D01*
G37*
G36*
X182253617Y-108724979D02*
X182379197Y-108749958D01*
X182615779Y-108847954D01*
X182615781Y-108847955D01*
X182828702Y-108990224D01*
X183009776Y-109171298D01*
X183152045Y-109384219D01*
X183250042Y-109620804D01*
X183300000Y-109871961D01*
X183300000Y-110128039D01*
X183250042Y-110379196D01*
X183152045Y-110615781D01*
X183009776Y-110828702D01*
X182828702Y-111009776D01*
X182615781Y-111152045D01*
X182615780Y-111152046D01*
X182615779Y-111152046D01*
X182379197Y-111250042D01*
X182253617Y-111275021D01*
X182128039Y-111300000D01*
X181871961Y-111300000D01*
X181746383Y-111275021D01*
X181620803Y-111250042D01*
X181384221Y-111152046D01*
X181384220Y-111152046D01*
X181384219Y-111152045D01*
X181171298Y-111009776D01*
X180990224Y-110828702D01*
X180847955Y-110615781D01*
X180749958Y-110379196D01*
X180700000Y-110128039D01*
X180700000Y-109871961D01*
X180749958Y-109620804D01*
X180847955Y-109384219D01*
X180990224Y-109171298D01*
X181171298Y-108990224D01*
X181384219Y-108847955D01*
X181384221Y-108847954D01*
X181620803Y-108749958D01*
X181746383Y-108724979D01*
X181871961Y-108700000D01*
X182128039Y-108700000D01*
X182253617Y-108724979D01*
X182253617Y-108724979D01*
G37*
G36*
X186253617Y-108724979D02*
X186379197Y-108749958D01*
X186615779Y-108847954D01*
X186615781Y-108847955D01*
X186828702Y-108990224D01*
X187009776Y-109171298D01*
X187152045Y-109384219D01*
X187250042Y-109620804D01*
X187300000Y-109871961D01*
X187300000Y-110128039D01*
X187250042Y-110379196D01*
X187152045Y-110615781D01*
X187009776Y-110828702D01*
X186828702Y-111009776D01*
X186615781Y-111152045D01*
X186615780Y-111152046D01*
X186615779Y-111152046D01*
X186379197Y-111250042D01*
X186253617Y-111275021D01*
X186128039Y-111300000D01*
X185871961Y-111300000D01*
X185746383Y-111275021D01*
X185620803Y-111250042D01*
X185384221Y-111152046D01*
X185384220Y-111152046D01*
X185384219Y-111152045D01*
X185171298Y-111009776D01*
X184990224Y-110828702D01*
X184847955Y-110615781D01*
X184749958Y-110379196D01*
X184700000Y-110128039D01*
X184700000Y-109871961D01*
X184749958Y-109620804D01*
X184847955Y-109384219D01*
X184990224Y-109171298D01*
X185171298Y-108990224D01*
X185384219Y-108847955D01*
X185384221Y-108847954D01*
X185620803Y-108749958D01*
X185746383Y-108724979D01*
X185871961Y-108700000D01*
X186128039Y-108700000D01*
X186253617Y-108724979D01*
X186253617Y-108724979D01*
G37*
G36*
X190253617Y-108724979D02*
X190379197Y-108749958D01*
X190615779Y-108847954D01*
X190615781Y-108847955D01*
X190828702Y-108990224D01*
X191009776Y-109171298D01*
X191152045Y-109384219D01*
X191250042Y-109620804D01*
X191300000Y-109871961D01*
X191300000Y-110128039D01*
X191250042Y-110379196D01*
X191152045Y-110615781D01*
X191009776Y-110828702D01*
X190828702Y-111009776D01*
X190615781Y-111152045D01*
X190615780Y-111152046D01*
X190615779Y-111152046D01*
X190379197Y-111250042D01*
X190253617Y-111275021D01*
X190128039Y-111300000D01*
X189871961Y-111300000D01*
X189746383Y-111275021D01*
X189620803Y-111250042D01*
X189384221Y-111152046D01*
X189384220Y-111152046D01*
X189384219Y-111152045D01*
X189171298Y-111009776D01*
X188990224Y-110828702D01*
X188847955Y-110615781D01*
X188749958Y-110379196D01*
X188700000Y-110128039D01*
X188700000Y-109871961D01*
X188749958Y-109620804D01*
X188847955Y-109384219D01*
X188990224Y-109171298D01*
X189171298Y-108990224D01*
X189384219Y-108847955D01*
X189384221Y-108847954D01*
X189620803Y-108749958D01*
X189746383Y-108724979D01*
X189871961Y-108700000D01*
X190128039Y-108700000D01*
X190253617Y-108724979D01*
X190253617Y-108724979D01*
G37*
G36*
X200753617Y-108724979D02*
X200879197Y-108749958D01*
X201115779Y-108847954D01*
X201115781Y-108847955D01*
X201328702Y-108990224D01*
X201509776Y-109171298D01*
X201652045Y-109384219D01*
X201750042Y-109620804D01*
X201800000Y-109871961D01*
X201800000Y-110128039D01*
X201750042Y-110379196D01*
X201652045Y-110615781D01*
X201509776Y-110828702D01*
X201328702Y-111009776D01*
X201115781Y-111152045D01*
X201115780Y-111152046D01*
X201115779Y-111152046D01*
X200879197Y-111250042D01*
X200753617Y-111275021D01*
X200628039Y-111300000D01*
X200371961Y-111300000D01*
X200246383Y-111275021D01*
X200120803Y-111250042D01*
X199884221Y-111152046D01*
X199884220Y-111152046D01*
X199884219Y-111152045D01*
X199671298Y-111009776D01*
X199490224Y-110828702D01*
X199347955Y-110615781D01*
X199249958Y-110379196D01*
X199200000Y-110128039D01*
X199200000Y-109871961D01*
X199249958Y-109620804D01*
X199347955Y-109384219D01*
X199490224Y-109171298D01*
X199671298Y-108990224D01*
X199884219Y-108847955D01*
X199884221Y-108847954D01*
X200120803Y-108749958D01*
X200246383Y-108724979D01*
X200371961Y-108700000D01*
X200628039Y-108700000D01*
X200753617Y-108724979D01*
X200753617Y-108724979D01*
G37*
G36*
X204753617Y-108724979D02*
X204879197Y-108749958D01*
X205115779Y-108847954D01*
X205115781Y-108847955D01*
X205328702Y-108990224D01*
X205509776Y-109171298D01*
X205652045Y-109384219D01*
X205750042Y-109620804D01*
X205800000Y-109871961D01*
X205800000Y-110128039D01*
X205750042Y-110379196D01*
X205652045Y-110615781D01*
X205509776Y-110828702D01*
X205328702Y-111009776D01*
X205115781Y-111152045D01*
X205115780Y-111152046D01*
X205115779Y-111152046D01*
X204879197Y-111250042D01*
X204753617Y-111275021D01*
X204628039Y-111300000D01*
X204371961Y-111300000D01*
X204246383Y-111275021D01*
X204120803Y-111250042D01*
X203884221Y-111152046D01*
X203884220Y-111152046D01*
X203884219Y-111152045D01*
X203671298Y-111009776D01*
X203490224Y-110828702D01*
X203347955Y-110615781D01*
X203249958Y-110379196D01*
X203200000Y-110128039D01*
X203200000Y-109871961D01*
X203249958Y-109620804D01*
X203347955Y-109384219D01*
X203490224Y-109171298D01*
X203671298Y-108990224D01*
X203884219Y-108847955D01*
X203884221Y-108847954D01*
X204120803Y-108749958D01*
X204246383Y-108724979D01*
X204371961Y-108700000D01*
X204628039Y-108700000D01*
X204753617Y-108724979D01*
X204753617Y-108724979D01*
G37*
G36*
X252253617Y-108724979D02*
X252379197Y-108749958D01*
X252615779Y-108847954D01*
X252615781Y-108847955D01*
X252828702Y-108990224D01*
X253009776Y-109171298D01*
X253152045Y-109384219D01*
X253250042Y-109620804D01*
X253300000Y-109871961D01*
X253300000Y-110128039D01*
X253250042Y-110379196D01*
X253152045Y-110615781D01*
X253009776Y-110828702D01*
X252828702Y-111009776D01*
X252615781Y-111152045D01*
X252615780Y-111152046D01*
X252615779Y-111152046D01*
X252379197Y-111250042D01*
X252253617Y-111275021D01*
X252128039Y-111300000D01*
X251871961Y-111300000D01*
X251746383Y-111275021D01*
X251620803Y-111250042D01*
X251384221Y-111152046D01*
X251384220Y-111152046D01*
X251384219Y-111152045D01*
X251171298Y-111009776D01*
X250990224Y-110828702D01*
X250847955Y-110615781D01*
X250749958Y-110379196D01*
X250700000Y-110128039D01*
X250700000Y-109871961D01*
X250749958Y-109620804D01*
X250847955Y-109384219D01*
X250990224Y-109171298D01*
X251171298Y-108990224D01*
X251384219Y-108847955D01*
X251384221Y-108847954D01*
X251620803Y-108749958D01*
X251746383Y-108724979D01*
X251871961Y-108700000D01*
X252128039Y-108700000D01*
X252253617Y-108724979D01*
X252253617Y-108724979D01*
G37*
G36*
X248253617Y-108724979D02*
X248379197Y-108749958D01*
X248615779Y-108847954D01*
X248615781Y-108847955D01*
X248828702Y-108990224D01*
X249009776Y-109171298D01*
X249152045Y-109384219D01*
X249250042Y-109620804D01*
X249300000Y-109871961D01*
X249300000Y-110128039D01*
X249250042Y-110379196D01*
X249152045Y-110615781D01*
X249009776Y-110828702D01*
X248828702Y-111009776D01*
X248615781Y-111152045D01*
X248615780Y-111152046D01*
X248615779Y-111152046D01*
X248379197Y-111250042D01*
X248253617Y-111275021D01*
X248128039Y-111300000D01*
X247871961Y-111300000D01*
X247746383Y-111275021D01*
X247620803Y-111250042D01*
X247384221Y-111152046D01*
X247384220Y-111152046D01*
X247384219Y-111152045D01*
X247171298Y-111009776D01*
X246990224Y-110828702D01*
X246847955Y-110615781D01*
X246749958Y-110379196D01*
X246700000Y-110128039D01*
X246700000Y-109871961D01*
X246749958Y-109620804D01*
X246847955Y-109384219D01*
X246990224Y-109171298D01*
X247171298Y-108990224D01*
X247384219Y-108847955D01*
X247384221Y-108847954D01*
X247620803Y-108749958D01*
X247746383Y-108724979D01*
X247871961Y-108700000D01*
X248128039Y-108700000D01*
X248253617Y-108724979D01*
X248253617Y-108724979D01*
G37*
G36*
X244253617Y-108724979D02*
X244379197Y-108749958D01*
X244615779Y-108847954D01*
X244615781Y-108847955D01*
X244828702Y-108990224D01*
X245009776Y-109171298D01*
X245152045Y-109384219D01*
X245250042Y-109620804D01*
X245300000Y-109871961D01*
X245300000Y-110128039D01*
X245250042Y-110379196D01*
X245152045Y-110615781D01*
X245009776Y-110828702D01*
X244828702Y-111009776D01*
X244615781Y-111152045D01*
X244615780Y-111152046D01*
X244615779Y-111152046D01*
X244379197Y-111250042D01*
X244253617Y-111275021D01*
X244128039Y-111300000D01*
X243871961Y-111300000D01*
X243746383Y-111275021D01*
X243620803Y-111250042D01*
X243384221Y-111152046D01*
X243384220Y-111152046D01*
X243384219Y-111152045D01*
X243171298Y-111009776D01*
X242990224Y-110828702D01*
X242847955Y-110615781D01*
X242749958Y-110379196D01*
X242700000Y-110128039D01*
X242700000Y-109871961D01*
X242749958Y-109620804D01*
X242847955Y-109384219D01*
X242990224Y-109171298D01*
X243171298Y-108990224D01*
X243384219Y-108847955D01*
X243384221Y-108847954D01*
X243620803Y-108749958D01*
X243746383Y-108724979D01*
X243871961Y-108700000D01*
X244128039Y-108700000D01*
X244253617Y-108724979D01*
X244253617Y-108724979D01*
G37*
G36*
X240253617Y-108724979D02*
X240379197Y-108749958D01*
X240615779Y-108847954D01*
X240615781Y-108847955D01*
X240828702Y-108990224D01*
X241009776Y-109171298D01*
X241152045Y-109384219D01*
X241250042Y-109620804D01*
X241300000Y-109871961D01*
X241300000Y-110128039D01*
X241250042Y-110379196D01*
X241152045Y-110615781D01*
X241009776Y-110828702D01*
X240828702Y-111009776D01*
X240615781Y-111152045D01*
X240615780Y-111152046D01*
X240615779Y-111152046D01*
X240379197Y-111250042D01*
X240253617Y-111275021D01*
X240128039Y-111300000D01*
X239871961Y-111300000D01*
X239746383Y-111275021D01*
X239620803Y-111250042D01*
X239384221Y-111152046D01*
X239384220Y-111152046D01*
X239384219Y-111152045D01*
X239171298Y-111009776D01*
X238990224Y-110828702D01*
X238847955Y-110615781D01*
X238749958Y-110379196D01*
X238700000Y-110128039D01*
X238700000Y-109871961D01*
X238749958Y-109620804D01*
X238847955Y-109384219D01*
X238990224Y-109171298D01*
X239171298Y-108990224D01*
X239384219Y-108847955D01*
X239384221Y-108847954D01*
X239620803Y-108749958D01*
X239746383Y-108724979D01*
X239871961Y-108700000D01*
X240128039Y-108700000D01*
X240253617Y-108724979D01*
X240253617Y-108724979D01*
G37*
G36*
X229753617Y-108724979D02*
X229879197Y-108749958D01*
X230115779Y-108847954D01*
X230115781Y-108847955D01*
X230328702Y-108990224D01*
X230509776Y-109171298D01*
X230652045Y-109384219D01*
X230750042Y-109620804D01*
X230800000Y-109871961D01*
X230800000Y-110128039D01*
X230750042Y-110379196D01*
X230652045Y-110615781D01*
X230509776Y-110828702D01*
X230328702Y-111009776D01*
X230115781Y-111152045D01*
X230115780Y-111152046D01*
X230115779Y-111152046D01*
X229879197Y-111250042D01*
X229753617Y-111275021D01*
X229628039Y-111300000D01*
X229371961Y-111300000D01*
X229246383Y-111275021D01*
X229120803Y-111250042D01*
X228884221Y-111152046D01*
X228884220Y-111152046D01*
X228884219Y-111152045D01*
X228671298Y-111009776D01*
X228490224Y-110828702D01*
X228347955Y-110615781D01*
X228249958Y-110379196D01*
X228200000Y-110128039D01*
X228200000Y-109871961D01*
X228249958Y-109620804D01*
X228347955Y-109384219D01*
X228490224Y-109171298D01*
X228671298Y-108990224D01*
X228884219Y-108847955D01*
X228884221Y-108847954D01*
X229120803Y-108749958D01*
X229246383Y-108724979D01*
X229371961Y-108700000D01*
X229628039Y-108700000D01*
X229753617Y-108724979D01*
X229753617Y-108724979D01*
G37*
G36*
X225753617Y-108724979D02*
X225879197Y-108749958D01*
X226115779Y-108847954D01*
X226115781Y-108847955D01*
X226328702Y-108990224D01*
X226509776Y-109171298D01*
X226652045Y-109384219D01*
X226750042Y-109620804D01*
X226800000Y-109871961D01*
X226800000Y-110128039D01*
X226750042Y-110379196D01*
X226652045Y-110615781D01*
X226509776Y-110828702D01*
X226328702Y-111009776D01*
X226115781Y-111152045D01*
X226115780Y-111152046D01*
X226115779Y-111152046D01*
X225879197Y-111250042D01*
X225753617Y-111275021D01*
X225628039Y-111300000D01*
X225371961Y-111300000D01*
X225246383Y-111275021D01*
X225120803Y-111250042D01*
X224884221Y-111152046D01*
X224884220Y-111152046D01*
X224884219Y-111152045D01*
X224671298Y-111009776D01*
X224490224Y-110828702D01*
X224347955Y-110615781D01*
X224249958Y-110379196D01*
X224200000Y-110128039D01*
X224200000Y-109871961D01*
X224249958Y-109620804D01*
X224347955Y-109384219D01*
X224490224Y-109171298D01*
X224671298Y-108990224D01*
X224884219Y-108847955D01*
X224884221Y-108847954D01*
X225120803Y-108749958D01*
X225246383Y-108724979D01*
X225371961Y-108700000D01*
X225628039Y-108700000D01*
X225753617Y-108724979D01*
X225753617Y-108724979D01*
G37*
G36*
X196753617Y-108724979D02*
X196879197Y-108749958D01*
X197115779Y-108847954D01*
X197115781Y-108847955D01*
X197328702Y-108990224D01*
X197509776Y-109171298D01*
X197652045Y-109384219D01*
X197750042Y-109620804D01*
X197800000Y-109871961D01*
X197800000Y-110128039D01*
X197750042Y-110379196D01*
X197652045Y-110615781D01*
X197509776Y-110828702D01*
X197328702Y-111009776D01*
X197115781Y-111152045D01*
X197115780Y-111152046D01*
X197115779Y-111152046D01*
X196879197Y-111250042D01*
X196753617Y-111275021D01*
X196628039Y-111300000D01*
X196371961Y-111300000D01*
X196246383Y-111275021D01*
X196120803Y-111250042D01*
X195884221Y-111152046D01*
X195884220Y-111152046D01*
X195884219Y-111152045D01*
X195671298Y-111009776D01*
X195490224Y-110828702D01*
X195347955Y-110615781D01*
X195249958Y-110379196D01*
X195200000Y-110128039D01*
X195200000Y-109871961D01*
X195249958Y-109620804D01*
X195347955Y-109384219D01*
X195490224Y-109171298D01*
X195671298Y-108990224D01*
X195884219Y-108847955D01*
X195884221Y-108847954D01*
X196120803Y-108749958D01*
X196246383Y-108724979D01*
X196371961Y-108700000D01*
X196628039Y-108700000D01*
X196753617Y-108724979D01*
X196753617Y-108724979D01*
G37*
G36*
X251741031Y-106633074D02*
X251768699Y-106641468D01*
X251794200Y-106655098D01*
X251816555Y-106673445D01*
X251834902Y-106695800D01*
X251848532Y-106721301D01*
X251856926Y-106748969D01*
X251860000Y-106780185D01*
X251860000Y-107219815D01*
X251856926Y-107251031D01*
X251848532Y-107278699D01*
X251834902Y-107304200D01*
X251816555Y-107326555D01*
X251794200Y-107344902D01*
X251768699Y-107358532D01*
X251741031Y-107366926D01*
X251709815Y-107370000D01*
X251320185Y-107370000D01*
X251288969Y-107366926D01*
X251261301Y-107358532D01*
X251235800Y-107344902D01*
X251213445Y-107326555D01*
X251195098Y-107304200D01*
X251181468Y-107278699D01*
X251173074Y-107251031D01*
X251170000Y-107219815D01*
X251170000Y-106780185D01*
X251173074Y-106748969D01*
X251181468Y-106721301D01*
X251195098Y-106695800D01*
X251213445Y-106673445D01*
X251235800Y-106655098D01*
X251261301Y-106641468D01*
X251288969Y-106633074D01*
X251320185Y-106630000D01*
X251709815Y-106630000D01*
X251741031Y-106633074D01*
X251741031Y-106633074D01*
G37*
G36*
X252711031Y-106633074D02*
X252738699Y-106641468D01*
X252764200Y-106655098D01*
X252786555Y-106673445D01*
X252804902Y-106695800D01*
X252818532Y-106721301D01*
X252826926Y-106748969D01*
X252830000Y-106780185D01*
X252830000Y-107219815D01*
X252826926Y-107251031D01*
X252818532Y-107278699D01*
X252804902Y-107304200D01*
X252786555Y-107326555D01*
X252764200Y-107344902D01*
X252738699Y-107358532D01*
X252711031Y-107366926D01*
X252679815Y-107370000D01*
X252290185Y-107370000D01*
X252258969Y-107366926D01*
X252231301Y-107358532D01*
X252205800Y-107344902D01*
X252183445Y-107326555D01*
X252165098Y-107304200D01*
X252151468Y-107278699D01*
X252143074Y-107251031D01*
X252140000Y-107219815D01*
X252140000Y-106780185D01*
X252143074Y-106748969D01*
X252151468Y-106721301D01*
X252165098Y-106695800D01*
X252183445Y-106673445D01*
X252205800Y-106655098D01*
X252231301Y-106641468D01*
X252258969Y-106633074D01*
X252290185Y-106630000D01*
X252679815Y-106630000D01*
X252711031Y-106633074D01*
X252711031Y-106633074D01*
G37*
G36*
X179711031Y-106633074D02*
X179738699Y-106641468D01*
X179764200Y-106655098D01*
X179786555Y-106673445D01*
X179804902Y-106695800D01*
X179818532Y-106721301D01*
X179826926Y-106748969D01*
X179830000Y-106780185D01*
X179830000Y-107219815D01*
X179826926Y-107251031D01*
X179818532Y-107278699D01*
X179804902Y-107304200D01*
X179786555Y-107326555D01*
X179764200Y-107344902D01*
X179738699Y-107358532D01*
X179711031Y-107366926D01*
X179679815Y-107370000D01*
X179290185Y-107370000D01*
X179258969Y-107366926D01*
X179231301Y-107358532D01*
X179205800Y-107344902D01*
X179183445Y-107326555D01*
X179165098Y-107304200D01*
X179151468Y-107278699D01*
X179143074Y-107251031D01*
X179140000Y-107219815D01*
X179140000Y-106780185D01*
X179143074Y-106748969D01*
X179151468Y-106721301D01*
X179165098Y-106695800D01*
X179183445Y-106673445D01*
X179205800Y-106655098D01*
X179231301Y-106641468D01*
X179258969Y-106633074D01*
X179290185Y-106630000D01*
X179679815Y-106630000D01*
X179711031Y-106633074D01*
X179711031Y-106633074D01*
G37*
G36*
X178741031Y-106633074D02*
X178768699Y-106641468D01*
X178794200Y-106655098D01*
X178816555Y-106673445D01*
X178834902Y-106695800D01*
X178848532Y-106721301D01*
X178856926Y-106748969D01*
X178860000Y-106780185D01*
X178860000Y-107219815D01*
X178856926Y-107251031D01*
X178848532Y-107278699D01*
X178834902Y-107304200D01*
X178816555Y-107326555D01*
X178794200Y-107344902D01*
X178768699Y-107358532D01*
X178741031Y-107366926D01*
X178709815Y-107370000D01*
X178320185Y-107370000D01*
X178288969Y-107366926D01*
X178261301Y-107358532D01*
X178235800Y-107344902D01*
X178213445Y-107326555D01*
X178195098Y-107304200D01*
X178181468Y-107278699D01*
X178173074Y-107251031D01*
X178170000Y-107219815D01*
X178170000Y-106780185D01*
X178173074Y-106748969D01*
X178181468Y-106721301D01*
X178195098Y-106695800D01*
X178213445Y-106673445D01*
X178235800Y-106655098D01*
X178261301Y-106641468D01*
X178288969Y-106633074D01*
X178320185Y-106630000D01*
X178709815Y-106630000D01*
X178741031Y-106633074D01*
X178741031Y-106633074D01*
G37*
G36*
X234256431Y-98113023D02*
X234426084Y-98164487D01*
X234566385Y-98239480D01*
X234582432Y-98248057D01*
X234719475Y-98360525D01*
X234831943Y-98497568D01*
X234831944Y-98497570D01*
X234915513Y-98653916D01*
X234966977Y-98823569D01*
X234984354Y-99000000D01*
X234966977Y-99176431D01*
X234915513Y-99346084D01*
X234840520Y-99486385D01*
X234831943Y-99502432D01*
X234719475Y-99639475D01*
X234582432Y-99751943D01*
X234582430Y-99751944D01*
X234426084Y-99835513D01*
X234426081Y-99835514D01*
X234256431Y-99886977D01*
X234124207Y-99900000D01*
X234035793Y-99900000D01*
X233903569Y-99886977D01*
X233733919Y-99835514D01*
X233733916Y-99835513D01*
X233577570Y-99751944D01*
X233577568Y-99751943D01*
X233440525Y-99639475D01*
X233328057Y-99502432D01*
X233319480Y-99486385D01*
X233244487Y-99346084D01*
X233193023Y-99176431D01*
X233175646Y-99000000D01*
X233193023Y-98823569D01*
X233244487Y-98653916D01*
X233328056Y-98497570D01*
X233328057Y-98497568D01*
X233440525Y-98360525D01*
X233577568Y-98248057D01*
X233593615Y-98239480D01*
X233733916Y-98164487D01*
X233903569Y-98113023D01*
X234035793Y-98100000D01*
X234124207Y-98100000D01*
X234256431Y-98113023D01*
X234256431Y-98113023D01*
G37*
G36*
X239336431Y-98113023D02*
X239506084Y-98164487D01*
X239646385Y-98239480D01*
X239662432Y-98248057D01*
X239799475Y-98360525D01*
X239911943Y-98497568D01*
X239911944Y-98497570D01*
X239995513Y-98653916D01*
X240046977Y-98823569D01*
X240064354Y-99000000D01*
X240046977Y-99176431D01*
X239995513Y-99346084D01*
X239920520Y-99486385D01*
X239911943Y-99502432D01*
X239799475Y-99639475D01*
X239662432Y-99751943D01*
X239662430Y-99751944D01*
X239506084Y-99835513D01*
X239506081Y-99835514D01*
X239336431Y-99886977D01*
X239204207Y-99900000D01*
X239115793Y-99900000D01*
X238983569Y-99886977D01*
X238813919Y-99835514D01*
X238813916Y-99835513D01*
X238657570Y-99751944D01*
X238657568Y-99751943D01*
X238520525Y-99639475D01*
X238408057Y-99502432D01*
X238399480Y-99486385D01*
X238324487Y-99346084D01*
X238273023Y-99176431D01*
X238255646Y-99000000D01*
X238273023Y-98823569D01*
X238324487Y-98653916D01*
X238408056Y-98497570D01*
X238408057Y-98497568D01*
X238520525Y-98360525D01*
X238657568Y-98248057D01*
X238673615Y-98239480D01*
X238813916Y-98164487D01*
X238983569Y-98113023D01*
X239115793Y-98100000D01*
X239204207Y-98100000D01*
X239336431Y-98113023D01*
X239336431Y-98113023D01*
G37*
G36*
X231716431Y-98113023D02*
X231886084Y-98164487D01*
X232026385Y-98239480D01*
X232042432Y-98248057D01*
X232179475Y-98360525D01*
X232291943Y-98497568D01*
X232291944Y-98497570D01*
X232375513Y-98653916D01*
X232426977Y-98823569D01*
X232444354Y-99000000D01*
X232426977Y-99176431D01*
X232375513Y-99346084D01*
X232300520Y-99486385D01*
X232291943Y-99502432D01*
X232179475Y-99639475D01*
X232042432Y-99751943D01*
X232042430Y-99751944D01*
X231886084Y-99835513D01*
X231886081Y-99835514D01*
X231716431Y-99886977D01*
X231584207Y-99900000D01*
X231495793Y-99900000D01*
X231363569Y-99886977D01*
X231193919Y-99835514D01*
X231193916Y-99835513D01*
X231037570Y-99751944D01*
X231037568Y-99751943D01*
X230900525Y-99639475D01*
X230788057Y-99502432D01*
X230779480Y-99486385D01*
X230704487Y-99346084D01*
X230653023Y-99176431D01*
X230635646Y-99000000D01*
X230653023Y-98823569D01*
X230704487Y-98653916D01*
X230788056Y-98497570D01*
X230788057Y-98497568D01*
X230900525Y-98360525D01*
X231037568Y-98248057D01*
X231053615Y-98239480D01*
X231193916Y-98164487D01*
X231363569Y-98113023D01*
X231495793Y-98100000D01*
X231584207Y-98100000D01*
X231716431Y-98113023D01*
X231716431Y-98113023D01*
G37*
G36*
X229900000Y-99900000D02*
X228100000Y-99900000D01*
X228100000Y-98100000D01*
X229900000Y-98100000D01*
X229900000Y-99900000D01*
X229900000Y-99900000D01*
G37*
G36*
X236796431Y-98113023D02*
X236966084Y-98164487D01*
X237106385Y-98239480D01*
X237122432Y-98248057D01*
X237259475Y-98360525D01*
X237371943Y-98497568D01*
X237371944Y-98497570D01*
X237455513Y-98653916D01*
X237506977Y-98823569D01*
X237524354Y-99000000D01*
X237506977Y-99176431D01*
X237455513Y-99346084D01*
X237380520Y-99486385D01*
X237371943Y-99502432D01*
X237259475Y-99639475D01*
X237122432Y-99751943D01*
X237122430Y-99751944D01*
X236966084Y-99835513D01*
X236796431Y-99886977D01*
X236664207Y-99900000D01*
X236575793Y-99900000D01*
X236443569Y-99886977D01*
X236273916Y-99835513D01*
X236117570Y-99751944D01*
X236117568Y-99751943D01*
X235980525Y-99639475D01*
X235868057Y-99502432D01*
X235859480Y-99486385D01*
X235784487Y-99346084D01*
X235733023Y-99176431D01*
X235715646Y-99000000D01*
X235733023Y-98823569D01*
X235784487Y-98653916D01*
X235868056Y-98497570D01*
X235868057Y-98497568D01*
X235980525Y-98360525D01*
X236117568Y-98248057D01*
X236133615Y-98239480D01*
X236273916Y-98164487D01*
X236443569Y-98113023D01*
X236575793Y-98100000D01*
X236664207Y-98100000D01*
X236796431Y-98113023D01*
X236796431Y-98113023D01*
G37*
G36*
X244148678Y-95904443D02*
X244189719Y-95916893D01*
X244227535Y-95937105D01*
X244260687Y-95964313D01*
X244287895Y-95997465D01*
X244308107Y-96035281D01*
X244320557Y-96076322D01*
X244325000Y-96121435D01*
X244325000Y-96653565D01*
X244320557Y-96698678D01*
X244308107Y-96739719D01*
X244287895Y-96777535D01*
X244260687Y-96810687D01*
X244227535Y-96837895D01*
X244189719Y-96858107D01*
X244148678Y-96870557D01*
X244103565Y-96875000D01*
X243496435Y-96875000D01*
X243451322Y-96870557D01*
X243410281Y-96858107D01*
X243372465Y-96837895D01*
X243339313Y-96810687D01*
X243312105Y-96777535D01*
X243291893Y-96739719D01*
X243279443Y-96698678D01*
X243275000Y-96653565D01*
X243275000Y-96121435D01*
X243279443Y-96076322D01*
X243291893Y-96035281D01*
X243312105Y-95997465D01*
X243339313Y-95964313D01*
X243372465Y-95937105D01*
X243410281Y-95916893D01*
X243451322Y-95904443D01*
X243496435Y-95900000D01*
X244103565Y-95900000D01*
X244148678Y-95904443D01*
X244148678Y-95904443D01*
G37*
G36*
X257211031Y-95633074D02*
X257238699Y-95641468D01*
X257264200Y-95655098D01*
X257286555Y-95673445D01*
X257304902Y-95695800D01*
X257318532Y-95721301D01*
X257326926Y-95748969D01*
X257330000Y-95780185D01*
X257330000Y-96219815D01*
X257326926Y-96251031D01*
X257318532Y-96278699D01*
X257304902Y-96304200D01*
X257286555Y-96326555D01*
X257264200Y-96344902D01*
X257238699Y-96358532D01*
X257211031Y-96366926D01*
X257179815Y-96370000D01*
X256790185Y-96370000D01*
X256758969Y-96366926D01*
X256731301Y-96358532D01*
X256705800Y-96344902D01*
X256683445Y-96326555D01*
X256665098Y-96304200D01*
X256651468Y-96278699D01*
X256643074Y-96251031D01*
X256640000Y-96219815D01*
X256640000Y-95780185D01*
X256643074Y-95748969D01*
X256651468Y-95721301D01*
X256665098Y-95695800D01*
X256683445Y-95673445D01*
X256705800Y-95655098D01*
X256731301Y-95641468D01*
X256758969Y-95633074D01*
X256790185Y-95630000D01*
X257179815Y-95630000D01*
X257211031Y-95633074D01*
X257211031Y-95633074D01*
G37*
G36*
X256241031Y-95633074D02*
X256268699Y-95641468D01*
X256294200Y-95655098D01*
X256316555Y-95673445D01*
X256334902Y-95695800D01*
X256348532Y-95721301D01*
X256356926Y-95748969D01*
X256360000Y-95780185D01*
X256360000Y-96219815D01*
X256356926Y-96251031D01*
X256348532Y-96278699D01*
X256334902Y-96304200D01*
X256316555Y-96326555D01*
X256294200Y-96344902D01*
X256268699Y-96358532D01*
X256241031Y-96366926D01*
X256209815Y-96370000D01*
X255820185Y-96370000D01*
X255788969Y-96366926D01*
X255761301Y-96358532D01*
X255735800Y-96344902D01*
X255713445Y-96326555D01*
X255695098Y-96304200D01*
X255681468Y-96278699D01*
X255673074Y-96251031D01*
X255670000Y-96219815D01*
X255670000Y-95780185D01*
X255673074Y-95748969D01*
X255681468Y-95721301D01*
X255695098Y-95695800D01*
X255713445Y-95673445D01*
X255735800Y-95655098D01*
X255761301Y-95641468D01*
X255788969Y-95633074D01*
X255820185Y-95630000D01*
X256209815Y-95630000D01*
X256241031Y-95633074D01*
X256241031Y-95633074D01*
G37*
G36*
X248251031Y-95393074D02*
X248278699Y-95401468D01*
X248304200Y-95415098D01*
X248326555Y-95433445D01*
X248344902Y-95455800D01*
X248358532Y-95481301D01*
X248366926Y-95508969D01*
X248370000Y-95540185D01*
X248370000Y-95929815D01*
X248366926Y-95961031D01*
X248358532Y-95988699D01*
X248344902Y-96014200D01*
X248326555Y-96036555D01*
X248304200Y-96054902D01*
X248278699Y-96068532D01*
X248251031Y-96076926D01*
X248219815Y-96080000D01*
X247780185Y-96080000D01*
X247748969Y-96076926D01*
X247721301Y-96068532D01*
X247695800Y-96054902D01*
X247673445Y-96036555D01*
X247655098Y-96014200D01*
X247641468Y-95988699D01*
X247633074Y-95961031D01*
X247630000Y-95929815D01*
X247630000Y-95540185D01*
X247633074Y-95508969D01*
X247641468Y-95481301D01*
X247655098Y-95455800D01*
X247673445Y-95433445D01*
X247695800Y-95415098D01*
X247721301Y-95401468D01*
X247748969Y-95393074D01*
X247780185Y-95390000D01*
X248219815Y-95390000D01*
X248251031Y-95393074D01*
X248251031Y-95393074D01*
G37*
G36*
X247251031Y-95393074D02*
X247278699Y-95401468D01*
X247304200Y-95415098D01*
X247326555Y-95433445D01*
X247344902Y-95455800D01*
X247358532Y-95481301D01*
X247366926Y-95508969D01*
X247370000Y-95540185D01*
X247370000Y-95929815D01*
X247366926Y-95961031D01*
X247358532Y-95988699D01*
X247344902Y-96014200D01*
X247326555Y-96036555D01*
X247304200Y-96054902D01*
X247278699Y-96068532D01*
X247251031Y-96076926D01*
X247219815Y-96080000D01*
X246780185Y-96080000D01*
X246748969Y-96076926D01*
X246721301Y-96068532D01*
X246695800Y-96054902D01*
X246673445Y-96036555D01*
X246655098Y-96014200D01*
X246641468Y-95988699D01*
X246633074Y-95961031D01*
X246630000Y-95929815D01*
X246630000Y-95540185D01*
X246633074Y-95508969D01*
X246641468Y-95481301D01*
X246655098Y-95455800D01*
X246673445Y-95433445D01*
X246695800Y-95415098D01*
X246721301Y-95401468D01*
X246748969Y-95393074D01*
X246780185Y-95390000D01*
X247219815Y-95390000D01*
X247251031Y-95393074D01*
X247251031Y-95393074D01*
G37*
G36*
X246251031Y-95393074D02*
X246278699Y-95401468D01*
X246304200Y-95415098D01*
X246326555Y-95433445D01*
X246344902Y-95455800D01*
X246358532Y-95481301D01*
X246366926Y-95508969D01*
X246370000Y-95540185D01*
X246370000Y-95929815D01*
X246366926Y-95961031D01*
X246358532Y-95988699D01*
X246344902Y-96014200D01*
X246326555Y-96036555D01*
X246304200Y-96054902D01*
X246278699Y-96068532D01*
X246251031Y-96076926D01*
X246219815Y-96080000D01*
X245780185Y-96080000D01*
X245748969Y-96076926D01*
X245721301Y-96068532D01*
X245695800Y-96054902D01*
X245673445Y-96036555D01*
X245655098Y-96014200D01*
X245641468Y-95988699D01*
X245633074Y-95961031D01*
X245630000Y-95929815D01*
X245630000Y-95540185D01*
X245633074Y-95508969D01*
X245641468Y-95481301D01*
X245655098Y-95455800D01*
X245673445Y-95433445D01*
X245695800Y-95415098D01*
X245721301Y-95401468D01*
X245748969Y-95393074D01*
X245780185Y-95390000D01*
X246219815Y-95390000D01*
X246251031Y-95393074D01*
X246251031Y-95393074D01*
G37*
G36*
X245251031Y-95393074D02*
X245278699Y-95401468D01*
X245304200Y-95415098D01*
X245326555Y-95433445D01*
X245344902Y-95455800D01*
X245358532Y-95481301D01*
X245366926Y-95508969D01*
X245370000Y-95540185D01*
X245370000Y-95929815D01*
X245366926Y-95961031D01*
X245358532Y-95988699D01*
X245344902Y-96014200D01*
X245326555Y-96036555D01*
X245304200Y-96054902D01*
X245278699Y-96068532D01*
X245251031Y-96076926D01*
X245219815Y-96080000D01*
X244780185Y-96080000D01*
X244748969Y-96076926D01*
X244721301Y-96068532D01*
X244695800Y-96054902D01*
X244673445Y-96036555D01*
X244655098Y-96014200D01*
X244641468Y-95988699D01*
X244633074Y-95961031D01*
X244630000Y-95929815D01*
X244630000Y-95540185D01*
X244633074Y-95508969D01*
X244641468Y-95481301D01*
X244655098Y-95455800D01*
X244673445Y-95433445D01*
X244695800Y-95415098D01*
X244721301Y-95401468D01*
X244748969Y-95393074D01*
X244780185Y-95390000D01*
X245219815Y-95390000D01*
X245251031Y-95393074D01*
X245251031Y-95393074D01*
G37*
G36*
X253251031Y-94643074D02*
X253278699Y-94651468D01*
X253304200Y-94665098D01*
X253326555Y-94683445D01*
X253344902Y-94705800D01*
X253358532Y-94731301D01*
X253366926Y-94758969D01*
X253370000Y-94790185D01*
X253370000Y-95179815D01*
X253366926Y-95211031D01*
X253358532Y-95238699D01*
X253344902Y-95264200D01*
X253326555Y-95286555D01*
X253304200Y-95304902D01*
X253278699Y-95318532D01*
X253251031Y-95326926D01*
X253219815Y-95330000D01*
X252780185Y-95330000D01*
X252748969Y-95326926D01*
X252721301Y-95318532D01*
X252695800Y-95304902D01*
X252673445Y-95286555D01*
X252655098Y-95264200D01*
X252641468Y-95238699D01*
X252633074Y-95211031D01*
X252630000Y-95179815D01*
X252630000Y-94790185D01*
X252633074Y-94758969D01*
X252641468Y-94731301D01*
X252655098Y-94705800D01*
X252673445Y-94683445D01*
X252695800Y-94665098D01*
X252721301Y-94651468D01*
X252748969Y-94643074D01*
X252780185Y-94640000D01*
X253219815Y-94640000D01*
X253251031Y-94643074D01*
X253251031Y-94643074D01*
G37*
G36*
X244148678Y-94329443D02*
X244189719Y-94341893D01*
X244227535Y-94362105D01*
X244260687Y-94389313D01*
X244287895Y-94422465D01*
X244308107Y-94460281D01*
X244320557Y-94501322D01*
X244325000Y-94546435D01*
X244325000Y-95078565D01*
X244320557Y-95123678D01*
X244308107Y-95164719D01*
X244287895Y-95202535D01*
X244260687Y-95235687D01*
X244227535Y-95262895D01*
X244189719Y-95283107D01*
X244148678Y-95295557D01*
X244103565Y-95300000D01*
X243496435Y-95300000D01*
X243451322Y-95295557D01*
X243410281Y-95283107D01*
X243372465Y-95262895D01*
X243339313Y-95235687D01*
X243312105Y-95202535D01*
X243291893Y-95164719D01*
X243279443Y-95123678D01*
X243275000Y-95078565D01*
X243275000Y-94546435D01*
X243279443Y-94501322D01*
X243291893Y-94460281D01*
X243312105Y-94422465D01*
X243339313Y-94389313D01*
X243372465Y-94362105D01*
X243410281Y-94341893D01*
X243451322Y-94329443D01*
X243496435Y-94325000D01*
X244103565Y-94325000D01*
X244148678Y-94329443D01*
X244148678Y-94329443D01*
G37*
G36*
X245251031Y-94423074D02*
X245278699Y-94431468D01*
X245304200Y-94445098D01*
X245326555Y-94463445D01*
X245344902Y-94485800D01*
X245358532Y-94511301D01*
X245366926Y-94538969D01*
X245370000Y-94570185D01*
X245370000Y-94959815D01*
X245366926Y-94991031D01*
X245358532Y-95018699D01*
X245344902Y-95044200D01*
X245326555Y-95066555D01*
X245304200Y-95084902D01*
X245278699Y-95098532D01*
X245251031Y-95106926D01*
X245219815Y-95110000D01*
X244780185Y-95110000D01*
X244748969Y-95106926D01*
X244721301Y-95098532D01*
X244695800Y-95084902D01*
X244673445Y-95066555D01*
X244655098Y-95044200D01*
X244641468Y-95018699D01*
X244633074Y-94991031D01*
X244630000Y-94959815D01*
X244630000Y-94570185D01*
X244633074Y-94538969D01*
X244641468Y-94511301D01*
X244655098Y-94485800D01*
X244673445Y-94463445D01*
X244695800Y-94445098D01*
X244721301Y-94431468D01*
X244748969Y-94423074D01*
X244780185Y-94420000D01*
X245219815Y-94420000D01*
X245251031Y-94423074D01*
X245251031Y-94423074D01*
G37*
G36*
X246251031Y-94423074D02*
X246278699Y-94431468D01*
X246304200Y-94445098D01*
X246326555Y-94463445D01*
X246344902Y-94485800D01*
X246358532Y-94511301D01*
X246366926Y-94538969D01*
X246370000Y-94570185D01*
X246370000Y-94959815D01*
X246366926Y-94991031D01*
X246358532Y-95018699D01*
X246344902Y-95044200D01*
X246326555Y-95066555D01*
X246304200Y-95084902D01*
X246278699Y-95098532D01*
X246251031Y-95106926D01*
X246219815Y-95110000D01*
X245780185Y-95110000D01*
X245748969Y-95106926D01*
X245721301Y-95098532D01*
X245695800Y-95084902D01*
X245673445Y-95066555D01*
X245655098Y-95044200D01*
X245641468Y-95018699D01*
X245633074Y-94991031D01*
X245630000Y-94959815D01*
X245630000Y-94570185D01*
X245633074Y-94538969D01*
X245641468Y-94511301D01*
X245655098Y-94485800D01*
X245673445Y-94463445D01*
X245695800Y-94445098D01*
X245721301Y-94431468D01*
X245748969Y-94423074D01*
X245780185Y-94420000D01*
X246219815Y-94420000D01*
X246251031Y-94423074D01*
X246251031Y-94423074D01*
G37*
G36*
X248251031Y-94423074D02*
X248278699Y-94431468D01*
X248304200Y-94445098D01*
X248326555Y-94463445D01*
X248344902Y-94485800D01*
X248358532Y-94511301D01*
X248366926Y-94538969D01*
X248370000Y-94570185D01*
X248370000Y-94959815D01*
X248366926Y-94991031D01*
X248358532Y-95018699D01*
X248344902Y-95044200D01*
X248326555Y-95066555D01*
X248304200Y-95084902D01*
X248278699Y-95098532D01*
X248251031Y-95106926D01*
X248219815Y-95110000D01*
X247780185Y-95110000D01*
X247748969Y-95106926D01*
X247721301Y-95098532D01*
X247695800Y-95084902D01*
X247673445Y-95066555D01*
X247655098Y-95044200D01*
X247641468Y-95018699D01*
X247633074Y-94991031D01*
X247630000Y-94959815D01*
X247630000Y-94570185D01*
X247633074Y-94538969D01*
X247641468Y-94511301D01*
X247655098Y-94485800D01*
X247673445Y-94463445D01*
X247695800Y-94445098D01*
X247721301Y-94431468D01*
X247748969Y-94423074D01*
X247780185Y-94420000D01*
X248219815Y-94420000D01*
X248251031Y-94423074D01*
X248251031Y-94423074D01*
G37*
G36*
X247251031Y-94423074D02*
X247278699Y-94431468D01*
X247304200Y-94445098D01*
X247326555Y-94463445D01*
X247344902Y-94485800D01*
X247358532Y-94511301D01*
X247366926Y-94538969D01*
X247370000Y-94570185D01*
X247370000Y-94959815D01*
X247366926Y-94991031D01*
X247358532Y-95018699D01*
X247344902Y-95044200D01*
X247326555Y-95066555D01*
X247304200Y-95084902D01*
X247278699Y-95098532D01*
X247251031Y-95106926D01*
X247219815Y-95110000D01*
X246780185Y-95110000D01*
X246748969Y-95106926D01*
X246721301Y-95098532D01*
X246695800Y-95084902D01*
X246673445Y-95066555D01*
X246655098Y-95044200D01*
X246641468Y-95018699D01*
X246633074Y-94991031D01*
X246630000Y-94959815D01*
X246630000Y-94570185D01*
X246633074Y-94538969D01*
X246641468Y-94511301D01*
X246655098Y-94485800D01*
X246673445Y-94463445D01*
X246695800Y-94445098D01*
X246721301Y-94431468D01*
X246748969Y-94423074D01*
X246780185Y-94420000D01*
X247219815Y-94420000D01*
X247251031Y-94423074D01*
X247251031Y-94423074D01*
G37*
G36*
X242851031Y-94343074D02*
X242878699Y-94351468D01*
X242904200Y-94365098D01*
X242926555Y-94383445D01*
X242944902Y-94405800D01*
X242958532Y-94431301D01*
X242966926Y-94458969D01*
X242970000Y-94490185D01*
X242970000Y-94879815D01*
X242966926Y-94911031D01*
X242958532Y-94938699D01*
X242944902Y-94964200D01*
X242926555Y-94986555D01*
X242904200Y-95004902D01*
X242878699Y-95018532D01*
X242851031Y-95026926D01*
X242819815Y-95030000D01*
X242380185Y-95030000D01*
X242348969Y-95026926D01*
X242321301Y-95018532D01*
X242295800Y-95004902D01*
X242273445Y-94986555D01*
X242255098Y-94964200D01*
X242241468Y-94938699D01*
X242233074Y-94911031D01*
X242230000Y-94879815D01*
X242230000Y-94490185D01*
X242233074Y-94458969D01*
X242241468Y-94431301D01*
X242255098Y-94405800D01*
X242273445Y-94383445D01*
X242295800Y-94365098D01*
X242321301Y-94351468D01*
X242348969Y-94343074D01*
X242380185Y-94340000D01*
X242819815Y-94340000D01*
X242851031Y-94343074D01*
X242851031Y-94343074D01*
G37*
G36*
X227251031Y-94143074D02*
X227278699Y-94151468D01*
X227304200Y-94165098D01*
X227326555Y-94183445D01*
X227344902Y-94205800D01*
X227358532Y-94231301D01*
X227366926Y-94258969D01*
X227370000Y-94290185D01*
X227370000Y-94679815D01*
X227366926Y-94711031D01*
X227358532Y-94738699D01*
X227344902Y-94764200D01*
X227326555Y-94786555D01*
X227304200Y-94804902D01*
X227278699Y-94818532D01*
X227251031Y-94826926D01*
X227219815Y-94830000D01*
X226780185Y-94830000D01*
X226748969Y-94826926D01*
X226721301Y-94818532D01*
X226695800Y-94804902D01*
X226673445Y-94786555D01*
X226655098Y-94764200D01*
X226641468Y-94738699D01*
X226633074Y-94711031D01*
X226630000Y-94679815D01*
X226630000Y-94290185D01*
X226633074Y-94258969D01*
X226641468Y-94231301D01*
X226655098Y-94205800D01*
X226673445Y-94183445D01*
X226695800Y-94165098D01*
X226721301Y-94151468D01*
X226748969Y-94143074D01*
X226780185Y-94140000D01*
X227219815Y-94140000D01*
X227251031Y-94143074D01*
X227251031Y-94143074D01*
G37*
G36*
X224251031Y-94143074D02*
X224278699Y-94151468D01*
X224304200Y-94165098D01*
X224326555Y-94183445D01*
X224344902Y-94205800D01*
X224358532Y-94231301D01*
X224366926Y-94258969D01*
X224370000Y-94290185D01*
X224370000Y-94679815D01*
X224366926Y-94711031D01*
X224358532Y-94738699D01*
X224344902Y-94764200D01*
X224326555Y-94786555D01*
X224304200Y-94804902D01*
X224278699Y-94818532D01*
X224251031Y-94826926D01*
X224219815Y-94830000D01*
X223780185Y-94830000D01*
X223748969Y-94826926D01*
X223721301Y-94818532D01*
X223695800Y-94804902D01*
X223673445Y-94786555D01*
X223655098Y-94764200D01*
X223641468Y-94738699D01*
X223633074Y-94711031D01*
X223630000Y-94679815D01*
X223630000Y-94290185D01*
X223633074Y-94258969D01*
X223641468Y-94231301D01*
X223655098Y-94205800D01*
X223673445Y-94183445D01*
X223695800Y-94165098D01*
X223721301Y-94151468D01*
X223748969Y-94143074D01*
X223780185Y-94140000D01*
X224219815Y-94140000D01*
X224251031Y-94143074D01*
X224251031Y-94143074D01*
G37*
G36*
X225251031Y-94143074D02*
X225278699Y-94151468D01*
X225304200Y-94165098D01*
X225326555Y-94183445D01*
X225344902Y-94205800D01*
X225358532Y-94231301D01*
X225366926Y-94258969D01*
X225370000Y-94290185D01*
X225370000Y-94679815D01*
X225366926Y-94711031D01*
X225358532Y-94738699D01*
X225344902Y-94764200D01*
X225326555Y-94786555D01*
X225304200Y-94804902D01*
X225278699Y-94818532D01*
X225251031Y-94826926D01*
X225219815Y-94830000D01*
X224780185Y-94830000D01*
X224748969Y-94826926D01*
X224721301Y-94818532D01*
X224695800Y-94804902D01*
X224673445Y-94786555D01*
X224655098Y-94764200D01*
X224641468Y-94738699D01*
X224633074Y-94711031D01*
X224630000Y-94679815D01*
X224630000Y-94290185D01*
X224633074Y-94258969D01*
X224641468Y-94231301D01*
X224655098Y-94205800D01*
X224673445Y-94183445D01*
X224695800Y-94165098D01*
X224721301Y-94151468D01*
X224748969Y-94143074D01*
X224780185Y-94140000D01*
X225219815Y-94140000D01*
X225251031Y-94143074D01*
X225251031Y-94143074D01*
G37*
G36*
X226251031Y-94143074D02*
X226278699Y-94151468D01*
X226304200Y-94165098D01*
X226326555Y-94183445D01*
X226344902Y-94205800D01*
X226358532Y-94231301D01*
X226366926Y-94258969D01*
X226370000Y-94290185D01*
X226370000Y-94679815D01*
X226366926Y-94711031D01*
X226358532Y-94738699D01*
X226344902Y-94764200D01*
X226326555Y-94786555D01*
X226304200Y-94804902D01*
X226278699Y-94818532D01*
X226251031Y-94826926D01*
X226219815Y-94830000D01*
X225780185Y-94830000D01*
X225748969Y-94826926D01*
X225721301Y-94818532D01*
X225695800Y-94804902D01*
X225673445Y-94786555D01*
X225655098Y-94764200D01*
X225641468Y-94738699D01*
X225633074Y-94711031D01*
X225630000Y-94679815D01*
X225630000Y-94290185D01*
X225633074Y-94258969D01*
X225641468Y-94231301D01*
X225655098Y-94205800D01*
X225673445Y-94183445D01*
X225695800Y-94165098D01*
X225721301Y-94151468D01*
X225748969Y-94143074D01*
X225780185Y-94140000D01*
X226219815Y-94140000D01*
X226251031Y-94143074D01*
X226251031Y-94143074D01*
G37*
G36*
X253251031Y-93673074D02*
X253278699Y-93681468D01*
X253304200Y-93695098D01*
X253326555Y-93713445D01*
X253344902Y-93735800D01*
X253358532Y-93761301D01*
X253366926Y-93788969D01*
X253370000Y-93820185D01*
X253370000Y-94209815D01*
X253366926Y-94241031D01*
X253358532Y-94268699D01*
X253344902Y-94294200D01*
X253326555Y-94316555D01*
X253304200Y-94334902D01*
X253278699Y-94348532D01*
X253251031Y-94356926D01*
X253219815Y-94360000D01*
X252780185Y-94360000D01*
X252748969Y-94356926D01*
X252721301Y-94348532D01*
X252695800Y-94334902D01*
X252673445Y-94316555D01*
X252655098Y-94294200D01*
X252641468Y-94268699D01*
X252633074Y-94241031D01*
X252630000Y-94209815D01*
X252630000Y-93820185D01*
X252633074Y-93788969D01*
X252641468Y-93761301D01*
X252655098Y-93735800D01*
X252673445Y-93713445D01*
X252695800Y-93695098D01*
X252721301Y-93681468D01*
X252748969Y-93673074D01*
X252780185Y-93670000D01*
X253219815Y-93670000D01*
X253251031Y-93673074D01*
X253251031Y-93673074D01*
G37*
G36*
X242851031Y-93373074D02*
X242878699Y-93381468D01*
X242904200Y-93395098D01*
X242926555Y-93413445D01*
X242944902Y-93435800D01*
X242958532Y-93461301D01*
X242966926Y-93488969D01*
X242970000Y-93520185D01*
X242970000Y-93909815D01*
X242966926Y-93941031D01*
X242958532Y-93968699D01*
X242944902Y-93994200D01*
X242926555Y-94016555D01*
X242904200Y-94034902D01*
X242878699Y-94048532D01*
X242851031Y-94056926D01*
X242819815Y-94060000D01*
X242380185Y-94060000D01*
X242348969Y-94056926D01*
X242321301Y-94048532D01*
X242295800Y-94034902D01*
X242273445Y-94016555D01*
X242255098Y-93994200D01*
X242241468Y-93968699D01*
X242233074Y-93941031D01*
X242230000Y-93909815D01*
X242230000Y-93520185D01*
X242233074Y-93488969D01*
X242241468Y-93461301D01*
X242255098Y-93435800D01*
X242273445Y-93413445D01*
X242295800Y-93395098D01*
X242321301Y-93381468D01*
X242348969Y-93373074D01*
X242380185Y-93370000D01*
X242819815Y-93370000D01*
X242851031Y-93373074D01*
X242851031Y-93373074D01*
G37*
G36*
X225251031Y-93173074D02*
X225278699Y-93181468D01*
X225304200Y-93195098D01*
X225326555Y-93213445D01*
X225344902Y-93235800D01*
X225358532Y-93261301D01*
X225366926Y-93288969D01*
X225370000Y-93320185D01*
X225370000Y-93709815D01*
X225366926Y-93741031D01*
X225358532Y-93768699D01*
X225344902Y-93794200D01*
X225326555Y-93816555D01*
X225304200Y-93834902D01*
X225278699Y-93848532D01*
X225251031Y-93856926D01*
X225219815Y-93860000D01*
X224780185Y-93860000D01*
X224748969Y-93856926D01*
X224721301Y-93848532D01*
X224695800Y-93834902D01*
X224673445Y-93816555D01*
X224655098Y-93794200D01*
X224641468Y-93768699D01*
X224633074Y-93741031D01*
X224630000Y-93709815D01*
X224630000Y-93320185D01*
X224633074Y-93288969D01*
X224641468Y-93261301D01*
X224655098Y-93235800D01*
X224673445Y-93213445D01*
X224695800Y-93195098D01*
X224721301Y-93181468D01*
X224748969Y-93173074D01*
X224780185Y-93170000D01*
X225219815Y-93170000D01*
X225251031Y-93173074D01*
X225251031Y-93173074D01*
G37*
G36*
X224251031Y-93173074D02*
X224278699Y-93181468D01*
X224304200Y-93195098D01*
X224326555Y-93213445D01*
X224344902Y-93235800D01*
X224358532Y-93261301D01*
X224366926Y-93288969D01*
X224370000Y-93320185D01*
X224370000Y-93709815D01*
X224366926Y-93741031D01*
X224358532Y-93768699D01*
X224344902Y-93794200D01*
X224326555Y-93816555D01*
X224304200Y-93834902D01*
X224278699Y-93848532D01*
X224251031Y-93856926D01*
X224219815Y-93860000D01*
X223780185Y-93860000D01*
X223748969Y-93856926D01*
X223721301Y-93848532D01*
X223695800Y-93834902D01*
X223673445Y-93816555D01*
X223655098Y-93794200D01*
X223641468Y-93768699D01*
X223633074Y-93741031D01*
X223630000Y-93709815D01*
X223630000Y-93320185D01*
X223633074Y-93288969D01*
X223641468Y-93261301D01*
X223655098Y-93235800D01*
X223673445Y-93213445D01*
X223695800Y-93195098D01*
X223721301Y-93181468D01*
X223748969Y-93173074D01*
X223780185Y-93170000D01*
X224219815Y-93170000D01*
X224251031Y-93173074D01*
X224251031Y-93173074D01*
G37*
G36*
X227251031Y-93173074D02*
X227278699Y-93181468D01*
X227304200Y-93195098D01*
X227326555Y-93213445D01*
X227344902Y-93235800D01*
X227358532Y-93261301D01*
X227366926Y-93288969D01*
X227370000Y-93320185D01*
X227370000Y-93709815D01*
X227366926Y-93741031D01*
X227358532Y-93768699D01*
X227344902Y-93794200D01*
X227326555Y-93816555D01*
X227304200Y-93834902D01*
X227278699Y-93848532D01*
X227251031Y-93856926D01*
X227219815Y-93860000D01*
X226780185Y-93860000D01*
X226748969Y-93856926D01*
X226721301Y-93848532D01*
X226695800Y-93834902D01*
X226673445Y-93816555D01*
X226655098Y-93794200D01*
X226641468Y-93768699D01*
X226633074Y-93741031D01*
X226630000Y-93709815D01*
X226630000Y-93320185D01*
X226633074Y-93288969D01*
X226641468Y-93261301D01*
X226655098Y-93235800D01*
X226673445Y-93213445D01*
X226695800Y-93195098D01*
X226721301Y-93181468D01*
X226748969Y-93173074D01*
X226780185Y-93170000D01*
X227219815Y-93170000D01*
X227251031Y-93173074D01*
X227251031Y-93173074D01*
G37*
G36*
X226251031Y-93173074D02*
X226278699Y-93181468D01*
X226304200Y-93195098D01*
X226326555Y-93213445D01*
X226344902Y-93235800D01*
X226358532Y-93261301D01*
X226366926Y-93288969D01*
X226370000Y-93320185D01*
X226370000Y-93709815D01*
X226366926Y-93741031D01*
X226358532Y-93768699D01*
X226344902Y-93794200D01*
X226326555Y-93816555D01*
X226304200Y-93834902D01*
X226278699Y-93848532D01*
X226251031Y-93856926D01*
X226219815Y-93860000D01*
X225780185Y-93860000D01*
X225748969Y-93856926D01*
X225721301Y-93848532D01*
X225695800Y-93834902D01*
X225673445Y-93816555D01*
X225655098Y-93794200D01*
X225641468Y-93768699D01*
X225633074Y-93741031D01*
X225630000Y-93709815D01*
X225630000Y-93320185D01*
X225633074Y-93288969D01*
X225641468Y-93261301D01*
X225655098Y-93235800D01*
X225673445Y-93213445D01*
X225695800Y-93195098D01*
X225721301Y-93181468D01*
X225748969Y-93173074D01*
X225780185Y-93170000D01*
X226219815Y-93170000D01*
X226251031Y-93173074D01*
X226251031Y-93173074D01*
G37*
G36*
X255241031Y-92633074D02*
X255268699Y-92641468D01*
X255294200Y-92655098D01*
X255316555Y-92673445D01*
X255334902Y-92695800D01*
X255348532Y-92721301D01*
X255356926Y-92748969D01*
X255360000Y-92780185D01*
X255360000Y-93219815D01*
X255356926Y-93251031D01*
X255348532Y-93278699D01*
X255334902Y-93304200D01*
X255316555Y-93326555D01*
X255294200Y-93344902D01*
X255268699Y-93358532D01*
X255241031Y-93366926D01*
X255209815Y-93370000D01*
X254820185Y-93370000D01*
X254788969Y-93366926D01*
X254761301Y-93358532D01*
X254735800Y-93344902D01*
X254713445Y-93326555D01*
X254695098Y-93304200D01*
X254681468Y-93278699D01*
X254673074Y-93251031D01*
X254670000Y-93219815D01*
X254670000Y-92780185D01*
X254673074Y-92748969D01*
X254681468Y-92721301D01*
X254695098Y-92695800D01*
X254713445Y-92673445D01*
X254735800Y-92655098D01*
X254761301Y-92641468D01*
X254788969Y-92633074D01*
X254820185Y-92630000D01*
X255209815Y-92630000D01*
X255241031Y-92633074D01*
X255241031Y-92633074D01*
G37*
G36*
X256211031Y-92633074D02*
X256238699Y-92641468D01*
X256264200Y-92655098D01*
X256286555Y-92673445D01*
X256304902Y-92695800D01*
X256318532Y-92721301D01*
X256326926Y-92748969D01*
X256330000Y-92780185D01*
X256330000Y-93219815D01*
X256326926Y-93251031D01*
X256318532Y-93278699D01*
X256304902Y-93304200D01*
X256286555Y-93326555D01*
X256264200Y-93344902D01*
X256238699Y-93358532D01*
X256211031Y-93366926D01*
X256179815Y-93370000D01*
X255790185Y-93370000D01*
X255758969Y-93366926D01*
X255731301Y-93358532D01*
X255705800Y-93344902D01*
X255683445Y-93326555D01*
X255665098Y-93304200D01*
X255651468Y-93278699D01*
X255643074Y-93251031D01*
X255640000Y-93219815D01*
X255640000Y-92780185D01*
X255643074Y-92748969D01*
X255651468Y-92721301D01*
X255665098Y-92695800D01*
X255683445Y-92673445D01*
X255705800Y-92655098D01*
X255731301Y-92641468D01*
X255758969Y-92633074D01*
X255790185Y-92630000D01*
X256179815Y-92630000D01*
X256211031Y-92633074D01*
X256211031Y-92633074D01*
G37*
G36*
X224251031Y-91143074D02*
X224278699Y-91151468D01*
X224304200Y-91165098D01*
X224326555Y-91183445D01*
X224344902Y-91205800D01*
X224358532Y-91231301D01*
X224366926Y-91258969D01*
X224370000Y-91290185D01*
X224370000Y-91679815D01*
X224366926Y-91711031D01*
X224358532Y-91738699D01*
X224344902Y-91764200D01*
X224326555Y-91786555D01*
X224304200Y-91804902D01*
X224278699Y-91818532D01*
X224251031Y-91826926D01*
X224219815Y-91830000D01*
X223780185Y-91830000D01*
X223748969Y-91826926D01*
X223721301Y-91818532D01*
X223695800Y-91804902D01*
X223673445Y-91786555D01*
X223655098Y-91764200D01*
X223641468Y-91738699D01*
X223633074Y-91711031D01*
X223630000Y-91679815D01*
X223630000Y-91290185D01*
X223633074Y-91258969D01*
X223641468Y-91231301D01*
X223655098Y-91205800D01*
X223673445Y-91183445D01*
X223695800Y-91165098D01*
X223721301Y-91151468D01*
X223748969Y-91143074D01*
X223780185Y-91140000D01*
X224219815Y-91140000D01*
X224251031Y-91143074D01*
X224251031Y-91143074D01*
G37*
G36*
X226251031Y-91143074D02*
X226278699Y-91151468D01*
X226304200Y-91165098D01*
X226326555Y-91183445D01*
X226344902Y-91205800D01*
X226358532Y-91231301D01*
X226366926Y-91258969D01*
X226370000Y-91290185D01*
X226370000Y-91679815D01*
X226366926Y-91711031D01*
X226358532Y-91738699D01*
X226344902Y-91764200D01*
X226326555Y-91786555D01*
X226304200Y-91804902D01*
X226278699Y-91818532D01*
X226251031Y-91826926D01*
X226219815Y-91830000D01*
X225780185Y-91830000D01*
X225748969Y-91826926D01*
X225721301Y-91818532D01*
X225695800Y-91804902D01*
X225673445Y-91786555D01*
X225655098Y-91764200D01*
X225641468Y-91738699D01*
X225633074Y-91711031D01*
X225630000Y-91679815D01*
X225630000Y-91290185D01*
X225633074Y-91258969D01*
X225641468Y-91231301D01*
X225655098Y-91205800D01*
X225673445Y-91183445D01*
X225695800Y-91165098D01*
X225721301Y-91151468D01*
X225748969Y-91143074D01*
X225780185Y-91140000D01*
X226219815Y-91140000D01*
X226251031Y-91143074D01*
X226251031Y-91143074D01*
G37*
G36*
X225251031Y-91143074D02*
X225278699Y-91151468D01*
X225304200Y-91165098D01*
X225326555Y-91183445D01*
X225344902Y-91205800D01*
X225358532Y-91231301D01*
X225366926Y-91258969D01*
X225370000Y-91290185D01*
X225370000Y-91679815D01*
X225366926Y-91711031D01*
X225358532Y-91738699D01*
X225344902Y-91764200D01*
X225326555Y-91786555D01*
X225304200Y-91804902D01*
X225278699Y-91818532D01*
X225251031Y-91826926D01*
X225219815Y-91830000D01*
X224780185Y-91830000D01*
X224748969Y-91826926D01*
X224721301Y-91818532D01*
X224695800Y-91804902D01*
X224673445Y-91786555D01*
X224655098Y-91764200D01*
X224641468Y-91738699D01*
X224633074Y-91711031D01*
X224630000Y-91679815D01*
X224630000Y-91290185D01*
X224633074Y-91258969D01*
X224641468Y-91231301D01*
X224655098Y-91205800D01*
X224673445Y-91183445D01*
X224695800Y-91165098D01*
X224721301Y-91151468D01*
X224748969Y-91143074D01*
X224780185Y-91140000D01*
X225219815Y-91140000D01*
X225251031Y-91143074D01*
X225251031Y-91143074D01*
G37*
G36*
X227251031Y-91143074D02*
X227278699Y-91151468D01*
X227304200Y-91165098D01*
X227326555Y-91183445D01*
X227344902Y-91205800D01*
X227358532Y-91231301D01*
X227366926Y-91258969D01*
X227370000Y-91290185D01*
X227370000Y-91679815D01*
X227366926Y-91711031D01*
X227358532Y-91738699D01*
X227344902Y-91764200D01*
X227326555Y-91786555D01*
X227304200Y-91804902D01*
X227278699Y-91818532D01*
X227251031Y-91826926D01*
X227219815Y-91830000D01*
X226780185Y-91830000D01*
X226748969Y-91826926D01*
X226721301Y-91818532D01*
X226695800Y-91804902D01*
X226673445Y-91786555D01*
X226655098Y-91764200D01*
X226641468Y-91738699D01*
X226633074Y-91711031D01*
X226630000Y-91679815D01*
X226630000Y-91290185D01*
X226633074Y-91258969D01*
X226641468Y-91231301D01*
X226655098Y-91205800D01*
X226673445Y-91183445D01*
X226695800Y-91165098D01*
X226721301Y-91151468D01*
X226748969Y-91143074D01*
X226780185Y-91140000D01*
X227219815Y-91140000D01*
X227251031Y-91143074D01*
X227251031Y-91143074D01*
G37*
G36*
X255251031Y-90843074D02*
X255278699Y-90851468D01*
X255304200Y-90865098D01*
X255326555Y-90883445D01*
X255344902Y-90905800D01*
X255358532Y-90931301D01*
X255366926Y-90958969D01*
X255370000Y-90990185D01*
X255370000Y-91379815D01*
X255366926Y-91411031D01*
X255358532Y-91438699D01*
X255344902Y-91464200D01*
X255326555Y-91486555D01*
X255304200Y-91504902D01*
X255278699Y-91518532D01*
X255251031Y-91526926D01*
X255219815Y-91530000D01*
X254780185Y-91530000D01*
X254748969Y-91526926D01*
X254721301Y-91518532D01*
X254695800Y-91504902D01*
X254673445Y-91486555D01*
X254655098Y-91464200D01*
X254641468Y-91438699D01*
X254633074Y-91411031D01*
X254630000Y-91379815D01*
X254630000Y-90990185D01*
X254633074Y-90958969D01*
X254641468Y-90931301D01*
X254655098Y-90905800D01*
X254673445Y-90883445D01*
X254695800Y-90865098D01*
X254721301Y-90851468D01*
X254748969Y-90843074D01*
X254780185Y-90840000D01*
X255219815Y-90840000D01*
X255251031Y-90843074D01*
X255251031Y-90843074D01*
G37*
G36*
X227251031Y-90173074D02*
X227278699Y-90181468D01*
X227304200Y-90195098D01*
X227326555Y-90213445D01*
X227344902Y-90235800D01*
X227358532Y-90261301D01*
X227366926Y-90288969D01*
X227370000Y-90320185D01*
X227370000Y-90709815D01*
X227366926Y-90741031D01*
X227358532Y-90768699D01*
X227344902Y-90794200D01*
X227326555Y-90816555D01*
X227304200Y-90834902D01*
X227278699Y-90848532D01*
X227251031Y-90856926D01*
X227219815Y-90860000D01*
X226780185Y-90860000D01*
X226748969Y-90856926D01*
X226721301Y-90848532D01*
X226695800Y-90834902D01*
X226673445Y-90816555D01*
X226655098Y-90794200D01*
X226641468Y-90768699D01*
X226633074Y-90741031D01*
X226630000Y-90709815D01*
X226630000Y-90320185D01*
X226633074Y-90288969D01*
X226641468Y-90261301D01*
X226655098Y-90235800D01*
X226673445Y-90213445D01*
X226695800Y-90195098D01*
X226721301Y-90181468D01*
X226748969Y-90173074D01*
X226780185Y-90170000D01*
X227219815Y-90170000D01*
X227251031Y-90173074D01*
X227251031Y-90173074D01*
G37*
G36*
X224251031Y-90173074D02*
X224278699Y-90181468D01*
X224304200Y-90195098D01*
X224326555Y-90213445D01*
X224344902Y-90235800D01*
X224358532Y-90261301D01*
X224366926Y-90288969D01*
X224370000Y-90320185D01*
X224370000Y-90709815D01*
X224366926Y-90741031D01*
X224358532Y-90768699D01*
X224344902Y-90794200D01*
X224326555Y-90816555D01*
X224304200Y-90834902D01*
X224278699Y-90848532D01*
X224251031Y-90856926D01*
X224219815Y-90860000D01*
X223780185Y-90860000D01*
X223748969Y-90856926D01*
X223721301Y-90848532D01*
X223695800Y-90834902D01*
X223673445Y-90816555D01*
X223655098Y-90794200D01*
X223641468Y-90768699D01*
X223633074Y-90741031D01*
X223630000Y-90709815D01*
X223630000Y-90320185D01*
X223633074Y-90288969D01*
X223641468Y-90261301D01*
X223655098Y-90235800D01*
X223673445Y-90213445D01*
X223695800Y-90195098D01*
X223721301Y-90181468D01*
X223748969Y-90173074D01*
X223780185Y-90170000D01*
X224219815Y-90170000D01*
X224251031Y-90173074D01*
X224251031Y-90173074D01*
G37*
G36*
X225251031Y-90173074D02*
X225278699Y-90181468D01*
X225304200Y-90195098D01*
X225326555Y-90213445D01*
X225344902Y-90235800D01*
X225358532Y-90261301D01*
X225366926Y-90288969D01*
X225370000Y-90320185D01*
X225370000Y-90709815D01*
X225366926Y-90741031D01*
X225358532Y-90768699D01*
X225344902Y-90794200D01*
X225326555Y-90816555D01*
X225304200Y-90834902D01*
X225278699Y-90848532D01*
X225251031Y-90856926D01*
X225219815Y-90860000D01*
X224780185Y-90860000D01*
X224748969Y-90856926D01*
X224721301Y-90848532D01*
X224695800Y-90834902D01*
X224673445Y-90816555D01*
X224655098Y-90794200D01*
X224641468Y-90768699D01*
X224633074Y-90741031D01*
X224630000Y-90709815D01*
X224630000Y-90320185D01*
X224633074Y-90288969D01*
X224641468Y-90261301D01*
X224655098Y-90235800D01*
X224673445Y-90213445D01*
X224695800Y-90195098D01*
X224721301Y-90181468D01*
X224748969Y-90173074D01*
X224780185Y-90170000D01*
X225219815Y-90170000D01*
X225251031Y-90173074D01*
X225251031Y-90173074D01*
G37*
G36*
X226251031Y-90173074D02*
X226278699Y-90181468D01*
X226304200Y-90195098D01*
X226326555Y-90213445D01*
X226344902Y-90235800D01*
X226358532Y-90261301D01*
X226366926Y-90288969D01*
X226370000Y-90320185D01*
X226370000Y-90709815D01*
X226366926Y-90741031D01*
X226358532Y-90768699D01*
X226344902Y-90794200D01*
X226326555Y-90816555D01*
X226304200Y-90834902D01*
X226278699Y-90848532D01*
X226251031Y-90856926D01*
X226219815Y-90860000D01*
X225780185Y-90860000D01*
X225748969Y-90856926D01*
X225721301Y-90848532D01*
X225695800Y-90834902D01*
X225673445Y-90816555D01*
X225655098Y-90794200D01*
X225641468Y-90768699D01*
X225633074Y-90741031D01*
X225630000Y-90709815D01*
X225630000Y-90320185D01*
X225633074Y-90288969D01*
X225641468Y-90261301D01*
X225655098Y-90235800D01*
X225673445Y-90213445D01*
X225695800Y-90195098D01*
X225721301Y-90181468D01*
X225748969Y-90173074D01*
X225780185Y-90170000D01*
X226219815Y-90170000D01*
X226251031Y-90173074D01*
X226251031Y-90173074D01*
G37*
G36*
X255251031Y-89873074D02*
X255278699Y-89881468D01*
X255304200Y-89895098D01*
X255326555Y-89913445D01*
X255344902Y-89935800D01*
X255358532Y-89961301D01*
X255366926Y-89988969D01*
X255370000Y-90020185D01*
X255370000Y-90409815D01*
X255366926Y-90441031D01*
X255358532Y-90468699D01*
X255344902Y-90494200D01*
X255326555Y-90516555D01*
X255304200Y-90534902D01*
X255278699Y-90548532D01*
X255251031Y-90556926D01*
X255219815Y-90560000D01*
X254780185Y-90560000D01*
X254748969Y-90556926D01*
X254721301Y-90548532D01*
X254695800Y-90534902D01*
X254673445Y-90516555D01*
X254655098Y-90494200D01*
X254641468Y-90468699D01*
X254633074Y-90441031D01*
X254630000Y-90409815D01*
X254630000Y-90020185D01*
X254633074Y-89988969D01*
X254641468Y-89961301D01*
X254655098Y-89935800D01*
X254673445Y-89913445D01*
X254695800Y-89895098D01*
X254721301Y-89881468D01*
X254748969Y-89873074D01*
X254780185Y-89870000D01*
X255219815Y-89870000D01*
X255251031Y-89873074D01*
X255251031Y-89873074D01*
G37*
G36*
X247251031Y-89643074D02*
X247278699Y-89651468D01*
X247304200Y-89665098D01*
X247326555Y-89683445D01*
X247344902Y-89705800D01*
X247358532Y-89731301D01*
X247366926Y-89758969D01*
X247370000Y-89790185D01*
X247370000Y-90179815D01*
X247366926Y-90211031D01*
X247358532Y-90238699D01*
X247344902Y-90264200D01*
X247326555Y-90286555D01*
X247304200Y-90304902D01*
X247278699Y-90318532D01*
X247251031Y-90326926D01*
X247219815Y-90330000D01*
X246780185Y-90330000D01*
X246748969Y-90326926D01*
X246721301Y-90318532D01*
X246695800Y-90304902D01*
X246673445Y-90286555D01*
X246655098Y-90264200D01*
X246641468Y-90238699D01*
X246633074Y-90211031D01*
X246630000Y-90179815D01*
X246630000Y-89790185D01*
X246633074Y-89758969D01*
X246641468Y-89731301D01*
X246655098Y-89705800D01*
X246673445Y-89683445D01*
X246695800Y-89665098D01*
X246721301Y-89651468D01*
X246748969Y-89643074D01*
X246780185Y-89640000D01*
X247219815Y-89640000D01*
X247251031Y-89643074D01*
X247251031Y-89643074D01*
G37*
G36*
X249251031Y-89643074D02*
X249278699Y-89651468D01*
X249304200Y-89665098D01*
X249326555Y-89683445D01*
X249344902Y-89705800D01*
X249358532Y-89731301D01*
X249366926Y-89758969D01*
X249370000Y-89790185D01*
X249370000Y-90179815D01*
X249366926Y-90211031D01*
X249358532Y-90238699D01*
X249344902Y-90264200D01*
X249326555Y-90286555D01*
X249304200Y-90304902D01*
X249278699Y-90318532D01*
X249251031Y-90326926D01*
X249219815Y-90330000D01*
X248780185Y-90330000D01*
X248748969Y-90326926D01*
X248721301Y-90318532D01*
X248695800Y-90304902D01*
X248673445Y-90286555D01*
X248655098Y-90264200D01*
X248641468Y-90238699D01*
X248633074Y-90211031D01*
X248630000Y-90179815D01*
X248630000Y-89790185D01*
X248633074Y-89758969D01*
X248641468Y-89731301D01*
X248655098Y-89705800D01*
X248673445Y-89683445D01*
X248695800Y-89665098D01*
X248721301Y-89651468D01*
X248748969Y-89643074D01*
X248780185Y-89640000D01*
X249219815Y-89640000D01*
X249251031Y-89643074D01*
X249251031Y-89643074D01*
G37*
G36*
X180629197Y-87149958D02*
X180825218Y-87231153D01*
X180865781Y-87247955D01*
X181078702Y-87390224D01*
X181259776Y-87571298D01*
X181402045Y-87784219D01*
X181500042Y-88020804D01*
X181548320Y-88263513D01*
X181550000Y-88271962D01*
X181550000Y-88528038D01*
X181500042Y-88779197D01*
X181483064Y-88820185D01*
X181402045Y-89015781D01*
X181259776Y-89228702D01*
X181078702Y-89409776D01*
X180865781Y-89552045D01*
X180865780Y-89552046D01*
X180865779Y-89552046D01*
X180629197Y-89650042D01*
X180503617Y-89675021D01*
X180378039Y-89700000D01*
X180121961Y-89700000D01*
X179996383Y-89675021D01*
X179870803Y-89650042D01*
X179634221Y-89552046D01*
X179634220Y-89552046D01*
X179634219Y-89552045D01*
X179421298Y-89409776D01*
X179240224Y-89228702D01*
X179097955Y-89015781D01*
X179016936Y-88820185D01*
X178999958Y-88779197D01*
X178950000Y-88528038D01*
X178950000Y-88271962D01*
X178951681Y-88263513D01*
X178999958Y-88020804D01*
X179097955Y-87784219D01*
X179240224Y-87571298D01*
X179421298Y-87390224D01*
X179634219Y-87247955D01*
X179674782Y-87231153D01*
X179870803Y-87149958D01*
X180121961Y-87100000D01*
X180378039Y-87100000D01*
X180629197Y-87149958D01*
X180629197Y-87149958D01*
G37*
G36*
X175129197Y-87149958D02*
X175325218Y-87231153D01*
X175365781Y-87247955D01*
X175578702Y-87390224D01*
X175759776Y-87571298D01*
X175902045Y-87784219D01*
X176000042Y-88020804D01*
X176048320Y-88263513D01*
X176050000Y-88271962D01*
X176050000Y-88528038D01*
X176000042Y-88779197D01*
X175983064Y-88820185D01*
X175902045Y-89015781D01*
X175759776Y-89228702D01*
X175578702Y-89409776D01*
X175365781Y-89552045D01*
X175365780Y-89552046D01*
X175365779Y-89552046D01*
X175129197Y-89650042D01*
X175003617Y-89675021D01*
X174878039Y-89700000D01*
X174621961Y-89700000D01*
X174496383Y-89675021D01*
X174370803Y-89650042D01*
X174134221Y-89552046D01*
X174134220Y-89552046D01*
X174134219Y-89552045D01*
X173921298Y-89409776D01*
X173740224Y-89228702D01*
X173597955Y-89015781D01*
X173516936Y-88820185D01*
X173499958Y-88779197D01*
X173450000Y-88528038D01*
X173450000Y-88271962D01*
X173451681Y-88263513D01*
X173499958Y-88020804D01*
X173597955Y-87784219D01*
X173740224Y-87571298D01*
X173921298Y-87390224D01*
X174134219Y-87247955D01*
X174174782Y-87231153D01*
X174370803Y-87149958D01*
X174621961Y-87100000D01*
X174878039Y-87100000D01*
X175129197Y-87149958D01*
X175129197Y-87149958D01*
G37*
G36*
X253211031Y-88633074D02*
X253238699Y-88641468D01*
X253264200Y-88655098D01*
X253286555Y-88673445D01*
X253304902Y-88695800D01*
X253318532Y-88721301D01*
X253326926Y-88748969D01*
X253330000Y-88780185D01*
X253330000Y-89219815D01*
X253326926Y-89251031D01*
X253318532Y-89278699D01*
X253304902Y-89304200D01*
X253286555Y-89326555D01*
X253264200Y-89344902D01*
X253238699Y-89358532D01*
X253211031Y-89366926D01*
X253179815Y-89370000D01*
X252790185Y-89370000D01*
X252758969Y-89366926D01*
X252731301Y-89358532D01*
X252705800Y-89344902D01*
X252683445Y-89326555D01*
X252665098Y-89304200D01*
X252651468Y-89278699D01*
X252643074Y-89251031D01*
X252640000Y-89219815D01*
X252640000Y-88780185D01*
X252643074Y-88748969D01*
X252651468Y-88721301D01*
X252665098Y-88695800D01*
X252683445Y-88673445D01*
X252705800Y-88655098D01*
X252731301Y-88641468D01*
X252758969Y-88633074D01*
X252790185Y-88630000D01*
X253179815Y-88630000D01*
X253211031Y-88633074D01*
X253211031Y-88633074D01*
G37*
G36*
X252241031Y-88633074D02*
X252268699Y-88641468D01*
X252294200Y-88655098D01*
X252316555Y-88673445D01*
X252334902Y-88695800D01*
X252348532Y-88721301D01*
X252356926Y-88748969D01*
X252360000Y-88780185D01*
X252360000Y-89219815D01*
X252356926Y-89251031D01*
X252348532Y-89278699D01*
X252334902Y-89304200D01*
X252316555Y-89326555D01*
X252294200Y-89344902D01*
X252268699Y-89358532D01*
X252241031Y-89366926D01*
X252209815Y-89370000D01*
X251820185Y-89370000D01*
X251788969Y-89366926D01*
X251761301Y-89358532D01*
X251735800Y-89344902D01*
X251713445Y-89326555D01*
X251695098Y-89304200D01*
X251681468Y-89278699D01*
X251673074Y-89251031D01*
X251670000Y-89219815D01*
X251670000Y-88780185D01*
X251673074Y-88748969D01*
X251681468Y-88721301D01*
X251695098Y-88695800D01*
X251713445Y-88673445D01*
X251735800Y-88655098D01*
X251761301Y-88641468D01*
X251788969Y-88633074D01*
X251820185Y-88630000D01*
X252209815Y-88630000D01*
X252241031Y-88633074D01*
X252241031Y-88633074D01*
G37*
G36*
X247251031Y-88673074D02*
X247278699Y-88681468D01*
X247304200Y-88695098D01*
X247326555Y-88713445D01*
X247344902Y-88735800D01*
X247358532Y-88761301D01*
X247366926Y-88788969D01*
X247370000Y-88820185D01*
X247370000Y-89209815D01*
X247366926Y-89241031D01*
X247358532Y-89268699D01*
X247344902Y-89294200D01*
X247326555Y-89316555D01*
X247304200Y-89334902D01*
X247278699Y-89348532D01*
X247251031Y-89356926D01*
X247219815Y-89360000D01*
X246780185Y-89360000D01*
X246748969Y-89356926D01*
X246721301Y-89348532D01*
X246695800Y-89334902D01*
X246673445Y-89316555D01*
X246655098Y-89294200D01*
X246641468Y-89268699D01*
X246633074Y-89241031D01*
X246630000Y-89209815D01*
X246630000Y-88820185D01*
X246633074Y-88788969D01*
X246641468Y-88761301D01*
X246655098Y-88735800D01*
X246673445Y-88713445D01*
X246695800Y-88695098D01*
X246721301Y-88681468D01*
X246748969Y-88673074D01*
X246780185Y-88670000D01*
X247219815Y-88670000D01*
X247251031Y-88673074D01*
X247251031Y-88673074D01*
G37*
G36*
X249251031Y-88673074D02*
X249278699Y-88681468D01*
X249304200Y-88695098D01*
X249326555Y-88713445D01*
X249344902Y-88735800D01*
X249358532Y-88761301D01*
X249366926Y-88788969D01*
X249370000Y-88820185D01*
X249370000Y-89209815D01*
X249366926Y-89241031D01*
X249358532Y-89268699D01*
X249344902Y-89294200D01*
X249326555Y-89316555D01*
X249304200Y-89334902D01*
X249278699Y-89348532D01*
X249251031Y-89356926D01*
X249219815Y-89360000D01*
X248780185Y-89360000D01*
X248748969Y-89356926D01*
X248721301Y-89348532D01*
X248695800Y-89334902D01*
X248673445Y-89316555D01*
X248655098Y-89294200D01*
X248641468Y-89268699D01*
X248633074Y-89241031D01*
X248630000Y-89209815D01*
X248630000Y-88820185D01*
X248633074Y-88788969D01*
X248641468Y-88761301D01*
X248655098Y-88735800D01*
X248673445Y-88713445D01*
X248695800Y-88695098D01*
X248721301Y-88681468D01*
X248748969Y-88673074D01*
X248780185Y-88670000D01*
X249219815Y-88670000D01*
X249251031Y-88673074D01*
X249251031Y-88673074D01*
G37*
G36*
X253211031Y-87633074D02*
X253238699Y-87641468D01*
X253264200Y-87655098D01*
X253286555Y-87673445D01*
X253304902Y-87695800D01*
X253318532Y-87721301D01*
X253326926Y-87748969D01*
X253330000Y-87780185D01*
X253330000Y-88219815D01*
X253326926Y-88251031D01*
X253318532Y-88278699D01*
X253304902Y-88304200D01*
X253286555Y-88326555D01*
X253264200Y-88344902D01*
X253238699Y-88358532D01*
X253211031Y-88366926D01*
X253179815Y-88370000D01*
X252790185Y-88370000D01*
X252758969Y-88366926D01*
X252731301Y-88358532D01*
X252705800Y-88344902D01*
X252683445Y-88326555D01*
X252665098Y-88304200D01*
X252651468Y-88278699D01*
X252643074Y-88251031D01*
X252640000Y-88219815D01*
X252640000Y-87780185D01*
X252643074Y-87748969D01*
X252651468Y-87721301D01*
X252665098Y-87695800D01*
X252683445Y-87673445D01*
X252705800Y-87655098D01*
X252731301Y-87641468D01*
X252758969Y-87633074D01*
X252790185Y-87630000D01*
X253179815Y-87630000D01*
X253211031Y-87633074D01*
X253211031Y-87633074D01*
G37*
G36*
X252241031Y-87633074D02*
X252268699Y-87641468D01*
X252294200Y-87655098D01*
X252316555Y-87673445D01*
X252334902Y-87695800D01*
X252348532Y-87721301D01*
X252356926Y-87748969D01*
X252360000Y-87780185D01*
X252360000Y-88219815D01*
X252356926Y-88251031D01*
X252348532Y-88278699D01*
X252334902Y-88304200D01*
X252316555Y-88326555D01*
X252294200Y-88344902D01*
X252268699Y-88358532D01*
X252241031Y-88366926D01*
X252209815Y-88370000D01*
X251820185Y-88370000D01*
X251788969Y-88366926D01*
X251761301Y-88358532D01*
X251735800Y-88344902D01*
X251713445Y-88326555D01*
X251695098Y-88304200D01*
X251681468Y-88278699D01*
X251673074Y-88251031D01*
X251670000Y-88219815D01*
X251670000Y-87780185D01*
X251673074Y-87748969D01*
X251681468Y-87721301D01*
X251695098Y-87695800D01*
X251713445Y-87673445D01*
X251735800Y-87655098D01*
X251761301Y-87641468D01*
X251788969Y-87633074D01*
X251820185Y-87630000D01*
X252209815Y-87630000D01*
X252241031Y-87633074D01*
X252241031Y-87633074D01*
G37*
G36*
X252241031Y-86633074D02*
X252268699Y-86641468D01*
X252294200Y-86655098D01*
X252316555Y-86673445D01*
X252334902Y-86695800D01*
X252348532Y-86721301D01*
X252356926Y-86748969D01*
X252360000Y-86780185D01*
X252360000Y-87219815D01*
X252356926Y-87251031D01*
X252348532Y-87278699D01*
X252334902Y-87304200D01*
X252316555Y-87326555D01*
X252294200Y-87344902D01*
X252268699Y-87358532D01*
X252241031Y-87366926D01*
X252209815Y-87370000D01*
X251820185Y-87370000D01*
X251788969Y-87366926D01*
X251761301Y-87358532D01*
X251735800Y-87344902D01*
X251713445Y-87326555D01*
X251695098Y-87304200D01*
X251681468Y-87278699D01*
X251673074Y-87251031D01*
X251670000Y-87219815D01*
X251670000Y-86780185D01*
X251673074Y-86748969D01*
X251681468Y-86721301D01*
X251695098Y-86695800D01*
X251713445Y-86673445D01*
X251735800Y-86655098D01*
X251761301Y-86641468D01*
X251788969Y-86633074D01*
X251820185Y-86630000D01*
X252209815Y-86630000D01*
X252241031Y-86633074D01*
X252241031Y-86633074D01*
G37*
G36*
X253211031Y-86633074D02*
X253238699Y-86641468D01*
X253264200Y-86655098D01*
X253286555Y-86673445D01*
X253304902Y-86695800D01*
X253318532Y-86721301D01*
X253326926Y-86748969D01*
X253330000Y-86780185D01*
X253330000Y-87219815D01*
X253326926Y-87251031D01*
X253318532Y-87278699D01*
X253304902Y-87304200D01*
X253286555Y-87326555D01*
X253264200Y-87344902D01*
X253238699Y-87358532D01*
X253211031Y-87366926D01*
X253179815Y-87370000D01*
X252790185Y-87370000D01*
X252758969Y-87366926D01*
X252731301Y-87358532D01*
X252705800Y-87344902D01*
X252683445Y-87326555D01*
X252665098Y-87304200D01*
X252651468Y-87278699D01*
X252643074Y-87251031D01*
X252640000Y-87219815D01*
X252640000Y-86780185D01*
X252643074Y-86748969D01*
X252651468Y-86721301D01*
X252665098Y-86695800D01*
X252683445Y-86673445D01*
X252705800Y-86655098D01*
X252731301Y-86641468D01*
X252758969Y-86633074D01*
X252790185Y-86630000D01*
X253179815Y-86630000D01*
X253211031Y-86633074D01*
X253211031Y-86633074D01*
G37*
G36*
X177660430Y-85971136D02*
X177760521Y-86012596D01*
X177760523Y-86012597D01*
X177850604Y-86072787D01*
X177927212Y-86149395D01*
X177987404Y-86239479D01*
X178028864Y-86339570D01*
X178050000Y-86445830D01*
X178050000Y-86554170D01*
X178028864Y-86660430D01*
X178014213Y-86695800D01*
X177987403Y-86760523D01*
X177927213Y-86850604D01*
X177850604Y-86927213D01*
X177760523Y-86987403D01*
X177760522Y-86987404D01*
X177760521Y-86987404D01*
X177660430Y-87028864D01*
X177554170Y-87050000D01*
X177445830Y-87050000D01*
X177339570Y-87028864D01*
X177239479Y-86987404D01*
X177239478Y-86987404D01*
X177239477Y-86987403D01*
X177149396Y-86927213D01*
X177072787Y-86850604D01*
X177012597Y-86760523D01*
X176985787Y-86695800D01*
X176971136Y-86660430D01*
X176950000Y-86554170D01*
X176950000Y-86445830D01*
X176971136Y-86339570D01*
X177012596Y-86239479D01*
X177072788Y-86149395D01*
X177149396Y-86072787D01*
X177239477Y-86012597D01*
X177239479Y-86012596D01*
X177339570Y-85971136D01*
X177445830Y-85950000D01*
X177554170Y-85950000D01*
X177660430Y-85971136D01*
X177660430Y-85971136D01*
G37*
G36*
X252241031Y-85633074D02*
X252268699Y-85641468D01*
X252294200Y-85655098D01*
X252316555Y-85673445D01*
X252334902Y-85695800D01*
X252348532Y-85721301D01*
X252356926Y-85748969D01*
X252360000Y-85780185D01*
X252360000Y-86219815D01*
X252356926Y-86251031D01*
X252348532Y-86278699D01*
X252334902Y-86304200D01*
X252316555Y-86326555D01*
X252294200Y-86344902D01*
X252268699Y-86358532D01*
X252241031Y-86366926D01*
X252209815Y-86370000D01*
X251820185Y-86370000D01*
X251788969Y-86366926D01*
X251761301Y-86358532D01*
X251735800Y-86344902D01*
X251713445Y-86326555D01*
X251695098Y-86304200D01*
X251681468Y-86278699D01*
X251673074Y-86251031D01*
X251670000Y-86219815D01*
X251670000Y-85780185D01*
X251673074Y-85748969D01*
X251681468Y-85721301D01*
X251695098Y-85695800D01*
X251713445Y-85673445D01*
X251735800Y-85655098D01*
X251761301Y-85641468D01*
X251788969Y-85633074D01*
X251820185Y-85630000D01*
X252209815Y-85630000D01*
X252241031Y-85633074D01*
X252241031Y-85633074D01*
G37*
G36*
X253211031Y-85633074D02*
X253238699Y-85641468D01*
X253264200Y-85655098D01*
X253286555Y-85673445D01*
X253304902Y-85695800D01*
X253318532Y-85721301D01*
X253326926Y-85748969D01*
X253330000Y-85780185D01*
X253330000Y-86219815D01*
X253326926Y-86251031D01*
X253318532Y-86278699D01*
X253304902Y-86304200D01*
X253286555Y-86326555D01*
X253264200Y-86344902D01*
X253238699Y-86358532D01*
X253211031Y-86366926D01*
X253179815Y-86370000D01*
X252790185Y-86370000D01*
X252758969Y-86366926D01*
X252731301Y-86358532D01*
X252705800Y-86344902D01*
X252683445Y-86326555D01*
X252665098Y-86304200D01*
X252651468Y-86278699D01*
X252643074Y-86251031D01*
X252640000Y-86219815D01*
X252640000Y-85780185D01*
X252643074Y-85748969D01*
X252651468Y-85721301D01*
X252665098Y-85695800D01*
X252683445Y-85673445D01*
X252705800Y-85655098D01*
X252731301Y-85641468D01*
X252758969Y-85633074D01*
X252790185Y-85630000D01*
X253179815Y-85630000D01*
X253211031Y-85633074D01*
X253211031Y-85633074D01*
G37*
G36*
X176379197Y-81849958D02*
X176615779Y-81947954D01*
X176615781Y-81947955D01*
X176828702Y-82090224D01*
X177009776Y-82271298D01*
X177152045Y-82484219D01*
X177250042Y-82720804D01*
X177300000Y-82971961D01*
X177300000Y-83228039D01*
X177250042Y-83479196D01*
X177152045Y-83715781D01*
X177009776Y-83928702D01*
X176828702Y-84109776D01*
X176615781Y-84252045D01*
X176615780Y-84252046D01*
X176615779Y-84252046D01*
X176379197Y-84350042D01*
X176253617Y-84375021D01*
X176128039Y-84400000D01*
X175871961Y-84400000D01*
X175620803Y-84350042D01*
X175384221Y-84252046D01*
X175384220Y-84252046D01*
X175384219Y-84252045D01*
X175171298Y-84109776D01*
X174990224Y-83928702D01*
X174847955Y-83715781D01*
X174749958Y-83479196D01*
X174700000Y-83228039D01*
X174700000Y-82971961D01*
X174749958Y-82720804D01*
X174847955Y-82484219D01*
X174990224Y-82271298D01*
X175171298Y-82090224D01*
X175384219Y-81947955D01*
X175384221Y-81947954D01*
X175620803Y-81849958D01*
X175871961Y-81800000D01*
X176128039Y-81800000D01*
X176379197Y-81849958D01*
X176379197Y-81849958D01*
G37*
G36*
X255791689Y-81463429D02*
X255973678Y-81538811D01*
X256137463Y-81648249D01*
X256276751Y-81787537D01*
X256386189Y-81951322D01*
X256461571Y-82133311D01*
X256500000Y-82326509D01*
X256500000Y-82523491D01*
X256461571Y-82716689D01*
X256386189Y-82898678D01*
X256276751Y-83062463D01*
X256137463Y-83201751D01*
X255973678Y-83311189D01*
X255791689Y-83386571D01*
X255598491Y-83425000D01*
X255401509Y-83425000D01*
X255208311Y-83386571D01*
X255026322Y-83311189D01*
X254862537Y-83201751D01*
X254723249Y-83062463D01*
X254613811Y-82898678D01*
X254538429Y-82716689D01*
X254500000Y-82523491D01*
X254500000Y-82326509D01*
X254538429Y-82133311D01*
X254613811Y-81951322D01*
X254723249Y-81787537D01*
X254862537Y-81648249D01*
X255026322Y-81538811D01*
X255208311Y-81463429D01*
X255401509Y-81425000D01*
X255598491Y-81425000D01*
X255791689Y-81463429D01*
X255791689Y-81463429D01*
G37*
G36*
X241291689Y-81463429D02*
X241473678Y-81538811D01*
X241637463Y-81648249D01*
X241776751Y-81787537D01*
X241886189Y-81951322D01*
X241961571Y-82133311D01*
X242000000Y-82326509D01*
X242000000Y-82523491D01*
X241961571Y-82716689D01*
X241886189Y-82898678D01*
X241776751Y-83062463D01*
X241637463Y-83201751D01*
X241473678Y-83311189D01*
X241291689Y-83386571D01*
X241098491Y-83425000D01*
X240901509Y-83425000D01*
X240708311Y-83386571D01*
X240526322Y-83311189D01*
X240362537Y-83201751D01*
X240223249Y-83062463D01*
X240113811Y-82898678D01*
X240038429Y-82716689D01*
X240000000Y-82523491D01*
X240000000Y-82326509D01*
X240038429Y-82133311D01*
X240113811Y-81951322D01*
X240223249Y-81787537D01*
X240362537Y-81648249D01*
X240526322Y-81538811D01*
X240708311Y-81463429D01*
X240901509Y-81425000D01*
X241098491Y-81425000D01*
X241291689Y-81463429D01*
X241291689Y-81463429D01*
G37*
G36*
X201391031Y-80483074D02*
X201418699Y-80491468D01*
X201444200Y-80505098D01*
X201466555Y-80523445D01*
X201484902Y-80545800D01*
X201498532Y-80571301D01*
X201506926Y-80598969D01*
X201510000Y-80630185D01*
X201510000Y-81069815D01*
X201506926Y-81101031D01*
X201498532Y-81128699D01*
X201484902Y-81154200D01*
X201466555Y-81176555D01*
X201444200Y-81194902D01*
X201418699Y-81208532D01*
X201391031Y-81216926D01*
X201359815Y-81220000D01*
X200970185Y-81220000D01*
X200938969Y-81216926D01*
X200911301Y-81208532D01*
X200885800Y-81194902D01*
X200863445Y-81176555D01*
X200845098Y-81154200D01*
X200831468Y-81128699D01*
X200823074Y-81101031D01*
X200820000Y-81069815D01*
X200820000Y-80630185D01*
X200823074Y-80598969D01*
X200831468Y-80571301D01*
X200845098Y-80545800D01*
X200863445Y-80523445D01*
X200885800Y-80505098D01*
X200911301Y-80491468D01*
X200938969Y-80483074D01*
X200970185Y-80480000D01*
X201359815Y-80480000D01*
X201391031Y-80483074D01*
X201391031Y-80483074D01*
G37*
G36*
X202361031Y-80483074D02*
X202388699Y-80491468D01*
X202414200Y-80505098D01*
X202436555Y-80523445D01*
X202454902Y-80545800D01*
X202468532Y-80571301D01*
X202476926Y-80598969D01*
X202480000Y-80630185D01*
X202480000Y-81069815D01*
X202476926Y-81101031D01*
X202468532Y-81128699D01*
X202454902Y-81154200D01*
X202436555Y-81176555D01*
X202414200Y-81194902D01*
X202388699Y-81208532D01*
X202361031Y-81216926D01*
X202329815Y-81220000D01*
X201940185Y-81220000D01*
X201908969Y-81216926D01*
X201881301Y-81208532D01*
X201855800Y-81194902D01*
X201833445Y-81176555D01*
X201815098Y-81154200D01*
X201801468Y-81128699D01*
X201793074Y-81101031D01*
X201790000Y-81069815D01*
X201790000Y-80630185D01*
X201793074Y-80598969D01*
X201801468Y-80571301D01*
X201815098Y-80545800D01*
X201833445Y-80523445D01*
X201855800Y-80505098D01*
X201881301Y-80491468D01*
X201908969Y-80483074D01*
X201940185Y-80480000D01*
X202329815Y-80480000D01*
X202361031Y-80483074D01*
X202361031Y-80483074D01*
G37*
G36*
X221651195Y-79202391D02*
X221726060Y-79217283D01*
X221773073Y-79236757D01*
X221867100Y-79275704D01*
X221994034Y-79360518D01*
X222101982Y-79468466D01*
X222186796Y-79595400D01*
X222245217Y-79736441D01*
X222275000Y-79886169D01*
X222275000Y-80038831D01*
X222245217Y-80188559D01*
X222186796Y-80329600D01*
X222101982Y-80456534D01*
X221994034Y-80564482D01*
X221867100Y-80649296D01*
X221773073Y-80688243D01*
X221726060Y-80707717D01*
X221651195Y-80722609D01*
X221576331Y-80737500D01*
X221423669Y-80737500D01*
X221348805Y-80722609D01*
X221273940Y-80707717D01*
X221226927Y-80688243D01*
X221132900Y-80649296D01*
X221005966Y-80564482D01*
X220898018Y-80456534D01*
X220813204Y-80329600D01*
X220754783Y-80188559D01*
X220725000Y-80038831D01*
X220725000Y-79886169D01*
X220754783Y-79736441D01*
X220813204Y-79595400D01*
X220898018Y-79468466D01*
X221005966Y-79360518D01*
X221132900Y-79275704D01*
X221226927Y-79236757D01*
X221273940Y-79217283D01*
X221348805Y-79202391D01*
X221423669Y-79187500D01*
X221576331Y-79187500D01*
X221651195Y-79202391D01*
X221651195Y-79202391D01*
G37*
G36*
X226651195Y-79202391D02*
X226726060Y-79217283D01*
X226773073Y-79236757D01*
X226867100Y-79275704D01*
X226994034Y-79360518D01*
X227101982Y-79468466D01*
X227186796Y-79595400D01*
X227245217Y-79736441D01*
X227275000Y-79886169D01*
X227275000Y-80038831D01*
X227245217Y-80188559D01*
X227186796Y-80329600D01*
X227101982Y-80456534D01*
X226994034Y-80564482D01*
X226867100Y-80649296D01*
X226773073Y-80688243D01*
X226726060Y-80707717D01*
X226651195Y-80722609D01*
X226576331Y-80737500D01*
X226423669Y-80737500D01*
X226348805Y-80722609D01*
X226273940Y-80707717D01*
X226226927Y-80688243D01*
X226132900Y-80649296D01*
X226005966Y-80564482D01*
X225898018Y-80456534D01*
X225813204Y-80329600D01*
X225754783Y-80188559D01*
X225725000Y-80038831D01*
X225725000Y-79886169D01*
X225754783Y-79736441D01*
X225813204Y-79595400D01*
X225898018Y-79468466D01*
X226005966Y-79360518D01*
X226132900Y-79275704D01*
X226226927Y-79236757D01*
X226273940Y-79217283D01*
X226348805Y-79202391D01*
X226423669Y-79187500D01*
X226576331Y-79187500D01*
X226651195Y-79202391D01*
X226651195Y-79202391D01*
G37*
G36*
X177660430Y-78471136D02*
X177760521Y-78512596D01*
X177760523Y-78512597D01*
X177850604Y-78572787D01*
X177927213Y-78649396D01*
X177987403Y-78739477D01*
X178028864Y-78839571D01*
X178050000Y-78945830D01*
X178050000Y-79054170D01*
X178028864Y-79160429D01*
X177987403Y-79260523D01*
X177927213Y-79350604D01*
X177850604Y-79427213D01*
X177760523Y-79487403D01*
X177760522Y-79487404D01*
X177760521Y-79487404D01*
X177660430Y-79528864D01*
X177554170Y-79550000D01*
X177445830Y-79550000D01*
X177339570Y-79528864D01*
X177239479Y-79487404D01*
X177239478Y-79487404D01*
X177239477Y-79487403D01*
X177149396Y-79427213D01*
X177072787Y-79350604D01*
X177012597Y-79260523D01*
X176971136Y-79160429D01*
X176950000Y-79054170D01*
X176950000Y-78945830D01*
X176971136Y-78839571D01*
X177012597Y-78739477D01*
X177072787Y-78649396D01*
X177149396Y-78572787D01*
X177239477Y-78512597D01*
X177239479Y-78512596D01*
X177339570Y-78471136D01*
X177445830Y-78450000D01*
X177554170Y-78450000D01*
X177660430Y-78471136D01*
X177660430Y-78471136D01*
G37*
G36*
X263068795Y-75624937D02*
X263423670Y-75771932D01*
X263423671Y-75771933D01*
X263743052Y-75985336D01*
X264014664Y-76256948D01*
X264049494Y-76309075D01*
X264228068Y-76576330D01*
X264375063Y-76931205D01*
X264450000Y-77307942D01*
X264450000Y-77692058D01*
X264375063Y-78068795D01*
X264228068Y-78423670D01*
X264168649Y-78512597D01*
X264017053Y-78739477D01*
X264014663Y-78743053D01*
X263743053Y-79014663D01*
X263423670Y-79228068D01*
X263068795Y-79375063D01*
X262692058Y-79450000D01*
X262307942Y-79450000D01*
X261931205Y-79375063D01*
X261576330Y-79228068D01*
X261256947Y-79014663D01*
X260985337Y-78743053D01*
X260982948Y-78739477D01*
X260831351Y-78512597D01*
X260771932Y-78423670D01*
X260624937Y-78068795D01*
X260550000Y-77692058D01*
X260550000Y-77307942D01*
X260624937Y-76931205D01*
X260771932Y-76576330D01*
X260950506Y-76309075D01*
X260985336Y-76256948D01*
X261256948Y-75985336D01*
X261576329Y-75771933D01*
X261576330Y-75771932D01*
X261931205Y-75624937D01*
X262307942Y-75550000D01*
X262692058Y-75550000D01*
X263068795Y-75624937D01*
X263068795Y-75624937D01*
G37*
G36*
X168068795Y-75624937D02*
X168423670Y-75771932D01*
X168423671Y-75771933D01*
X168743052Y-75985336D01*
X169014664Y-76256948D01*
X169049494Y-76309075D01*
X169228068Y-76576330D01*
X169375063Y-76931205D01*
X169450000Y-77307942D01*
X169450000Y-77692058D01*
X169375063Y-78068795D01*
X169228068Y-78423670D01*
X169168649Y-78512597D01*
X169017053Y-78739477D01*
X169014663Y-78743053D01*
X168743053Y-79014663D01*
X168423670Y-79228068D01*
X168068795Y-79375063D01*
X167692058Y-79450000D01*
X167307942Y-79450000D01*
X166931205Y-79375063D01*
X166576330Y-79228068D01*
X166256947Y-79014663D01*
X165985337Y-78743053D01*
X165982948Y-78739477D01*
X165831351Y-78512597D01*
X165771932Y-78423670D01*
X165624937Y-78068795D01*
X165550000Y-77692058D01*
X165550000Y-77307942D01*
X165624937Y-76931205D01*
X165771932Y-76576330D01*
X165950506Y-76309075D01*
X165985336Y-76256948D01*
X166256948Y-75985336D01*
X166576329Y-75771933D01*
X166576330Y-75771932D01*
X166931205Y-75624937D01*
X167307942Y-75550000D01*
X167692058Y-75550000D01*
X168068795Y-75624937D01*
X168068795Y-75624937D01*
G37*
G36*
X256391689Y-76563429D02*
X256573678Y-76638811D01*
X256737463Y-76748249D01*
X256876751Y-76887537D01*
X256986189Y-77051322D01*
X257061571Y-77233311D01*
X257100000Y-77426509D01*
X257100000Y-77623491D01*
X257061571Y-77816689D01*
X256986189Y-77998678D01*
X256876751Y-78162463D01*
X256737463Y-78301751D01*
X256573678Y-78411189D01*
X256391689Y-78486571D01*
X256198491Y-78525000D01*
X256001509Y-78525000D01*
X255808311Y-78486571D01*
X255626322Y-78411189D01*
X255462537Y-78301751D01*
X255323249Y-78162463D01*
X255213811Y-77998678D01*
X255138429Y-77816689D01*
X255100000Y-77623491D01*
X255100000Y-77426509D01*
X255138429Y-77233311D01*
X255213811Y-77051322D01*
X255323249Y-76887537D01*
X255462537Y-76748249D01*
X255626322Y-76638811D01*
X255808311Y-76563429D01*
X256001509Y-76525000D01*
X256198491Y-76525000D01*
X256391689Y-76563429D01*
X256391689Y-76563429D01*
G37*
G36*
X240691689Y-76563429D02*
X240873678Y-76638811D01*
X241037463Y-76748249D01*
X241176751Y-76887537D01*
X241286189Y-77051322D01*
X241361571Y-77233311D01*
X241400000Y-77426509D01*
X241400000Y-77623491D01*
X241361571Y-77816689D01*
X241286189Y-77998678D01*
X241176751Y-78162463D01*
X241037463Y-78301751D01*
X240873678Y-78411189D01*
X240691689Y-78486571D01*
X240498491Y-78525000D01*
X240301509Y-78525000D01*
X240108311Y-78486571D01*
X239926322Y-78411189D01*
X239762537Y-78301751D01*
X239623249Y-78162463D01*
X239513811Y-77998678D01*
X239438429Y-77816689D01*
X239400000Y-77623491D01*
X239400000Y-77426509D01*
X239438429Y-77233311D01*
X239513811Y-77051322D01*
X239623249Y-76887537D01*
X239762537Y-76748249D01*
X239926322Y-76638811D01*
X240108311Y-76563429D01*
X240301509Y-76525000D01*
X240498491Y-76525000D01*
X240691689Y-76563429D01*
X240691689Y-76563429D01*
G37*
G36*
X220627422Y-76271905D02*
X220749948Y-76309073D01*
X220862868Y-76369430D01*
X220961843Y-76450657D01*
X221043070Y-76549632D01*
X221103427Y-76662552D01*
X221140595Y-76785078D01*
X221150000Y-76880568D01*
X221150000Y-77644432D01*
X221140595Y-77739922D01*
X221103427Y-77862448D01*
X221043070Y-77975368D01*
X220961843Y-78074343D01*
X220862867Y-78155570D01*
X220749947Y-78215927D01*
X220627421Y-78253095D01*
X220500000Y-78265645D01*
X220372578Y-78253095D01*
X220250052Y-78215927D01*
X220137132Y-78155570D01*
X220038157Y-78074343D01*
X219956930Y-77975367D01*
X219896573Y-77862447D01*
X219859405Y-77739921D01*
X219850000Y-77644431D01*
X219850000Y-76880568D01*
X219859405Y-76785078D01*
X219896573Y-76662552D01*
X219956931Y-76549632D01*
X220038158Y-76450657D01*
X220137133Y-76369430D01*
X220250053Y-76309073D01*
X220372579Y-76271905D01*
X220500000Y-76259355D01*
X220627422Y-76271905D01*
X220627422Y-76271905D01*
G37*
G36*
X227627421Y-76271905D02*
X227749947Y-76309073D01*
X227862867Y-76369430D01*
X227961843Y-76450657D01*
X228043070Y-76549632D01*
X228103427Y-76662552D01*
X228140595Y-76785078D01*
X228150000Y-76880568D01*
X228150000Y-77644432D01*
X228140595Y-77739922D01*
X228103427Y-77862448D01*
X228043070Y-77975368D01*
X227961843Y-78074343D01*
X227862868Y-78155570D01*
X227749948Y-78215927D01*
X227627422Y-78253095D01*
X227500000Y-78265645D01*
X227372579Y-78253095D01*
X227250053Y-78215927D01*
X227137133Y-78155570D01*
X227038158Y-78074343D01*
X226956931Y-77975368D01*
X226896573Y-77862448D01*
X226859405Y-77739922D01*
X226850000Y-77644432D01*
X226850000Y-76880569D01*
X226859405Y-76785079D01*
X226896573Y-76662553D01*
X226956930Y-76549633D01*
X227038157Y-76450657D01*
X227137132Y-76369430D01*
X227250052Y-76309073D01*
X227372578Y-76271905D01*
X227500000Y-76259355D01*
X227627421Y-76271905D01*
X227627421Y-76271905D01*
G37*
M02*
