M48
;DRILL file {KiCad 5.0.2-bee76a0~70~ubuntu18.04.1} date Tue 03 Nov 2020 11:04:22 GMT
;FORMAT={-:-/ absolute / inch / decimal}
FMAT,2
INCH,TZ
T1C0.0079
T2C0.0236
T3C0.0335
T4C0.0394
T5C0.0512
T6C0.0551
T7C0.0591
T8C0.0394
T9C0.0945
%
G90
G05
T1
X6.5354Y-3.1496
X6.5354Y-4.7244
X6.6929Y-2.9921
X6.6929Y-4.8819
X6.9016Y-3.7785
X6.9478Y-3.6722
X6.9862Y-3.8455
X6.9902Y-3.6742
X7.0079Y-3.5945
X7.0197Y-3.7795
X7.0305Y-3.8465
X7.065Y-3.6713
X7.0659Y-4.2431
X7.0965Y-4.2126
X7.187Y-4.1545
X7.2264Y-4.3602
X7.3012Y-4.2648
X7.3022Y-4.0374
X7.3465Y-4.2648
X7.3829Y-4.4203
X7.4587Y-4.2657
X7.4596Y-3.9094
X7.4843Y-3.0748
X7.5846Y-3.0728
X7.5906Y-3.7205
X7.6063Y-3.685
X7.6378Y-3.7244
X7.7677Y-3.5413
X7.8238Y-3.1093
X7.8898Y-3.2687
X7.9173Y-3.2126
X7.9685Y-3.2087
X7.9823Y-3.2874
X7.9892Y-3.0925
X8.002Y-3.2283
X8.0315Y-3.5413
X8.0482Y-3.2303
X8.0502Y-3.0315
X8.0709Y-3.2106
X8.1053Y-3.1161
X8.1348Y-3.4035
X8.251Y-3.6299
X8.4252Y-3.5236
X8.4419Y-3.499
X8.4852Y-3.3533
X8.4872Y-3.436
X8.5051Y-3.4685
X8.5059Y-3.2726
X8.5433Y-3.5236
X8.5673Y-3.5343
X8.5768Y-3.3465
X8.5778Y-3.3957
X8.5797Y-3.2382
X8.5866Y-3.8327
X8.6073Y-3.2382
X8.6467Y-3.8533
X8.6476Y-3.7224
X8.6673Y-3.752
X8.6892Y-3.7337
X8.7165Y-3.2195
X8.7283Y-3.5118
X8.7283Y-3.7677
X8.7299Y-3.4827
X8.7337Y-3.7933
X8.7352Y-3.252
X8.7461Y-3.2963
X8.7461Y-3.3465
X8.7475Y-3.8124
X8.753Y-3.2205
X8.7559Y-3.5394
X8.7559Y-3.6811
X8.7677Y-3.1929
X8.7795Y-3.6811
X8.7971Y-3.814
X8.8031Y-3.626
X8.8031Y-3.6575
X8.8071Y-3.5394
X8.8209Y-3.814
X8.8307Y-3.5394
X8.8494Y-3.3455
X8.8583Y-3.626
X8.8583Y-3.6575
X8.8583Y-3.7441
X8.8612Y-3.2411
X8.8661Y-3.5394
X8.876Y-3.8238
X8.8819Y-3.9469
X8.8858Y-3.7441
X8.8898Y-3.5394
X8.9065Y-3.376
X8.9094Y-3.7441
X8.9134Y-3.5394
X8.9134Y-3.626
X8.9134Y-3.6575
X8.9291Y-3.4636
X8.9567Y-3.5433
X8.9606Y-3.7008
X8.9646Y-3.8701
X8.9843Y-3.5118
X8.9843Y-3.7677
X8.9921Y-3.8154
X9.0305Y-3.5207
X9.0325Y-3.815
X9.0354Y-3.5551
X9.0551Y-3.2244
X9.0623Y-3.7985
X9.0689Y-3.8701
X9.1024Y-3.811
X9.1457Y-3.3031
X9.1594Y-3.8701
X9.1752Y-3.3484
X9.1811Y-3.2372
X9.1811Y-3.2638
X9.1811Y-3.4281
X9.1811Y-3.4508
X9.2126Y-3.3484
X9.2283Y-3.063
X9.251Y-3.3484
X9.2598Y-3.8701
X9.2795Y-3.4281
X9.2795Y-3.4528
X9.3071Y-3.5207
X9.5256Y-3.7087
X9.5305Y-3.5531
X9.5344Y-3.4065
X9.5443Y-4.4213
X9.5472Y-3.75
X9.5709Y-3.3494
X9.5748Y-3.5138
X9.6063Y-3.2274
X9.6063Y-3.3268
X9.6161Y-3.5531
X9.6161Y-3.5827
X9.6161Y-3.7008
X9.6543Y-3.8209
X9.6654Y-3.2274
X9.6654Y-3.3268
X9.6701Y-3.8097
X9.6731Y-3.4783
X9.6772Y-3.872
X9.6802Y-3.4553
X9.6959Y-3.8027
X9.7047Y-3.5827
X9.7047Y-3.7008
X9.7244Y-3.2274
X9.7244Y-3.3268
X9.7264Y-3.8406
X9.7343Y-3.4764
X9.7409Y-3.8255
X9.7657Y-3.8169
X9.7835Y-3.2274
X9.7835Y-3.3268
X9.7854Y-3.8445
X9.7933Y-3.5827
X9.7933Y-3.7008
X9.7933Y-3.7303
X9.814Y-3.4774
X9.8209Y-3.3524
X9.8228Y-3.3268
X9.8425Y-3.4813
X9.8613Y-3.326
X9.8642Y-3.437
X9.872Y-4.2126
X9.8819Y-3.3406
X9.8917Y-3.6132
X9.9016Y-3.2274
X9.9016Y-3.3268
X9.9016Y-4.2421
X9.937Y-3.6969
X9.9371Y-3.7372
X9.9409Y-3.3465
X9.9862Y-3.4941
X9.9862Y-3.7008
X10.0079Y-3.5906
X10.0197Y-3.6417
X10.0197Y-3.6811
X10.0591Y-3.6388
X10.0591Y-3.685
X10.065Y-3.5512
X10.0677Y-3.8039
X10.0984Y-3.6811
X10.0994Y-3.6407
X10.0994Y-3.7195
X10.1181Y-3.8031
X10.1476Y-3.7795
X10.2362Y-2.9921
X10.2362Y-4.8819
X10.3937Y-3.1496
X10.3937Y-4.7244
T3
X8.7205Y-3.1481
X8.9173Y-3.1481
T4
X9.0157Y-3.8976
X9.1157Y-3.8976
X9.2157Y-3.8976
X9.3157Y-3.8976
X9.4157Y-3.8976
T5
X9.4646Y-3.0522
X9.4882Y-3.2451
X10.0591Y-3.2451
X10.0827Y-3.0522
T6
X8.878Y-4.3307
X9.0354Y-4.3307
X9.1929Y-4.3307
X9.4488Y-4.3307
X9.6063Y-4.3307
X9.7638Y-4.3307
X9.9213Y-4.3307
X7.0079Y-4.3307
X7.1654Y-4.3307
X7.3228Y-4.3307
X7.4803Y-4.3307
X7.7362Y-4.3307
X7.8937Y-4.3307
X8.0512Y-4.3307
T7
X6.8799Y-3.4803
X6.9291Y-3.2717
X7.0965Y-3.4803
T8
X6.9882Y-3.1102
X6.9882Y-3.4055
T9
X10.3346Y-3.0512
X6.5945Y-4.8228
X6.5945Y-3.0512
X10.3346Y-4.8228
T2
X8.6811Y-3.0556G85X8.6811Y-3.0281
G05
X8.9567Y-3.0281G85X8.9567Y-3.0556
G05
T0
M30
