G04 #@! TF.GenerationSoftware,KiCad,Pcbnew,5.0.2-bee76a0~70~ubuntu18.04.1*
G04 #@! TF.CreationDate,2020-11-03T11:03:39+00:00*
G04 #@! TF.ProjectId,picostation,7069636f-7374-4617-9469-6f6e2e6b6963,rev?*
G04 #@! TF.SameCoordinates,Original*
G04 #@! TF.FileFunction,Legend,Bot*
G04 #@! TF.FilePolarity,Positive*
%FSLAX46Y46*%
G04 Gerber Fmt 4.6, Leading zero omitted, Abs format (unit mm)*
G04 Created by KiCad (PCBNEW 5.0.2-bee76a0~70~ubuntu18.04.1) date Tue 03 Nov 2020 11:03:39 GMT*
%MOMM*%
%LPD*%
G01*
G04 APERTURE LIST*
%ADD10C,0.120000*%
G04 APERTURE END LIST*
D10*
G04 #@! TO.C,C27*
X244310000Y-95762779D02*
X244310000Y-95437221D01*
X243290000Y-95762779D02*
X243290000Y-95437221D01*
G04 #@! TO.C,C1*
X227250000Y-87883333D02*
X227283333Y-87850000D01*
X227316666Y-87750000D01*
X227316666Y-87683333D01*
X227283333Y-87583333D01*
X227216666Y-87516666D01*
X227150000Y-87483333D01*
X227016666Y-87450000D01*
X226916666Y-87450000D01*
X226783333Y-87483333D01*
X226716666Y-87516666D01*
X226650000Y-87583333D01*
X226616666Y-87683333D01*
X226616666Y-87750000D01*
X226650000Y-87850000D01*
X226683333Y-87883333D01*
X227316666Y-88550000D02*
X227316666Y-88150000D01*
X227316666Y-88350000D02*
X226616666Y-88350000D01*
X226716666Y-88283333D01*
X226783333Y-88216666D01*
X226816666Y-88150000D01*
G04 #@! TO.C,C2*
X226250000Y-87883333D02*
X226283333Y-87850000D01*
X226316666Y-87750000D01*
X226316666Y-87683333D01*
X226283333Y-87583333D01*
X226216666Y-87516666D01*
X226150000Y-87483333D01*
X226016666Y-87450000D01*
X225916666Y-87450000D01*
X225783333Y-87483333D01*
X225716666Y-87516666D01*
X225650000Y-87583333D01*
X225616666Y-87683333D01*
X225616666Y-87750000D01*
X225650000Y-87850000D01*
X225683333Y-87883333D01*
X225683333Y-88150000D02*
X225650000Y-88183333D01*
X225616666Y-88250000D01*
X225616666Y-88416666D01*
X225650000Y-88483333D01*
X225683333Y-88516666D01*
X225750000Y-88550000D01*
X225816666Y-88550000D01*
X225916666Y-88516666D01*
X226316666Y-88116666D01*
X226316666Y-88550000D01*
G04 #@! TO.C,C3*
X225250000Y-87883333D02*
X225283333Y-87850000D01*
X225316666Y-87750000D01*
X225316666Y-87683333D01*
X225283333Y-87583333D01*
X225216666Y-87516666D01*
X225150000Y-87483333D01*
X225016666Y-87450000D01*
X224916666Y-87450000D01*
X224783333Y-87483333D01*
X224716666Y-87516666D01*
X224650000Y-87583333D01*
X224616666Y-87683333D01*
X224616666Y-87750000D01*
X224650000Y-87850000D01*
X224683333Y-87883333D01*
X224616666Y-88116666D02*
X224616666Y-88550000D01*
X224883333Y-88316666D01*
X224883333Y-88416666D01*
X224916666Y-88483333D01*
X224950000Y-88516666D01*
X225016666Y-88550000D01*
X225183333Y-88550000D01*
X225250000Y-88516666D01*
X225283333Y-88483333D01*
X225316666Y-88416666D01*
X225316666Y-88216666D01*
X225283333Y-88150000D01*
X225250000Y-88116666D01*
G04 #@! TO.C,C4*
X227250000Y-96383333D02*
X227283333Y-96350000D01*
X227316666Y-96250000D01*
X227316666Y-96183333D01*
X227283333Y-96083333D01*
X227216666Y-96016666D01*
X227150000Y-95983333D01*
X227016666Y-95950000D01*
X226916666Y-95950000D01*
X226783333Y-95983333D01*
X226716666Y-96016666D01*
X226650000Y-96083333D01*
X226616666Y-96183333D01*
X226616666Y-96250000D01*
X226650000Y-96350000D01*
X226683333Y-96383333D01*
X226850000Y-96983333D02*
X227316666Y-96983333D01*
X226583333Y-96816666D02*
X227083333Y-96650000D01*
X227083333Y-97083333D01*
G04 #@! TO.C,C8*
X225250000Y-96383333D02*
X225283333Y-96350000D01*
X225316666Y-96250000D01*
X225316666Y-96183333D01*
X225283333Y-96083333D01*
X225216666Y-96016666D01*
X225150000Y-95983333D01*
X225016666Y-95950000D01*
X224916666Y-95950000D01*
X224783333Y-95983333D01*
X224716666Y-96016666D01*
X224650000Y-96083333D01*
X224616666Y-96183333D01*
X224616666Y-96250000D01*
X224650000Y-96350000D01*
X224683333Y-96383333D01*
X224916666Y-96783333D02*
X224883333Y-96716666D01*
X224850000Y-96683333D01*
X224783333Y-96650000D01*
X224750000Y-96650000D01*
X224683333Y-96683333D01*
X224650000Y-96716666D01*
X224616666Y-96783333D01*
X224616666Y-96916666D01*
X224650000Y-96983333D01*
X224683333Y-97016666D01*
X224750000Y-97050000D01*
X224783333Y-97050000D01*
X224850000Y-97016666D01*
X224883333Y-96983333D01*
X224916666Y-96916666D01*
X224916666Y-96783333D01*
X224950000Y-96716666D01*
X224983333Y-96683333D01*
X225050000Y-96650000D01*
X225183333Y-96650000D01*
X225250000Y-96683333D01*
X225283333Y-96716666D01*
X225316666Y-96783333D01*
X225316666Y-96916666D01*
X225283333Y-96983333D01*
X225250000Y-97016666D01*
X225183333Y-97050000D01*
X225050000Y-97050000D01*
X224983333Y-97016666D01*
X224950000Y-96983333D01*
X224916666Y-96916666D01*
G04 #@! TO.C,C11*
X226250000Y-96050000D02*
X226283333Y-96016666D01*
X226316666Y-95916666D01*
X226316666Y-95850000D01*
X226283333Y-95750000D01*
X226216666Y-95683333D01*
X226150000Y-95650000D01*
X226016666Y-95616666D01*
X225916666Y-95616666D01*
X225783333Y-95650000D01*
X225716666Y-95683333D01*
X225650000Y-95750000D01*
X225616666Y-95850000D01*
X225616666Y-95916666D01*
X225650000Y-96016666D01*
X225683333Y-96050000D01*
X226316666Y-96716666D02*
X226316666Y-96316666D01*
X226316666Y-96516666D02*
X225616666Y-96516666D01*
X225716666Y-96450000D01*
X225783333Y-96383333D01*
X225816666Y-96316666D01*
X226316666Y-97383333D02*
X226316666Y-96983333D01*
X226316666Y-97183333D02*
X225616666Y-97183333D01*
X225716666Y-97116666D01*
X225783333Y-97050000D01*
X225816666Y-96983333D01*
G04 #@! TO.C,C13*
X224250000Y-87550000D02*
X224283333Y-87516666D01*
X224316666Y-87416666D01*
X224316666Y-87350000D01*
X224283333Y-87250000D01*
X224216666Y-87183333D01*
X224150000Y-87150000D01*
X224016666Y-87116666D01*
X223916666Y-87116666D01*
X223783333Y-87150000D01*
X223716666Y-87183333D01*
X223650000Y-87250000D01*
X223616666Y-87350000D01*
X223616666Y-87416666D01*
X223650000Y-87516666D01*
X223683333Y-87550000D01*
X224316666Y-88216666D02*
X224316666Y-87816666D01*
X224316666Y-88016666D02*
X223616666Y-88016666D01*
X223716666Y-87950000D01*
X223783333Y-87883333D01*
X223816666Y-87816666D01*
X223616666Y-88450000D02*
X223616666Y-88883333D01*
X223883333Y-88650000D01*
X223883333Y-88750000D01*
X223916666Y-88816666D01*
X223950000Y-88850000D01*
X224016666Y-88883333D01*
X224183333Y-88883333D01*
X224250000Y-88850000D01*
X224283333Y-88816666D01*
X224316666Y-88750000D01*
X224316666Y-88550000D01*
X224283333Y-88483333D01*
X224250000Y-88450000D01*
G04 #@! TO.C,C16*
X202100000Y-82270000D02*
X202133333Y-82303333D01*
X202233333Y-82336666D01*
X202300000Y-82336666D01*
X202400000Y-82303333D01*
X202466666Y-82236666D01*
X202500000Y-82170000D01*
X202533333Y-82036666D01*
X202533333Y-81936666D01*
X202500000Y-81803333D01*
X202466666Y-81736666D01*
X202400000Y-81670000D01*
X202300000Y-81636666D01*
X202233333Y-81636666D01*
X202133333Y-81670000D01*
X202100000Y-81703333D01*
X201433333Y-82336666D02*
X201833333Y-82336666D01*
X201633333Y-82336666D02*
X201633333Y-81636666D01*
X201700000Y-81736666D01*
X201766666Y-81803333D01*
X201833333Y-81836666D01*
X200833333Y-81636666D02*
X200966666Y-81636666D01*
X201033333Y-81670000D01*
X201066666Y-81703333D01*
X201133333Y-81803333D01*
X201166666Y-81936666D01*
X201166666Y-82203333D01*
X201133333Y-82270000D01*
X201100000Y-82303333D01*
X201033333Y-82336666D01*
X200900000Y-82336666D01*
X200833333Y-82303333D01*
X200800000Y-82270000D01*
X200766666Y-82203333D01*
X200766666Y-82036666D01*
X200800000Y-81970000D01*
X200833333Y-81936666D01*
X200900000Y-81903333D01*
X201033333Y-81903333D01*
X201100000Y-81936666D01*
X201133333Y-81970000D01*
X201166666Y-82036666D01*
G04 #@! TO.C,C18*
X179450000Y-105750000D02*
X179483333Y-105783333D01*
X179583333Y-105816666D01*
X179650000Y-105816666D01*
X179750000Y-105783333D01*
X179816666Y-105716666D01*
X179850000Y-105650000D01*
X179883333Y-105516666D01*
X179883333Y-105416666D01*
X179850000Y-105283333D01*
X179816666Y-105216666D01*
X179750000Y-105150000D01*
X179650000Y-105116666D01*
X179583333Y-105116666D01*
X179483333Y-105150000D01*
X179450000Y-105183333D01*
X178783333Y-105816666D02*
X179183333Y-105816666D01*
X178983333Y-105816666D02*
X178983333Y-105116666D01*
X179050000Y-105216666D01*
X179116666Y-105283333D01*
X179183333Y-105316666D01*
X178383333Y-105416666D02*
X178450000Y-105383333D01*
X178483333Y-105350000D01*
X178516666Y-105283333D01*
X178516666Y-105250000D01*
X178483333Y-105183333D01*
X178450000Y-105150000D01*
X178383333Y-105116666D01*
X178250000Y-105116666D01*
X178183333Y-105150000D01*
X178150000Y-105183333D01*
X178116666Y-105250000D01*
X178116666Y-105283333D01*
X178150000Y-105350000D01*
X178183333Y-105383333D01*
X178250000Y-105416666D01*
X178383333Y-105416666D01*
X178450000Y-105450000D01*
X178483333Y-105483333D01*
X178516666Y-105550000D01*
X178516666Y-105683333D01*
X178483333Y-105750000D01*
X178450000Y-105783333D01*
X178383333Y-105816666D01*
X178250000Y-105816666D01*
X178183333Y-105783333D01*
X178150000Y-105750000D01*
X178116666Y-105683333D01*
X178116666Y-105550000D01*
X178150000Y-105483333D01*
X178183333Y-105450000D01*
X178250000Y-105416666D01*
G04 #@! TO.C,C20*
X252450000Y-106080000D02*
X252483333Y-106113333D01*
X252583333Y-106146666D01*
X252650000Y-106146666D01*
X252750000Y-106113333D01*
X252816666Y-106046666D01*
X252850000Y-105980000D01*
X252883333Y-105846666D01*
X252883333Y-105746666D01*
X252850000Y-105613333D01*
X252816666Y-105546666D01*
X252750000Y-105480000D01*
X252650000Y-105446666D01*
X252583333Y-105446666D01*
X252483333Y-105480000D01*
X252450000Y-105513333D01*
X252183333Y-105513333D02*
X252150000Y-105480000D01*
X252083333Y-105446666D01*
X251916666Y-105446666D01*
X251850000Y-105480000D01*
X251816666Y-105513333D01*
X251783333Y-105580000D01*
X251783333Y-105646666D01*
X251816666Y-105746666D01*
X252216666Y-106146666D01*
X251783333Y-106146666D01*
X251350000Y-105446666D02*
X251283333Y-105446666D01*
X251216666Y-105480000D01*
X251183333Y-105513333D01*
X251150000Y-105580000D01*
X251116666Y-105713333D01*
X251116666Y-105880000D01*
X251150000Y-106013333D01*
X251183333Y-106080000D01*
X251216666Y-106113333D01*
X251283333Y-106146666D01*
X251350000Y-106146666D01*
X251416666Y-106113333D01*
X251450000Y-106080000D01*
X251483333Y-106013333D01*
X251516666Y-105880000D01*
X251516666Y-105713333D01*
X251483333Y-105580000D01*
X251450000Y-105513333D01*
X251416666Y-105480000D01*
X251350000Y-105446666D01*
G04 #@! TO.C,C21*
X248250000Y-92300000D02*
X248283333Y-92266666D01*
X248316666Y-92166666D01*
X248316666Y-92100000D01*
X248283333Y-92000000D01*
X248216666Y-91933333D01*
X248150000Y-91900000D01*
X248016666Y-91866666D01*
X247916666Y-91866666D01*
X247783333Y-91900000D01*
X247716666Y-91933333D01*
X247650000Y-92000000D01*
X247616666Y-92100000D01*
X247616666Y-92166666D01*
X247650000Y-92266666D01*
X247683333Y-92300000D01*
X247683333Y-92566666D02*
X247650000Y-92600000D01*
X247616666Y-92666666D01*
X247616666Y-92833333D01*
X247650000Y-92900000D01*
X247683333Y-92933333D01*
X247750000Y-92966666D01*
X247816666Y-92966666D01*
X247916666Y-92933333D01*
X248316666Y-92533333D01*
X248316666Y-92966666D01*
X248316666Y-93633333D02*
X248316666Y-93233333D01*
X248316666Y-93433333D02*
X247616666Y-93433333D01*
X247716666Y-93366666D01*
X247783333Y-93300000D01*
X247816666Y-93233333D01*
G04 #@! TO.C,C22*
X250950000Y-90250000D02*
X250983333Y-90283333D01*
X251083333Y-90316666D01*
X251150000Y-90316666D01*
X251250000Y-90283333D01*
X251316666Y-90216666D01*
X251350000Y-90150000D01*
X251383333Y-90016666D01*
X251383333Y-89916666D01*
X251350000Y-89783333D01*
X251316666Y-89716666D01*
X251250000Y-89650000D01*
X251150000Y-89616666D01*
X251083333Y-89616666D01*
X250983333Y-89650000D01*
X250950000Y-89683333D01*
X250683333Y-89683333D02*
X250650000Y-89650000D01*
X250583333Y-89616666D01*
X250416666Y-89616666D01*
X250350000Y-89650000D01*
X250316666Y-89683333D01*
X250283333Y-89750000D01*
X250283333Y-89816666D01*
X250316666Y-89916666D01*
X250716666Y-90316666D01*
X250283333Y-90316666D01*
X250016666Y-89683333D02*
X249983333Y-89650000D01*
X249916666Y-89616666D01*
X249750000Y-89616666D01*
X249683333Y-89650000D01*
X249650000Y-89683333D01*
X249616666Y-89750000D01*
X249616666Y-89816666D01*
X249650000Y-89916666D01*
X250050000Y-90316666D01*
X249616666Y-90316666D01*
G04 #@! TO.C,C23*
X242850000Y-91650000D02*
X242883333Y-91616666D01*
X242916666Y-91516666D01*
X242916666Y-91450000D01*
X242883333Y-91350000D01*
X242816666Y-91283333D01*
X242750000Y-91250000D01*
X242616666Y-91216666D01*
X242516666Y-91216666D01*
X242383333Y-91250000D01*
X242316666Y-91283333D01*
X242250000Y-91350000D01*
X242216666Y-91450000D01*
X242216666Y-91516666D01*
X242250000Y-91616666D01*
X242283333Y-91650000D01*
X242283333Y-91916666D02*
X242250000Y-91950000D01*
X242216666Y-92016666D01*
X242216666Y-92183333D01*
X242250000Y-92250000D01*
X242283333Y-92283333D01*
X242350000Y-92316666D01*
X242416666Y-92316666D01*
X242516666Y-92283333D01*
X242916666Y-91883333D01*
X242916666Y-92316666D01*
X242216666Y-92550000D02*
X242216666Y-92983333D01*
X242483333Y-92750000D01*
X242483333Y-92850000D01*
X242516666Y-92916666D01*
X242550000Y-92950000D01*
X242616666Y-92983333D01*
X242783333Y-92983333D01*
X242850000Y-92950000D01*
X242883333Y-92916666D01*
X242916666Y-92850000D01*
X242916666Y-92650000D01*
X242883333Y-92583333D01*
X242850000Y-92550000D01*
G04 #@! TO.C,C24*
X245950000Y-90250000D02*
X245983333Y-90283333D01*
X246083333Y-90316666D01*
X246150000Y-90316666D01*
X246250000Y-90283333D01*
X246316666Y-90216666D01*
X246350000Y-90150000D01*
X246383333Y-90016666D01*
X246383333Y-89916666D01*
X246350000Y-89783333D01*
X246316666Y-89716666D01*
X246250000Y-89650000D01*
X246150000Y-89616666D01*
X246083333Y-89616666D01*
X245983333Y-89650000D01*
X245950000Y-89683333D01*
X245683333Y-89683333D02*
X245650000Y-89650000D01*
X245583333Y-89616666D01*
X245416666Y-89616666D01*
X245350000Y-89650000D01*
X245316666Y-89683333D01*
X245283333Y-89750000D01*
X245283333Y-89816666D01*
X245316666Y-89916666D01*
X245716666Y-90316666D01*
X245283333Y-90316666D01*
X244683333Y-89850000D02*
X244683333Y-90316666D01*
X244850000Y-89583333D02*
X245016666Y-90083333D01*
X244583333Y-90083333D01*
G04 #@! TO.C,C25*
X245250000Y-92300000D02*
X245283333Y-92266666D01*
X245316666Y-92166666D01*
X245316666Y-92100000D01*
X245283333Y-92000000D01*
X245216666Y-91933333D01*
X245150000Y-91900000D01*
X245016666Y-91866666D01*
X244916666Y-91866666D01*
X244783333Y-91900000D01*
X244716666Y-91933333D01*
X244650000Y-92000000D01*
X244616666Y-92100000D01*
X244616666Y-92166666D01*
X244650000Y-92266666D01*
X244683333Y-92300000D01*
X244683333Y-92566666D02*
X244650000Y-92600000D01*
X244616666Y-92666666D01*
X244616666Y-92833333D01*
X244650000Y-92900000D01*
X244683333Y-92933333D01*
X244750000Y-92966666D01*
X244816666Y-92966666D01*
X244916666Y-92933333D01*
X245316666Y-92533333D01*
X245316666Y-92966666D01*
X244616666Y-93600000D02*
X244616666Y-93266666D01*
X244950000Y-93233333D01*
X244916666Y-93266666D01*
X244883333Y-93333333D01*
X244883333Y-93500000D01*
X244916666Y-93566666D01*
X244950000Y-93600000D01*
X245016666Y-93633333D01*
X245183333Y-93633333D01*
X245250000Y-93600000D01*
X245283333Y-93566666D01*
X245316666Y-93500000D01*
X245316666Y-93333333D01*
X245283333Y-93266666D01*
X245250000Y-93233333D01*
G04 #@! TO.C,C26*
X247250000Y-92300000D02*
X247283333Y-92266666D01*
X247316666Y-92166666D01*
X247316666Y-92100000D01*
X247283333Y-92000000D01*
X247216666Y-91933333D01*
X247150000Y-91900000D01*
X247016666Y-91866666D01*
X246916666Y-91866666D01*
X246783333Y-91900000D01*
X246716666Y-91933333D01*
X246650000Y-92000000D01*
X246616666Y-92100000D01*
X246616666Y-92166666D01*
X246650000Y-92266666D01*
X246683333Y-92300000D01*
X246683333Y-92566666D02*
X246650000Y-92600000D01*
X246616666Y-92666666D01*
X246616666Y-92833333D01*
X246650000Y-92900000D01*
X246683333Y-92933333D01*
X246750000Y-92966666D01*
X246816666Y-92966666D01*
X246916666Y-92933333D01*
X247316666Y-92533333D01*
X247316666Y-92966666D01*
X246616666Y-93566666D02*
X246616666Y-93433333D01*
X246650000Y-93366666D01*
X246683333Y-93333333D01*
X246783333Y-93266666D01*
X246916666Y-93233333D01*
X247183333Y-93233333D01*
X247250000Y-93266666D01*
X247283333Y-93300000D01*
X247316666Y-93366666D01*
X247316666Y-93500000D01*
X247283333Y-93566666D01*
X247250000Y-93600000D01*
X247183333Y-93633333D01*
X247016666Y-93633333D01*
X246950000Y-93600000D01*
X246916666Y-93566666D01*
X246883333Y-93500000D01*
X246883333Y-93366666D01*
X246916666Y-93300000D01*
X246950000Y-93266666D01*
X247016666Y-93233333D01*
G04 #@! TO.C,C28*
X253450000Y-96250000D02*
X253483333Y-96283333D01*
X253583333Y-96316666D01*
X253650000Y-96316666D01*
X253750000Y-96283333D01*
X253816666Y-96216666D01*
X253850000Y-96150000D01*
X253883333Y-96016666D01*
X253883333Y-95916666D01*
X253850000Y-95783333D01*
X253816666Y-95716666D01*
X253750000Y-95650000D01*
X253650000Y-95616666D01*
X253583333Y-95616666D01*
X253483333Y-95650000D01*
X253450000Y-95683333D01*
X253183333Y-95683333D02*
X253150000Y-95650000D01*
X253083333Y-95616666D01*
X252916666Y-95616666D01*
X252850000Y-95650000D01*
X252816666Y-95683333D01*
X252783333Y-95750000D01*
X252783333Y-95816666D01*
X252816666Y-95916666D01*
X253216666Y-96316666D01*
X252783333Y-96316666D01*
X252383333Y-95916666D02*
X252450000Y-95883333D01*
X252483333Y-95850000D01*
X252516666Y-95783333D01*
X252516666Y-95750000D01*
X252483333Y-95683333D01*
X252450000Y-95650000D01*
X252383333Y-95616666D01*
X252250000Y-95616666D01*
X252183333Y-95650000D01*
X252150000Y-95683333D01*
X252116666Y-95750000D01*
X252116666Y-95783333D01*
X252150000Y-95850000D01*
X252183333Y-95883333D01*
X252250000Y-95916666D01*
X252383333Y-95916666D01*
X252450000Y-95950000D01*
X252483333Y-95983333D01*
X252516666Y-96050000D01*
X252516666Y-96183333D01*
X252483333Y-96250000D01*
X252450000Y-96283333D01*
X252383333Y-96316666D01*
X252250000Y-96316666D01*
X252183333Y-96283333D01*
X252150000Y-96250000D01*
X252116666Y-96183333D01*
X252116666Y-96050000D01*
X252150000Y-95983333D01*
X252183333Y-95950000D01*
X252250000Y-95916666D01*
G04 #@! TO.C,C29*
X258450000Y-93250000D02*
X258483333Y-93283333D01*
X258583333Y-93316666D01*
X258650000Y-93316666D01*
X258750000Y-93283333D01*
X258816666Y-93216666D01*
X258850000Y-93150000D01*
X258883333Y-93016666D01*
X258883333Y-92916666D01*
X258850000Y-92783333D01*
X258816666Y-92716666D01*
X258750000Y-92650000D01*
X258650000Y-92616666D01*
X258583333Y-92616666D01*
X258483333Y-92650000D01*
X258450000Y-92683333D01*
X258183333Y-92683333D02*
X258150000Y-92650000D01*
X258083333Y-92616666D01*
X257916666Y-92616666D01*
X257850000Y-92650000D01*
X257816666Y-92683333D01*
X257783333Y-92750000D01*
X257783333Y-92816666D01*
X257816666Y-92916666D01*
X258216666Y-93316666D01*
X257783333Y-93316666D01*
X257450000Y-93316666D02*
X257316666Y-93316666D01*
X257250000Y-93283333D01*
X257216666Y-93250000D01*
X257150000Y-93150000D01*
X257116666Y-93016666D01*
X257116666Y-92750000D01*
X257150000Y-92683333D01*
X257183333Y-92650000D01*
X257250000Y-92616666D01*
X257383333Y-92616666D01*
X257450000Y-92650000D01*
X257483333Y-92683333D01*
X257516666Y-92750000D01*
X257516666Y-92916666D01*
X257483333Y-92983333D01*
X257450000Y-93016666D01*
X257383333Y-93050000D01*
X257250000Y-93050000D01*
X257183333Y-93016666D01*
X257150000Y-92983333D01*
X257116666Y-92916666D01*
G04 #@! TO.C,C30*
X256950000Y-97750000D02*
X256983333Y-97783333D01*
X257083333Y-97816666D01*
X257150000Y-97816666D01*
X257250000Y-97783333D01*
X257316666Y-97716666D01*
X257350000Y-97650000D01*
X257383333Y-97516666D01*
X257383333Y-97416666D01*
X257350000Y-97283333D01*
X257316666Y-97216666D01*
X257250000Y-97150000D01*
X257150000Y-97116666D01*
X257083333Y-97116666D01*
X256983333Y-97150000D01*
X256950000Y-97183333D01*
X256716666Y-97116666D02*
X256283333Y-97116666D01*
X256516666Y-97383333D01*
X256416666Y-97383333D01*
X256350000Y-97416666D01*
X256316666Y-97450000D01*
X256283333Y-97516666D01*
X256283333Y-97683333D01*
X256316666Y-97750000D01*
X256350000Y-97783333D01*
X256416666Y-97816666D01*
X256616666Y-97816666D01*
X256683333Y-97783333D01*
X256716666Y-97750000D01*
X255850000Y-97116666D02*
X255783333Y-97116666D01*
X255716666Y-97150000D01*
X255683333Y-97183333D01*
X255650000Y-97250000D01*
X255616666Y-97383333D01*
X255616666Y-97550000D01*
X255650000Y-97683333D01*
X255683333Y-97750000D01*
X255716666Y-97783333D01*
X255783333Y-97816666D01*
X255850000Y-97816666D01*
X255916666Y-97783333D01*
X255950000Y-97750000D01*
X255983333Y-97683333D01*
X256016666Y-97550000D01*
X256016666Y-97383333D01*
X255983333Y-97250000D01*
X255950000Y-97183333D01*
X255916666Y-97150000D01*
X255850000Y-97116666D01*
G04 #@! TO.C,R13*
X255450000Y-89316666D02*
X255683333Y-88983333D01*
X255850000Y-89316666D02*
X255850000Y-88616666D01*
X255583333Y-88616666D01*
X255516666Y-88650000D01*
X255483333Y-88683333D01*
X255450000Y-88750000D01*
X255450000Y-88850000D01*
X255483333Y-88916666D01*
X255516666Y-88950000D01*
X255583333Y-88983333D01*
X255850000Y-88983333D01*
X254783333Y-89316666D02*
X255183333Y-89316666D01*
X254983333Y-89316666D02*
X254983333Y-88616666D01*
X255050000Y-88716666D01*
X255116666Y-88783333D01*
X255183333Y-88816666D01*
X254550000Y-88616666D02*
X254116666Y-88616666D01*
X254350000Y-88883333D01*
X254250000Y-88883333D01*
X254183333Y-88916666D01*
X254150000Y-88950000D01*
X254116666Y-89016666D01*
X254116666Y-89183333D01*
X254150000Y-89250000D01*
X254183333Y-89283333D01*
X254250000Y-89316666D01*
X254450000Y-89316666D01*
X254516666Y-89283333D01*
X254550000Y-89250000D01*
G04 #@! TO.C,R14*
X255450000Y-87316666D02*
X255683333Y-86983333D01*
X255850000Y-87316666D02*
X255850000Y-86616666D01*
X255583333Y-86616666D01*
X255516666Y-86650000D01*
X255483333Y-86683333D01*
X255450000Y-86750000D01*
X255450000Y-86850000D01*
X255483333Y-86916666D01*
X255516666Y-86950000D01*
X255583333Y-86983333D01*
X255850000Y-86983333D01*
X254783333Y-87316666D02*
X255183333Y-87316666D01*
X254983333Y-87316666D02*
X254983333Y-86616666D01*
X255050000Y-86716666D01*
X255116666Y-86783333D01*
X255183333Y-86816666D01*
X254183333Y-86850000D02*
X254183333Y-87316666D01*
X254350000Y-86583333D02*
X254516666Y-87083333D01*
X254083333Y-87083333D01*
G04 #@! TO.C,R19*
X255450000Y-86316666D02*
X255683333Y-85983333D01*
X255850000Y-86316666D02*
X255850000Y-85616666D01*
X255583333Y-85616666D01*
X255516666Y-85650000D01*
X255483333Y-85683333D01*
X255450000Y-85750000D01*
X255450000Y-85850000D01*
X255483333Y-85916666D01*
X255516666Y-85950000D01*
X255583333Y-85983333D01*
X255850000Y-85983333D01*
X254783333Y-86316666D02*
X255183333Y-86316666D01*
X254983333Y-86316666D02*
X254983333Y-85616666D01*
X255050000Y-85716666D01*
X255116666Y-85783333D01*
X255183333Y-85816666D01*
X254450000Y-86316666D02*
X254316666Y-86316666D01*
X254250000Y-86283333D01*
X254216666Y-86250000D01*
X254150000Y-86150000D01*
X254116666Y-86016666D01*
X254116666Y-85750000D01*
X254150000Y-85683333D01*
X254183333Y-85650000D01*
X254250000Y-85616666D01*
X254383333Y-85616666D01*
X254450000Y-85650000D01*
X254483333Y-85683333D01*
X254516666Y-85750000D01*
X254516666Y-85916666D01*
X254483333Y-85983333D01*
X254450000Y-86016666D01*
X254383333Y-86050000D01*
X254250000Y-86050000D01*
X254183333Y-86016666D01*
X254150000Y-85983333D01*
X254116666Y-85916666D01*
G04 #@! TO.C,R24*
X255450000Y-88316666D02*
X255683333Y-87983333D01*
X255850000Y-88316666D02*
X255850000Y-87616666D01*
X255583333Y-87616666D01*
X255516666Y-87650000D01*
X255483333Y-87683333D01*
X255450000Y-87750000D01*
X255450000Y-87850000D01*
X255483333Y-87916666D01*
X255516666Y-87950000D01*
X255583333Y-87983333D01*
X255850000Y-87983333D01*
X255183333Y-87683333D02*
X255150000Y-87650000D01*
X255083333Y-87616666D01*
X254916666Y-87616666D01*
X254850000Y-87650000D01*
X254816666Y-87683333D01*
X254783333Y-87750000D01*
X254783333Y-87816666D01*
X254816666Y-87916666D01*
X255216666Y-88316666D01*
X254783333Y-88316666D01*
X254183333Y-87850000D02*
X254183333Y-88316666D01*
X254350000Y-87583333D02*
X254516666Y-88083333D01*
X254083333Y-88083333D01*
G04 #@! TO.C,R25*
X246316666Y-92300000D02*
X245983333Y-92066666D01*
X246316666Y-91900000D02*
X245616666Y-91900000D01*
X245616666Y-92166666D01*
X245650000Y-92233333D01*
X245683333Y-92266666D01*
X245750000Y-92300000D01*
X245850000Y-92300000D01*
X245916666Y-92266666D01*
X245950000Y-92233333D01*
X245983333Y-92166666D01*
X245983333Y-91900000D01*
X245683333Y-92566666D02*
X245650000Y-92600000D01*
X245616666Y-92666666D01*
X245616666Y-92833333D01*
X245650000Y-92900000D01*
X245683333Y-92933333D01*
X245750000Y-92966666D01*
X245816666Y-92966666D01*
X245916666Y-92933333D01*
X246316666Y-92533333D01*
X246316666Y-92966666D01*
X245616666Y-93600000D02*
X245616666Y-93266666D01*
X245950000Y-93233333D01*
X245916666Y-93266666D01*
X245883333Y-93333333D01*
X245883333Y-93500000D01*
X245916666Y-93566666D01*
X245950000Y-93600000D01*
X246016666Y-93633333D01*
X246183333Y-93633333D01*
X246250000Y-93600000D01*
X246283333Y-93566666D01*
X246316666Y-93500000D01*
X246316666Y-93333333D01*
X246283333Y-93266666D01*
X246250000Y-93233333D01*
G04 #@! TO.C,R26*
X258450000Y-91016666D02*
X258683333Y-90683333D01*
X258850000Y-91016666D02*
X258850000Y-90316666D01*
X258583333Y-90316666D01*
X258516666Y-90350000D01*
X258483333Y-90383333D01*
X258450000Y-90450000D01*
X258450000Y-90550000D01*
X258483333Y-90616666D01*
X258516666Y-90650000D01*
X258583333Y-90683333D01*
X258850000Y-90683333D01*
X258183333Y-90383333D02*
X258150000Y-90350000D01*
X258083333Y-90316666D01*
X257916666Y-90316666D01*
X257850000Y-90350000D01*
X257816666Y-90383333D01*
X257783333Y-90450000D01*
X257783333Y-90516666D01*
X257816666Y-90616666D01*
X258216666Y-91016666D01*
X257783333Y-91016666D01*
X257183333Y-90316666D02*
X257316666Y-90316666D01*
X257383333Y-90350000D01*
X257416666Y-90383333D01*
X257483333Y-90483333D01*
X257516666Y-90616666D01*
X257516666Y-90883333D01*
X257483333Y-90950000D01*
X257450000Y-90983333D01*
X257383333Y-91016666D01*
X257250000Y-91016666D01*
X257183333Y-90983333D01*
X257150000Y-90950000D01*
X257116666Y-90883333D01*
X257116666Y-90716666D01*
X257150000Y-90650000D01*
X257183333Y-90616666D01*
X257250000Y-90583333D01*
X257383333Y-90583333D01*
X257450000Y-90616666D01*
X257483333Y-90650000D01*
X257516666Y-90716666D01*
G04 #@! TO.C,C31*
X224250000Y-95550000D02*
X224283333Y-95516666D01*
X224316666Y-95416666D01*
X224316666Y-95350000D01*
X224283333Y-95250000D01*
X224216666Y-95183333D01*
X224150000Y-95150000D01*
X224016666Y-95116666D01*
X223916666Y-95116666D01*
X223783333Y-95150000D01*
X223716666Y-95183333D01*
X223650000Y-95250000D01*
X223616666Y-95350000D01*
X223616666Y-95416666D01*
X223650000Y-95516666D01*
X223683333Y-95550000D01*
X223616666Y-95783333D02*
X223616666Y-96216666D01*
X223883333Y-95983333D01*
X223883333Y-96083333D01*
X223916666Y-96150000D01*
X223950000Y-96183333D01*
X224016666Y-96216666D01*
X224183333Y-96216666D01*
X224250000Y-96183333D01*
X224283333Y-96150000D01*
X224316666Y-96083333D01*
X224316666Y-95883333D01*
X224283333Y-95816666D01*
X224250000Y-95783333D01*
X224316666Y-96883333D02*
X224316666Y-96483333D01*
X224316666Y-96683333D02*
X223616666Y-96683333D01*
X223716666Y-96616666D01*
X223783333Y-96550000D01*
X223816666Y-96483333D01*
G04 #@! TO.C,C27*
X244050000Y-92300000D02*
X244083333Y-92266666D01*
X244116666Y-92166666D01*
X244116666Y-92100000D01*
X244083333Y-92000000D01*
X244016666Y-91933333D01*
X243950000Y-91900000D01*
X243816666Y-91866666D01*
X243716666Y-91866666D01*
X243583333Y-91900000D01*
X243516666Y-91933333D01*
X243450000Y-92000000D01*
X243416666Y-92100000D01*
X243416666Y-92166666D01*
X243450000Y-92266666D01*
X243483333Y-92300000D01*
X243483333Y-92566666D02*
X243450000Y-92600000D01*
X243416666Y-92666666D01*
X243416666Y-92833333D01*
X243450000Y-92900000D01*
X243483333Y-92933333D01*
X243550000Y-92966666D01*
X243616666Y-92966666D01*
X243716666Y-92933333D01*
X244116666Y-92533333D01*
X244116666Y-92966666D01*
X243416666Y-93200000D02*
X243416666Y-93666666D01*
X244116666Y-93366666D01*
G04 #@! TD*
M02*
