G04 #@! TF.GenerationSoftware,KiCad,Pcbnew,5.0.2-bee76a0~70~ubuntu18.04.1*
G04 #@! TF.CreationDate,2020-11-03T11:03:39+00:00*
G04 #@! TF.ProjectId,picostation,7069636f-7374-4617-9469-6f6e2e6b6963,rev?*
G04 #@! TF.SameCoordinates,Original*
G04 #@! TF.FileFunction,Copper,L3,Inr*
G04 #@! TF.FilePolarity,Positive*
%FSLAX46Y46*%
G04 Gerber Fmt 4.6, Leading zero omitted, Abs format (unit mm)*
G04 Created by KiCad (PCBNEW 5.0.2-bee76a0~70~ubuntu18.04.1) date Tue 03 Nov 2020 11:03:39 GMT*
%MOMM*%
%LPD*%
G01*
G04 APERTURE LIST*
G04 #@! TA.AperFunction,ViaPad*
%ADD10C,1.450000*%
G04 #@! TD*
G04 #@! TA.AperFunction,ViaPad*
%ADD11O,1.200000X1.900000*%
G04 #@! TD*
G04 #@! TA.AperFunction,ViaPad*
%ADD12C,2.500000*%
G04 #@! TD*
G04 #@! TA.AperFunction,ViaPad*
%ADD13R,1.700000X1.700000*%
G04 #@! TD*
G04 #@! TA.AperFunction,ViaPad*
%ADD14O,1.700000X1.700000*%
G04 #@! TD*
G04 #@! TA.AperFunction,ViaPad*
%ADD15C,1.900000*%
G04 #@! TD*
G04 #@! TA.AperFunction,ViaPad*
%ADD16C,0.450000*%
G04 #@! TD*
G04 #@! TA.AperFunction,Conductor*
%ADD17C,0.150000*%
G04 #@! TD*
G04 #@! TA.AperFunction,Conductor*
%ADD18C,1.000000*%
G04 #@! TD*
G04 #@! TA.AperFunction,Conductor*
%ADD19C,0.200000*%
G04 #@! TD*
G04 APERTURE END LIST*
D10*
G04 #@! TO.N,GND*
G04 #@! TO.C,J1*
X226500000Y-79962500D03*
X221500000Y-79962500D03*
D11*
X227500000Y-77262500D03*
X220500000Y-77262500D03*
G04 #@! TD*
D12*
G04 #@! TO.N,GND*
G04 #@! TO.C,J2*
X176000000Y-83100000D03*
G04 #@! TO.N,/AUDIO_L*
X174750000Y-88400000D03*
G04 #@! TO.N,/AUDIO_R*
X180250000Y-88400000D03*
G04 #@! TD*
G04 #@! TO.N,+3V3*
G04 #@! TO.C,J4*
X178000000Y-110000000D03*
G04 #@! TO.N,/CTRL_CLK*
X182000000Y-110000000D03*
G04 #@! TO.N,/CTRL_LAT*
X186000000Y-110000000D03*
G04 #@! TO.N,/CTRL_DAT0*
X190000000Y-110000000D03*
G04 #@! TO.N,Net-(J4-Pad5)*
X196500000Y-110000000D03*
G04 #@! TO.N,Net-(J4-Pad6)*
X200500000Y-110000000D03*
G04 #@! TO.N,GND*
X204500000Y-110000000D03*
G04 #@! TD*
D13*
G04 #@! TO.N,/UART_TX*
G04 #@! TO.C,J5*
X229000000Y-99000000D03*
D14*
G04 #@! TO.N,/UART_RX*
X231540000Y-99000000D03*
G04 #@! TO.N,/SWCLK*
X234080000Y-99000000D03*
G04 #@! TO.N,/SWDIO*
X236620000Y-99000000D03*
G04 #@! TO.N,GND*
X239160000Y-99000000D03*
G04 #@! TD*
D12*
G04 #@! TO.N,+3V3*
G04 #@! TO.C,J6*
X252000000Y-110000000D03*
G04 #@! TO.N,/CTRL_CLK*
X248000000Y-110000000D03*
G04 #@! TO.N,/CTRL_LAT*
X244000000Y-110000000D03*
G04 #@! TO.N,/CTRL_DAT1*
X240000000Y-110000000D03*
G04 #@! TO.N,Net-(J6-Pad5)*
X233500000Y-110000000D03*
G04 #@! TO.N,Net-(J6-Pad6)*
X229500000Y-110000000D03*
G04 #@! TO.N,GND*
X225500000Y-110000000D03*
G04 #@! TD*
D15*
G04 #@! TO.N,GND*
G04 #@! TO.C,J7*
X240400000Y-77525000D03*
X256100000Y-77525000D03*
X241000000Y-82425000D03*
X255500000Y-82425000D03*
G04 #@! TD*
D16*
G04 #@! TO.N,+3V3*
X255719714Y-96619713D03*
X256500000Y-93500000D03*
X252403219Y-94925011D03*
X227500000Y-90000000D03*
X227600000Y-94000000D03*
X228200000Y-95700000D03*
X221700000Y-95700000D03*
X221700000Y-89200000D03*
X228200000Y-89200000D03*
X225200000Y-89900000D03*
X225000000Y-95100000D03*
X222400000Y-93500000D03*
X223000000Y-93500000D03*
X222400000Y-89900000D03*
X248050000Y-96950000D03*
X201100000Y-81600000D03*
X217000000Y-89500000D03*
X235700000Y-87075000D03*
X235700000Y-87700000D03*
X255650000Y-90200000D03*
X253650000Y-88750000D03*
X249275000Y-88325000D03*
X221400000Y-81775000D03*
X222325000Y-81800000D03*
X242500000Y-95250000D03*
X241950000Y-94200000D03*
G04 #@! TO.N,GND*
X257000000Y-96600000D03*
X252400000Y-93900000D03*
X255500000Y-93600000D03*
X254500000Y-93500000D03*
X254500000Y-92500000D03*
X255500000Y-92425000D03*
X251250000Y-91775000D03*
X256525000Y-94475000D03*
X256525000Y-92475000D03*
X257750000Y-96000000D03*
X253650000Y-94000000D03*
X223600000Y-92100000D03*
X223600000Y-92900000D03*
X226400000Y-92900000D03*
X226400000Y-92100000D03*
X225000000Y-92100000D03*
X225000000Y-92900000D03*
X244250000Y-94000000D03*
X248750000Y-94750000D03*
X244250000Y-91000000D03*
X246500000Y-94000000D03*
X248750000Y-94000000D03*
X246500000Y-91000000D03*
X248750000Y-91000000D03*
X202400002Y-81499998D03*
X244000000Y-84500000D03*
X245500000Y-84500000D03*
X247000000Y-84500000D03*
X248500000Y-84500000D03*
X244000000Y-81975000D03*
X245500000Y-81975000D03*
X247000000Y-81975000D03*
X248500000Y-81975000D03*
X251500000Y-81975000D03*
X251500000Y-84500000D03*
X234000000Y-85050000D03*
X233050000Y-85050000D03*
X234975000Y-85050000D03*
X233200000Y-82225000D03*
X233200000Y-82900000D03*
X233200000Y-87075000D03*
X233200000Y-87650000D03*
X218625000Y-82250000D03*
X217925000Y-82250000D03*
X217850000Y-85000000D03*
X222150000Y-85000000D03*
X217875000Y-86250000D03*
X222700000Y-81100000D03*
X222150000Y-83725000D03*
X224775000Y-84975000D03*
X216050000Y-83125000D03*
X215525000Y-85175000D03*
X215575000Y-87275000D03*
X214425000Y-88875000D03*
X206625000Y-86450000D03*
X202750000Y-83500000D03*
X202925000Y-78550000D03*
X204475000Y-77000000D03*
X198725000Y-78975000D03*
X200400000Y-83025000D03*
X209575000Y-92200000D03*
X220150000Y-95300000D03*
X219625000Y-97875000D03*
X225600000Y-100250000D03*
X225450000Y-97125000D03*
X229425000Y-96900000D03*
X231200000Y-96800000D03*
X248550000Y-97650000D03*
X245800000Y-98350000D03*
X242075000Y-90250000D03*
X229375000Y-89425000D03*
X226800000Y-87975000D03*
X226225000Y-85750000D03*
X225075000Y-82325000D03*
X242425000Y-112300000D03*
X250750000Y-107000000D03*
X180250000Y-107000000D03*
X189475000Y-99300000D03*
X186600000Y-108325000D03*
X189450000Y-108350000D03*
X185475000Y-102550000D03*
X187525000Y-112275000D03*
X183550000Y-110750000D03*
X185450000Y-108325000D03*
X182550000Y-105525000D03*
X251500000Y-107750000D03*
X179475000Y-107775000D03*
X250550000Y-87300000D03*
X250000000Y-88425000D03*
X243100000Y-85075000D03*
X243200000Y-89250000D03*
X242175000Y-86525000D03*
X205875000Y-79150000D03*
X177450000Y-97675000D03*
X178575000Y-97700000D03*
X177550000Y-93325000D03*
X179450000Y-93250000D03*
X176475000Y-93275000D03*
X175300000Y-95975000D03*
X178300000Y-96000000D03*
X178000000Y-91300000D03*
X204425000Y-82050000D03*
X221875000Y-82600000D03*
X192650000Y-78050000D03*
X197300000Y-89950000D03*
X204000000Y-89950000D03*
X224049952Y-96874987D03*
X221740000Y-88460000D03*
X216030000Y-88100000D03*
X217610000Y-89770000D03*
X218100000Y-97350000D03*
X227700000Y-98300000D03*
X230350000Y-98300000D03*
X232650000Y-98300000D03*
X235200000Y-98300000D03*
X264000000Y-80000000D03*
X260000000Y-76000000D03*
X166000000Y-80000000D03*
X170000000Y-76000000D03*
X170000000Y-124000000D03*
X166000000Y-120000000D03*
X264000000Y-120000000D03*
X260000000Y-124000000D03*
X234400000Y-77800000D03*
X249450000Y-85150000D03*
X236400000Y-89425000D03*
X244250000Y-90250000D03*
G04 #@! TO.N,+1V1*
X223700000Y-89900000D03*
X224300000Y-89900000D03*
X225800000Y-89900000D03*
X226400000Y-89900000D03*
X225700000Y-95100000D03*
X226300000Y-95100000D03*
X247250000Y-88300000D03*
X247050000Y-97550000D03*
X247418206Y-97168206D03*
X246275010Y-96589733D03*
G04 #@! TO.N,VBUS*
X230000000Y-81900000D03*
X232300000Y-83900000D03*
X252500000Y-85000000D03*
G04 #@! TO.N,/VCCPLL*
X245218206Y-97049979D03*
X245621598Y-96766137D03*
G04 #@! TO.N,/SD_DAT1*
X203250000Y-82000000D03*
X205000000Y-81550008D03*
G04 #@! TO.N,/CTRL_CLK*
X192800000Y-94500000D03*
G04 #@! TO.N,/CTRL_LAT*
X193200000Y-93599998D03*
G04 #@! TO.N,/CTRL_DAT0*
X194000002Y-94600000D03*
G04 #@! TO.N,/UART_TX*
X221835713Y-96349219D03*
G04 #@! TO.N,/UART_RX*
X222186804Y-96835788D03*
G04 #@! TO.N,/CTRL_DAT1*
X219650000Y-94550000D03*
G04 #@! TO.N,/DVI_SDA*
X251000000Y-84849996D03*
G04 #@! TO.N,/DVI_SCL*
X250476379Y-84481628D03*
G04 #@! TO.N,Net-(J7-Pad13)*
X249500000Y-84500000D03*
G04 #@! TO.N,/uC_LED*
X220704776Y-94836517D03*
X190100000Y-78100000D03*
G04 #@! TO.N,/uC_~RST~*
X214000000Y-89500000D03*
X228400000Y-96909990D03*
G04 #@! TO.N,/DVI_CEC*
X223445408Y-96874997D03*
G04 #@! TO.N,/HRAM_~CS~*
X254200000Y-91200000D03*
G04 #@! TO.N,/FPGA_~CRESET~*
X230181794Y-96481794D03*
G04 #@! TO.N,/FPGA_CDONE*
X245875920Y-87763390D03*
X229500000Y-90300000D03*
G04 #@! TO.N,/FPGA_~CRESET~*
X245696080Y-88349990D03*
G04 #@! TD*
D17*
G04 #@! TO.N,VBUS*
X232000000Y-83900000D02*
X232300000Y-83900000D01*
X230000000Y-81900000D02*
X232000000Y-83900000D01*
D18*
X252500000Y-81500000D02*
X252500000Y-85000000D01*
X251000000Y-80000000D02*
X252500000Y-81500000D01*
X230000000Y-81900000D02*
X231900000Y-80000000D01*
X231900000Y-80000000D02*
X251000000Y-80000000D01*
G04 #@! TD*
D19*
G04 #@! TO.N,+3V3*
G36*
X262674303Y-75400000D02*
X262082284Y-75400000D01*
X261310446Y-75719706D01*
X260719706Y-76310446D01*
X260400000Y-77082284D01*
X260400000Y-77917716D01*
X260719706Y-78689554D01*
X261310446Y-79280294D01*
X262082284Y-79600000D01*
X262917716Y-79600000D01*
X263689554Y-79280294D01*
X264280294Y-78689554D01*
X264600000Y-77917716D01*
X264600000Y-77273279D01*
X264621179Y-77384303D01*
X264625000Y-77505891D01*
X264625001Y-122369120D01*
X264612567Y-122400525D01*
X264603154Y-122449867D01*
X264600000Y-122474834D01*
X264600000Y-122082284D01*
X264280294Y-121310446D01*
X263689554Y-120719706D01*
X262917716Y-120400000D01*
X262082284Y-120400000D01*
X261310446Y-120719706D01*
X260719706Y-121310446D01*
X260400000Y-122082284D01*
X260400000Y-122917716D01*
X260719706Y-123689554D01*
X261310446Y-124280294D01*
X262082284Y-124600000D01*
X262493705Y-124600000D01*
X262487436Y-124600197D01*
X262388404Y-124615883D01*
X262367336Y-124625000D01*
X167523592Y-124625000D01*
X167325697Y-124600000D01*
X167917716Y-124600000D01*
X168689554Y-124280294D01*
X169074277Y-123895571D01*
X169475000Y-123895571D01*
X169475000Y-124104429D01*
X169554927Y-124297388D01*
X169702612Y-124445073D01*
X169895571Y-124525000D01*
X170104429Y-124525000D01*
X170297388Y-124445073D01*
X170445073Y-124297388D01*
X170525000Y-124104429D01*
X170525000Y-123895571D01*
X259475000Y-123895571D01*
X259475000Y-124104429D01*
X259554927Y-124297388D01*
X259702612Y-124445073D01*
X259895571Y-124525000D01*
X260104429Y-124525000D01*
X260297388Y-124445073D01*
X260445073Y-124297388D01*
X260525000Y-124104429D01*
X260525000Y-123895571D01*
X260445073Y-123702612D01*
X260297388Y-123554927D01*
X260104429Y-123475000D01*
X259895571Y-123475000D01*
X259702612Y-123554927D01*
X259554927Y-123702612D01*
X259475000Y-123895571D01*
X170525000Y-123895571D01*
X170445073Y-123702612D01*
X170297388Y-123554927D01*
X170104429Y-123475000D01*
X169895571Y-123475000D01*
X169702612Y-123554927D01*
X169554927Y-123702612D01*
X169475000Y-123895571D01*
X169074277Y-123895571D01*
X169280294Y-123689554D01*
X169600000Y-122917716D01*
X169600000Y-122082284D01*
X169280294Y-121310446D01*
X168689554Y-120719706D01*
X167917716Y-120400000D01*
X167082284Y-120400000D01*
X166310446Y-120719706D01*
X165719706Y-121310446D01*
X165400000Y-122082284D01*
X165400000Y-122726721D01*
X165378821Y-122615697D01*
X165375000Y-122494108D01*
X165375000Y-119895571D01*
X165475000Y-119895571D01*
X165475000Y-120104429D01*
X165554927Y-120297388D01*
X165702612Y-120445073D01*
X165895571Y-120525000D01*
X166104429Y-120525000D01*
X166297388Y-120445073D01*
X166445073Y-120297388D01*
X166525000Y-120104429D01*
X166525000Y-119895571D01*
X263475000Y-119895571D01*
X263475000Y-120104429D01*
X263554927Y-120297388D01*
X263702612Y-120445073D01*
X263895571Y-120525000D01*
X264104429Y-120525000D01*
X264297388Y-120445073D01*
X264445073Y-120297388D01*
X264525000Y-120104429D01*
X264525000Y-119895571D01*
X264445073Y-119702612D01*
X264297388Y-119554927D01*
X264104429Y-119475000D01*
X263895571Y-119475000D01*
X263702612Y-119554927D01*
X263554927Y-119702612D01*
X263475000Y-119895571D01*
X166525000Y-119895571D01*
X166445073Y-119702612D01*
X166297388Y-119554927D01*
X166104429Y-119475000D01*
X165895571Y-119475000D01*
X165702612Y-119554927D01*
X165554927Y-119702612D01*
X165475000Y-119895571D01*
X165375000Y-119895571D01*
X165375000Y-112170571D01*
X187000000Y-112170571D01*
X187000000Y-112379429D01*
X187079927Y-112572388D01*
X187227612Y-112720073D01*
X187420571Y-112800000D01*
X187629429Y-112800000D01*
X187822388Y-112720073D01*
X187970073Y-112572388D01*
X188050000Y-112379429D01*
X188050000Y-112195571D01*
X241900000Y-112195571D01*
X241900000Y-112404429D01*
X241979927Y-112597388D01*
X242127612Y-112745073D01*
X242320571Y-112825000D01*
X242529429Y-112825000D01*
X242722388Y-112745073D01*
X242870073Y-112597388D01*
X242950000Y-112404429D01*
X242950000Y-112195571D01*
X242870073Y-112002612D01*
X242722388Y-111854927D01*
X242529429Y-111775000D01*
X242320571Y-111775000D01*
X242127612Y-111854927D01*
X241979927Y-112002612D01*
X241900000Y-112195571D01*
X188050000Y-112195571D01*
X188050000Y-112170571D01*
X187970073Y-111977612D01*
X187822388Y-111829927D01*
X187629429Y-111750000D01*
X187420571Y-111750000D01*
X187227612Y-111829927D01*
X187079927Y-111977612D01*
X187000000Y-112170571D01*
X165375000Y-112170571D01*
X165375000Y-111081985D01*
X176953370Y-111081985D01*
X177091426Y-111293078D01*
X177655426Y-111542345D01*
X178271885Y-111556804D01*
X178846952Y-111334253D01*
X178908574Y-111293078D01*
X179046630Y-111081985D01*
X178000000Y-110035355D01*
X176953370Y-111081985D01*
X165375000Y-111081985D01*
X165375000Y-110271885D01*
X176443196Y-110271885D01*
X176665747Y-110846952D01*
X176706922Y-110908574D01*
X176918015Y-111046630D01*
X177964645Y-110000000D01*
X178035355Y-110000000D01*
X179081985Y-111046630D01*
X179293078Y-110908574D01*
X179542345Y-110344574D01*
X179556804Y-109728115D01*
X179542706Y-109691686D01*
X180450000Y-109691686D01*
X180450000Y-110308314D01*
X180685974Y-110878004D01*
X181121996Y-111314026D01*
X181691686Y-111550000D01*
X182308314Y-111550000D01*
X182878004Y-111314026D01*
X183124785Y-111067246D01*
X183252612Y-111195073D01*
X183445571Y-111275000D01*
X183654429Y-111275000D01*
X183847388Y-111195073D01*
X183995073Y-111047388D01*
X184075000Y-110854429D01*
X184075000Y-110645571D01*
X183995073Y-110452612D01*
X183847388Y-110304927D01*
X183654429Y-110225000D01*
X183550000Y-110225000D01*
X183550000Y-109691686D01*
X184450000Y-109691686D01*
X184450000Y-110308314D01*
X184685974Y-110878004D01*
X185121996Y-111314026D01*
X185691686Y-111550000D01*
X186308314Y-111550000D01*
X186878004Y-111314026D01*
X187314026Y-110878004D01*
X187550000Y-110308314D01*
X187550000Y-109691686D01*
X188450000Y-109691686D01*
X188450000Y-110308314D01*
X188685974Y-110878004D01*
X189121996Y-111314026D01*
X189691686Y-111550000D01*
X190308314Y-111550000D01*
X190878004Y-111314026D01*
X191314026Y-110878004D01*
X191550000Y-110308314D01*
X191550000Y-109691686D01*
X194950000Y-109691686D01*
X194950000Y-110308314D01*
X195185974Y-110878004D01*
X195621996Y-111314026D01*
X196191686Y-111550000D01*
X196808314Y-111550000D01*
X197378004Y-111314026D01*
X197814026Y-110878004D01*
X198050000Y-110308314D01*
X198050000Y-109691686D01*
X198950000Y-109691686D01*
X198950000Y-110308314D01*
X199185974Y-110878004D01*
X199621996Y-111314026D01*
X200191686Y-111550000D01*
X200808314Y-111550000D01*
X201378004Y-111314026D01*
X201814026Y-110878004D01*
X202050000Y-110308314D01*
X202050000Y-109691686D01*
X202950000Y-109691686D01*
X202950000Y-110308314D01*
X203185974Y-110878004D01*
X203621996Y-111314026D01*
X204191686Y-111550000D01*
X204808314Y-111550000D01*
X205378004Y-111314026D01*
X205814026Y-110878004D01*
X206050000Y-110308314D01*
X206050000Y-109691686D01*
X223950000Y-109691686D01*
X223950000Y-110308314D01*
X224185974Y-110878004D01*
X224621996Y-111314026D01*
X225191686Y-111550000D01*
X225808314Y-111550000D01*
X226378004Y-111314026D01*
X226814026Y-110878004D01*
X227050000Y-110308314D01*
X227050000Y-109691686D01*
X227950000Y-109691686D01*
X227950000Y-110308314D01*
X228185974Y-110878004D01*
X228621996Y-111314026D01*
X229191686Y-111550000D01*
X229808314Y-111550000D01*
X230378004Y-111314026D01*
X230814026Y-110878004D01*
X231050000Y-110308314D01*
X231050000Y-109691686D01*
X231950000Y-109691686D01*
X231950000Y-110308314D01*
X232185974Y-110878004D01*
X232621996Y-111314026D01*
X233191686Y-111550000D01*
X233808314Y-111550000D01*
X234378004Y-111314026D01*
X234814026Y-110878004D01*
X235050000Y-110308314D01*
X235050000Y-109691686D01*
X238450000Y-109691686D01*
X238450000Y-110308314D01*
X238685974Y-110878004D01*
X239121996Y-111314026D01*
X239691686Y-111550000D01*
X240308314Y-111550000D01*
X240878004Y-111314026D01*
X241314026Y-110878004D01*
X241550000Y-110308314D01*
X241550000Y-109691686D01*
X242450000Y-109691686D01*
X242450000Y-110308314D01*
X242685974Y-110878004D01*
X243121996Y-111314026D01*
X243691686Y-111550000D01*
X244308314Y-111550000D01*
X244878004Y-111314026D01*
X245314026Y-110878004D01*
X245550000Y-110308314D01*
X245550000Y-109691686D01*
X246450000Y-109691686D01*
X246450000Y-110308314D01*
X246685974Y-110878004D01*
X247121996Y-111314026D01*
X247691686Y-111550000D01*
X248308314Y-111550000D01*
X248878004Y-111314026D01*
X249110045Y-111081985D01*
X250953370Y-111081985D01*
X251091426Y-111293078D01*
X251655426Y-111542345D01*
X252271885Y-111556804D01*
X252846952Y-111334253D01*
X252908574Y-111293078D01*
X253046630Y-111081985D01*
X252000000Y-110035355D01*
X250953370Y-111081985D01*
X249110045Y-111081985D01*
X249314026Y-110878004D01*
X249550000Y-110308314D01*
X249550000Y-110271885D01*
X250443196Y-110271885D01*
X250665747Y-110846952D01*
X250706922Y-110908574D01*
X250918015Y-111046630D01*
X251964645Y-110000000D01*
X252035355Y-110000000D01*
X253081985Y-111046630D01*
X253293078Y-110908574D01*
X253542345Y-110344574D01*
X253556804Y-109728115D01*
X253334253Y-109153048D01*
X253293078Y-109091426D01*
X253081985Y-108953370D01*
X252035355Y-110000000D01*
X251964645Y-110000000D01*
X250918015Y-108953370D01*
X250706922Y-109091426D01*
X250457655Y-109655426D01*
X250443196Y-110271885D01*
X249550000Y-110271885D01*
X249550000Y-109691686D01*
X249314026Y-109121996D01*
X249110045Y-108918015D01*
X250953370Y-108918015D01*
X252000000Y-109964645D01*
X253046630Y-108918015D01*
X252908574Y-108706922D01*
X252344574Y-108457655D01*
X251728115Y-108443196D01*
X251153048Y-108665747D01*
X251091426Y-108706922D01*
X250953370Y-108918015D01*
X249110045Y-108918015D01*
X248878004Y-108685974D01*
X248308314Y-108450000D01*
X247691686Y-108450000D01*
X247121996Y-108685974D01*
X246685974Y-109121996D01*
X246450000Y-109691686D01*
X245550000Y-109691686D01*
X245314026Y-109121996D01*
X244878004Y-108685974D01*
X244308314Y-108450000D01*
X243691686Y-108450000D01*
X243121996Y-108685974D01*
X242685974Y-109121996D01*
X242450000Y-109691686D01*
X241550000Y-109691686D01*
X241314026Y-109121996D01*
X240878004Y-108685974D01*
X240308314Y-108450000D01*
X239691686Y-108450000D01*
X239121996Y-108685974D01*
X238685974Y-109121996D01*
X238450000Y-109691686D01*
X235050000Y-109691686D01*
X234814026Y-109121996D01*
X234378004Y-108685974D01*
X233808314Y-108450000D01*
X233191686Y-108450000D01*
X232621996Y-108685974D01*
X232185974Y-109121996D01*
X231950000Y-109691686D01*
X231050000Y-109691686D01*
X230814026Y-109121996D01*
X230378004Y-108685974D01*
X229808314Y-108450000D01*
X229191686Y-108450000D01*
X228621996Y-108685974D01*
X228185974Y-109121996D01*
X227950000Y-109691686D01*
X227050000Y-109691686D01*
X226814026Y-109121996D01*
X226378004Y-108685974D01*
X225808314Y-108450000D01*
X225191686Y-108450000D01*
X224621996Y-108685974D01*
X224185974Y-109121996D01*
X223950000Y-109691686D01*
X206050000Y-109691686D01*
X205814026Y-109121996D01*
X205378004Y-108685974D01*
X204808314Y-108450000D01*
X204191686Y-108450000D01*
X203621996Y-108685974D01*
X203185974Y-109121996D01*
X202950000Y-109691686D01*
X202050000Y-109691686D01*
X201814026Y-109121996D01*
X201378004Y-108685974D01*
X200808314Y-108450000D01*
X200191686Y-108450000D01*
X199621996Y-108685974D01*
X199185974Y-109121996D01*
X198950000Y-109691686D01*
X198050000Y-109691686D01*
X197814026Y-109121996D01*
X197378004Y-108685974D01*
X196808314Y-108450000D01*
X196191686Y-108450000D01*
X195621996Y-108685974D01*
X195185974Y-109121996D01*
X194950000Y-109691686D01*
X191550000Y-109691686D01*
X191314026Y-109121996D01*
X190878004Y-108685974D01*
X190308314Y-108450000D01*
X189975000Y-108450000D01*
X189975000Y-108245571D01*
X189895073Y-108052612D01*
X189747388Y-107904927D01*
X189554429Y-107825000D01*
X189345571Y-107825000D01*
X189152612Y-107904927D01*
X189004927Y-108052612D01*
X188925000Y-108245571D01*
X188925000Y-108454429D01*
X189004927Y-108647388D01*
X189082755Y-108725216D01*
X188685974Y-109121996D01*
X188450000Y-109691686D01*
X187550000Y-109691686D01*
X187314026Y-109121996D01*
X186929746Y-108737716D01*
X187045073Y-108622388D01*
X187125000Y-108429429D01*
X187125000Y-108220571D01*
X187045073Y-108027612D01*
X186897388Y-107879927D01*
X186704429Y-107800000D01*
X186495571Y-107800000D01*
X186302612Y-107879927D01*
X186154927Y-108027612D01*
X186075000Y-108220571D01*
X186075000Y-108429429D01*
X186083521Y-108450000D01*
X185966479Y-108450000D01*
X185975000Y-108429429D01*
X185975000Y-108220571D01*
X185895073Y-108027612D01*
X185747388Y-107879927D01*
X185554429Y-107800000D01*
X185345571Y-107800000D01*
X185152612Y-107879927D01*
X185004927Y-108027612D01*
X184925000Y-108220571D01*
X184925000Y-108429429D01*
X185004927Y-108622388D01*
X185095255Y-108712716D01*
X184685974Y-109121996D01*
X184450000Y-109691686D01*
X183550000Y-109691686D01*
X183314026Y-109121996D01*
X182878004Y-108685974D01*
X182308314Y-108450000D01*
X181691686Y-108450000D01*
X181121996Y-108685974D01*
X180685974Y-109121996D01*
X180450000Y-109691686D01*
X179542706Y-109691686D01*
X179334253Y-109153048D01*
X179293078Y-109091426D01*
X179081985Y-108953370D01*
X178035355Y-110000000D01*
X177964645Y-110000000D01*
X176918015Y-108953370D01*
X176706922Y-109091426D01*
X176457655Y-109655426D01*
X176443196Y-110271885D01*
X165375000Y-110271885D01*
X165375000Y-108918015D01*
X176953370Y-108918015D01*
X178000000Y-109964645D01*
X179046630Y-108918015D01*
X178908574Y-108706922D01*
X178344574Y-108457655D01*
X177728115Y-108443196D01*
X177153048Y-108665747D01*
X177091426Y-108706922D01*
X176953370Y-108918015D01*
X165375000Y-108918015D01*
X165375000Y-107670571D01*
X178950000Y-107670571D01*
X178950000Y-107879429D01*
X179029927Y-108072388D01*
X179177612Y-108220073D01*
X179370571Y-108300000D01*
X179579429Y-108300000D01*
X179772388Y-108220073D01*
X179920073Y-108072388D01*
X180000000Y-107879429D01*
X180000000Y-107670571D01*
X179989645Y-107645571D01*
X250975000Y-107645571D01*
X250975000Y-107854429D01*
X251054927Y-108047388D01*
X251202612Y-108195073D01*
X251395571Y-108275000D01*
X251604429Y-108275000D01*
X251797388Y-108195073D01*
X251945073Y-108047388D01*
X252025000Y-107854429D01*
X252025000Y-107645571D01*
X251945073Y-107452612D01*
X251797388Y-107304927D01*
X251604429Y-107225000D01*
X251395571Y-107225000D01*
X251202612Y-107304927D01*
X251054927Y-107452612D01*
X250975000Y-107645571D01*
X179989645Y-107645571D01*
X179920073Y-107477612D01*
X179772388Y-107329927D01*
X179579429Y-107250000D01*
X179370571Y-107250000D01*
X179177612Y-107329927D01*
X179029927Y-107477612D01*
X178950000Y-107670571D01*
X165375000Y-107670571D01*
X165375000Y-106895571D01*
X179725000Y-106895571D01*
X179725000Y-107104429D01*
X179804927Y-107297388D01*
X179952612Y-107445073D01*
X180145571Y-107525000D01*
X180354429Y-107525000D01*
X180547388Y-107445073D01*
X180695073Y-107297388D01*
X180775000Y-107104429D01*
X180775000Y-106895571D01*
X250225000Y-106895571D01*
X250225000Y-107104429D01*
X250304927Y-107297388D01*
X250452612Y-107445073D01*
X250645571Y-107525000D01*
X250854429Y-107525000D01*
X251047388Y-107445073D01*
X251195073Y-107297388D01*
X251275000Y-107104429D01*
X251275000Y-106895571D01*
X251195073Y-106702612D01*
X251047388Y-106554927D01*
X250854429Y-106475000D01*
X250645571Y-106475000D01*
X250452612Y-106554927D01*
X250304927Y-106702612D01*
X250225000Y-106895571D01*
X180775000Y-106895571D01*
X180695073Y-106702612D01*
X180547388Y-106554927D01*
X180354429Y-106475000D01*
X180145571Y-106475000D01*
X179952612Y-106554927D01*
X179804927Y-106702612D01*
X179725000Y-106895571D01*
X165375000Y-106895571D01*
X165375000Y-105420571D01*
X182025000Y-105420571D01*
X182025000Y-105629429D01*
X182104927Y-105822388D01*
X182252612Y-105970073D01*
X182445571Y-106050000D01*
X182654429Y-106050000D01*
X182847388Y-105970073D01*
X182995073Y-105822388D01*
X183075000Y-105629429D01*
X183075000Y-105420571D01*
X182995073Y-105227612D01*
X182847388Y-105079927D01*
X182654429Y-105000000D01*
X182445571Y-105000000D01*
X182252612Y-105079927D01*
X182104927Y-105227612D01*
X182025000Y-105420571D01*
X165375000Y-105420571D01*
X165375000Y-102445571D01*
X184950000Y-102445571D01*
X184950000Y-102654429D01*
X185029927Y-102847388D01*
X185177612Y-102995073D01*
X185370571Y-103075000D01*
X185579429Y-103075000D01*
X185772388Y-102995073D01*
X185920073Y-102847388D01*
X186000000Y-102654429D01*
X186000000Y-102445571D01*
X185920073Y-102252612D01*
X185772388Y-102104927D01*
X185579429Y-102025000D01*
X185370571Y-102025000D01*
X185177612Y-102104927D01*
X185029927Y-102252612D01*
X184950000Y-102445571D01*
X165375000Y-102445571D01*
X165375000Y-100145571D01*
X225075000Y-100145571D01*
X225075000Y-100354429D01*
X225154927Y-100547388D01*
X225302612Y-100695073D01*
X225495571Y-100775000D01*
X225704429Y-100775000D01*
X225897388Y-100695073D01*
X226045073Y-100547388D01*
X226125000Y-100354429D01*
X226125000Y-100145571D01*
X226045073Y-99952612D01*
X225897388Y-99804927D01*
X225704429Y-99725000D01*
X225495571Y-99725000D01*
X225302612Y-99804927D01*
X225154927Y-99952612D01*
X225075000Y-100145571D01*
X165375000Y-100145571D01*
X165375000Y-99195571D01*
X188950000Y-99195571D01*
X188950000Y-99404429D01*
X189029927Y-99597388D01*
X189177612Y-99745073D01*
X189370571Y-99825000D01*
X189579429Y-99825000D01*
X189772388Y-99745073D01*
X189920073Y-99597388D01*
X190000000Y-99404429D01*
X190000000Y-99195571D01*
X189920073Y-99002612D01*
X189772388Y-98854927D01*
X189579429Y-98775000D01*
X189370571Y-98775000D01*
X189177612Y-98854927D01*
X189029927Y-99002612D01*
X188950000Y-99195571D01*
X165375000Y-99195571D01*
X165375000Y-97570571D01*
X176925000Y-97570571D01*
X176925000Y-97779429D01*
X177004927Y-97972388D01*
X177152612Y-98120073D01*
X177345571Y-98200000D01*
X177554429Y-98200000D01*
X177747388Y-98120073D01*
X177895073Y-97972388D01*
X177975000Y-97779429D01*
X177975000Y-97595571D01*
X178050000Y-97595571D01*
X178050000Y-97804429D01*
X178129927Y-97997388D01*
X178277612Y-98145073D01*
X178470571Y-98225000D01*
X178679429Y-98225000D01*
X178872388Y-98145073D01*
X179020073Y-97997388D01*
X179100000Y-97804429D01*
X179100000Y-97595571D01*
X179020073Y-97402612D01*
X178872388Y-97254927D01*
X178849801Y-97245571D01*
X217575000Y-97245571D01*
X217575000Y-97454429D01*
X217654927Y-97647388D01*
X217802612Y-97795073D01*
X217995571Y-97875000D01*
X218204429Y-97875000D01*
X218397388Y-97795073D01*
X218421890Y-97770571D01*
X219100000Y-97770571D01*
X219100000Y-97979429D01*
X219179927Y-98172388D01*
X219327612Y-98320073D01*
X219520571Y-98400000D01*
X219729429Y-98400000D01*
X219922388Y-98320073D01*
X220046890Y-98195571D01*
X227175000Y-98195571D01*
X227175000Y-98404429D01*
X227254927Y-98597388D01*
X227402612Y-98745073D01*
X227595571Y-98825000D01*
X227804429Y-98825000D01*
X227844123Y-98808558D01*
X227844123Y-99850000D01*
X227867407Y-99967054D01*
X227933712Y-100066288D01*
X228032946Y-100132593D01*
X228150000Y-100155877D01*
X229850000Y-100155877D01*
X229967054Y-100132593D01*
X230066288Y-100066288D01*
X230132593Y-99967054D01*
X230155877Y-99850000D01*
X230155877Y-98787847D01*
X230245571Y-98825000D01*
X230402281Y-98825000D01*
X230367471Y-99000000D01*
X230456724Y-99448707D01*
X230710897Y-99829103D01*
X231091293Y-100083276D01*
X231426739Y-100150000D01*
X231653261Y-100150000D01*
X231988707Y-100083276D01*
X232369103Y-99829103D01*
X232623276Y-99448707D01*
X232712529Y-99000000D01*
X232677719Y-98825000D01*
X232754429Y-98825000D01*
X232947388Y-98745073D01*
X232960858Y-98731603D01*
X232907471Y-99000000D01*
X232996724Y-99448707D01*
X233250897Y-99829103D01*
X233631293Y-100083276D01*
X233966739Y-100150000D01*
X234193261Y-100150000D01*
X234528707Y-100083276D01*
X234909103Y-99829103D01*
X235163276Y-99448707D01*
X235252529Y-99000000D01*
X235217719Y-98825000D01*
X235304429Y-98825000D01*
X235497388Y-98745073D01*
X235498375Y-98744086D01*
X235447471Y-99000000D01*
X235536724Y-99448707D01*
X235790897Y-99829103D01*
X236171293Y-100083276D01*
X236506739Y-100150000D01*
X236733261Y-100150000D01*
X237068707Y-100083276D01*
X237449103Y-99829103D01*
X237703276Y-99448707D01*
X237792529Y-99000000D01*
X237987471Y-99000000D01*
X238076724Y-99448707D01*
X238330897Y-99829103D01*
X238711293Y-100083276D01*
X239046739Y-100150000D01*
X239273261Y-100150000D01*
X239608707Y-100083276D01*
X239989103Y-99829103D01*
X240243276Y-99448707D01*
X240332529Y-99000000D01*
X240243276Y-98551293D01*
X240038999Y-98245571D01*
X245275000Y-98245571D01*
X245275000Y-98454429D01*
X245354927Y-98647388D01*
X245502612Y-98795073D01*
X245695571Y-98875000D01*
X245904429Y-98875000D01*
X246097388Y-98795073D01*
X246245073Y-98647388D01*
X246325000Y-98454429D01*
X246325000Y-98245571D01*
X246245073Y-98052612D01*
X246097388Y-97904927D01*
X245904429Y-97825000D01*
X245695571Y-97825000D01*
X245502612Y-97904927D01*
X245354927Y-98052612D01*
X245275000Y-98245571D01*
X240038999Y-98245571D01*
X239989103Y-98170897D01*
X239608707Y-97916724D01*
X239273261Y-97850000D01*
X239046739Y-97850000D01*
X238711293Y-97916724D01*
X238330897Y-98170897D01*
X238076724Y-98551293D01*
X237987471Y-99000000D01*
X237792529Y-99000000D01*
X237703276Y-98551293D01*
X237449103Y-98170897D01*
X237068707Y-97916724D01*
X236733261Y-97850000D01*
X236506739Y-97850000D01*
X236171293Y-97916724D01*
X235790897Y-98170897D01*
X235725000Y-98269519D01*
X235725000Y-98195571D01*
X235645073Y-98002612D01*
X235497388Y-97854927D01*
X235304429Y-97775000D01*
X235095571Y-97775000D01*
X234902612Y-97854927D01*
X234754927Y-98002612D01*
X234733752Y-98053731D01*
X234528707Y-97916724D01*
X234193261Y-97850000D01*
X233966739Y-97850000D01*
X233631293Y-97916724D01*
X233250897Y-98170897D01*
X233175000Y-98284485D01*
X233175000Y-98195571D01*
X233095073Y-98002612D01*
X232947388Y-97854927D01*
X232754429Y-97775000D01*
X232545571Y-97775000D01*
X232352612Y-97854927D01*
X232204927Y-98002612D01*
X232185920Y-98048498D01*
X231988707Y-97916724D01*
X231653261Y-97850000D01*
X231426739Y-97850000D01*
X231091293Y-97916724D01*
X230831422Y-98090365D01*
X230795073Y-98002612D01*
X230647388Y-97854927D01*
X230454429Y-97775000D01*
X230245571Y-97775000D01*
X230052612Y-97854927D01*
X230010861Y-97896678D01*
X229967054Y-97867407D01*
X229850000Y-97844123D01*
X228150000Y-97844123D01*
X228032946Y-97867407D01*
X228019112Y-97876651D01*
X227997388Y-97854927D01*
X227804429Y-97775000D01*
X227595571Y-97775000D01*
X227402612Y-97854927D01*
X227254927Y-98002612D01*
X227175000Y-98195571D01*
X220046890Y-98195571D01*
X220070073Y-98172388D01*
X220150000Y-97979429D01*
X220150000Y-97770571D01*
X220070073Y-97577612D01*
X219922388Y-97429927D01*
X219729429Y-97350000D01*
X219520571Y-97350000D01*
X219327612Y-97429927D01*
X219179927Y-97577612D01*
X219100000Y-97770571D01*
X218421890Y-97770571D01*
X218545073Y-97647388D01*
X218625000Y-97454429D01*
X218625000Y-97245571D01*
X218545073Y-97052612D01*
X218397388Y-96904927D01*
X218204429Y-96825000D01*
X217995571Y-96825000D01*
X217802612Y-96904927D01*
X217654927Y-97052612D01*
X217575000Y-97245571D01*
X178849801Y-97245571D01*
X178679429Y-97175000D01*
X178470571Y-97175000D01*
X178277612Y-97254927D01*
X178129927Y-97402612D01*
X178050000Y-97595571D01*
X177975000Y-97595571D01*
X177975000Y-97570571D01*
X177895073Y-97377612D01*
X177747388Y-97229927D01*
X177554429Y-97150000D01*
X177345571Y-97150000D01*
X177152612Y-97229927D01*
X177004927Y-97377612D01*
X176925000Y-97570571D01*
X165375000Y-97570571D01*
X165375000Y-95870571D01*
X174775000Y-95870571D01*
X174775000Y-96079429D01*
X174854927Y-96272388D01*
X175002612Y-96420073D01*
X175195571Y-96500000D01*
X175404429Y-96500000D01*
X175597388Y-96420073D01*
X175745073Y-96272388D01*
X175825000Y-96079429D01*
X175825000Y-95895571D01*
X177775000Y-95895571D01*
X177775000Y-96104429D01*
X177854927Y-96297388D01*
X178002612Y-96445073D01*
X178195571Y-96525000D01*
X178404429Y-96525000D01*
X178597388Y-96445073D01*
X178745073Y-96297388D01*
X178766860Y-96244790D01*
X221310713Y-96244790D01*
X221310713Y-96453648D01*
X221390640Y-96646607D01*
X221538325Y-96794292D01*
X221661804Y-96845439D01*
X221661804Y-96940217D01*
X221741731Y-97133176D01*
X221889416Y-97280861D01*
X222082375Y-97360788D01*
X222291233Y-97360788D01*
X222484192Y-97280861D01*
X222631877Y-97133176D01*
X222711804Y-96940217D01*
X222711804Y-96770568D01*
X222920408Y-96770568D01*
X222920408Y-96979426D01*
X223000335Y-97172385D01*
X223148020Y-97320070D01*
X223340979Y-97399997D01*
X223549837Y-97399997D01*
X223742796Y-97320070D01*
X223747685Y-97315181D01*
X223752564Y-97320060D01*
X223945523Y-97399987D01*
X224154381Y-97399987D01*
X224347340Y-97320060D01*
X224495025Y-97172375D01*
X224557904Y-97020571D01*
X224925000Y-97020571D01*
X224925000Y-97229429D01*
X225004927Y-97422388D01*
X225152612Y-97570073D01*
X225345571Y-97650000D01*
X225554429Y-97650000D01*
X225747388Y-97570073D01*
X225895073Y-97422388D01*
X225975000Y-97229429D01*
X225975000Y-97020571D01*
X225895073Y-96827612D01*
X225873022Y-96805561D01*
X227875000Y-96805561D01*
X227875000Y-97014419D01*
X227954927Y-97207378D01*
X228102612Y-97355063D01*
X228295571Y-97434990D01*
X228504429Y-97434990D01*
X228697388Y-97355063D01*
X228845073Y-97207378D01*
X228914569Y-97039601D01*
X228979927Y-97197388D01*
X229127612Y-97345073D01*
X229320571Y-97425000D01*
X229529429Y-97425000D01*
X229722388Y-97345073D01*
X229870073Y-97197388D01*
X229950000Y-97004429D01*
X229950000Y-96954037D01*
X230077365Y-97006794D01*
X230286223Y-97006794D01*
X230479182Y-96926867D01*
X230626867Y-96779182D01*
X230661500Y-96695571D01*
X230675000Y-96695571D01*
X230675000Y-96904429D01*
X230754927Y-97097388D01*
X230902612Y-97245073D01*
X231095571Y-97325000D01*
X231304429Y-97325000D01*
X231497388Y-97245073D01*
X231645073Y-97097388D01*
X231725000Y-96904429D01*
X231725000Y-96695571D01*
X231645073Y-96502612D01*
X231497388Y-96354927D01*
X231304429Y-96275000D01*
X231095571Y-96275000D01*
X230902612Y-96354927D01*
X230754927Y-96502612D01*
X230675000Y-96695571D01*
X230661500Y-96695571D01*
X230706794Y-96586223D01*
X230706794Y-96377365D01*
X230626867Y-96184406D01*
X230479182Y-96036721D01*
X230286223Y-95956794D01*
X230077365Y-95956794D01*
X229884406Y-96036721D01*
X229736721Y-96184406D01*
X229656794Y-96377365D01*
X229656794Y-96427757D01*
X229529429Y-96375000D01*
X229320571Y-96375000D01*
X229127612Y-96454927D01*
X228979927Y-96602612D01*
X228910431Y-96770389D01*
X228845073Y-96612602D01*
X228697388Y-96464917D01*
X228504429Y-96384990D01*
X228295571Y-96384990D01*
X228102612Y-96464917D01*
X227954927Y-96612602D01*
X227875000Y-96805561D01*
X225873022Y-96805561D01*
X225747388Y-96679927D01*
X225554429Y-96600000D01*
X225345571Y-96600000D01*
X225152612Y-96679927D01*
X225004927Y-96827612D01*
X224925000Y-97020571D01*
X224557904Y-97020571D01*
X224574952Y-96979416D01*
X224574952Y-96770558D01*
X224495025Y-96577599D01*
X224347340Y-96429914D01*
X224154381Y-96349987D01*
X223945523Y-96349987D01*
X223752564Y-96429914D01*
X223747675Y-96434803D01*
X223742796Y-96429924D01*
X223549837Y-96349997D01*
X223340979Y-96349997D01*
X223148020Y-96429924D01*
X223000335Y-96577609D01*
X222920408Y-96770568D01*
X222711804Y-96770568D01*
X222711804Y-96731359D01*
X222631877Y-96538400D01*
X222484192Y-96390715D01*
X222360713Y-96339568D01*
X222360713Y-96244790D01*
X222280786Y-96051831D01*
X222133101Y-95904146D01*
X221940142Y-95824219D01*
X221731284Y-95824219D01*
X221538325Y-95904146D01*
X221390640Y-96051831D01*
X221310713Y-96244790D01*
X178766860Y-96244790D01*
X178825000Y-96104429D01*
X178825000Y-95895571D01*
X178745073Y-95702612D01*
X178597388Y-95554927D01*
X178404429Y-95475000D01*
X178195571Y-95475000D01*
X178002612Y-95554927D01*
X177854927Y-95702612D01*
X177775000Y-95895571D01*
X175825000Y-95895571D01*
X175825000Y-95870571D01*
X175745073Y-95677612D01*
X175597388Y-95529927D01*
X175404429Y-95450000D01*
X175195571Y-95450000D01*
X175002612Y-95529927D01*
X174854927Y-95677612D01*
X174775000Y-95870571D01*
X165375000Y-95870571D01*
X165375000Y-94395571D01*
X192275000Y-94395571D01*
X192275000Y-94604429D01*
X192354927Y-94797388D01*
X192502612Y-94945073D01*
X192695571Y-95025000D01*
X192904429Y-95025000D01*
X193097388Y-94945073D01*
X193245073Y-94797388D01*
X193325000Y-94604429D01*
X193325000Y-94495571D01*
X193475002Y-94495571D01*
X193475002Y-94704429D01*
X193554929Y-94897388D01*
X193702614Y-95045073D01*
X193895573Y-95125000D01*
X194104431Y-95125000D01*
X194297390Y-95045073D01*
X194445075Y-94897388D01*
X194525002Y-94704429D01*
X194525002Y-94495571D01*
X194504292Y-94445571D01*
X219125000Y-94445571D01*
X219125000Y-94654429D01*
X219204927Y-94847388D01*
X219352612Y-94995073D01*
X219545571Y-95075000D01*
X219674943Y-95075000D01*
X219625000Y-95195571D01*
X219625000Y-95404429D01*
X219704927Y-95597388D01*
X219852612Y-95745073D01*
X220045571Y-95825000D01*
X220254429Y-95825000D01*
X220447388Y-95745073D01*
X220595073Y-95597388D01*
X220675000Y-95404429D01*
X220675000Y-95361517D01*
X220809205Y-95361517D01*
X221002164Y-95281590D01*
X221149849Y-95133905D01*
X221229776Y-94940946D01*
X221229776Y-94732088D01*
X221149849Y-94539129D01*
X221002164Y-94391444D01*
X220809205Y-94311517D01*
X220600347Y-94311517D01*
X220407388Y-94391444D01*
X220259703Y-94539129D01*
X220179776Y-94732088D01*
X220179776Y-94775000D01*
X220125057Y-94775000D01*
X220175000Y-94654429D01*
X220175000Y-94445571D01*
X220095073Y-94252612D01*
X219947388Y-94104927D01*
X219754429Y-94025000D01*
X219545571Y-94025000D01*
X219352612Y-94104927D01*
X219204927Y-94252612D01*
X219125000Y-94445571D01*
X194504292Y-94445571D01*
X194445075Y-94302612D01*
X194297390Y-94154927D01*
X194104431Y-94075000D01*
X193895573Y-94075000D01*
X193702614Y-94154927D01*
X193554929Y-94302612D01*
X193475002Y-94495571D01*
X193325000Y-94495571D01*
X193325000Y-94395571D01*
X193245073Y-94202612D01*
X193167459Y-94124998D01*
X193304429Y-94124998D01*
X193497388Y-94045071D01*
X193645073Y-93897386D01*
X193725000Y-93704427D01*
X193725000Y-93495569D01*
X193645073Y-93302610D01*
X193497388Y-93154925D01*
X193304429Y-93074998D01*
X193095571Y-93074998D01*
X192902612Y-93154925D01*
X192754927Y-93302610D01*
X192675000Y-93495569D01*
X192675000Y-93704427D01*
X192754927Y-93897386D01*
X192832541Y-93975000D01*
X192695571Y-93975000D01*
X192502612Y-94054927D01*
X192354927Y-94202612D01*
X192275000Y-94395571D01*
X165375000Y-94395571D01*
X165375000Y-93170571D01*
X175950000Y-93170571D01*
X175950000Y-93379429D01*
X176029927Y-93572388D01*
X176177612Y-93720073D01*
X176370571Y-93800000D01*
X176579429Y-93800000D01*
X176772388Y-93720073D01*
X176920073Y-93572388D01*
X177000000Y-93379429D01*
X177000000Y-93220571D01*
X177025000Y-93220571D01*
X177025000Y-93429429D01*
X177104927Y-93622388D01*
X177252612Y-93770073D01*
X177445571Y-93850000D01*
X177654429Y-93850000D01*
X177847388Y-93770073D01*
X177995073Y-93622388D01*
X178075000Y-93429429D01*
X178075000Y-93220571D01*
X178043934Y-93145571D01*
X178925000Y-93145571D01*
X178925000Y-93354429D01*
X179004927Y-93547388D01*
X179152612Y-93695073D01*
X179345571Y-93775000D01*
X179554429Y-93775000D01*
X179747388Y-93695073D01*
X179895073Y-93547388D01*
X179975000Y-93354429D01*
X179975000Y-93145571D01*
X179895073Y-92952612D01*
X179747388Y-92804927D01*
X179554429Y-92725000D01*
X179345571Y-92725000D01*
X179152612Y-92804927D01*
X179004927Y-92952612D01*
X178925000Y-93145571D01*
X178043934Y-93145571D01*
X177995073Y-93027612D01*
X177847388Y-92879927D01*
X177654429Y-92800000D01*
X177445571Y-92800000D01*
X177252612Y-92879927D01*
X177104927Y-93027612D01*
X177025000Y-93220571D01*
X177000000Y-93220571D01*
X177000000Y-93170571D01*
X176920073Y-92977612D01*
X176772388Y-92829927D01*
X176579429Y-92750000D01*
X176370571Y-92750000D01*
X176177612Y-92829927D01*
X176029927Y-92977612D01*
X175950000Y-93170571D01*
X165375000Y-93170571D01*
X165375000Y-92095571D01*
X209050000Y-92095571D01*
X209050000Y-92304429D01*
X209129927Y-92497388D01*
X209277612Y-92645073D01*
X209470571Y-92725000D01*
X209679429Y-92725000D01*
X209872388Y-92645073D01*
X210020073Y-92497388D01*
X210100000Y-92304429D01*
X210100000Y-92095571D01*
X210020073Y-91902612D01*
X209872388Y-91754927D01*
X209679429Y-91675000D01*
X209470571Y-91675000D01*
X209277612Y-91754927D01*
X209129927Y-91902612D01*
X209050000Y-92095571D01*
X165375000Y-92095571D01*
X165375000Y-91195571D01*
X177475000Y-91195571D01*
X177475000Y-91404429D01*
X177554927Y-91597388D01*
X177702612Y-91745073D01*
X177895571Y-91825000D01*
X178104429Y-91825000D01*
X178297388Y-91745073D01*
X178445073Y-91597388D01*
X178525000Y-91404429D01*
X178525000Y-91195571D01*
X178445073Y-91002612D01*
X178297388Y-90854927D01*
X178104429Y-90775000D01*
X177895571Y-90775000D01*
X177702612Y-90854927D01*
X177554927Y-91002612D01*
X177475000Y-91195571D01*
X165375000Y-91195571D01*
X165375000Y-88091686D01*
X173200000Y-88091686D01*
X173200000Y-88708314D01*
X173435974Y-89278004D01*
X173871996Y-89714026D01*
X174441686Y-89950000D01*
X175058314Y-89950000D01*
X175628004Y-89714026D01*
X176064026Y-89278004D01*
X176300000Y-88708314D01*
X176300000Y-88091686D01*
X178700000Y-88091686D01*
X178700000Y-88708314D01*
X178935974Y-89278004D01*
X179371996Y-89714026D01*
X179941686Y-89950000D01*
X180558314Y-89950000D01*
X180810427Y-89845571D01*
X196775000Y-89845571D01*
X196775000Y-90054429D01*
X196854927Y-90247388D01*
X197002612Y-90395073D01*
X197195571Y-90475000D01*
X197404429Y-90475000D01*
X197597388Y-90395073D01*
X197745073Y-90247388D01*
X197825000Y-90054429D01*
X197825000Y-89845571D01*
X203475000Y-89845571D01*
X203475000Y-90054429D01*
X203554927Y-90247388D01*
X203702612Y-90395073D01*
X203895571Y-90475000D01*
X204104429Y-90475000D01*
X204297388Y-90395073D01*
X204445073Y-90247388D01*
X204525000Y-90054429D01*
X204525000Y-89845571D01*
X204445073Y-89652612D01*
X204297388Y-89504927D01*
X204104429Y-89425000D01*
X203895571Y-89425000D01*
X203702612Y-89504927D01*
X203554927Y-89652612D01*
X203475000Y-89845571D01*
X197825000Y-89845571D01*
X197745073Y-89652612D01*
X197597388Y-89504927D01*
X197404429Y-89425000D01*
X197195571Y-89425000D01*
X197002612Y-89504927D01*
X196854927Y-89652612D01*
X196775000Y-89845571D01*
X180810427Y-89845571D01*
X181128004Y-89714026D01*
X181446459Y-89395571D01*
X213475000Y-89395571D01*
X213475000Y-89604429D01*
X213554927Y-89797388D01*
X213702612Y-89945073D01*
X213895571Y-90025000D01*
X214104429Y-90025000D01*
X214297388Y-89945073D01*
X214445073Y-89797388D01*
X214499673Y-89665571D01*
X217085000Y-89665571D01*
X217085000Y-89874429D01*
X217164927Y-90067388D01*
X217312612Y-90215073D01*
X217505571Y-90295000D01*
X217714429Y-90295000D01*
X217907388Y-90215073D01*
X218055073Y-90067388D01*
X218135000Y-89874429D01*
X218135000Y-89665571D01*
X218107840Y-89600000D01*
X222900000Y-89600000D01*
X222900000Y-90000000D01*
X222922836Y-90114805D01*
X222987868Y-90212132D01*
X223300000Y-90524264D01*
X223300000Y-91657539D01*
X223154927Y-91802612D01*
X223075000Y-91995571D01*
X223075000Y-92204429D01*
X223154927Y-92397388D01*
X223257539Y-92500000D01*
X223154927Y-92602612D01*
X223075000Y-92795571D01*
X223075000Y-93004429D01*
X223154927Y-93197388D01*
X223302612Y-93345073D01*
X223495571Y-93425000D01*
X223600736Y-93425000D01*
X225100000Y-94924264D01*
X225100000Y-95200000D01*
X225122836Y-95314805D01*
X225187868Y-95412132D01*
X225587868Y-95812132D01*
X225685195Y-95877164D01*
X225800000Y-95900000D01*
X226400000Y-95900000D01*
X226514805Y-95877164D01*
X226612132Y-95812132D01*
X227212132Y-95212132D01*
X227277164Y-95114805D01*
X227300000Y-95000000D01*
X227300000Y-94324264D01*
X227700000Y-93924264D01*
X228387868Y-94612132D01*
X228485195Y-94677164D01*
X228600000Y-94700000D01*
X241450000Y-94700000D01*
X241564805Y-94677164D01*
X241662132Y-94612132D01*
X241762132Y-94512132D01*
X241827164Y-94414805D01*
X241850000Y-94300000D01*
X242100000Y-94300000D01*
X242100000Y-94350000D01*
X242122836Y-94464805D01*
X242187868Y-94562132D01*
X242237868Y-94612132D01*
X242335195Y-94677164D01*
X242450000Y-94700000D01*
X243075736Y-94700000D01*
X244963120Y-96587384D01*
X244920818Y-96604906D01*
X244773133Y-96752591D01*
X244693206Y-96945550D01*
X244693206Y-97154408D01*
X244773133Y-97347367D01*
X244920818Y-97495052D01*
X245113777Y-97574979D01*
X245322635Y-97574979D01*
X245515594Y-97495052D01*
X245663279Y-97347367D01*
X245680801Y-97305065D01*
X246387868Y-98012132D01*
X246485195Y-98077164D01*
X246600000Y-98100000D01*
X247200000Y-98100000D01*
X247314805Y-98077164D01*
X247412132Y-98012132D01*
X247862132Y-97562132D01*
X247873197Y-97545571D01*
X248025000Y-97545571D01*
X248025000Y-97754429D01*
X248104927Y-97947388D01*
X248252612Y-98095073D01*
X248445571Y-98175000D01*
X248654429Y-98175000D01*
X248847388Y-98095073D01*
X248995073Y-97947388D01*
X249075000Y-97754429D01*
X249075000Y-97545571D01*
X248995073Y-97352612D01*
X248847388Y-97204927D01*
X248654429Y-97125000D01*
X248445571Y-97125000D01*
X248252612Y-97204927D01*
X248104927Y-97352612D01*
X248025000Y-97545571D01*
X247873197Y-97545571D01*
X247927164Y-97464805D01*
X247950000Y-97350000D01*
X247950000Y-97100000D01*
X247943206Y-97065844D01*
X247943206Y-97063777D01*
X247942415Y-97061867D01*
X247927164Y-96985195D01*
X247911905Y-96962359D01*
X248212132Y-96662132D01*
X248277164Y-96564805D01*
X248290935Y-96495571D01*
X256475000Y-96495571D01*
X256475000Y-96704429D01*
X256554927Y-96897388D01*
X256702612Y-97045073D01*
X256895571Y-97125000D01*
X257104429Y-97125000D01*
X257297388Y-97045073D01*
X257445073Y-96897388D01*
X257525000Y-96704429D01*
X257525000Y-96495571D01*
X257514743Y-96470809D01*
X257645571Y-96525000D01*
X257854429Y-96525000D01*
X258047388Y-96445073D01*
X258195073Y-96297388D01*
X258275000Y-96104429D01*
X258275000Y-95895571D01*
X258195073Y-95702612D01*
X258047388Y-95554927D01*
X257854429Y-95475000D01*
X257645571Y-95475000D01*
X257452612Y-95554927D01*
X257304927Y-95702612D01*
X257225000Y-95895571D01*
X257225000Y-96104429D01*
X257235257Y-96129191D01*
X257104429Y-96075000D01*
X256895571Y-96075000D01*
X256702612Y-96154927D01*
X256554927Y-96302612D01*
X256475000Y-96495571D01*
X248290935Y-96495571D01*
X248300000Y-96450000D01*
X248300000Y-95035493D01*
X248304927Y-95047388D01*
X248452612Y-95195073D01*
X248645571Y-95275000D01*
X248854429Y-95275000D01*
X249047388Y-95195073D01*
X249195073Y-95047388D01*
X249275000Y-94854429D01*
X249275000Y-94645571D01*
X249195073Y-94452612D01*
X249117461Y-94375000D01*
X249195073Y-94297388D01*
X249275000Y-94104429D01*
X249275000Y-93895571D01*
X249233579Y-93795571D01*
X251875000Y-93795571D01*
X251875000Y-94004429D01*
X251954927Y-94197388D01*
X252102612Y-94345073D01*
X252295571Y-94425000D01*
X252504429Y-94425000D01*
X252697388Y-94345073D01*
X252845073Y-94197388D01*
X252925000Y-94004429D01*
X252925000Y-93895571D01*
X253125000Y-93895571D01*
X253125000Y-94104429D01*
X253204927Y-94297388D01*
X253352612Y-94445073D01*
X253545571Y-94525000D01*
X253754429Y-94525000D01*
X253947388Y-94445073D01*
X254021890Y-94370571D01*
X256000000Y-94370571D01*
X256000000Y-94579429D01*
X256079927Y-94772388D01*
X256227612Y-94920073D01*
X256420571Y-95000000D01*
X256629429Y-95000000D01*
X256822388Y-94920073D01*
X256970073Y-94772388D01*
X257050000Y-94579429D01*
X257050000Y-94370571D01*
X256970073Y-94177612D01*
X256822388Y-94029927D01*
X256629429Y-93950000D01*
X256420571Y-93950000D01*
X256227612Y-94029927D01*
X256079927Y-94177612D01*
X256000000Y-94370571D01*
X254021890Y-94370571D01*
X254095073Y-94297388D01*
X254175000Y-94104429D01*
X254175000Y-93917461D01*
X254202612Y-93945073D01*
X254395571Y-94025000D01*
X254604429Y-94025000D01*
X254797388Y-93945073D01*
X254945073Y-93797388D01*
X254979289Y-93714784D01*
X255054927Y-93897388D01*
X255202612Y-94045073D01*
X255395571Y-94125000D01*
X255604429Y-94125000D01*
X255797388Y-94045073D01*
X255945073Y-93897388D01*
X256025000Y-93704429D01*
X256025000Y-93495571D01*
X255945073Y-93302612D01*
X255797388Y-93154927D01*
X255604429Y-93075000D01*
X255395571Y-93075000D01*
X255202612Y-93154927D01*
X255054927Y-93302612D01*
X255020711Y-93385216D01*
X254945073Y-93202612D01*
X254797388Y-93054927D01*
X254664784Y-93000000D01*
X254797388Y-92945073D01*
X254945073Y-92797388D01*
X255015533Y-92627284D01*
X255054927Y-92722388D01*
X255202612Y-92870073D01*
X255395571Y-92950000D01*
X255604429Y-92950000D01*
X255797388Y-92870073D01*
X255945073Y-92722388D01*
X256002145Y-92584606D01*
X256079927Y-92772388D01*
X256227612Y-92920073D01*
X256420571Y-93000000D01*
X256629429Y-93000000D01*
X256822388Y-92920073D01*
X256970073Y-92772388D01*
X257050000Y-92579429D01*
X257050000Y-92370571D01*
X256970073Y-92177612D01*
X256822388Y-92029927D01*
X256629429Y-91950000D01*
X256420571Y-91950000D01*
X256227612Y-92029927D01*
X256079927Y-92177612D01*
X256022855Y-92315394D01*
X255945073Y-92127612D01*
X255797388Y-91979927D01*
X255604429Y-91900000D01*
X255395571Y-91900000D01*
X255202612Y-91979927D01*
X255054927Y-92127612D01*
X254984467Y-92297716D01*
X254945073Y-92202612D01*
X254797388Y-92054927D01*
X254604429Y-91975000D01*
X254395571Y-91975000D01*
X254202612Y-92054927D01*
X254054927Y-92202612D01*
X253975000Y-92395571D01*
X253975000Y-92604429D01*
X254054927Y-92797388D01*
X254202612Y-92945073D01*
X254335216Y-93000000D01*
X254202612Y-93054927D01*
X254054927Y-93202612D01*
X253975000Y-93395571D01*
X253975000Y-93582539D01*
X253947388Y-93554927D01*
X253754429Y-93475000D01*
X253545571Y-93475000D01*
X253352612Y-93554927D01*
X253204927Y-93702612D01*
X253125000Y-93895571D01*
X252925000Y-93895571D01*
X252925000Y-93795571D01*
X252845073Y-93602612D01*
X252697388Y-93454927D01*
X252504429Y-93375000D01*
X252295571Y-93375000D01*
X252102612Y-93454927D01*
X251954927Y-93602612D01*
X251875000Y-93795571D01*
X249233579Y-93795571D01*
X249195073Y-93702612D01*
X249047388Y-93554927D01*
X248854429Y-93475000D01*
X248645571Y-93475000D01*
X248452612Y-93554927D01*
X248304927Y-93702612D01*
X248300000Y-93714507D01*
X248300000Y-91670571D01*
X250725000Y-91670571D01*
X250725000Y-91879429D01*
X250804927Y-92072388D01*
X250952612Y-92220073D01*
X251145571Y-92300000D01*
X251354429Y-92300000D01*
X251547388Y-92220073D01*
X251695073Y-92072388D01*
X251775000Y-91879429D01*
X251775000Y-91670571D01*
X251695073Y-91477612D01*
X251547388Y-91329927D01*
X251354429Y-91250000D01*
X251145571Y-91250000D01*
X250952612Y-91329927D01*
X250804927Y-91477612D01*
X250725000Y-91670571D01*
X248300000Y-91670571D01*
X248300000Y-91285493D01*
X248304927Y-91297388D01*
X248452612Y-91445073D01*
X248645571Y-91525000D01*
X248854429Y-91525000D01*
X249047388Y-91445073D01*
X249195073Y-91297388D01*
X249275000Y-91104429D01*
X249275000Y-91095571D01*
X253675000Y-91095571D01*
X253675000Y-91304429D01*
X253754927Y-91497388D01*
X253902612Y-91645073D01*
X254095571Y-91725000D01*
X254304429Y-91725000D01*
X254497388Y-91645073D01*
X254645073Y-91497388D01*
X254725000Y-91304429D01*
X254725000Y-91095571D01*
X254645073Y-90902612D01*
X254497388Y-90754927D01*
X254304429Y-90675000D01*
X254095571Y-90675000D01*
X253902612Y-90754927D01*
X253754927Y-90902612D01*
X253675000Y-91095571D01*
X249275000Y-91095571D01*
X249275000Y-90895571D01*
X249195073Y-90702612D01*
X249047388Y-90554927D01*
X248854429Y-90475000D01*
X248645571Y-90475000D01*
X248452612Y-90554927D01*
X248304927Y-90702612D01*
X248300000Y-90714507D01*
X248300000Y-88320571D01*
X249475000Y-88320571D01*
X249475000Y-88529429D01*
X249554927Y-88722388D01*
X249702612Y-88870073D01*
X249895571Y-88950000D01*
X250104429Y-88950000D01*
X250297388Y-88870073D01*
X250445073Y-88722388D01*
X250525000Y-88529429D01*
X250525000Y-88320571D01*
X250445073Y-88127612D01*
X250297388Y-87979927D01*
X250104429Y-87900000D01*
X249895571Y-87900000D01*
X249702612Y-87979927D01*
X249554927Y-88127612D01*
X249475000Y-88320571D01*
X248300000Y-88320571D01*
X248300000Y-88200000D01*
X248277164Y-88085195D01*
X248212132Y-87987868D01*
X248012132Y-87787868D01*
X247914805Y-87722836D01*
X247800000Y-87700000D01*
X247200000Y-87700000D01*
X247085195Y-87722836D01*
X246987868Y-87787868D01*
X246587868Y-88187868D01*
X246522836Y-88285195D01*
X246500000Y-88400000D01*
X246500000Y-89875736D01*
X244875736Y-91500000D01*
X244414784Y-91500000D01*
X244547388Y-91445073D01*
X244695073Y-91297388D01*
X244775000Y-91104429D01*
X244775000Y-90895571D01*
X244695073Y-90702612D01*
X244617461Y-90625000D01*
X244695073Y-90547388D01*
X244775000Y-90354429D01*
X244775000Y-90145571D01*
X244695073Y-89952612D01*
X244547388Y-89804927D01*
X244354429Y-89725000D01*
X244145571Y-89725000D01*
X243952612Y-89804927D01*
X243804927Y-89952612D01*
X243725000Y-90145571D01*
X243725000Y-90354429D01*
X243804927Y-90547388D01*
X243882539Y-90625000D01*
X243804927Y-90702612D01*
X243725000Y-90895571D01*
X243725000Y-91104429D01*
X243804927Y-91297388D01*
X243952612Y-91445073D01*
X244085216Y-91500000D01*
X227924264Y-91500000D01*
X227300000Y-90875736D01*
X227300000Y-89800000D01*
X227277164Y-89685195D01*
X227212132Y-89587868D01*
X226944835Y-89320571D01*
X228850000Y-89320571D01*
X228850000Y-89529429D01*
X228929927Y-89722388D01*
X229077612Y-89870073D01*
X229155290Y-89902249D01*
X229054927Y-90002612D01*
X228975000Y-90195571D01*
X228975000Y-90404429D01*
X229054927Y-90597388D01*
X229202612Y-90745073D01*
X229395571Y-90825000D01*
X229604429Y-90825000D01*
X229797388Y-90745073D01*
X229945073Y-90597388D01*
X230025000Y-90404429D01*
X230025000Y-90195571D01*
X230004290Y-90145571D01*
X241550000Y-90145571D01*
X241550000Y-90354429D01*
X241629927Y-90547388D01*
X241777612Y-90695073D01*
X241970571Y-90775000D01*
X242179429Y-90775000D01*
X242372388Y-90695073D01*
X242520073Y-90547388D01*
X242600000Y-90354429D01*
X242600000Y-90145571D01*
X242520073Y-89952612D01*
X242372388Y-89804927D01*
X242179429Y-89725000D01*
X241970571Y-89725000D01*
X241777612Y-89804927D01*
X241629927Y-89952612D01*
X241550000Y-90145571D01*
X230004290Y-90145571D01*
X229945073Y-90002612D01*
X229797388Y-89854927D01*
X229719710Y-89822751D01*
X229820073Y-89722388D01*
X229900000Y-89529429D01*
X229900000Y-89320571D01*
X235875000Y-89320571D01*
X235875000Y-89529429D01*
X235954927Y-89722388D01*
X236102612Y-89870073D01*
X236295571Y-89950000D01*
X236504429Y-89950000D01*
X236697388Y-89870073D01*
X236845073Y-89722388D01*
X236925000Y-89529429D01*
X236925000Y-89320571D01*
X236852512Y-89145571D01*
X242675000Y-89145571D01*
X242675000Y-89354429D01*
X242754927Y-89547388D01*
X242902612Y-89695073D01*
X243095571Y-89775000D01*
X243304429Y-89775000D01*
X243497388Y-89695073D01*
X243645073Y-89547388D01*
X243725000Y-89354429D01*
X243725000Y-89145571D01*
X243645073Y-88952612D01*
X243497388Y-88804927D01*
X243304429Y-88725000D01*
X243095571Y-88725000D01*
X242902612Y-88804927D01*
X242754927Y-88952612D01*
X242675000Y-89145571D01*
X236852512Y-89145571D01*
X236845073Y-89127612D01*
X236697388Y-88979927D01*
X236504429Y-88900000D01*
X236295571Y-88900000D01*
X236102612Y-88979927D01*
X235954927Y-89127612D01*
X235875000Y-89320571D01*
X229900000Y-89320571D01*
X229820073Y-89127612D01*
X229672388Y-88979927D01*
X229479429Y-88900000D01*
X229270571Y-88900000D01*
X229077612Y-88979927D01*
X228929927Y-89127612D01*
X228850000Y-89320571D01*
X226944835Y-89320571D01*
X226812132Y-89187868D01*
X226714805Y-89122836D01*
X226600000Y-89100000D01*
X225650000Y-89100000D01*
X225535195Y-89122836D01*
X225437868Y-89187868D01*
X225337868Y-89287868D01*
X225272836Y-89385195D01*
X225250000Y-89500000D01*
X225250000Y-89825736D01*
X225175736Y-89900000D01*
X225124264Y-89900000D01*
X224950000Y-89725736D01*
X224950000Y-89500000D01*
X224927164Y-89385195D01*
X224862132Y-89287868D01*
X224762132Y-89187868D01*
X224664805Y-89122836D01*
X224550000Y-89100000D01*
X223400000Y-89100000D01*
X223285195Y-89122836D01*
X223187868Y-89187868D01*
X222987868Y-89387868D01*
X222922836Y-89485195D01*
X222900000Y-89600000D01*
X218107840Y-89600000D01*
X218055073Y-89472612D01*
X217907388Y-89324927D01*
X217714429Y-89245000D01*
X217505571Y-89245000D01*
X217312612Y-89324927D01*
X217164927Y-89472612D01*
X217085000Y-89665571D01*
X214499673Y-89665571D01*
X214525000Y-89604429D01*
X214525000Y-89400000D01*
X214529429Y-89400000D01*
X214722388Y-89320073D01*
X214870073Y-89172388D01*
X214950000Y-88979429D01*
X214950000Y-88770571D01*
X214870073Y-88577612D01*
X214722388Y-88429927D01*
X214529429Y-88350000D01*
X214320571Y-88350000D01*
X214127612Y-88429927D01*
X213979927Y-88577612D01*
X213900000Y-88770571D01*
X213900000Y-88975000D01*
X213895571Y-88975000D01*
X213702612Y-89054927D01*
X213554927Y-89202612D01*
X213475000Y-89395571D01*
X181446459Y-89395571D01*
X181564026Y-89278004D01*
X181800000Y-88708314D01*
X181800000Y-88091686D01*
X181564026Y-87521996D01*
X181212601Y-87170571D01*
X215050000Y-87170571D01*
X215050000Y-87379429D01*
X215129927Y-87572388D01*
X215277612Y-87720073D01*
X215470571Y-87800000D01*
X215587539Y-87800000D01*
X215584927Y-87802612D01*
X215505000Y-87995571D01*
X215505000Y-88204429D01*
X215584927Y-88397388D01*
X215732612Y-88545073D01*
X215925571Y-88625000D01*
X216134429Y-88625000D01*
X216327388Y-88545073D01*
X216475073Y-88397388D01*
X216492394Y-88355571D01*
X221215000Y-88355571D01*
X221215000Y-88564429D01*
X221294927Y-88757388D01*
X221442612Y-88905073D01*
X221635571Y-88985000D01*
X221844429Y-88985000D01*
X222037388Y-88905073D01*
X222185073Y-88757388D01*
X222265000Y-88564429D01*
X222265000Y-88355571D01*
X222185073Y-88162612D01*
X222037388Y-88014927D01*
X221844429Y-87935000D01*
X221635571Y-87935000D01*
X221442612Y-88014927D01*
X221294927Y-88162612D01*
X221215000Y-88355571D01*
X216492394Y-88355571D01*
X216555000Y-88204429D01*
X216555000Y-87995571D01*
X216503223Y-87870571D01*
X226275000Y-87870571D01*
X226275000Y-88079429D01*
X226354927Y-88272388D01*
X226502612Y-88420073D01*
X226695571Y-88500000D01*
X226904429Y-88500000D01*
X227097388Y-88420073D01*
X227245073Y-88272388D01*
X227256185Y-88245561D01*
X245171080Y-88245561D01*
X245171080Y-88454419D01*
X245251007Y-88647378D01*
X245398692Y-88795063D01*
X245591651Y-88874990D01*
X245800509Y-88874990D01*
X245993468Y-88795063D01*
X246141153Y-88647378D01*
X246221080Y-88454419D01*
X246221080Y-88245561D01*
X246196222Y-88185549D01*
X246320993Y-88060778D01*
X246400920Y-87867819D01*
X246400920Y-87658961D01*
X246320993Y-87466002D01*
X246173308Y-87318317D01*
X245980349Y-87238390D01*
X245771491Y-87238390D01*
X245578532Y-87318317D01*
X245430847Y-87466002D01*
X245350920Y-87658961D01*
X245350920Y-87867819D01*
X245375778Y-87927831D01*
X245251007Y-88052602D01*
X245171080Y-88245561D01*
X227256185Y-88245561D01*
X227325000Y-88079429D01*
X227325000Y-87870571D01*
X227245073Y-87677612D01*
X227097388Y-87529927D01*
X226904429Y-87450000D01*
X226695571Y-87450000D01*
X226502612Y-87529927D01*
X226354927Y-87677612D01*
X226275000Y-87870571D01*
X216503223Y-87870571D01*
X216475073Y-87802612D01*
X216327388Y-87654927D01*
X216134429Y-87575000D01*
X216017461Y-87575000D01*
X216020073Y-87572388D01*
X216100000Y-87379429D01*
X216100000Y-87170571D01*
X216020073Y-86977612D01*
X216013032Y-86970571D01*
X232675000Y-86970571D01*
X232675000Y-87179429D01*
X232750831Y-87362500D01*
X232675000Y-87545571D01*
X232675000Y-87754429D01*
X232754927Y-87947388D01*
X232902612Y-88095073D01*
X233095571Y-88175000D01*
X233304429Y-88175000D01*
X233497388Y-88095073D01*
X233645073Y-87947388D01*
X233725000Y-87754429D01*
X233725000Y-87545571D01*
X233649169Y-87362500D01*
X233718313Y-87195571D01*
X250025000Y-87195571D01*
X250025000Y-87404429D01*
X250104927Y-87597388D01*
X250252612Y-87745073D01*
X250445571Y-87825000D01*
X250654429Y-87825000D01*
X250847388Y-87745073D01*
X250995073Y-87597388D01*
X251075000Y-87404429D01*
X251075000Y-87195571D01*
X250995073Y-87002612D01*
X250847388Y-86854927D01*
X250654429Y-86775000D01*
X250445571Y-86775000D01*
X250252612Y-86854927D01*
X250104927Y-87002612D01*
X250025000Y-87195571D01*
X233718313Y-87195571D01*
X233725000Y-87179429D01*
X233725000Y-86970571D01*
X233645073Y-86777612D01*
X233497388Y-86629927D01*
X233304429Y-86550000D01*
X233095571Y-86550000D01*
X232902612Y-86629927D01*
X232754927Y-86777612D01*
X232675000Y-86970571D01*
X216013032Y-86970571D01*
X215872388Y-86829927D01*
X215679429Y-86750000D01*
X215470571Y-86750000D01*
X215277612Y-86829927D01*
X215129927Y-86977612D01*
X215050000Y-87170571D01*
X181212601Y-87170571D01*
X181128004Y-87085974D01*
X180558314Y-86850000D01*
X179941686Y-86850000D01*
X179371996Y-87085974D01*
X178935974Y-87521996D01*
X178700000Y-88091686D01*
X176300000Y-88091686D01*
X176064026Y-87521996D01*
X175628004Y-87085974D01*
X175058314Y-86850000D01*
X174441686Y-86850000D01*
X173871996Y-87085974D01*
X173435974Y-87521996D01*
X173200000Y-88091686D01*
X165375000Y-88091686D01*
X165375000Y-86340870D01*
X176700000Y-86340870D01*
X176700000Y-86659130D01*
X176821793Y-86953164D01*
X177046836Y-87178207D01*
X177340870Y-87300000D01*
X177659130Y-87300000D01*
X177953164Y-87178207D01*
X178178207Y-86953164D01*
X178300000Y-86659130D01*
X178300000Y-86345571D01*
X206100000Y-86345571D01*
X206100000Y-86554429D01*
X206179927Y-86747388D01*
X206327612Y-86895073D01*
X206520571Y-86975000D01*
X206729429Y-86975000D01*
X206922388Y-86895073D01*
X207070073Y-86747388D01*
X207150000Y-86554429D01*
X207150000Y-86345571D01*
X207070073Y-86152612D01*
X207063032Y-86145571D01*
X217350000Y-86145571D01*
X217350000Y-86354429D01*
X217429927Y-86547388D01*
X217577612Y-86695073D01*
X217770571Y-86775000D01*
X217979429Y-86775000D01*
X218172388Y-86695073D01*
X218320073Y-86547388D01*
X218372602Y-86420571D01*
X241650000Y-86420571D01*
X241650000Y-86629429D01*
X241729927Y-86822388D01*
X241877612Y-86970073D01*
X242070571Y-87050000D01*
X242279429Y-87050000D01*
X242472388Y-86970073D01*
X242620073Y-86822388D01*
X242700000Y-86629429D01*
X242700000Y-86420571D01*
X242620073Y-86227612D01*
X242472388Y-86079927D01*
X242279429Y-86000000D01*
X242070571Y-86000000D01*
X241877612Y-86079927D01*
X241729927Y-86227612D01*
X241650000Y-86420571D01*
X218372602Y-86420571D01*
X218400000Y-86354429D01*
X218400000Y-86145571D01*
X218320073Y-85952612D01*
X218172388Y-85804927D01*
X217979429Y-85725000D01*
X217770571Y-85725000D01*
X217577612Y-85804927D01*
X217429927Y-85952612D01*
X217350000Y-86145571D01*
X207063032Y-86145571D01*
X206922388Y-86004927D01*
X206729429Y-85925000D01*
X206520571Y-85925000D01*
X206327612Y-86004927D01*
X206179927Y-86152612D01*
X206100000Y-86345571D01*
X178300000Y-86345571D01*
X178300000Y-86340870D01*
X178178207Y-86046836D01*
X177953164Y-85821793D01*
X177659130Y-85700000D01*
X177340870Y-85700000D01*
X177046836Y-85821793D01*
X176821793Y-86046836D01*
X176700000Y-86340870D01*
X165375000Y-86340870D01*
X165375000Y-85070571D01*
X215000000Y-85070571D01*
X215000000Y-85279429D01*
X215079927Y-85472388D01*
X215227612Y-85620073D01*
X215420571Y-85700000D01*
X215629429Y-85700000D01*
X215760830Y-85645571D01*
X225700000Y-85645571D01*
X225700000Y-85854429D01*
X225779927Y-86047388D01*
X225927612Y-86195073D01*
X226120571Y-86275000D01*
X226329429Y-86275000D01*
X226522388Y-86195073D01*
X226670073Y-86047388D01*
X226750000Y-85854429D01*
X226750000Y-85645571D01*
X226670073Y-85452612D01*
X226522388Y-85304927D01*
X226329429Y-85225000D01*
X226120571Y-85225000D01*
X225927612Y-85304927D01*
X225779927Y-85452612D01*
X225700000Y-85645571D01*
X215760830Y-85645571D01*
X215822388Y-85620073D01*
X215970073Y-85472388D01*
X216050000Y-85279429D01*
X216050000Y-85070571D01*
X215977512Y-84895571D01*
X217325000Y-84895571D01*
X217325000Y-85104429D01*
X217404927Y-85297388D01*
X217552612Y-85445073D01*
X217745571Y-85525000D01*
X217954429Y-85525000D01*
X218147388Y-85445073D01*
X218295073Y-85297388D01*
X218375000Y-85104429D01*
X218375000Y-84895571D01*
X221625000Y-84895571D01*
X221625000Y-85104429D01*
X221704927Y-85297388D01*
X221852612Y-85445073D01*
X222045571Y-85525000D01*
X222254429Y-85525000D01*
X222447388Y-85445073D01*
X222595073Y-85297388D01*
X222675000Y-85104429D01*
X222675000Y-84895571D01*
X222664645Y-84870571D01*
X224250000Y-84870571D01*
X224250000Y-85079429D01*
X224329927Y-85272388D01*
X224477612Y-85420073D01*
X224670571Y-85500000D01*
X224879429Y-85500000D01*
X225072388Y-85420073D01*
X225220073Y-85272388D01*
X225300000Y-85079429D01*
X225300000Y-84945571D01*
X232525000Y-84945571D01*
X232525000Y-85154429D01*
X232604927Y-85347388D01*
X232752612Y-85495073D01*
X232945571Y-85575000D01*
X233154429Y-85575000D01*
X233347388Y-85495073D01*
X233495073Y-85347388D01*
X233525000Y-85275139D01*
X233554927Y-85347388D01*
X233702612Y-85495073D01*
X233895571Y-85575000D01*
X234104429Y-85575000D01*
X234297388Y-85495073D01*
X234445073Y-85347388D01*
X234487500Y-85244961D01*
X234529927Y-85347388D01*
X234677612Y-85495073D01*
X234870571Y-85575000D01*
X235079429Y-85575000D01*
X235272388Y-85495073D01*
X235420073Y-85347388D01*
X235500000Y-85154429D01*
X235500000Y-84970571D01*
X242575000Y-84970571D01*
X242575000Y-85179429D01*
X242654927Y-85372388D01*
X242802612Y-85520073D01*
X242995571Y-85600000D01*
X243204429Y-85600000D01*
X243397388Y-85520073D01*
X243545073Y-85372388D01*
X243625000Y-85179429D01*
X243625000Y-84970571D01*
X243545073Y-84777612D01*
X243397388Y-84629927D01*
X243204429Y-84550000D01*
X242995571Y-84550000D01*
X242802612Y-84629927D01*
X242654927Y-84777612D01*
X242575000Y-84970571D01*
X235500000Y-84970571D01*
X235500000Y-84945571D01*
X235420073Y-84752612D01*
X235272388Y-84604927D01*
X235079429Y-84525000D01*
X234870571Y-84525000D01*
X234677612Y-84604927D01*
X234529927Y-84752612D01*
X234487500Y-84855039D01*
X234445073Y-84752612D01*
X234297388Y-84604927D01*
X234104429Y-84525000D01*
X233895571Y-84525000D01*
X233702612Y-84604927D01*
X233554927Y-84752612D01*
X233525000Y-84824861D01*
X233495073Y-84752612D01*
X233347388Y-84604927D01*
X233154429Y-84525000D01*
X232945571Y-84525000D01*
X232752612Y-84604927D01*
X232604927Y-84752612D01*
X232525000Y-84945571D01*
X225300000Y-84945571D01*
X225300000Y-84870571D01*
X225220073Y-84677612D01*
X225072388Y-84529927D01*
X224879429Y-84450000D01*
X224670571Y-84450000D01*
X224477612Y-84529927D01*
X224329927Y-84677612D01*
X224250000Y-84870571D01*
X222664645Y-84870571D01*
X222595073Y-84702612D01*
X222447388Y-84554927D01*
X222254429Y-84475000D01*
X222045571Y-84475000D01*
X221852612Y-84554927D01*
X221704927Y-84702612D01*
X221625000Y-84895571D01*
X218375000Y-84895571D01*
X218295073Y-84702612D01*
X218147388Y-84554927D01*
X217954429Y-84475000D01*
X217745571Y-84475000D01*
X217552612Y-84554927D01*
X217404927Y-84702612D01*
X217325000Y-84895571D01*
X215977512Y-84895571D01*
X215970073Y-84877612D01*
X215822388Y-84729927D01*
X215629429Y-84650000D01*
X215420571Y-84650000D01*
X215227612Y-84729927D01*
X215079927Y-84877612D01*
X215000000Y-85070571D01*
X165375000Y-85070571D01*
X165375000Y-82791686D01*
X174450000Y-82791686D01*
X174450000Y-83408314D01*
X174685974Y-83978004D01*
X175121996Y-84414026D01*
X175691686Y-84650000D01*
X176308314Y-84650000D01*
X176878004Y-84414026D01*
X177314026Y-83978004D01*
X177550000Y-83408314D01*
X177550000Y-82920571D01*
X199875000Y-82920571D01*
X199875000Y-83129429D01*
X199954927Y-83322388D01*
X200102612Y-83470073D01*
X200295571Y-83550000D01*
X200504429Y-83550000D01*
X200697388Y-83470073D01*
X200771890Y-83395571D01*
X202225000Y-83395571D01*
X202225000Y-83604429D01*
X202304927Y-83797388D01*
X202452612Y-83945073D01*
X202645571Y-84025000D01*
X202854429Y-84025000D01*
X203047388Y-83945073D01*
X203195073Y-83797388D01*
X203275000Y-83604429D01*
X203275000Y-83395571D01*
X203195073Y-83202612D01*
X203047388Y-83054927D01*
X202964447Y-83020571D01*
X215525000Y-83020571D01*
X215525000Y-83229429D01*
X215604927Y-83422388D01*
X215752612Y-83570073D01*
X215945571Y-83650000D01*
X216154429Y-83650000D01*
X216225476Y-83620571D01*
X221625000Y-83620571D01*
X221625000Y-83829429D01*
X221704927Y-84022388D01*
X221852612Y-84170073D01*
X222045571Y-84250000D01*
X222254429Y-84250000D01*
X222447388Y-84170073D01*
X222595073Y-84022388D01*
X222675000Y-83829429D01*
X222675000Y-83620571D01*
X222595073Y-83427612D01*
X222447388Y-83279927D01*
X222254429Y-83200000D01*
X222045571Y-83200000D01*
X221852612Y-83279927D01*
X221704927Y-83427612D01*
X221625000Y-83620571D01*
X216225476Y-83620571D01*
X216347388Y-83570073D01*
X216495073Y-83422388D01*
X216575000Y-83229429D01*
X216575000Y-83020571D01*
X216495073Y-82827612D01*
X216347388Y-82679927D01*
X216154429Y-82600000D01*
X215945571Y-82600000D01*
X215752612Y-82679927D01*
X215604927Y-82827612D01*
X215525000Y-83020571D01*
X202964447Y-83020571D01*
X202854429Y-82975000D01*
X202645571Y-82975000D01*
X202452612Y-83054927D01*
X202304927Y-83202612D01*
X202225000Y-83395571D01*
X200771890Y-83395571D01*
X200845073Y-83322388D01*
X200925000Y-83129429D01*
X200925000Y-82920571D01*
X200845073Y-82727612D01*
X200697388Y-82579927D01*
X200504429Y-82500000D01*
X200295571Y-82500000D01*
X200102612Y-82579927D01*
X199954927Y-82727612D01*
X199875000Y-82920571D01*
X177550000Y-82920571D01*
X177550000Y-82791686D01*
X177314026Y-82221996D01*
X176878004Y-81785974D01*
X176308314Y-81550000D01*
X175691686Y-81550000D01*
X175121996Y-81785974D01*
X174685974Y-82221996D01*
X174450000Y-82791686D01*
X165375000Y-82791686D01*
X165375000Y-81395569D01*
X201875002Y-81395569D01*
X201875002Y-81604427D01*
X201954929Y-81797386D01*
X202102614Y-81945071D01*
X202295573Y-82024998D01*
X202504431Y-82024998D01*
X202697390Y-81945071D01*
X202725000Y-81917461D01*
X202725000Y-82104429D01*
X202804927Y-82297388D01*
X202952612Y-82445073D01*
X203145571Y-82525000D01*
X203354429Y-82525000D01*
X203547388Y-82445073D01*
X203695073Y-82297388D01*
X203775000Y-82104429D01*
X203775000Y-81945571D01*
X203900000Y-81945571D01*
X203900000Y-82154429D01*
X203979927Y-82347388D01*
X204127612Y-82495073D01*
X204320571Y-82575000D01*
X204529429Y-82575000D01*
X204722388Y-82495073D01*
X204870073Y-82347388D01*
X204950000Y-82154429D01*
X204950000Y-82145571D01*
X217400000Y-82145571D01*
X217400000Y-82354429D01*
X217479927Y-82547388D01*
X217627612Y-82695073D01*
X217820571Y-82775000D01*
X218029429Y-82775000D01*
X218222388Y-82695073D01*
X218275000Y-82642461D01*
X218327612Y-82695073D01*
X218520571Y-82775000D01*
X218729429Y-82775000D01*
X218922388Y-82695073D01*
X219070073Y-82547388D01*
X219091536Y-82495571D01*
X221350000Y-82495571D01*
X221350000Y-82704429D01*
X221429927Y-82897388D01*
X221577612Y-83045073D01*
X221770571Y-83125000D01*
X221979429Y-83125000D01*
X222172388Y-83045073D01*
X222320073Y-82897388D01*
X222400000Y-82704429D01*
X222400000Y-82495571D01*
X222320073Y-82302612D01*
X222238032Y-82220571D01*
X224550000Y-82220571D01*
X224550000Y-82429429D01*
X224629927Y-82622388D01*
X224777612Y-82770073D01*
X224970571Y-82850000D01*
X225179429Y-82850000D01*
X225372388Y-82770073D01*
X225520073Y-82622388D01*
X225600000Y-82429429D01*
X225600000Y-82220571D01*
X225520073Y-82027612D01*
X225392461Y-81900000D01*
X229184329Y-81900000D01*
X229246418Y-82212144D01*
X229423233Y-82476767D01*
X229687856Y-82653582D01*
X230000000Y-82715671D01*
X230238001Y-82668330D01*
X231708722Y-84139052D01*
X231729641Y-84170359D01*
X231760948Y-84191278D01*
X231760949Y-84191279D01*
X231853681Y-84253241D01*
X231853682Y-84253241D01*
X231853683Y-84253242D01*
X231924958Y-84267419D01*
X232002612Y-84345073D01*
X232195571Y-84425000D01*
X232404429Y-84425000D01*
X232475476Y-84395571D01*
X243475000Y-84395571D01*
X243475000Y-84604429D01*
X243554927Y-84797388D01*
X243702612Y-84945073D01*
X243895571Y-85025000D01*
X244104429Y-85025000D01*
X244297388Y-84945073D01*
X244445073Y-84797388D01*
X244525000Y-84604429D01*
X244525000Y-84395571D01*
X244975000Y-84395571D01*
X244975000Y-84604429D01*
X245054927Y-84797388D01*
X245202612Y-84945073D01*
X245395571Y-85025000D01*
X245604429Y-85025000D01*
X245797388Y-84945073D01*
X245945073Y-84797388D01*
X246025000Y-84604429D01*
X246025000Y-84395571D01*
X246475000Y-84395571D01*
X246475000Y-84604429D01*
X246554927Y-84797388D01*
X246702612Y-84945073D01*
X246895571Y-85025000D01*
X247104429Y-85025000D01*
X247297388Y-84945073D01*
X247445073Y-84797388D01*
X247525000Y-84604429D01*
X247525000Y-84395571D01*
X247445073Y-84202612D01*
X247297388Y-84054927D01*
X247104429Y-83975000D01*
X246895571Y-83975000D01*
X246702612Y-84054927D01*
X246554927Y-84202612D01*
X246475000Y-84395571D01*
X246025000Y-84395571D01*
X245945073Y-84202612D01*
X245797388Y-84054927D01*
X245604429Y-83975000D01*
X245395571Y-83975000D01*
X245202612Y-84054927D01*
X245054927Y-84202612D01*
X244975000Y-84395571D01*
X244525000Y-84395571D01*
X244445073Y-84202612D01*
X244297388Y-84054927D01*
X244104429Y-83975000D01*
X243895571Y-83975000D01*
X243702612Y-84054927D01*
X243554927Y-84202612D01*
X243475000Y-84395571D01*
X232475476Y-84395571D01*
X232597388Y-84345073D01*
X232745073Y-84197388D01*
X232825000Y-84004429D01*
X232825000Y-83795571D01*
X232745073Y-83602612D01*
X232597388Y-83454927D01*
X232404429Y-83375000D01*
X232195571Y-83375000D01*
X232061051Y-83430721D01*
X230830850Y-82200520D01*
X230910799Y-82120571D01*
X232675000Y-82120571D01*
X232675000Y-82329429D01*
X232754927Y-82522388D01*
X232795039Y-82562500D01*
X232754927Y-82602612D01*
X232675000Y-82795571D01*
X232675000Y-83004429D01*
X232754927Y-83197388D01*
X232902612Y-83345073D01*
X233095571Y-83425000D01*
X233304429Y-83425000D01*
X233497388Y-83345073D01*
X233645073Y-83197388D01*
X233725000Y-83004429D01*
X233725000Y-82795571D01*
X233645073Y-82602612D01*
X233604961Y-82562500D01*
X233645073Y-82522388D01*
X233725000Y-82329429D01*
X233725000Y-82176360D01*
X239750000Y-82176360D01*
X239750000Y-82673640D01*
X239940301Y-83133068D01*
X240291932Y-83484699D01*
X240751360Y-83675000D01*
X241248640Y-83675000D01*
X241708068Y-83484699D01*
X242059699Y-83133068D01*
X242250000Y-82673640D01*
X242250000Y-82176360D01*
X242123339Y-81870571D01*
X243475000Y-81870571D01*
X243475000Y-82079429D01*
X243554927Y-82272388D01*
X243702612Y-82420073D01*
X243895571Y-82500000D01*
X244104429Y-82500000D01*
X244297388Y-82420073D01*
X244445073Y-82272388D01*
X244525000Y-82079429D01*
X244525000Y-81870571D01*
X244975000Y-81870571D01*
X244975000Y-82079429D01*
X245054927Y-82272388D01*
X245202612Y-82420073D01*
X245395571Y-82500000D01*
X245604429Y-82500000D01*
X245797388Y-82420073D01*
X245945073Y-82272388D01*
X246025000Y-82079429D01*
X246025000Y-81870571D01*
X246475000Y-81870571D01*
X246475000Y-82079429D01*
X246554927Y-82272388D01*
X246702612Y-82420073D01*
X246895571Y-82500000D01*
X247104429Y-82500000D01*
X247297388Y-82420073D01*
X247445073Y-82272388D01*
X247525000Y-82079429D01*
X247525000Y-81870571D01*
X247975000Y-81870571D01*
X247975000Y-82079429D01*
X248054927Y-82272388D01*
X248202612Y-82420073D01*
X248395571Y-82500000D01*
X248604429Y-82500000D01*
X248797388Y-82420073D01*
X248945073Y-82272388D01*
X249025000Y-82079429D01*
X249025000Y-81870571D01*
X248945073Y-81677612D01*
X248797388Y-81529927D01*
X248604429Y-81450000D01*
X248395571Y-81450000D01*
X248202612Y-81529927D01*
X248054927Y-81677612D01*
X247975000Y-81870571D01*
X247525000Y-81870571D01*
X247445073Y-81677612D01*
X247297388Y-81529927D01*
X247104429Y-81450000D01*
X246895571Y-81450000D01*
X246702612Y-81529927D01*
X246554927Y-81677612D01*
X246475000Y-81870571D01*
X246025000Y-81870571D01*
X245945073Y-81677612D01*
X245797388Y-81529927D01*
X245604429Y-81450000D01*
X245395571Y-81450000D01*
X245202612Y-81529927D01*
X245054927Y-81677612D01*
X244975000Y-81870571D01*
X244525000Y-81870571D01*
X244445073Y-81677612D01*
X244297388Y-81529927D01*
X244104429Y-81450000D01*
X243895571Y-81450000D01*
X243702612Y-81529927D01*
X243554927Y-81677612D01*
X243475000Y-81870571D01*
X242123339Y-81870571D01*
X242059699Y-81716932D01*
X241708068Y-81365301D01*
X241248640Y-81175000D01*
X240751360Y-81175000D01*
X240291932Y-81365301D01*
X239940301Y-81716932D01*
X239750000Y-82176360D01*
X233725000Y-82176360D01*
X233725000Y-82120571D01*
X233645073Y-81927612D01*
X233497388Y-81779927D01*
X233304429Y-81700000D01*
X233095571Y-81700000D01*
X232902612Y-81779927D01*
X232754927Y-81927612D01*
X232675000Y-82120571D01*
X230910799Y-82120571D01*
X232231371Y-80800000D01*
X250668630Y-80800000D01*
X251341165Y-81472536D01*
X251202612Y-81529927D01*
X251054927Y-81677612D01*
X250975000Y-81870571D01*
X250975000Y-82079429D01*
X251054927Y-82272388D01*
X251202612Y-82420073D01*
X251395571Y-82500000D01*
X251604429Y-82500000D01*
X251700000Y-82460413D01*
X251700001Y-84014587D01*
X251604429Y-83975000D01*
X251395571Y-83975000D01*
X251202612Y-84054927D01*
X251054927Y-84202612D01*
X251004233Y-84324996D01*
X250979756Y-84324996D01*
X250921452Y-84184240D01*
X250773767Y-84036555D01*
X250580808Y-83956628D01*
X250371950Y-83956628D01*
X250178991Y-84036555D01*
X250031306Y-84184240D01*
X249984384Y-84297517D01*
X249945073Y-84202612D01*
X249797388Y-84054927D01*
X249604429Y-83975000D01*
X249395571Y-83975000D01*
X249202612Y-84054927D01*
X249054927Y-84202612D01*
X249000000Y-84335216D01*
X248945073Y-84202612D01*
X248797388Y-84054927D01*
X248604429Y-83975000D01*
X248395571Y-83975000D01*
X248202612Y-84054927D01*
X248054927Y-84202612D01*
X247975000Y-84395571D01*
X247975000Y-84604429D01*
X248054927Y-84797388D01*
X248202612Y-84945073D01*
X248395571Y-85025000D01*
X248604429Y-85025000D01*
X248797388Y-84945073D01*
X248945073Y-84797388D01*
X249000000Y-84664784D01*
X249054927Y-84797388D01*
X249057539Y-84800000D01*
X249004927Y-84852612D01*
X248925000Y-85045571D01*
X248925000Y-85254429D01*
X249004927Y-85447388D01*
X249152612Y-85595073D01*
X249345571Y-85675000D01*
X249554429Y-85675000D01*
X249747388Y-85595073D01*
X249895073Y-85447388D01*
X249975000Y-85254429D01*
X249975000Y-85045571D01*
X249895073Y-84852612D01*
X249892461Y-84850000D01*
X249945073Y-84797388D01*
X249991995Y-84684111D01*
X250031306Y-84779016D01*
X250178991Y-84926701D01*
X250371950Y-85006628D01*
X250496623Y-85006628D01*
X250554927Y-85147384D01*
X250702612Y-85295069D01*
X250895571Y-85374996D01*
X251104429Y-85374996D01*
X251297388Y-85295069D01*
X251445073Y-85147384D01*
X251495767Y-85025000D01*
X251604429Y-85025000D01*
X251700001Y-84985412D01*
X251700001Y-85078789D01*
X251746418Y-85312144D01*
X251923234Y-85576767D01*
X252187857Y-85753583D01*
X252500000Y-85815672D01*
X252812144Y-85753583D01*
X253076767Y-85576767D01*
X253253583Y-85312144D01*
X253300000Y-85078789D01*
X253300000Y-82176360D01*
X254250000Y-82176360D01*
X254250000Y-82673640D01*
X254440301Y-83133068D01*
X254791932Y-83484699D01*
X255251360Y-83675000D01*
X255748640Y-83675000D01*
X256208068Y-83484699D01*
X256559699Y-83133068D01*
X256750000Y-82673640D01*
X256750000Y-82176360D01*
X256559699Y-81716932D01*
X256208068Y-81365301D01*
X255748640Y-81175000D01*
X255251360Y-81175000D01*
X254791932Y-81365301D01*
X254440301Y-81716932D01*
X254250000Y-82176360D01*
X253300000Y-82176360D01*
X253300000Y-81578783D01*
X253315671Y-81499999D01*
X253300000Y-81421215D01*
X253300000Y-81421211D01*
X253253583Y-81187856D01*
X253076767Y-80923233D01*
X253009975Y-80878604D01*
X252026942Y-79895571D01*
X263475000Y-79895571D01*
X263475000Y-80104429D01*
X263554927Y-80297388D01*
X263702612Y-80445073D01*
X263895571Y-80525000D01*
X264104429Y-80525000D01*
X264297388Y-80445073D01*
X264445073Y-80297388D01*
X264525000Y-80104429D01*
X264525000Y-79895571D01*
X264445073Y-79702612D01*
X264297388Y-79554927D01*
X264104429Y-79475000D01*
X263895571Y-79475000D01*
X263702612Y-79554927D01*
X263554927Y-79702612D01*
X263475000Y-79895571D01*
X252026942Y-79895571D01*
X251621398Y-79490028D01*
X251576767Y-79423233D01*
X251312144Y-79246417D01*
X251078789Y-79200000D01*
X251078784Y-79200000D01*
X251000000Y-79184329D01*
X250921216Y-79200000D01*
X231978784Y-79200000D01*
X231900000Y-79184329D01*
X231821216Y-79200000D01*
X231821211Y-79200000D01*
X231587856Y-79246417D01*
X231323233Y-79423233D01*
X231278603Y-79490026D01*
X229378603Y-81390027D01*
X229246418Y-81587856D01*
X229184329Y-81900000D01*
X225392461Y-81900000D01*
X225372388Y-81879927D01*
X225179429Y-81800000D01*
X224970571Y-81800000D01*
X224777612Y-81879927D01*
X224629927Y-82027612D01*
X224550000Y-82220571D01*
X222238032Y-82220571D01*
X222172388Y-82154927D01*
X221979429Y-82075000D01*
X221770571Y-82075000D01*
X221577612Y-82154927D01*
X221429927Y-82302612D01*
X221350000Y-82495571D01*
X219091536Y-82495571D01*
X219150000Y-82354429D01*
X219150000Y-82145571D01*
X219070073Y-81952612D01*
X218922388Y-81804927D01*
X218729429Y-81725000D01*
X218520571Y-81725000D01*
X218327612Y-81804927D01*
X218275000Y-81857539D01*
X218222388Y-81804927D01*
X218029429Y-81725000D01*
X217820571Y-81725000D01*
X217627612Y-81804927D01*
X217479927Y-81952612D01*
X217400000Y-82145571D01*
X204950000Y-82145571D01*
X204950000Y-82075008D01*
X205104429Y-82075008D01*
X205297388Y-81995081D01*
X205445073Y-81847396D01*
X205525000Y-81654437D01*
X205525000Y-81445579D01*
X205445073Y-81252620D01*
X205297388Y-81104935D01*
X205104429Y-81025008D01*
X204895571Y-81025008D01*
X204702612Y-81104935D01*
X204554927Y-81252620D01*
X204475000Y-81445579D01*
X204475000Y-81525000D01*
X204320571Y-81525000D01*
X204127612Y-81604927D01*
X203979927Y-81752612D01*
X203900000Y-81945571D01*
X203775000Y-81945571D01*
X203775000Y-81895571D01*
X203695073Y-81702612D01*
X203547388Y-81554927D01*
X203354429Y-81475000D01*
X203145571Y-81475000D01*
X202952612Y-81554927D01*
X202925002Y-81582537D01*
X202925002Y-81395569D01*
X202845075Y-81202610D01*
X202697390Y-81054925D01*
X202554099Y-80995571D01*
X222175000Y-80995571D01*
X222175000Y-81204429D01*
X222254927Y-81397388D01*
X222402612Y-81545073D01*
X222595571Y-81625000D01*
X222804429Y-81625000D01*
X222997388Y-81545073D01*
X223145073Y-81397388D01*
X223225000Y-81204429D01*
X223225000Y-80995571D01*
X223145073Y-80802612D01*
X222997388Y-80654927D01*
X222804429Y-80575000D01*
X222595571Y-80575000D01*
X222402612Y-80654927D01*
X222254927Y-80802612D01*
X222175000Y-80995571D01*
X202554099Y-80995571D01*
X202504431Y-80974998D01*
X202295573Y-80974998D01*
X202102614Y-81054925D01*
X201954929Y-81202610D01*
X201875002Y-81395569D01*
X165375000Y-81395569D01*
X165375000Y-79895571D01*
X165475000Y-79895571D01*
X165475000Y-80104429D01*
X165554927Y-80297388D01*
X165702612Y-80445073D01*
X165895571Y-80525000D01*
X166104429Y-80525000D01*
X166297388Y-80445073D01*
X166445073Y-80297388D01*
X166525000Y-80104429D01*
X166525000Y-79895571D01*
X166445073Y-79702612D01*
X166297388Y-79554927D01*
X166104429Y-79475000D01*
X165895571Y-79475000D01*
X165702612Y-79554927D01*
X165554927Y-79702612D01*
X165475000Y-79895571D01*
X165375000Y-79895571D01*
X165375000Y-77523593D01*
X165400000Y-77325697D01*
X165400000Y-77917716D01*
X165719706Y-78689554D01*
X166310446Y-79280294D01*
X167082284Y-79600000D01*
X167917716Y-79600000D01*
X168689554Y-79280294D01*
X169128978Y-78840870D01*
X176700000Y-78840870D01*
X176700000Y-79159130D01*
X176821793Y-79453164D01*
X177046836Y-79678207D01*
X177340870Y-79800000D01*
X177659130Y-79800000D01*
X177759042Y-79758615D01*
X220475000Y-79758615D01*
X220475000Y-80166385D01*
X220631047Y-80543116D01*
X220919384Y-80831453D01*
X221296115Y-80987500D01*
X221703885Y-80987500D01*
X222080616Y-80831453D01*
X222368953Y-80543116D01*
X222525000Y-80166385D01*
X222525000Y-79758615D01*
X225475000Y-79758615D01*
X225475000Y-80166385D01*
X225631047Y-80543116D01*
X225919384Y-80831453D01*
X226296115Y-80987500D01*
X226703885Y-80987500D01*
X227080616Y-80831453D01*
X227368953Y-80543116D01*
X227525000Y-80166385D01*
X227525000Y-79758615D01*
X227368953Y-79381884D01*
X227080616Y-79093547D01*
X226703885Y-78937500D01*
X226296115Y-78937500D01*
X225919384Y-79093547D01*
X225631047Y-79381884D01*
X225475000Y-79758615D01*
X222525000Y-79758615D01*
X222368953Y-79381884D01*
X222080616Y-79093547D01*
X221703885Y-78937500D01*
X221296115Y-78937500D01*
X220919384Y-79093547D01*
X220631047Y-79381884D01*
X220475000Y-79758615D01*
X177759042Y-79758615D01*
X177953164Y-79678207D01*
X178178207Y-79453164D01*
X178300000Y-79159130D01*
X178300000Y-78870571D01*
X198200000Y-78870571D01*
X198200000Y-79079429D01*
X198279927Y-79272388D01*
X198427612Y-79420073D01*
X198620571Y-79500000D01*
X198829429Y-79500000D01*
X199022388Y-79420073D01*
X199170073Y-79272388D01*
X199250000Y-79079429D01*
X199250000Y-78870571D01*
X199170073Y-78677612D01*
X199022388Y-78529927D01*
X198829429Y-78450000D01*
X198620571Y-78450000D01*
X198427612Y-78529927D01*
X198279927Y-78677612D01*
X198200000Y-78870571D01*
X178300000Y-78870571D01*
X178300000Y-78840870D01*
X178178207Y-78546836D01*
X177953164Y-78321793D01*
X177659130Y-78200000D01*
X177340870Y-78200000D01*
X177046836Y-78321793D01*
X176821793Y-78546836D01*
X176700000Y-78840870D01*
X169128978Y-78840870D01*
X169280294Y-78689554D01*
X169567751Y-77995571D01*
X189575000Y-77995571D01*
X189575000Y-78204429D01*
X189654927Y-78397388D01*
X189802612Y-78545073D01*
X189995571Y-78625000D01*
X190204429Y-78625000D01*
X190397388Y-78545073D01*
X190545073Y-78397388D01*
X190625000Y-78204429D01*
X190625000Y-77995571D01*
X190604290Y-77945571D01*
X192125000Y-77945571D01*
X192125000Y-78154429D01*
X192204927Y-78347388D01*
X192352612Y-78495073D01*
X192545571Y-78575000D01*
X192754429Y-78575000D01*
X192947388Y-78495073D01*
X192996890Y-78445571D01*
X202400000Y-78445571D01*
X202400000Y-78654429D01*
X202479927Y-78847388D01*
X202627612Y-78995073D01*
X202820571Y-79075000D01*
X203029429Y-79075000D01*
X203100476Y-79045571D01*
X205350000Y-79045571D01*
X205350000Y-79254429D01*
X205429927Y-79447388D01*
X205577612Y-79595073D01*
X205770571Y-79675000D01*
X205979429Y-79675000D01*
X206172388Y-79595073D01*
X206320073Y-79447388D01*
X206400000Y-79254429D01*
X206400000Y-79045571D01*
X206320073Y-78852612D01*
X206172388Y-78704927D01*
X205979429Y-78625000D01*
X205770571Y-78625000D01*
X205577612Y-78704927D01*
X205429927Y-78852612D01*
X205350000Y-79045571D01*
X203100476Y-79045571D01*
X203222388Y-78995073D01*
X203370073Y-78847388D01*
X203450000Y-78654429D01*
X203450000Y-78445571D01*
X203370073Y-78252612D01*
X203222388Y-78104927D01*
X203029429Y-78025000D01*
X202820571Y-78025000D01*
X202627612Y-78104927D01*
X202479927Y-78252612D01*
X202400000Y-78445571D01*
X192996890Y-78445571D01*
X193095073Y-78347388D01*
X193175000Y-78154429D01*
X193175000Y-77945571D01*
X193095073Y-77752612D01*
X192947388Y-77604927D01*
X192754429Y-77525000D01*
X192545571Y-77525000D01*
X192352612Y-77604927D01*
X192204927Y-77752612D01*
X192125000Y-77945571D01*
X190604290Y-77945571D01*
X190545073Y-77802612D01*
X190397388Y-77654927D01*
X190204429Y-77575000D01*
X189995571Y-77575000D01*
X189802612Y-77654927D01*
X189654927Y-77802612D01*
X189575000Y-77995571D01*
X169567751Y-77995571D01*
X169600000Y-77917716D01*
X169600000Y-77082284D01*
X169522661Y-76895571D01*
X203950000Y-76895571D01*
X203950000Y-77104429D01*
X204029927Y-77297388D01*
X204177612Y-77445073D01*
X204370571Y-77525000D01*
X204579429Y-77525000D01*
X204772388Y-77445073D01*
X204920073Y-77297388D01*
X205000000Y-77104429D01*
X205000000Y-76895571D01*
X204970296Y-76823858D01*
X219600000Y-76823858D01*
X219600000Y-77701141D01*
X219652219Y-77963662D01*
X219851136Y-78261364D01*
X220148837Y-78460281D01*
X220500000Y-78530132D01*
X220851162Y-78460281D01*
X221148864Y-78261364D01*
X221347781Y-77963663D01*
X221400000Y-77701142D01*
X221400000Y-76823859D01*
X226600000Y-76823859D01*
X226600000Y-77701142D01*
X226652220Y-77963663D01*
X226851137Y-78261364D01*
X227148838Y-78460281D01*
X227500000Y-78530132D01*
X227851163Y-78460281D01*
X228148864Y-78261364D01*
X228347781Y-77963663D01*
X228400000Y-77701142D01*
X228400000Y-77695571D01*
X233875000Y-77695571D01*
X233875000Y-77904429D01*
X233954927Y-78097388D01*
X234102612Y-78245073D01*
X234295571Y-78325000D01*
X234504429Y-78325000D01*
X234697388Y-78245073D01*
X234845073Y-78097388D01*
X234925000Y-77904429D01*
X234925000Y-77695571D01*
X234845073Y-77502612D01*
X234697388Y-77354927D01*
X234507713Y-77276360D01*
X239150000Y-77276360D01*
X239150000Y-77773640D01*
X239340301Y-78233068D01*
X239691932Y-78584699D01*
X240151360Y-78775000D01*
X240648640Y-78775000D01*
X241108068Y-78584699D01*
X241459699Y-78233068D01*
X241650000Y-77773640D01*
X241650000Y-77276360D01*
X254850000Y-77276360D01*
X254850000Y-77773640D01*
X255040301Y-78233068D01*
X255391932Y-78584699D01*
X255851360Y-78775000D01*
X256348640Y-78775000D01*
X256808068Y-78584699D01*
X257159699Y-78233068D01*
X257350000Y-77773640D01*
X257350000Y-77276360D01*
X257159699Y-76816932D01*
X256808068Y-76465301D01*
X256348640Y-76275000D01*
X255851360Y-76275000D01*
X255391932Y-76465301D01*
X255040301Y-76816932D01*
X254850000Y-77276360D01*
X241650000Y-77276360D01*
X241459699Y-76816932D01*
X241108068Y-76465301D01*
X240648640Y-76275000D01*
X240151360Y-76275000D01*
X239691932Y-76465301D01*
X239340301Y-76816932D01*
X239150000Y-77276360D01*
X234507713Y-77276360D01*
X234504429Y-77275000D01*
X234295571Y-77275000D01*
X234102612Y-77354927D01*
X233954927Y-77502612D01*
X233875000Y-77695571D01*
X228400000Y-77695571D01*
X228400000Y-76823858D01*
X228347781Y-76561337D01*
X228148864Y-76263636D01*
X227851162Y-76064719D01*
X227500000Y-75994868D01*
X227148837Y-76064719D01*
X226851136Y-76263636D01*
X226652219Y-76561338D01*
X226600000Y-76823859D01*
X221400000Y-76823859D01*
X221400000Y-76823858D01*
X221347781Y-76561337D01*
X221148864Y-76263636D01*
X220851163Y-76064719D01*
X220500000Y-75994868D01*
X220148838Y-76064719D01*
X219851137Y-76263636D01*
X219652220Y-76561337D01*
X219600000Y-76823858D01*
X204970296Y-76823858D01*
X204920073Y-76702612D01*
X204772388Y-76554927D01*
X204579429Y-76475000D01*
X204370571Y-76475000D01*
X204177612Y-76554927D01*
X204029927Y-76702612D01*
X203950000Y-76895571D01*
X169522661Y-76895571D01*
X169280294Y-76310446D01*
X168865419Y-75895571D01*
X169475000Y-75895571D01*
X169475000Y-76104429D01*
X169554927Y-76297388D01*
X169702612Y-76445073D01*
X169895571Y-76525000D01*
X170104429Y-76525000D01*
X170297388Y-76445073D01*
X170445073Y-76297388D01*
X170525000Y-76104429D01*
X170525000Y-75895571D01*
X259475000Y-75895571D01*
X259475000Y-76104429D01*
X259554927Y-76297388D01*
X259702612Y-76445073D01*
X259895571Y-76525000D01*
X260104429Y-76525000D01*
X260297388Y-76445073D01*
X260445073Y-76297388D01*
X260525000Y-76104429D01*
X260525000Y-75895571D01*
X260445073Y-75702612D01*
X260297388Y-75554927D01*
X260104429Y-75475000D01*
X259895571Y-75475000D01*
X259702612Y-75554927D01*
X259554927Y-75702612D01*
X259475000Y-75895571D01*
X170525000Y-75895571D01*
X170445073Y-75702612D01*
X170297388Y-75554927D01*
X170104429Y-75475000D01*
X169895571Y-75475000D01*
X169702612Y-75554927D01*
X169554927Y-75702612D01*
X169475000Y-75895571D01*
X168865419Y-75895571D01*
X168689554Y-75719706D01*
X167917716Y-75400000D01*
X167273279Y-75400000D01*
X167384303Y-75378821D01*
X167505891Y-75375000D01*
X262476407Y-75375000D01*
X262674303Y-75400000D01*
X262674303Y-75400000D01*
G37*
X262674303Y-75400000D02*
X262082284Y-75400000D01*
X261310446Y-75719706D01*
X260719706Y-76310446D01*
X260400000Y-77082284D01*
X260400000Y-77917716D01*
X260719706Y-78689554D01*
X261310446Y-79280294D01*
X262082284Y-79600000D01*
X262917716Y-79600000D01*
X263689554Y-79280294D01*
X264280294Y-78689554D01*
X264600000Y-77917716D01*
X264600000Y-77273279D01*
X264621179Y-77384303D01*
X264625000Y-77505891D01*
X264625001Y-122369120D01*
X264612567Y-122400525D01*
X264603154Y-122449867D01*
X264600000Y-122474834D01*
X264600000Y-122082284D01*
X264280294Y-121310446D01*
X263689554Y-120719706D01*
X262917716Y-120400000D01*
X262082284Y-120400000D01*
X261310446Y-120719706D01*
X260719706Y-121310446D01*
X260400000Y-122082284D01*
X260400000Y-122917716D01*
X260719706Y-123689554D01*
X261310446Y-124280294D01*
X262082284Y-124600000D01*
X262493705Y-124600000D01*
X262487436Y-124600197D01*
X262388404Y-124615883D01*
X262367336Y-124625000D01*
X167523592Y-124625000D01*
X167325697Y-124600000D01*
X167917716Y-124600000D01*
X168689554Y-124280294D01*
X169074277Y-123895571D01*
X169475000Y-123895571D01*
X169475000Y-124104429D01*
X169554927Y-124297388D01*
X169702612Y-124445073D01*
X169895571Y-124525000D01*
X170104429Y-124525000D01*
X170297388Y-124445073D01*
X170445073Y-124297388D01*
X170525000Y-124104429D01*
X170525000Y-123895571D01*
X259475000Y-123895571D01*
X259475000Y-124104429D01*
X259554927Y-124297388D01*
X259702612Y-124445073D01*
X259895571Y-124525000D01*
X260104429Y-124525000D01*
X260297388Y-124445073D01*
X260445073Y-124297388D01*
X260525000Y-124104429D01*
X260525000Y-123895571D01*
X260445073Y-123702612D01*
X260297388Y-123554927D01*
X260104429Y-123475000D01*
X259895571Y-123475000D01*
X259702612Y-123554927D01*
X259554927Y-123702612D01*
X259475000Y-123895571D01*
X170525000Y-123895571D01*
X170445073Y-123702612D01*
X170297388Y-123554927D01*
X170104429Y-123475000D01*
X169895571Y-123475000D01*
X169702612Y-123554927D01*
X169554927Y-123702612D01*
X169475000Y-123895571D01*
X169074277Y-123895571D01*
X169280294Y-123689554D01*
X169600000Y-122917716D01*
X169600000Y-122082284D01*
X169280294Y-121310446D01*
X168689554Y-120719706D01*
X167917716Y-120400000D01*
X167082284Y-120400000D01*
X166310446Y-120719706D01*
X165719706Y-121310446D01*
X165400000Y-122082284D01*
X165400000Y-122726721D01*
X165378821Y-122615697D01*
X165375000Y-122494108D01*
X165375000Y-119895571D01*
X165475000Y-119895571D01*
X165475000Y-120104429D01*
X165554927Y-120297388D01*
X165702612Y-120445073D01*
X165895571Y-120525000D01*
X166104429Y-120525000D01*
X166297388Y-120445073D01*
X166445073Y-120297388D01*
X166525000Y-120104429D01*
X166525000Y-119895571D01*
X263475000Y-119895571D01*
X263475000Y-120104429D01*
X263554927Y-120297388D01*
X263702612Y-120445073D01*
X263895571Y-120525000D01*
X264104429Y-120525000D01*
X264297388Y-120445073D01*
X264445073Y-120297388D01*
X264525000Y-120104429D01*
X264525000Y-119895571D01*
X264445073Y-119702612D01*
X264297388Y-119554927D01*
X264104429Y-119475000D01*
X263895571Y-119475000D01*
X263702612Y-119554927D01*
X263554927Y-119702612D01*
X263475000Y-119895571D01*
X166525000Y-119895571D01*
X166445073Y-119702612D01*
X166297388Y-119554927D01*
X166104429Y-119475000D01*
X165895571Y-119475000D01*
X165702612Y-119554927D01*
X165554927Y-119702612D01*
X165475000Y-119895571D01*
X165375000Y-119895571D01*
X165375000Y-112170571D01*
X187000000Y-112170571D01*
X187000000Y-112379429D01*
X187079927Y-112572388D01*
X187227612Y-112720073D01*
X187420571Y-112800000D01*
X187629429Y-112800000D01*
X187822388Y-112720073D01*
X187970073Y-112572388D01*
X188050000Y-112379429D01*
X188050000Y-112195571D01*
X241900000Y-112195571D01*
X241900000Y-112404429D01*
X241979927Y-112597388D01*
X242127612Y-112745073D01*
X242320571Y-112825000D01*
X242529429Y-112825000D01*
X242722388Y-112745073D01*
X242870073Y-112597388D01*
X242950000Y-112404429D01*
X242950000Y-112195571D01*
X242870073Y-112002612D01*
X242722388Y-111854927D01*
X242529429Y-111775000D01*
X242320571Y-111775000D01*
X242127612Y-111854927D01*
X241979927Y-112002612D01*
X241900000Y-112195571D01*
X188050000Y-112195571D01*
X188050000Y-112170571D01*
X187970073Y-111977612D01*
X187822388Y-111829927D01*
X187629429Y-111750000D01*
X187420571Y-111750000D01*
X187227612Y-111829927D01*
X187079927Y-111977612D01*
X187000000Y-112170571D01*
X165375000Y-112170571D01*
X165375000Y-111081985D01*
X176953370Y-111081985D01*
X177091426Y-111293078D01*
X177655426Y-111542345D01*
X178271885Y-111556804D01*
X178846952Y-111334253D01*
X178908574Y-111293078D01*
X179046630Y-111081985D01*
X178000000Y-110035355D01*
X176953370Y-111081985D01*
X165375000Y-111081985D01*
X165375000Y-110271885D01*
X176443196Y-110271885D01*
X176665747Y-110846952D01*
X176706922Y-110908574D01*
X176918015Y-111046630D01*
X177964645Y-110000000D01*
X178035355Y-110000000D01*
X179081985Y-111046630D01*
X179293078Y-110908574D01*
X179542345Y-110344574D01*
X179556804Y-109728115D01*
X179542706Y-109691686D01*
X180450000Y-109691686D01*
X180450000Y-110308314D01*
X180685974Y-110878004D01*
X181121996Y-111314026D01*
X181691686Y-111550000D01*
X182308314Y-111550000D01*
X182878004Y-111314026D01*
X183124785Y-111067246D01*
X183252612Y-111195073D01*
X183445571Y-111275000D01*
X183654429Y-111275000D01*
X183847388Y-111195073D01*
X183995073Y-111047388D01*
X184075000Y-110854429D01*
X184075000Y-110645571D01*
X183995073Y-110452612D01*
X183847388Y-110304927D01*
X183654429Y-110225000D01*
X183550000Y-110225000D01*
X183550000Y-109691686D01*
X184450000Y-109691686D01*
X184450000Y-110308314D01*
X184685974Y-110878004D01*
X185121996Y-111314026D01*
X185691686Y-111550000D01*
X186308314Y-111550000D01*
X186878004Y-111314026D01*
X187314026Y-110878004D01*
X187550000Y-110308314D01*
X187550000Y-109691686D01*
X188450000Y-109691686D01*
X188450000Y-110308314D01*
X188685974Y-110878004D01*
X189121996Y-111314026D01*
X189691686Y-111550000D01*
X190308314Y-111550000D01*
X190878004Y-111314026D01*
X191314026Y-110878004D01*
X191550000Y-110308314D01*
X191550000Y-109691686D01*
X194950000Y-109691686D01*
X194950000Y-110308314D01*
X195185974Y-110878004D01*
X195621996Y-111314026D01*
X196191686Y-111550000D01*
X196808314Y-111550000D01*
X197378004Y-111314026D01*
X197814026Y-110878004D01*
X198050000Y-110308314D01*
X198050000Y-109691686D01*
X198950000Y-109691686D01*
X198950000Y-110308314D01*
X199185974Y-110878004D01*
X199621996Y-111314026D01*
X200191686Y-111550000D01*
X200808314Y-111550000D01*
X201378004Y-111314026D01*
X201814026Y-110878004D01*
X202050000Y-110308314D01*
X202050000Y-109691686D01*
X202950000Y-109691686D01*
X202950000Y-110308314D01*
X203185974Y-110878004D01*
X203621996Y-111314026D01*
X204191686Y-111550000D01*
X204808314Y-111550000D01*
X205378004Y-111314026D01*
X205814026Y-110878004D01*
X206050000Y-110308314D01*
X206050000Y-109691686D01*
X223950000Y-109691686D01*
X223950000Y-110308314D01*
X224185974Y-110878004D01*
X224621996Y-111314026D01*
X225191686Y-111550000D01*
X225808314Y-111550000D01*
X226378004Y-111314026D01*
X226814026Y-110878004D01*
X227050000Y-110308314D01*
X227050000Y-109691686D01*
X227950000Y-109691686D01*
X227950000Y-110308314D01*
X228185974Y-110878004D01*
X228621996Y-111314026D01*
X229191686Y-111550000D01*
X229808314Y-111550000D01*
X230378004Y-111314026D01*
X230814026Y-110878004D01*
X231050000Y-110308314D01*
X231050000Y-109691686D01*
X231950000Y-109691686D01*
X231950000Y-110308314D01*
X232185974Y-110878004D01*
X232621996Y-111314026D01*
X233191686Y-111550000D01*
X233808314Y-111550000D01*
X234378004Y-111314026D01*
X234814026Y-110878004D01*
X235050000Y-110308314D01*
X235050000Y-109691686D01*
X238450000Y-109691686D01*
X238450000Y-110308314D01*
X238685974Y-110878004D01*
X239121996Y-111314026D01*
X239691686Y-111550000D01*
X240308314Y-111550000D01*
X240878004Y-111314026D01*
X241314026Y-110878004D01*
X241550000Y-110308314D01*
X241550000Y-109691686D01*
X242450000Y-109691686D01*
X242450000Y-110308314D01*
X242685974Y-110878004D01*
X243121996Y-111314026D01*
X243691686Y-111550000D01*
X244308314Y-111550000D01*
X244878004Y-111314026D01*
X245314026Y-110878004D01*
X245550000Y-110308314D01*
X245550000Y-109691686D01*
X246450000Y-109691686D01*
X246450000Y-110308314D01*
X246685974Y-110878004D01*
X247121996Y-111314026D01*
X247691686Y-111550000D01*
X248308314Y-111550000D01*
X248878004Y-111314026D01*
X249110045Y-111081985D01*
X250953370Y-111081985D01*
X251091426Y-111293078D01*
X251655426Y-111542345D01*
X252271885Y-111556804D01*
X252846952Y-111334253D01*
X252908574Y-111293078D01*
X253046630Y-111081985D01*
X252000000Y-110035355D01*
X250953370Y-111081985D01*
X249110045Y-111081985D01*
X249314026Y-110878004D01*
X249550000Y-110308314D01*
X249550000Y-110271885D01*
X250443196Y-110271885D01*
X250665747Y-110846952D01*
X250706922Y-110908574D01*
X250918015Y-111046630D01*
X251964645Y-110000000D01*
X252035355Y-110000000D01*
X253081985Y-111046630D01*
X253293078Y-110908574D01*
X253542345Y-110344574D01*
X253556804Y-109728115D01*
X253334253Y-109153048D01*
X253293078Y-109091426D01*
X253081985Y-108953370D01*
X252035355Y-110000000D01*
X251964645Y-110000000D01*
X250918015Y-108953370D01*
X250706922Y-109091426D01*
X250457655Y-109655426D01*
X250443196Y-110271885D01*
X249550000Y-110271885D01*
X249550000Y-109691686D01*
X249314026Y-109121996D01*
X249110045Y-108918015D01*
X250953370Y-108918015D01*
X252000000Y-109964645D01*
X253046630Y-108918015D01*
X252908574Y-108706922D01*
X252344574Y-108457655D01*
X251728115Y-108443196D01*
X251153048Y-108665747D01*
X251091426Y-108706922D01*
X250953370Y-108918015D01*
X249110045Y-108918015D01*
X248878004Y-108685974D01*
X248308314Y-108450000D01*
X247691686Y-108450000D01*
X247121996Y-108685974D01*
X246685974Y-109121996D01*
X246450000Y-109691686D01*
X245550000Y-109691686D01*
X245314026Y-109121996D01*
X244878004Y-108685974D01*
X244308314Y-108450000D01*
X243691686Y-108450000D01*
X243121996Y-108685974D01*
X242685974Y-109121996D01*
X242450000Y-109691686D01*
X241550000Y-109691686D01*
X241314026Y-109121996D01*
X240878004Y-108685974D01*
X240308314Y-108450000D01*
X239691686Y-108450000D01*
X239121996Y-108685974D01*
X238685974Y-109121996D01*
X238450000Y-109691686D01*
X235050000Y-109691686D01*
X234814026Y-109121996D01*
X234378004Y-108685974D01*
X233808314Y-108450000D01*
X233191686Y-108450000D01*
X232621996Y-108685974D01*
X232185974Y-109121996D01*
X231950000Y-109691686D01*
X231050000Y-109691686D01*
X230814026Y-109121996D01*
X230378004Y-108685974D01*
X229808314Y-108450000D01*
X229191686Y-108450000D01*
X228621996Y-108685974D01*
X228185974Y-109121996D01*
X227950000Y-109691686D01*
X227050000Y-109691686D01*
X226814026Y-109121996D01*
X226378004Y-108685974D01*
X225808314Y-108450000D01*
X225191686Y-108450000D01*
X224621996Y-108685974D01*
X224185974Y-109121996D01*
X223950000Y-109691686D01*
X206050000Y-109691686D01*
X205814026Y-109121996D01*
X205378004Y-108685974D01*
X204808314Y-108450000D01*
X204191686Y-108450000D01*
X203621996Y-108685974D01*
X203185974Y-109121996D01*
X202950000Y-109691686D01*
X202050000Y-109691686D01*
X201814026Y-109121996D01*
X201378004Y-108685974D01*
X200808314Y-108450000D01*
X200191686Y-108450000D01*
X199621996Y-108685974D01*
X199185974Y-109121996D01*
X198950000Y-109691686D01*
X198050000Y-109691686D01*
X197814026Y-109121996D01*
X197378004Y-108685974D01*
X196808314Y-108450000D01*
X196191686Y-108450000D01*
X195621996Y-108685974D01*
X195185974Y-109121996D01*
X194950000Y-109691686D01*
X191550000Y-109691686D01*
X191314026Y-109121996D01*
X190878004Y-108685974D01*
X190308314Y-108450000D01*
X189975000Y-108450000D01*
X189975000Y-108245571D01*
X189895073Y-108052612D01*
X189747388Y-107904927D01*
X189554429Y-107825000D01*
X189345571Y-107825000D01*
X189152612Y-107904927D01*
X189004927Y-108052612D01*
X188925000Y-108245571D01*
X188925000Y-108454429D01*
X189004927Y-108647388D01*
X189082755Y-108725216D01*
X188685974Y-109121996D01*
X188450000Y-109691686D01*
X187550000Y-109691686D01*
X187314026Y-109121996D01*
X186929746Y-108737716D01*
X187045073Y-108622388D01*
X187125000Y-108429429D01*
X187125000Y-108220571D01*
X187045073Y-108027612D01*
X186897388Y-107879927D01*
X186704429Y-107800000D01*
X186495571Y-107800000D01*
X186302612Y-107879927D01*
X186154927Y-108027612D01*
X186075000Y-108220571D01*
X186075000Y-108429429D01*
X186083521Y-108450000D01*
X185966479Y-108450000D01*
X185975000Y-108429429D01*
X185975000Y-108220571D01*
X185895073Y-108027612D01*
X185747388Y-107879927D01*
X185554429Y-107800000D01*
X185345571Y-107800000D01*
X185152612Y-107879927D01*
X185004927Y-108027612D01*
X184925000Y-108220571D01*
X184925000Y-108429429D01*
X185004927Y-108622388D01*
X185095255Y-108712716D01*
X184685974Y-109121996D01*
X184450000Y-109691686D01*
X183550000Y-109691686D01*
X183314026Y-109121996D01*
X182878004Y-108685974D01*
X182308314Y-108450000D01*
X181691686Y-108450000D01*
X181121996Y-108685974D01*
X180685974Y-109121996D01*
X180450000Y-109691686D01*
X179542706Y-109691686D01*
X179334253Y-109153048D01*
X179293078Y-109091426D01*
X179081985Y-108953370D01*
X178035355Y-110000000D01*
X177964645Y-110000000D01*
X176918015Y-108953370D01*
X176706922Y-109091426D01*
X176457655Y-109655426D01*
X176443196Y-110271885D01*
X165375000Y-110271885D01*
X165375000Y-108918015D01*
X176953370Y-108918015D01*
X178000000Y-109964645D01*
X179046630Y-108918015D01*
X178908574Y-108706922D01*
X178344574Y-108457655D01*
X177728115Y-108443196D01*
X177153048Y-108665747D01*
X177091426Y-108706922D01*
X176953370Y-108918015D01*
X165375000Y-108918015D01*
X165375000Y-107670571D01*
X178950000Y-107670571D01*
X178950000Y-107879429D01*
X179029927Y-108072388D01*
X179177612Y-108220073D01*
X179370571Y-108300000D01*
X179579429Y-108300000D01*
X179772388Y-108220073D01*
X179920073Y-108072388D01*
X180000000Y-107879429D01*
X180000000Y-107670571D01*
X179989645Y-107645571D01*
X250975000Y-107645571D01*
X250975000Y-107854429D01*
X251054927Y-108047388D01*
X251202612Y-108195073D01*
X251395571Y-108275000D01*
X251604429Y-108275000D01*
X251797388Y-108195073D01*
X251945073Y-108047388D01*
X252025000Y-107854429D01*
X252025000Y-107645571D01*
X251945073Y-107452612D01*
X251797388Y-107304927D01*
X251604429Y-107225000D01*
X251395571Y-107225000D01*
X251202612Y-107304927D01*
X251054927Y-107452612D01*
X250975000Y-107645571D01*
X179989645Y-107645571D01*
X179920073Y-107477612D01*
X179772388Y-107329927D01*
X179579429Y-107250000D01*
X179370571Y-107250000D01*
X179177612Y-107329927D01*
X179029927Y-107477612D01*
X178950000Y-107670571D01*
X165375000Y-107670571D01*
X165375000Y-106895571D01*
X179725000Y-106895571D01*
X179725000Y-107104429D01*
X179804927Y-107297388D01*
X179952612Y-107445073D01*
X180145571Y-107525000D01*
X180354429Y-107525000D01*
X180547388Y-107445073D01*
X180695073Y-107297388D01*
X180775000Y-107104429D01*
X180775000Y-106895571D01*
X250225000Y-106895571D01*
X250225000Y-107104429D01*
X250304927Y-107297388D01*
X250452612Y-107445073D01*
X250645571Y-107525000D01*
X250854429Y-107525000D01*
X251047388Y-107445073D01*
X251195073Y-107297388D01*
X251275000Y-107104429D01*
X251275000Y-106895571D01*
X251195073Y-106702612D01*
X251047388Y-106554927D01*
X250854429Y-106475000D01*
X250645571Y-106475000D01*
X250452612Y-106554927D01*
X250304927Y-106702612D01*
X250225000Y-106895571D01*
X180775000Y-106895571D01*
X180695073Y-106702612D01*
X180547388Y-106554927D01*
X180354429Y-106475000D01*
X180145571Y-106475000D01*
X179952612Y-106554927D01*
X179804927Y-106702612D01*
X179725000Y-106895571D01*
X165375000Y-106895571D01*
X165375000Y-105420571D01*
X182025000Y-105420571D01*
X182025000Y-105629429D01*
X182104927Y-105822388D01*
X182252612Y-105970073D01*
X182445571Y-106050000D01*
X182654429Y-106050000D01*
X182847388Y-105970073D01*
X182995073Y-105822388D01*
X183075000Y-105629429D01*
X183075000Y-105420571D01*
X182995073Y-105227612D01*
X182847388Y-105079927D01*
X182654429Y-105000000D01*
X182445571Y-105000000D01*
X182252612Y-105079927D01*
X182104927Y-105227612D01*
X182025000Y-105420571D01*
X165375000Y-105420571D01*
X165375000Y-102445571D01*
X184950000Y-102445571D01*
X184950000Y-102654429D01*
X185029927Y-102847388D01*
X185177612Y-102995073D01*
X185370571Y-103075000D01*
X185579429Y-103075000D01*
X185772388Y-102995073D01*
X185920073Y-102847388D01*
X186000000Y-102654429D01*
X186000000Y-102445571D01*
X185920073Y-102252612D01*
X185772388Y-102104927D01*
X185579429Y-102025000D01*
X185370571Y-102025000D01*
X185177612Y-102104927D01*
X185029927Y-102252612D01*
X184950000Y-102445571D01*
X165375000Y-102445571D01*
X165375000Y-100145571D01*
X225075000Y-100145571D01*
X225075000Y-100354429D01*
X225154927Y-100547388D01*
X225302612Y-100695073D01*
X225495571Y-100775000D01*
X225704429Y-100775000D01*
X225897388Y-100695073D01*
X226045073Y-100547388D01*
X226125000Y-100354429D01*
X226125000Y-100145571D01*
X226045073Y-99952612D01*
X225897388Y-99804927D01*
X225704429Y-99725000D01*
X225495571Y-99725000D01*
X225302612Y-99804927D01*
X225154927Y-99952612D01*
X225075000Y-100145571D01*
X165375000Y-100145571D01*
X165375000Y-99195571D01*
X188950000Y-99195571D01*
X188950000Y-99404429D01*
X189029927Y-99597388D01*
X189177612Y-99745073D01*
X189370571Y-99825000D01*
X189579429Y-99825000D01*
X189772388Y-99745073D01*
X189920073Y-99597388D01*
X190000000Y-99404429D01*
X190000000Y-99195571D01*
X189920073Y-99002612D01*
X189772388Y-98854927D01*
X189579429Y-98775000D01*
X189370571Y-98775000D01*
X189177612Y-98854927D01*
X189029927Y-99002612D01*
X188950000Y-99195571D01*
X165375000Y-99195571D01*
X165375000Y-97570571D01*
X176925000Y-97570571D01*
X176925000Y-97779429D01*
X177004927Y-97972388D01*
X177152612Y-98120073D01*
X177345571Y-98200000D01*
X177554429Y-98200000D01*
X177747388Y-98120073D01*
X177895073Y-97972388D01*
X177975000Y-97779429D01*
X177975000Y-97595571D01*
X178050000Y-97595571D01*
X178050000Y-97804429D01*
X178129927Y-97997388D01*
X178277612Y-98145073D01*
X178470571Y-98225000D01*
X178679429Y-98225000D01*
X178872388Y-98145073D01*
X179020073Y-97997388D01*
X179100000Y-97804429D01*
X179100000Y-97595571D01*
X179020073Y-97402612D01*
X178872388Y-97254927D01*
X178849801Y-97245571D01*
X217575000Y-97245571D01*
X217575000Y-97454429D01*
X217654927Y-97647388D01*
X217802612Y-97795073D01*
X217995571Y-97875000D01*
X218204429Y-97875000D01*
X218397388Y-97795073D01*
X218421890Y-97770571D01*
X219100000Y-97770571D01*
X219100000Y-97979429D01*
X219179927Y-98172388D01*
X219327612Y-98320073D01*
X219520571Y-98400000D01*
X219729429Y-98400000D01*
X219922388Y-98320073D01*
X220046890Y-98195571D01*
X227175000Y-98195571D01*
X227175000Y-98404429D01*
X227254927Y-98597388D01*
X227402612Y-98745073D01*
X227595571Y-98825000D01*
X227804429Y-98825000D01*
X227844123Y-98808558D01*
X227844123Y-99850000D01*
X227867407Y-99967054D01*
X227933712Y-100066288D01*
X228032946Y-100132593D01*
X228150000Y-100155877D01*
X229850000Y-100155877D01*
X229967054Y-100132593D01*
X230066288Y-100066288D01*
X230132593Y-99967054D01*
X230155877Y-99850000D01*
X230155877Y-98787847D01*
X230245571Y-98825000D01*
X230402281Y-98825000D01*
X230367471Y-99000000D01*
X230456724Y-99448707D01*
X230710897Y-99829103D01*
X231091293Y-100083276D01*
X231426739Y-100150000D01*
X231653261Y-100150000D01*
X231988707Y-100083276D01*
X232369103Y-99829103D01*
X232623276Y-99448707D01*
X232712529Y-99000000D01*
X232677719Y-98825000D01*
X232754429Y-98825000D01*
X232947388Y-98745073D01*
X232960858Y-98731603D01*
X232907471Y-99000000D01*
X232996724Y-99448707D01*
X233250897Y-99829103D01*
X233631293Y-100083276D01*
X233966739Y-100150000D01*
X234193261Y-100150000D01*
X234528707Y-100083276D01*
X234909103Y-99829103D01*
X235163276Y-99448707D01*
X235252529Y-99000000D01*
X235217719Y-98825000D01*
X235304429Y-98825000D01*
X235497388Y-98745073D01*
X235498375Y-98744086D01*
X235447471Y-99000000D01*
X235536724Y-99448707D01*
X235790897Y-99829103D01*
X236171293Y-100083276D01*
X236506739Y-100150000D01*
X236733261Y-100150000D01*
X237068707Y-100083276D01*
X237449103Y-99829103D01*
X237703276Y-99448707D01*
X237792529Y-99000000D01*
X237987471Y-99000000D01*
X238076724Y-99448707D01*
X238330897Y-99829103D01*
X238711293Y-100083276D01*
X239046739Y-100150000D01*
X239273261Y-100150000D01*
X239608707Y-100083276D01*
X239989103Y-99829103D01*
X240243276Y-99448707D01*
X240332529Y-99000000D01*
X240243276Y-98551293D01*
X240038999Y-98245571D01*
X245275000Y-98245571D01*
X245275000Y-98454429D01*
X245354927Y-98647388D01*
X245502612Y-98795073D01*
X245695571Y-98875000D01*
X245904429Y-98875000D01*
X246097388Y-98795073D01*
X246245073Y-98647388D01*
X246325000Y-98454429D01*
X246325000Y-98245571D01*
X246245073Y-98052612D01*
X246097388Y-97904927D01*
X245904429Y-97825000D01*
X245695571Y-97825000D01*
X245502612Y-97904927D01*
X245354927Y-98052612D01*
X245275000Y-98245571D01*
X240038999Y-98245571D01*
X239989103Y-98170897D01*
X239608707Y-97916724D01*
X239273261Y-97850000D01*
X239046739Y-97850000D01*
X238711293Y-97916724D01*
X238330897Y-98170897D01*
X238076724Y-98551293D01*
X237987471Y-99000000D01*
X237792529Y-99000000D01*
X237703276Y-98551293D01*
X237449103Y-98170897D01*
X237068707Y-97916724D01*
X236733261Y-97850000D01*
X236506739Y-97850000D01*
X236171293Y-97916724D01*
X235790897Y-98170897D01*
X235725000Y-98269519D01*
X235725000Y-98195571D01*
X235645073Y-98002612D01*
X235497388Y-97854927D01*
X235304429Y-97775000D01*
X235095571Y-97775000D01*
X234902612Y-97854927D01*
X234754927Y-98002612D01*
X234733752Y-98053731D01*
X234528707Y-97916724D01*
X234193261Y-97850000D01*
X233966739Y-97850000D01*
X233631293Y-97916724D01*
X233250897Y-98170897D01*
X233175000Y-98284485D01*
X233175000Y-98195571D01*
X233095073Y-98002612D01*
X232947388Y-97854927D01*
X232754429Y-97775000D01*
X232545571Y-97775000D01*
X232352612Y-97854927D01*
X232204927Y-98002612D01*
X232185920Y-98048498D01*
X231988707Y-97916724D01*
X231653261Y-97850000D01*
X231426739Y-97850000D01*
X231091293Y-97916724D01*
X230831422Y-98090365D01*
X230795073Y-98002612D01*
X230647388Y-97854927D01*
X230454429Y-97775000D01*
X230245571Y-97775000D01*
X230052612Y-97854927D01*
X230010861Y-97896678D01*
X229967054Y-97867407D01*
X229850000Y-97844123D01*
X228150000Y-97844123D01*
X228032946Y-97867407D01*
X228019112Y-97876651D01*
X227997388Y-97854927D01*
X227804429Y-97775000D01*
X227595571Y-97775000D01*
X227402612Y-97854927D01*
X227254927Y-98002612D01*
X227175000Y-98195571D01*
X220046890Y-98195571D01*
X220070073Y-98172388D01*
X220150000Y-97979429D01*
X220150000Y-97770571D01*
X220070073Y-97577612D01*
X219922388Y-97429927D01*
X219729429Y-97350000D01*
X219520571Y-97350000D01*
X219327612Y-97429927D01*
X219179927Y-97577612D01*
X219100000Y-97770571D01*
X218421890Y-97770571D01*
X218545073Y-97647388D01*
X218625000Y-97454429D01*
X218625000Y-97245571D01*
X218545073Y-97052612D01*
X218397388Y-96904927D01*
X218204429Y-96825000D01*
X217995571Y-96825000D01*
X217802612Y-96904927D01*
X217654927Y-97052612D01*
X217575000Y-97245571D01*
X178849801Y-97245571D01*
X178679429Y-97175000D01*
X178470571Y-97175000D01*
X178277612Y-97254927D01*
X178129927Y-97402612D01*
X178050000Y-97595571D01*
X177975000Y-97595571D01*
X177975000Y-97570571D01*
X177895073Y-97377612D01*
X177747388Y-97229927D01*
X177554429Y-97150000D01*
X177345571Y-97150000D01*
X177152612Y-97229927D01*
X177004927Y-97377612D01*
X176925000Y-97570571D01*
X165375000Y-97570571D01*
X165375000Y-95870571D01*
X174775000Y-95870571D01*
X174775000Y-96079429D01*
X174854927Y-96272388D01*
X175002612Y-96420073D01*
X175195571Y-96500000D01*
X175404429Y-96500000D01*
X175597388Y-96420073D01*
X175745073Y-96272388D01*
X175825000Y-96079429D01*
X175825000Y-95895571D01*
X177775000Y-95895571D01*
X177775000Y-96104429D01*
X177854927Y-96297388D01*
X178002612Y-96445073D01*
X178195571Y-96525000D01*
X178404429Y-96525000D01*
X178597388Y-96445073D01*
X178745073Y-96297388D01*
X178766860Y-96244790D01*
X221310713Y-96244790D01*
X221310713Y-96453648D01*
X221390640Y-96646607D01*
X221538325Y-96794292D01*
X221661804Y-96845439D01*
X221661804Y-96940217D01*
X221741731Y-97133176D01*
X221889416Y-97280861D01*
X222082375Y-97360788D01*
X222291233Y-97360788D01*
X222484192Y-97280861D01*
X222631877Y-97133176D01*
X222711804Y-96940217D01*
X222711804Y-96770568D01*
X222920408Y-96770568D01*
X222920408Y-96979426D01*
X223000335Y-97172385D01*
X223148020Y-97320070D01*
X223340979Y-97399997D01*
X223549837Y-97399997D01*
X223742796Y-97320070D01*
X223747685Y-97315181D01*
X223752564Y-97320060D01*
X223945523Y-97399987D01*
X224154381Y-97399987D01*
X224347340Y-97320060D01*
X224495025Y-97172375D01*
X224557904Y-97020571D01*
X224925000Y-97020571D01*
X224925000Y-97229429D01*
X225004927Y-97422388D01*
X225152612Y-97570073D01*
X225345571Y-97650000D01*
X225554429Y-97650000D01*
X225747388Y-97570073D01*
X225895073Y-97422388D01*
X225975000Y-97229429D01*
X225975000Y-97020571D01*
X225895073Y-96827612D01*
X225873022Y-96805561D01*
X227875000Y-96805561D01*
X227875000Y-97014419D01*
X227954927Y-97207378D01*
X228102612Y-97355063D01*
X228295571Y-97434990D01*
X228504429Y-97434990D01*
X228697388Y-97355063D01*
X228845073Y-97207378D01*
X228914569Y-97039601D01*
X228979927Y-97197388D01*
X229127612Y-97345073D01*
X229320571Y-97425000D01*
X229529429Y-97425000D01*
X229722388Y-97345073D01*
X229870073Y-97197388D01*
X229950000Y-97004429D01*
X229950000Y-96954037D01*
X230077365Y-97006794D01*
X230286223Y-97006794D01*
X230479182Y-96926867D01*
X230626867Y-96779182D01*
X230661500Y-96695571D01*
X230675000Y-96695571D01*
X230675000Y-96904429D01*
X230754927Y-97097388D01*
X230902612Y-97245073D01*
X231095571Y-97325000D01*
X231304429Y-97325000D01*
X231497388Y-97245073D01*
X231645073Y-97097388D01*
X231725000Y-96904429D01*
X231725000Y-96695571D01*
X231645073Y-96502612D01*
X231497388Y-96354927D01*
X231304429Y-96275000D01*
X231095571Y-96275000D01*
X230902612Y-96354927D01*
X230754927Y-96502612D01*
X230675000Y-96695571D01*
X230661500Y-96695571D01*
X230706794Y-96586223D01*
X230706794Y-96377365D01*
X230626867Y-96184406D01*
X230479182Y-96036721D01*
X230286223Y-95956794D01*
X230077365Y-95956794D01*
X229884406Y-96036721D01*
X229736721Y-96184406D01*
X229656794Y-96377365D01*
X229656794Y-96427757D01*
X229529429Y-96375000D01*
X229320571Y-96375000D01*
X229127612Y-96454927D01*
X228979927Y-96602612D01*
X228910431Y-96770389D01*
X228845073Y-96612602D01*
X228697388Y-96464917D01*
X228504429Y-96384990D01*
X228295571Y-96384990D01*
X228102612Y-96464917D01*
X227954927Y-96612602D01*
X227875000Y-96805561D01*
X225873022Y-96805561D01*
X225747388Y-96679927D01*
X225554429Y-96600000D01*
X225345571Y-96600000D01*
X225152612Y-96679927D01*
X225004927Y-96827612D01*
X224925000Y-97020571D01*
X224557904Y-97020571D01*
X224574952Y-96979416D01*
X224574952Y-96770558D01*
X224495025Y-96577599D01*
X224347340Y-96429914D01*
X224154381Y-96349987D01*
X223945523Y-96349987D01*
X223752564Y-96429914D01*
X223747675Y-96434803D01*
X223742796Y-96429924D01*
X223549837Y-96349997D01*
X223340979Y-96349997D01*
X223148020Y-96429924D01*
X223000335Y-96577609D01*
X222920408Y-96770568D01*
X222711804Y-96770568D01*
X222711804Y-96731359D01*
X222631877Y-96538400D01*
X222484192Y-96390715D01*
X222360713Y-96339568D01*
X222360713Y-96244790D01*
X222280786Y-96051831D01*
X222133101Y-95904146D01*
X221940142Y-95824219D01*
X221731284Y-95824219D01*
X221538325Y-95904146D01*
X221390640Y-96051831D01*
X221310713Y-96244790D01*
X178766860Y-96244790D01*
X178825000Y-96104429D01*
X178825000Y-95895571D01*
X178745073Y-95702612D01*
X178597388Y-95554927D01*
X178404429Y-95475000D01*
X178195571Y-95475000D01*
X178002612Y-95554927D01*
X177854927Y-95702612D01*
X177775000Y-95895571D01*
X175825000Y-95895571D01*
X175825000Y-95870571D01*
X175745073Y-95677612D01*
X175597388Y-95529927D01*
X175404429Y-95450000D01*
X175195571Y-95450000D01*
X175002612Y-95529927D01*
X174854927Y-95677612D01*
X174775000Y-95870571D01*
X165375000Y-95870571D01*
X165375000Y-94395571D01*
X192275000Y-94395571D01*
X192275000Y-94604429D01*
X192354927Y-94797388D01*
X192502612Y-94945073D01*
X192695571Y-95025000D01*
X192904429Y-95025000D01*
X193097388Y-94945073D01*
X193245073Y-94797388D01*
X193325000Y-94604429D01*
X193325000Y-94495571D01*
X193475002Y-94495571D01*
X193475002Y-94704429D01*
X193554929Y-94897388D01*
X193702614Y-95045073D01*
X193895573Y-95125000D01*
X194104431Y-95125000D01*
X194297390Y-95045073D01*
X194445075Y-94897388D01*
X194525002Y-94704429D01*
X194525002Y-94495571D01*
X194504292Y-94445571D01*
X219125000Y-94445571D01*
X219125000Y-94654429D01*
X219204927Y-94847388D01*
X219352612Y-94995073D01*
X219545571Y-95075000D01*
X219674943Y-95075000D01*
X219625000Y-95195571D01*
X219625000Y-95404429D01*
X219704927Y-95597388D01*
X219852612Y-95745073D01*
X220045571Y-95825000D01*
X220254429Y-95825000D01*
X220447388Y-95745073D01*
X220595073Y-95597388D01*
X220675000Y-95404429D01*
X220675000Y-95361517D01*
X220809205Y-95361517D01*
X221002164Y-95281590D01*
X221149849Y-95133905D01*
X221229776Y-94940946D01*
X221229776Y-94732088D01*
X221149849Y-94539129D01*
X221002164Y-94391444D01*
X220809205Y-94311517D01*
X220600347Y-94311517D01*
X220407388Y-94391444D01*
X220259703Y-94539129D01*
X220179776Y-94732088D01*
X220179776Y-94775000D01*
X220125057Y-94775000D01*
X220175000Y-94654429D01*
X220175000Y-94445571D01*
X220095073Y-94252612D01*
X219947388Y-94104927D01*
X219754429Y-94025000D01*
X219545571Y-94025000D01*
X219352612Y-94104927D01*
X219204927Y-94252612D01*
X219125000Y-94445571D01*
X194504292Y-94445571D01*
X194445075Y-94302612D01*
X194297390Y-94154927D01*
X194104431Y-94075000D01*
X193895573Y-94075000D01*
X193702614Y-94154927D01*
X193554929Y-94302612D01*
X193475002Y-94495571D01*
X193325000Y-94495571D01*
X193325000Y-94395571D01*
X193245073Y-94202612D01*
X193167459Y-94124998D01*
X193304429Y-94124998D01*
X193497388Y-94045071D01*
X193645073Y-93897386D01*
X193725000Y-93704427D01*
X193725000Y-93495569D01*
X193645073Y-93302610D01*
X193497388Y-93154925D01*
X193304429Y-93074998D01*
X193095571Y-93074998D01*
X192902612Y-93154925D01*
X192754927Y-93302610D01*
X192675000Y-93495569D01*
X192675000Y-93704427D01*
X192754927Y-93897386D01*
X192832541Y-93975000D01*
X192695571Y-93975000D01*
X192502612Y-94054927D01*
X192354927Y-94202612D01*
X192275000Y-94395571D01*
X165375000Y-94395571D01*
X165375000Y-93170571D01*
X175950000Y-93170571D01*
X175950000Y-93379429D01*
X176029927Y-93572388D01*
X176177612Y-93720073D01*
X176370571Y-93800000D01*
X176579429Y-93800000D01*
X176772388Y-93720073D01*
X176920073Y-93572388D01*
X177000000Y-93379429D01*
X177000000Y-93220571D01*
X177025000Y-93220571D01*
X177025000Y-93429429D01*
X177104927Y-93622388D01*
X177252612Y-93770073D01*
X177445571Y-93850000D01*
X177654429Y-93850000D01*
X177847388Y-93770073D01*
X177995073Y-93622388D01*
X178075000Y-93429429D01*
X178075000Y-93220571D01*
X178043934Y-93145571D01*
X178925000Y-93145571D01*
X178925000Y-93354429D01*
X179004927Y-93547388D01*
X179152612Y-93695073D01*
X179345571Y-93775000D01*
X179554429Y-93775000D01*
X179747388Y-93695073D01*
X179895073Y-93547388D01*
X179975000Y-93354429D01*
X179975000Y-93145571D01*
X179895073Y-92952612D01*
X179747388Y-92804927D01*
X179554429Y-92725000D01*
X179345571Y-92725000D01*
X179152612Y-92804927D01*
X179004927Y-92952612D01*
X178925000Y-93145571D01*
X178043934Y-93145571D01*
X177995073Y-93027612D01*
X177847388Y-92879927D01*
X177654429Y-92800000D01*
X177445571Y-92800000D01*
X177252612Y-92879927D01*
X177104927Y-93027612D01*
X177025000Y-93220571D01*
X177000000Y-93220571D01*
X177000000Y-93170571D01*
X176920073Y-92977612D01*
X176772388Y-92829927D01*
X176579429Y-92750000D01*
X176370571Y-92750000D01*
X176177612Y-92829927D01*
X176029927Y-92977612D01*
X175950000Y-93170571D01*
X165375000Y-93170571D01*
X165375000Y-92095571D01*
X209050000Y-92095571D01*
X209050000Y-92304429D01*
X209129927Y-92497388D01*
X209277612Y-92645073D01*
X209470571Y-92725000D01*
X209679429Y-92725000D01*
X209872388Y-92645073D01*
X210020073Y-92497388D01*
X210100000Y-92304429D01*
X210100000Y-92095571D01*
X210020073Y-91902612D01*
X209872388Y-91754927D01*
X209679429Y-91675000D01*
X209470571Y-91675000D01*
X209277612Y-91754927D01*
X209129927Y-91902612D01*
X209050000Y-92095571D01*
X165375000Y-92095571D01*
X165375000Y-91195571D01*
X177475000Y-91195571D01*
X177475000Y-91404429D01*
X177554927Y-91597388D01*
X177702612Y-91745073D01*
X177895571Y-91825000D01*
X178104429Y-91825000D01*
X178297388Y-91745073D01*
X178445073Y-91597388D01*
X178525000Y-91404429D01*
X178525000Y-91195571D01*
X178445073Y-91002612D01*
X178297388Y-90854927D01*
X178104429Y-90775000D01*
X177895571Y-90775000D01*
X177702612Y-90854927D01*
X177554927Y-91002612D01*
X177475000Y-91195571D01*
X165375000Y-91195571D01*
X165375000Y-88091686D01*
X173200000Y-88091686D01*
X173200000Y-88708314D01*
X173435974Y-89278004D01*
X173871996Y-89714026D01*
X174441686Y-89950000D01*
X175058314Y-89950000D01*
X175628004Y-89714026D01*
X176064026Y-89278004D01*
X176300000Y-88708314D01*
X176300000Y-88091686D01*
X178700000Y-88091686D01*
X178700000Y-88708314D01*
X178935974Y-89278004D01*
X179371996Y-89714026D01*
X179941686Y-89950000D01*
X180558314Y-89950000D01*
X180810427Y-89845571D01*
X196775000Y-89845571D01*
X196775000Y-90054429D01*
X196854927Y-90247388D01*
X197002612Y-90395073D01*
X197195571Y-90475000D01*
X197404429Y-90475000D01*
X197597388Y-90395073D01*
X197745073Y-90247388D01*
X197825000Y-90054429D01*
X197825000Y-89845571D01*
X203475000Y-89845571D01*
X203475000Y-90054429D01*
X203554927Y-90247388D01*
X203702612Y-90395073D01*
X203895571Y-90475000D01*
X204104429Y-90475000D01*
X204297388Y-90395073D01*
X204445073Y-90247388D01*
X204525000Y-90054429D01*
X204525000Y-89845571D01*
X204445073Y-89652612D01*
X204297388Y-89504927D01*
X204104429Y-89425000D01*
X203895571Y-89425000D01*
X203702612Y-89504927D01*
X203554927Y-89652612D01*
X203475000Y-89845571D01*
X197825000Y-89845571D01*
X197745073Y-89652612D01*
X197597388Y-89504927D01*
X197404429Y-89425000D01*
X197195571Y-89425000D01*
X197002612Y-89504927D01*
X196854927Y-89652612D01*
X196775000Y-89845571D01*
X180810427Y-89845571D01*
X181128004Y-89714026D01*
X181446459Y-89395571D01*
X213475000Y-89395571D01*
X213475000Y-89604429D01*
X213554927Y-89797388D01*
X213702612Y-89945073D01*
X213895571Y-90025000D01*
X214104429Y-90025000D01*
X214297388Y-89945073D01*
X214445073Y-89797388D01*
X214499673Y-89665571D01*
X217085000Y-89665571D01*
X217085000Y-89874429D01*
X217164927Y-90067388D01*
X217312612Y-90215073D01*
X217505571Y-90295000D01*
X217714429Y-90295000D01*
X217907388Y-90215073D01*
X218055073Y-90067388D01*
X218135000Y-89874429D01*
X218135000Y-89665571D01*
X218107840Y-89600000D01*
X222900000Y-89600000D01*
X222900000Y-90000000D01*
X222922836Y-90114805D01*
X222987868Y-90212132D01*
X223300000Y-90524264D01*
X223300000Y-91657539D01*
X223154927Y-91802612D01*
X223075000Y-91995571D01*
X223075000Y-92204429D01*
X223154927Y-92397388D01*
X223257539Y-92500000D01*
X223154927Y-92602612D01*
X223075000Y-92795571D01*
X223075000Y-93004429D01*
X223154927Y-93197388D01*
X223302612Y-93345073D01*
X223495571Y-93425000D01*
X223600736Y-93425000D01*
X225100000Y-94924264D01*
X225100000Y-95200000D01*
X225122836Y-95314805D01*
X225187868Y-95412132D01*
X225587868Y-95812132D01*
X225685195Y-95877164D01*
X225800000Y-95900000D01*
X226400000Y-95900000D01*
X226514805Y-95877164D01*
X226612132Y-95812132D01*
X227212132Y-95212132D01*
X227277164Y-95114805D01*
X227300000Y-95000000D01*
X227300000Y-94324264D01*
X227700000Y-93924264D01*
X228387868Y-94612132D01*
X228485195Y-94677164D01*
X228600000Y-94700000D01*
X241450000Y-94700000D01*
X241564805Y-94677164D01*
X241662132Y-94612132D01*
X241762132Y-94512132D01*
X241827164Y-94414805D01*
X241850000Y-94300000D01*
X242100000Y-94300000D01*
X242100000Y-94350000D01*
X242122836Y-94464805D01*
X242187868Y-94562132D01*
X242237868Y-94612132D01*
X242335195Y-94677164D01*
X242450000Y-94700000D01*
X243075736Y-94700000D01*
X244963120Y-96587384D01*
X244920818Y-96604906D01*
X244773133Y-96752591D01*
X244693206Y-96945550D01*
X244693206Y-97154408D01*
X244773133Y-97347367D01*
X244920818Y-97495052D01*
X245113777Y-97574979D01*
X245322635Y-97574979D01*
X245515594Y-97495052D01*
X245663279Y-97347367D01*
X245680801Y-97305065D01*
X246387868Y-98012132D01*
X246485195Y-98077164D01*
X246600000Y-98100000D01*
X247200000Y-98100000D01*
X247314805Y-98077164D01*
X247412132Y-98012132D01*
X247862132Y-97562132D01*
X247873197Y-97545571D01*
X248025000Y-97545571D01*
X248025000Y-97754429D01*
X248104927Y-97947388D01*
X248252612Y-98095073D01*
X248445571Y-98175000D01*
X248654429Y-98175000D01*
X248847388Y-98095073D01*
X248995073Y-97947388D01*
X249075000Y-97754429D01*
X249075000Y-97545571D01*
X248995073Y-97352612D01*
X248847388Y-97204927D01*
X248654429Y-97125000D01*
X248445571Y-97125000D01*
X248252612Y-97204927D01*
X248104927Y-97352612D01*
X248025000Y-97545571D01*
X247873197Y-97545571D01*
X247927164Y-97464805D01*
X247950000Y-97350000D01*
X247950000Y-97100000D01*
X247943206Y-97065844D01*
X247943206Y-97063777D01*
X247942415Y-97061867D01*
X247927164Y-96985195D01*
X247911905Y-96962359D01*
X248212132Y-96662132D01*
X248277164Y-96564805D01*
X248290935Y-96495571D01*
X256475000Y-96495571D01*
X256475000Y-96704429D01*
X256554927Y-96897388D01*
X256702612Y-97045073D01*
X256895571Y-97125000D01*
X257104429Y-97125000D01*
X257297388Y-97045073D01*
X257445073Y-96897388D01*
X257525000Y-96704429D01*
X257525000Y-96495571D01*
X257514743Y-96470809D01*
X257645571Y-96525000D01*
X257854429Y-96525000D01*
X258047388Y-96445073D01*
X258195073Y-96297388D01*
X258275000Y-96104429D01*
X258275000Y-95895571D01*
X258195073Y-95702612D01*
X258047388Y-95554927D01*
X257854429Y-95475000D01*
X257645571Y-95475000D01*
X257452612Y-95554927D01*
X257304927Y-95702612D01*
X257225000Y-95895571D01*
X257225000Y-96104429D01*
X257235257Y-96129191D01*
X257104429Y-96075000D01*
X256895571Y-96075000D01*
X256702612Y-96154927D01*
X256554927Y-96302612D01*
X256475000Y-96495571D01*
X248290935Y-96495571D01*
X248300000Y-96450000D01*
X248300000Y-95035493D01*
X248304927Y-95047388D01*
X248452612Y-95195073D01*
X248645571Y-95275000D01*
X248854429Y-95275000D01*
X249047388Y-95195073D01*
X249195073Y-95047388D01*
X249275000Y-94854429D01*
X249275000Y-94645571D01*
X249195073Y-94452612D01*
X249117461Y-94375000D01*
X249195073Y-94297388D01*
X249275000Y-94104429D01*
X249275000Y-93895571D01*
X249233579Y-93795571D01*
X251875000Y-93795571D01*
X251875000Y-94004429D01*
X251954927Y-94197388D01*
X252102612Y-94345073D01*
X252295571Y-94425000D01*
X252504429Y-94425000D01*
X252697388Y-94345073D01*
X252845073Y-94197388D01*
X252925000Y-94004429D01*
X252925000Y-93895571D01*
X253125000Y-93895571D01*
X253125000Y-94104429D01*
X253204927Y-94297388D01*
X253352612Y-94445073D01*
X253545571Y-94525000D01*
X253754429Y-94525000D01*
X253947388Y-94445073D01*
X254021890Y-94370571D01*
X256000000Y-94370571D01*
X256000000Y-94579429D01*
X256079927Y-94772388D01*
X256227612Y-94920073D01*
X256420571Y-95000000D01*
X256629429Y-95000000D01*
X256822388Y-94920073D01*
X256970073Y-94772388D01*
X257050000Y-94579429D01*
X257050000Y-94370571D01*
X256970073Y-94177612D01*
X256822388Y-94029927D01*
X256629429Y-93950000D01*
X256420571Y-93950000D01*
X256227612Y-94029927D01*
X256079927Y-94177612D01*
X256000000Y-94370571D01*
X254021890Y-94370571D01*
X254095073Y-94297388D01*
X254175000Y-94104429D01*
X254175000Y-93917461D01*
X254202612Y-93945073D01*
X254395571Y-94025000D01*
X254604429Y-94025000D01*
X254797388Y-93945073D01*
X254945073Y-93797388D01*
X254979289Y-93714784D01*
X255054927Y-93897388D01*
X255202612Y-94045073D01*
X255395571Y-94125000D01*
X255604429Y-94125000D01*
X255797388Y-94045073D01*
X255945073Y-93897388D01*
X256025000Y-93704429D01*
X256025000Y-93495571D01*
X255945073Y-93302612D01*
X255797388Y-93154927D01*
X255604429Y-93075000D01*
X255395571Y-93075000D01*
X255202612Y-93154927D01*
X255054927Y-93302612D01*
X255020711Y-93385216D01*
X254945073Y-93202612D01*
X254797388Y-93054927D01*
X254664784Y-93000000D01*
X254797388Y-92945073D01*
X254945073Y-92797388D01*
X255015533Y-92627284D01*
X255054927Y-92722388D01*
X255202612Y-92870073D01*
X255395571Y-92950000D01*
X255604429Y-92950000D01*
X255797388Y-92870073D01*
X255945073Y-92722388D01*
X256002145Y-92584606D01*
X256079927Y-92772388D01*
X256227612Y-92920073D01*
X256420571Y-93000000D01*
X256629429Y-93000000D01*
X256822388Y-92920073D01*
X256970073Y-92772388D01*
X257050000Y-92579429D01*
X257050000Y-92370571D01*
X256970073Y-92177612D01*
X256822388Y-92029927D01*
X256629429Y-91950000D01*
X256420571Y-91950000D01*
X256227612Y-92029927D01*
X256079927Y-92177612D01*
X256022855Y-92315394D01*
X255945073Y-92127612D01*
X255797388Y-91979927D01*
X255604429Y-91900000D01*
X255395571Y-91900000D01*
X255202612Y-91979927D01*
X255054927Y-92127612D01*
X254984467Y-92297716D01*
X254945073Y-92202612D01*
X254797388Y-92054927D01*
X254604429Y-91975000D01*
X254395571Y-91975000D01*
X254202612Y-92054927D01*
X254054927Y-92202612D01*
X253975000Y-92395571D01*
X253975000Y-92604429D01*
X254054927Y-92797388D01*
X254202612Y-92945073D01*
X254335216Y-93000000D01*
X254202612Y-93054927D01*
X254054927Y-93202612D01*
X253975000Y-93395571D01*
X253975000Y-93582539D01*
X253947388Y-93554927D01*
X253754429Y-93475000D01*
X253545571Y-93475000D01*
X253352612Y-93554927D01*
X253204927Y-93702612D01*
X253125000Y-93895571D01*
X252925000Y-93895571D01*
X252925000Y-93795571D01*
X252845073Y-93602612D01*
X252697388Y-93454927D01*
X252504429Y-93375000D01*
X252295571Y-93375000D01*
X252102612Y-93454927D01*
X251954927Y-93602612D01*
X251875000Y-93795571D01*
X249233579Y-93795571D01*
X249195073Y-93702612D01*
X249047388Y-93554927D01*
X248854429Y-93475000D01*
X248645571Y-93475000D01*
X248452612Y-93554927D01*
X248304927Y-93702612D01*
X248300000Y-93714507D01*
X248300000Y-91670571D01*
X250725000Y-91670571D01*
X250725000Y-91879429D01*
X250804927Y-92072388D01*
X250952612Y-92220073D01*
X251145571Y-92300000D01*
X251354429Y-92300000D01*
X251547388Y-92220073D01*
X251695073Y-92072388D01*
X251775000Y-91879429D01*
X251775000Y-91670571D01*
X251695073Y-91477612D01*
X251547388Y-91329927D01*
X251354429Y-91250000D01*
X251145571Y-91250000D01*
X250952612Y-91329927D01*
X250804927Y-91477612D01*
X250725000Y-91670571D01*
X248300000Y-91670571D01*
X248300000Y-91285493D01*
X248304927Y-91297388D01*
X248452612Y-91445073D01*
X248645571Y-91525000D01*
X248854429Y-91525000D01*
X249047388Y-91445073D01*
X249195073Y-91297388D01*
X249275000Y-91104429D01*
X249275000Y-91095571D01*
X253675000Y-91095571D01*
X253675000Y-91304429D01*
X253754927Y-91497388D01*
X253902612Y-91645073D01*
X254095571Y-91725000D01*
X254304429Y-91725000D01*
X254497388Y-91645073D01*
X254645073Y-91497388D01*
X254725000Y-91304429D01*
X254725000Y-91095571D01*
X254645073Y-90902612D01*
X254497388Y-90754927D01*
X254304429Y-90675000D01*
X254095571Y-90675000D01*
X253902612Y-90754927D01*
X253754927Y-90902612D01*
X253675000Y-91095571D01*
X249275000Y-91095571D01*
X249275000Y-90895571D01*
X249195073Y-90702612D01*
X249047388Y-90554927D01*
X248854429Y-90475000D01*
X248645571Y-90475000D01*
X248452612Y-90554927D01*
X248304927Y-90702612D01*
X248300000Y-90714507D01*
X248300000Y-88320571D01*
X249475000Y-88320571D01*
X249475000Y-88529429D01*
X249554927Y-88722388D01*
X249702612Y-88870073D01*
X249895571Y-88950000D01*
X250104429Y-88950000D01*
X250297388Y-88870073D01*
X250445073Y-88722388D01*
X250525000Y-88529429D01*
X250525000Y-88320571D01*
X250445073Y-88127612D01*
X250297388Y-87979927D01*
X250104429Y-87900000D01*
X249895571Y-87900000D01*
X249702612Y-87979927D01*
X249554927Y-88127612D01*
X249475000Y-88320571D01*
X248300000Y-88320571D01*
X248300000Y-88200000D01*
X248277164Y-88085195D01*
X248212132Y-87987868D01*
X248012132Y-87787868D01*
X247914805Y-87722836D01*
X247800000Y-87700000D01*
X247200000Y-87700000D01*
X247085195Y-87722836D01*
X246987868Y-87787868D01*
X246587868Y-88187868D01*
X246522836Y-88285195D01*
X246500000Y-88400000D01*
X246500000Y-89875736D01*
X244875736Y-91500000D01*
X244414784Y-91500000D01*
X244547388Y-91445073D01*
X244695073Y-91297388D01*
X244775000Y-91104429D01*
X244775000Y-90895571D01*
X244695073Y-90702612D01*
X244617461Y-90625000D01*
X244695073Y-90547388D01*
X244775000Y-90354429D01*
X244775000Y-90145571D01*
X244695073Y-89952612D01*
X244547388Y-89804927D01*
X244354429Y-89725000D01*
X244145571Y-89725000D01*
X243952612Y-89804927D01*
X243804927Y-89952612D01*
X243725000Y-90145571D01*
X243725000Y-90354429D01*
X243804927Y-90547388D01*
X243882539Y-90625000D01*
X243804927Y-90702612D01*
X243725000Y-90895571D01*
X243725000Y-91104429D01*
X243804927Y-91297388D01*
X243952612Y-91445073D01*
X244085216Y-91500000D01*
X227924264Y-91500000D01*
X227300000Y-90875736D01*
X227300000Y-89800000D01*
X227277164Y-89685195D01*
X227212132Y-89587868D01*
X226944835Y-89320571D01*
X228850000Y-89320571D01*
X228850000Y-89529429D01*
X228929927Y-89722388D01*
X229077612Y-89870073D01*
X229155290Y-89902249D01*
X229054927Y-90002612D01*
X228975000Y-90195571D01*
X228975000Y-90404429D01*
X229054927Y-90597388D01*
X229202612Y-90745073D01*
X229395571Y-90825000D01*
X229604429Y-90825000D01*
X229797388Y-90745073D01*
X229945073Y-90597388D01*
X230025000Y-90404429D01*
X230025000Y-90195571D01*
X230004290Y-90145571D01*
X241550000Y-90145571D01*
X241550000Y-90354429D01*
X241629927Y-90547388D01*
X241777612Y-90695073D01*
X241970571Y-90775000D01*
X242179429Y-90775000D01*
X242372388Y-90695073D01*
X242520073Y-90547388D01*
X242600000Y-90354429D01*
X242600000Y-90145571D01*
X242520073Y-89952612D01*
X242372388Y-89804927D01*
X242179429Y-89725000D01*
X241970571Y-89725000D01*
X241777612Y-89804927D01*
X241629927Y-89952612D01*
X241550000Y-90145571D01*
X230004290Y-90145571D01*
X229945073Y-90002612D01*
X229797388Y-89854927D01*
X229719710Y-89822751D01*
X229820073Y-89722388D01*
X229900000Y-89529429D01*
X229900000Y-89320571D01*
X235875000Y-89320571D01*
X235875000Y-89529429D01*
X235954927Y-89722388D01*
X236102612Y-89870073D01*
X236295571Y-89950000D01*
X236504429Y-89950000D01*
X236697388Y-89870073D01*
X236845073Y-89722388D01*
X236925000Y-89529429D01*
X236925000Y-89320571D01*
X236852512Y-89145571D01*
X242675000Y-89145571D01*
X242675000Y-89354429D01*
X242754927Y-89547388D01*
X242902612Y-89695073D01*
X243095571Y-89775000D01*
X243304429Y-89775000D01*
X243497388Y-89695073D01*
X243645073Y-89547388D01*
X243725000Y-89354429D01*
X243725000Y-89145571D01*
X243645073Y-88952612D01*
X243497388Y-88804927D01*
X243304429Y-88725000D01*
X243095571Y-88725000D01*
X242902612Y-88804927D01*
X242754927Y-88952612D01*
X242675000Y-89145571D01*
X236852512Y-89145571D01*
X236845073Y-89127612D01*
X236697388Y-88979927D01*
X236504429Y-88900000D01*
X236295571Y-88900000D01*
X236102612Y-88979927D01*
X235954927Y-89127612D01*
X235875000Y-89320571D01*
X229900000Y-89320571D01*
X229820073Y-89127612D01*
X229672388Y-88979927D01*
X229479429Y-88900000D01*
X229270571Y-88900000D01*
X229077612Y-88979927D01*
X228929927Y-89127612D01*
X228850000Y-89320571D01*
X226944835Y-89320571D01*
X226812132Y-89187868D01*
X226714805Y-89122836D01*
X226600000Y-89100000D01*
X225650000Y-89100000D01*
X225535195Y-89122836D01*
X225437868Y-89187868D01*
X225337868Y-89287868D01*
X225272836Y-89385195D01*
X225250000Y-89500000D01*
X225250000Y-89825736D01*
X225175736Y-89900000D01*
X225124264Y-89900000D01*
X224950000Y-89725736D01*
X224950000Y-89500000D01*
X224927164Y-89385195D01*
X224862132Y-89287868D01*
X224762132Y-89187868D01*
X224664805Y-89122836D01*
X224550000Y-89100000D01*
X223400000Y-89100000D01*
X223285195Y-89122836D01*
X223187868Y-89187868D01*
X222987868Y-89387868D01*
X222922836Y-89485195D01*
X222900000Y-89600000D01*
X218107840Y-89600000D01*
X218055073Y-89472612D01*
X217907388Y-89324927D01*
X217714429Y-89245000D01*
X217505571Y-89245000D01*
X217312612Y-89324927D01*
X217164927Y-89472612D01*
X217085000Y-89665571D01*
X214499673Y-89665571D01*
X214525000Y-89604429D01*
X214525000Y-89400000D01*
X214529429Y-89400000D01*
X214722388Y-89320073D01*
X214870073Y-89172388D01*
X214950000Y-88979429D01*
X214950000Y-88770571D01*
X214870073Y-88577612D01*
X214722388Y-88429927D01*
X214529429Y-88350000D01*
X214320571Y-88350000D01*
X214127612Y-88429927D01*
X213979927Y-88577612D01*
X213900000Y-88770571D01*
X213900000Y-88975000D01*
X213895571Y-88975000D01*
X213702612Y-89054927D01*
X213554927Y-89202612D01*
X213475000Y-89395571D01*
X181446459Y-89395571D01*
X181564026Y-89278004D01*
X181800000Y-88708314D01*
X181800000Y-88091686D01*
X181564026Y-87521996D01*
X181212601Y-87170571D01*
X215050000Y-87170571D01*
X215050000Y-87379429D01*
X215129927Y-87572388D01*
X215277612Y-87720073D01*
X215470571Y-87800000D01*
X215587539Y-87800000D01*
X215584927Y-87802612D01*
X215505000Y-87995571D01*
X215505000Y-88204429D01*
X215584927Y-88397388D01*
X215732612Y-88545073D01*
X215925571Y-88625000D01*
X216134429Y-88625000D01*
X216327388Y-88545073D01*
X216475073Y-88397388D01*
X216492394Y-88355571D01*
X221215000Y-88355571D01*
X221215000Y-88564429D01*
X221294927Y-88757388D01*
X221442612Y-88905073D01*
X221635571Y-88985000D01*
X221844429Y-88985000D01*
X222037388Y-88905073D01*
X222185073Y-88757388D01*
X222265000Y-88564429D01*
X222265000Y-88355571D01*
X222185073Y-88162612D01*
X222037388Y-88014927D01*
X221844429Y-87935000D01*
X221635571Y-87935000D01*
X221442612Y-88014927D01*
X221294927Y-88162612D01*
X221215000Y-88355571D01*
X216492394Y-88355571D01*
X216555000Y-88204429D01*
X216555000Y-87995571D01*
X216503223Y-87870571D01*
X226275000Y-87870571D01*
X226275000Y-88079429D01*
X226354927Y-88272388D01*
X226502612Y-88420073D01*
X226695571Y-88500000D01*
X226904429Y-88500000D01*
X227097388Y-88420073D01*
X227245073Y-88272388D01*
X227256185Y-88245561D01*
X245171080Y-88245561D01*
X245171080Y-88454419D01*
X245251007Y-88647378D01*
X245398692Y-88795063D01*
X245591651Y-88874990D01*
X245800509Y-88874990D01*
X245993468Y-88795063D01*
X246141153Y-88647378D01*
X246221080Y-88454419D01*
X246221080Y-88245561D01*
X246196222Y-88185549D01*
X246320993Y-88060778D01*
X246400920Y-87867819D01*
X246400920Y-87658961D01*
X246320993Y-87466002D01*
X246173308Y-87318317D01*
X245980349Y-87238390D01*
X245771491Y-87238390D01*
X245578532Y-87318317D01*
X245430847Y-87466002D01*
X245350920Y-87658961D01*
X245350920Y-87867819D01*
X245375778Y-87927831D01*
X245251007Y-88052602D01*
X245171080Y-88245561D01*
X227256185Y-88245561D01*
X227325000Y-88079429D01*
X227325000Y-87870571D01*
X227245073Y-87677612D01*
X227097388Y-87529927D01*
X226904429Y-87450000D01*
X226695571Y-87450000D01*
X226502612Y-87529927D01*
X226354927Y-87677612D01*
X226275000Y-87870571D01*
X216503223Y-87870571D01*
X216475073Y-87802612D01*
X216327388Y-87654927D01*
X216134429Y-87575000D01*
X216017461Y-87575000D01*
X216020073Y-87572388D01*
X216100000Y-87379429D01*
X216100000Y-87170571D01*
X216020073Y-86977612D01*
X216013032Y-86970571D01*
X232675000Y-86970571D01*
X232675000Y-87179429D01*
X232750831Y-87362500D01*
X232675000Y-87545571D01*
X232675000Y-87754429D01*
X232754927Y-87947388D01*
X232902612Y-88095073D01*
X233095571Y-88175000D01*
X233304429Y-88175000D01*
X233497388Y-88095073D01*
X233645073Y-87947388D01*
X233725000Y-87754429D01*
X233725000Y-87545571D01*
X233649169Y-87362500D01*
X233718313Y-87195571D01*
X250025000Y-87195571D01*
X250025000Y-87404429D01*
X250104927Y-87597388D01*
X250252612Y-87745073D01*
X250445571Y-87825000D01*
X250654429Y-87825000D01*
X250847388Y-87745073D01*
X250995073Y-87597388D01*
X251075000Y-87404429D01*
X251075000Y-87195571D01*
X250995073Y-87002612D01*
X250847388Y-86854927D01*
X250654429Y-86775000D01*
X250445571Y-86775000D01*
X250252612Y-86854927D01*
X250104927Y-87002612D01*
X250025000Y-87195571D01*
X233718313Y-87195571D01*
X233725000Y-87179429D01*
X233725000Y-86970571D01*
X233645073Y-86777612D01*
X233497388Y-86629927D01*
X233304429Y-86550000D01*
X233095571Y-86550000D01*
X232902612Y-86629927D01*
X232754927Y-86777612D01*
X232675000Y-86970571D01*
X216013032Y-86970571D01*
X215872388Y-86829927D01*
X215679429Y-86750000D01*
X215470571Y-86750000D01*
X215277612Y-86829927D01*
X215129927Y-86977612D01*
X215050000Y-87170571D01*
X181212601Y-87170571D01*
X181128004Y-87085974D01*
X180558314Y-86850000D01*
X179941686Y-86850000D01*
X179371996Y-87085974D01*
X178935974Y-87521996D01*
X178700000Y-88091686D01*
X176300000Y-88091686D01*
X176064026Y-87521996D01*
X175628004Y-87085974D01*
X175058314Y-86850000D01*
X174441686Y-86850000D01*
X173871996Y-87085974D01*
X173435974Y-87521996D01*
X173200000Y-88091686D01*
X165375000Y-88091686D01*
X165375000Y-86340870D01*
X176700000Y-86340870D01*
X176700000Y-86659130D01*
X176821793Y-86953164D01*
X177046836Y-87178207D01*
X177340870Y-87300000D01*
X177659130Y-87300000D01*
X177953164Y-87178207D01*
X178178207Y-86953164D01*
X178300000Y-86659130D01*
X178300000Y-86345571D01*
X206100000Y-86345571D01*
X206100000Y-86554429D01*
X206179927Y-86747388D01*
X206327612Y-86895073D01*
X206520571Y-86975000D01*
X206729429Y-86975000D01*
X206922388Y-86895073D01*
X207070073Y-86747388D01*
X207150000Y-86554429D01*
X207150000Y-86345571D01*
X207070073Y-86152612D01*
X207063032Y-86145571D01*
X217350000Y-86145571D01*
X217350000Y-86354429D01*
X217429927Y-86547388D01*
X217577612Y-86695073D01*
X217770571Y-86775000D01*
X217979429Y-86775000D01*
X218172388Y-86695073D01*
X218320073Y-86547388D01*
X218372602Y-86420571D01*
X241650000Y-86420571D01*
X241650000Y-86629429D01*
X241729927Y-86822388D01*
X241877612Y-86970073D01*
X242070571Y-87050000D01*
X242279429Y-87050000D01*
X242472388Y-86970073D01*
X242620073Y-86822388D01*
X242700000Y-86629429D01*
X242700000Y-86420571D01*
X242620073Y-86227612D01*
X242472388Y-86079927D01*
X242279429Y-86000000D01*
X242070571Y-86000000D01*
X241877612Y-86079927D01*
X241729927Y-86227612D01*
X241650000Y-86420571D01*
X218372602Y-86420571D01*
X218400000Y-86354429D01*
X218400000Y-86145571D01*
X218320073Y-85952612D01*
X218172388Y-85804927D01*
X217979429Y-85725000D01*
X217770571Y-85725000D01*
X217577612Y-85804927D01*
X217429927Y-85952612D01*
X217350000Y-86145571D01*
X207063032Y-86145571D01*
X206922388Y-86004927D01*
X206729429Y-85925000D01*
X206520571Y-85925000D01*
X206327612Y-86004927D01*
X206179927Y-86152612D01*
X206100000Y-86345571D01*
X178300000Y-86345571D01*
X178300000Y-86340870D01*
X178178207Y-86046836D01*
X177953164Y-85821793D01*
X177659130Y-85700000D01*
X177340870Y-85700000D01*
X177046836Y-85821793D01*
X176821793Y-86046836D01*
X176700000Y-86340870D01*
X165375000Y-86340870D01*
X165375000Y-85070571D01*
X215000000Y-85070571D01*
X215000000Y-85279429D01*
X215079927Y-85472388D01*
X215227612Y-85620073D01*
X215420571Y-85700000D01*
X215629429Y-85700000D01*
X215760830Y-85645571D01*
X225700000Y-85645571D01*
X225700000Y-85854429D01*
X225779927Y-86047388D01*
X225927612Y-86195073D01*
X226120571Y-86275000D01*
X226329429Y-86275000D01*
X226522388Y-86195073D01*
X226670073Y-86047388D01*
X226750000Y-85854429D01*
X226750000Y-85645571D01*
X226670073Y-85452612D01*
X226522388Y-85304927D01*
X226329429Y-85225000D01*
X226120571Y-85225000D01*
X225927612Y-85304927D01*
X225779927Y-85452612D01*
X225700000Y-85645571D01*
X215760830Y-85645571D01*
X215822388Y-85620073D01*
X215970073Y-85472388D01*
X216050000Y-85279429D01*
X216050000Y-85070571D01*
X215977512Y-84895571D01*
X217325000Y-84895571D01*
X217325000Y-85104429D01*
X217404927Y-85297388D01*
X217552612Y-85445073D01*
X217745571Y-85525000D01*
X217954429Y-85525000D01*
X218147388Y-85445073D01*
X218295073Y-85297388D01*
X218375000Y-85104429D01*
X218375000Y-84895571D01*
X221625000Y-84895571D01*
X221625000Y-85104429D01*
X221704927Y-85297388D01*
X221852612Y-85445073D01*
X222045571Y-85525000D01*
X222254429Y-85525000D01*
X222447388Y-85445073D01*
X222595073Y-85297388D01*
X222675000Y-85104429D01*
X222675000Y-84895571D01*
X222664645Y-84870571D01*
X224250000Y-84870571D01*
X224250000Y-85079429D01*
X224329927Y-85272388D01*
X224477612Y-85420073D01*
X224670571Y-85500000D01*
X224879429Y-85500000D01*
X225072388Y-85420073D01*
X225220073Y-85272388D01*
X225300000Y-85079429D01*
X225300000Y-84945571D01*
X232525000Y-84945571D01*
X232525000Y-85154429D01*
X232604927Y-85347388D01*
X232752612Y-85495073D01*
X232945571Y-85575000D01*
X233154429Y-85575000D01*
X233347388Y-85495073D01*
X233495073Y-85347388D01*
X233525000Y-85275139D01*
X233554927Y-85347388D01*
X233702612Y-85495073D01*
X233895571Y-85575000D01*
X234104429Y-85575000D01*
X234297388Y-85495073D01*
X234445073Y-85347388D01*
X234487500Y-85244961D01*
X234529927Y-85347388D01*
X234677612Y-85495073D01*
X234870571Y-85575000D01*
X235079429Y-85575000D01*
X235272388Y-85495073D01*
X235420073Y-85347388D01*
X235500000Y-85154429D01*
X235500000Y-84970571D01*
X242575000Y-84970571D01*
X242575000Y-85179429D01*
X242654927Y-85372388D01*
X242802612Y-85520073D01*
X242995571Y-85600000D01*
X243204429Y-85600000D01*
X243397388Y-85520073D01*
X243545073Y-85372388D01*
X243625000Y-85179429D01*
X243625000Y-84970571D01*
X243545073Y-84777612D01*
X243397388Y-84629927D01*
X243204429Y-84550000D01*
X242995571Y-84550000D01*
X242802612Y-84629927D01*
X242654927Y-84777612D01*
X242575000Y-84970571D01*
X235500000Y-84970571D01*
X235500000Y-84945571D01*
X235420073Y-84752612D01*
X235272388Y-84604927D01*
X235079429Y-84525000D01*
X234870571Y-84525000D01*
X234677612Y-84604927D01*
X234529927Y-84752612D01*
X234487500Y-84855039D01*
X234445073Y-84752612D01*
X234297388Y-84604927D01*
X234104429Y-84525000D01*
X233895571Y-84525000D01*
X233702612Y-84604927D01*
X233554927Y-84752612D01*
X233525000Y-84824861D01*
X233495073Y-84752612D01*
X233347388Y-84604927D01*
X233154429Y-84525000D01*
X232945571Y-84525000D01*
X232752612Y-84604927D01*
X232604927Y-84752612D01*
X232525000Y-84945571D01*
X225300000Y-84945571D01*
X225300000Y-84870571D01*
X225220073Y-84677612D01*
X225072388Y-84529927D01*
X224879429Y-84450000D01*
X224670571Y-84450000D01*
X224477612Y-84529927D01*
X224329927Y-84677612D01*
X224250000Y-84870571D01*
X222664645Y-84870571D01*
X222595073Y-84702612D01*
X222447388Y-84554927D01*
X222254429Y-84475000D01*
X222045571Y-84475000D01*
X221852612Y-84554927D01*
X221704927Y-84702612D01*
X221625000Y-84895571D01*
X218375000Y-84895571D01*
X218295073Y-84702612D01*
X218147388Y-84554927D01*
X217954429Y-84475000D01*
X217745571Y-84475000D01*
X217552612Y-84554927D01*
X217404927Y-84702612D01*
X217325000Y-84895571D01*
X215977512Y-84895571D01*
X215970073Y-84877612D01*
X215822388Y-84729927D01*
X215629429Y-84650000D01*
X215420571Y-84650000D01*
X215227612Y-84729927D01*
X215079927Y-84877612D01*
X215000000Y-85070571D01*
X165375000Y-85070571D01*
X165375000Y-82791686D01*
X174450000Y-82791686D01*
X174450000Y-83408314D01*
X174685974Y-83978004D01*
X175121996Y-84414026D01*
X175691686Y-84650000D01*
X176308314Y-84650000D01*
X176878004Y-84414026D01*
X177314026Y-83978004D01*
X177550000Y-83408314D01*
X177550000Y-82920571D01*
X199875000Y-82920571D01*
X199875000Y-83129429D01*
X199954927Y-83322388D01*
X200102612Y-83470073D01*
X200295571Y-83550000D01*
X200504429Y-83550000D01*
X200697388Y-83470073D01*
X200771890Y-83395571D01*
X202225000Y-83395571D01*
X202225000Y-83604429D01*
X202304927Y-83797388D01*
X202452612Y-83945073D01*
X202645571Y-84025000D01*
X202854429Y-84025000D01*
X203047388Y-83945073D01*
X203195073Y-83797388D01*
X203275000Y-83604429D01*
X203275000Y-83395571D01*
X203195073Y-83202612D01*
X203047388Y-83054927D01*
X202964447Y-83020571D01*
X215525000Y-83020571D01*
X215525000Y-83229429D01*
X215604927Y-83422388D01*
X215752612Y-83570073D01*
X215945571Y-83650000D01*
X216154429Y-83650000D01*
X216225476Y-83620571D01*
X221625000Y-83620571D01*
X221625000Y-83829429D01*
X221704927Y-84022388D01*
X221852612Y-84170073D01*
X222045571Y-84250000D01*
X222254429Y-84250000D01*
X222447388Y-84170073D01*
X222595073Y-84022388D01*
X222675000Y-83829429D01*
X222675000Y-83620571D01*
X222595073Y-83427612D01*
X222447388Y-83279927D01*
X222254429Y-83200000D01*
X222045571Y-83200000D01*
X221852612Y-83279927D01*
X221704927Y-83427612D01*
X221625000Y-83620571D01*
X216225476Y-83620571D01*
X216347388Y-83570073D01*
X216495073Y-83422388D01*
X216575000Y-83229429D01*
X216575000Y-83020571D01*
X216495073Y-82827612D01*
X216347388Y-82679927D01*
X216154429Y-82600000D01*
X215945571Y-82600000D01*
X215752612Y-82679927D01*
X215604927Y-82827612D01*
X215525000Y-83020571D01*
X202964447Y-83020571D01*
X202854429Y-82975000D01*
X202645571Y-82975000D01*
X202452612Y-83054927D01*
X202304927Y-83202612D01*
X202225000Y-83395571D01*
X200771890Y-83395571D01*
X200845073Y-83322388D01*
X200925000Y-83129429D01*
X200925000Y-82920571D01*
X200845073Y-82727612D01*
X200697388Y-82579927D01*
X200504429Y-82500000D01*
X200295571Y-82500000D01*
X200102612Y-82579927D01*
X199954927Y-82727612D01*
X199875000Y-82920571D01*
X177550000Y-82920571D01*
X177550000Y-82791686D01*
X177314026Y-82221996D01*
X176878004Y-81785974D01*
X176308314Y-81550000D01*
X175691686Y-81550000D01*
X175121996Y-81785974D01*
X174685974Y-82221996D01*
X174450000Y-82791686D01*
X165375000Y-82791686D01*
X165375000Y-81395569D01*
X201875002Y-81395569D01*
X201875002Y-81604427D01*
X201954929Y-81797386D01*
X202102614Y-81945071D01*
X202295573Y-82024998D01*
X202504431Y-82024998D01*
X202697390Y-81945071D01*
X202725000Y-81917461D01*
X202725000Y-82104429D01*
X202804927Y-82297388D01*
X202952612Y-82445073D01*
X203145571Y-82525000D01*
X203354429Y-82525000D01*
X203547388Y-82445073D01*
X203695073Y-82297388D01*
X203775000Y-82104429D01*
X203775000Y-81945571D01*
X203900000Y-81945571D01*
X203900000Y-82154429D01*
X203979927Y-82347388D01*
X204127612Y-82495073D01*
X204320571Y-82575000D01*
X204529429Y-82575000D01*
X204722388Y-82495073D01*
X204870073Y-82347388D01*
X204950000Y-82154429D01*
X204950000Y-82145571D01*
X217400000Y-82145571D01*
X217400000Y-82354429D01*
X217479927Y-82547388D01*
X217627612Y-82695073D01*
X217820571Y-82775000D01*
X218029429Y-82775000D01*
X218222388Y-82695073D01*
X218275000Y-82642461D01*
X218327612Y-82695073D01*
X218520571Y-82775000D01*
X218729429Y-82775000D01*
X218922388Y-82695073D01*
X219070073Y-82547388D01*
X219091536Y-82495571D01*
X221350000Y-82495571D01*
X221350000Y-82704429D01*
X221429927Y-82897388D01*
X221577612Y-83045073D01*
X221770571Y-83125000D01*
X221979429Y-83125000D01*
X222172388Y-83045073D01*
X222320073Y-82897388D01*
X222400000Y-82704429D01*
X222400000Y-82495571D01*
X222320073Y-82302612D01*
X222238032Y-82220571D01*
X224550000Y-82220571D01*
X224550000Y-82429429D01*
X224629927Y-82622388D01*
X224777612Y-82770073D01*
X224970571Y-82850000D01*
X225179429Y-82850000D01*
X225372388Y-82770073D01*
X225520073Y-82622388D01*
X225600000Y-82429429D01*
X225600000Y-82220571D01*
X225520073Y-82027612D01*
X225392461Y-81900000D01*
X229184329Y-81900000D01*
X229246418Y-82212144D01*
X229423233Y-82476767D01*
X229687856Y-82653582D01*
X230000000Y-82715671D01*
X230238001Y-82668330D01*
X231708722Y-84139052D01*
X231729641Y-84170359D01*
X231760948Y-84191278D01*
X231760949Y-84191279D01*
X231853681Y-84253241D01*
X231853682Y-84253241D01*
X231853683Y-84253242D01*
X231924958Y-84267419D01*
X232002612Y-84345073D01*
X232195571Y-84425000D01*
X232404429Y-84425000D01*
X232475476Y-84395571D01*
X243475000Y-84395571D01*
X243475000Y-84604429D01*
X243554927Y-84797388D01*
X243702612Y-84945073D01*
X243895571Y-85025000D01*
X244104429Y-85025000D01*
X244297388Y-84945073D01*
X244445073Y-84797388D01*
X244525000Y-84604429D01*
X244525000Y-84395571D01*
X244975000Y-84395571D01*
X244975000Y-84604429D01*
X245054927Y-84797388D01*
X245202612Y-84945073D01*
X245395571Y-85025000D01*
X245604429Y-85025000D01*
X245797388Y-84945073D01*
X245945073Y-84797388D01*
X246025000Y-84604429D01*
X246025000Y-84395571D01*
X246475000Y-84395571D01*
X246475000Y-84604429D01*
X246554927Y-84797388D01*
X246702612Y-84945073D01*
X246895571Y-85025000D01*
X247104429Y-85025000D01*
X247297388Y-84945073D01*
X247445073Y-84797388D01*
X247525000Y-84604429D01*
X247525000Y-84395571D01*
X247445073Y-84202612D01*
X247297388Y-84054927D01*
X247104429Y-83975000D01*
X246895571Y-83975000D01*
X246702612Y-84054927D01*
X246554927Y-84202612D01*
X246475000Y-84395571D01*
X246025000Y-84395571D01*
X245945073Y-84202612D01*
X245797388Y-84054927D01*
X245604429Y-83975000D01*
X245395571Y-83975000D01*
X245202612Y-84054927D01*
X245054927Y-84202612D01*
X244975000Y-84395571D01*
X244525000Y-84395571D01*
X244445073Y-84202612D01*
X244297388Y-84054927D01*
X244104429Y-83975000D01*
X243895571Y-83975000D01*
X243702612Y-84054927D01*
X243554927Y-84202612D01*
X243475000Y-84395571D01*
X232475476Y-84395571D01*
X232597388Y-84345073D01*
X232745073Y-84197388D01*
X232825000Y-84004429D01*
X232825000Y-83795571D01*
X232745073Y-83602612D01*
X232597388Y-83454927D01*
X232404429Y-83375000D01*
X232195571Y-83375000D01*
X232061051Y-83430721D01*
X230830850Y-82200520D01*
X230910799Y-82120571D01*
X232675000Y-82120571D01*
X232675000Y-82329429D01*
X232754927Y-82522388D01*
X232795039Y-82562500D01*
X232754927Y-82602612D01*
X232675000Y-82795571D01*
X232675000Y-83004429D01*
X232754927Y-83197388D01*
X232902612Y-83345073D01*
X233095571Y-83425000D01*
X233304429Y-83425000D01*
X233497388Y-83345073D01*
X233645073Y-83197388D01*
X233725000Y-83004429D01*
X233725000Y-82795571D01*
X233645073Y-82602612D01*
X233604961Y-82562500D01*
X233645073Y-82522388D01*
X233725000Y-82329429D01*
X233725000Y-82176360D01*
X239750000Y-82176360D01*
X239750000Y-82673640D01*
X239940301Y-83133068D01*
X240291932Y-83484699D01*
X240751360Y-83675000D01*
X241248640Y-83675000D01*
X241708068Y-83484699D01*
X242059699Y-83133068D01*
X242250000Y-82673640D01*
X242250000Y-82176360D01*
X242123339Y-81870571D01*
X243475000Y-81870571D01*
X243475000Y-82079429D01*
X243554927Y-82272388D01*
X243702612Y-82420073D01*
X243895571Y-82500000D01*
X244104429Y-82500000D01*
X244297388Y-82420073D01*
X244445073Y-82272388D01*
X244525000Y-82079429D01*
X244525000Y-81870571D01*
X244975000Y-81870571D01*
X244975000Y-82079429D01*
X245054927Y-82272388D01*
X245202612Y-82420073D01*
X245395571Y-82500000D01*
X245604429Y-82500000D01*
X245797388Y-82420073D01*
X245945073Y-82272388D01*
X246025000Y-82079429D01*
X246025000Y-81870571D01*
X246475000Y-81870571D01*
X246475000Y-82079429D01*
X246554927Y-82272388D01*
X246702612Y-82420073D01*
X246895571Y-82500000D01*
X247104429Y-82500000D01*
X247297388Y-82420073D01*
X247445073Y-82272388D01*
X247525000Y-82079429D01*
X247525000Y-81870571D01*
X247975000Y-81870571D01*
X247975000Y-82079429D01*
X248054927Y-82272388D01*
X248202612Y-82420073D01*
X248395571Y-82500000D01*
X248604429Y-82500000D01*
X248797388Y-82420073D01*
X248945073Y-82272388D01*
X249025000Y-82079429D01*
X249025000Y-81870571D01*
X248945073Y-81677612D01*
X248797388Y-81529927D01*
X248604429Y-81450000D01*
X248395571Y-81450000D01*
X248202612Y-81529927D01*
X248054927Y-81677612D01*
X247975000Y-81870571D01*
X247525000Y-81870571D01*
X247445073Y-81677612D01*
X247297388Y-81529927D01*
X247104429Y-81450000D01*
X246895571Y-81450000D01*
X246702612Y-81529927D01*
X246554927Y-81677612D01*
X246475000Y-81870571D01*
X246025000Y-81870571D01*
X245945073Y-81677612D01*
X245797388Y-81529927D01*
X245604429Y-81450000D01*
X245395571Y-81450000D01*
X245202612Y-81529927D01*
X245054927Y-81677612D01*
X244975000Y-81870571D01*
X244525000Y-81870571D01*
X244445073Y-81677612D01*
X244297388Y-81529927D01*
X244104429Y-81450000D01*
X243895571Y-81450000D01*
X243702612Y-81529927D01*
X243554927Y-81677612D01*
X243475000Y-81870571D01*
X242123339Y-81870571D01*
X242059699Y-81716932D01*
X241708068Y-81365301D01*
X241248640Y-81175000D01*
X240751360Y-81175000D01*
X240291932Y-81365301D01*
X239940301Y-81716932D01*
X239750000Y-82176360D01*
X233725000Y-82176360D01*
X233725000Y-82120571D01*
X233645073Y-81927612D01*
X233497388Y-81779927D01*
X233304429Y-81700000D01*
X233095571Y-81700000D01*
X232902612Y-81779927D01*
X232754927Y-81927612D01*
X232675000Y-82120571D01*
X230910799Y-82120571D01*
X232231371Y-80800000D01*
X250668630Y-80800000D01*
X251341165Y-81472536D01*
X251202612Y-81529927D01*
X251054927Y-81677612D01*
X250975000Y-81870571D01*
X250975000Y-82079429D01*
X251054927Y-82272388D01*
X251202612Y-82420073D01*
X251395571Y-82500000D01*
X251604429Y-82500000D01*
X251700000Y-82460413D01*
X251700001Y-84014587D01*
X251604429Y-83975000D01*
X251395571Y-83975000D01*
X251202612Y-84054927D01*
X251054927Y-84202612D01*
X251004233Y-84324996D01*
X250979756Y-84324996D01*
X250921452Y-84184240D01*
X250773767Y-84036555D01*
X250580808Y-83956628D01*
X250371950Y-83956628D01*
X250178991Y-84036555D01*
X250031306Y-84184240D01*
X249984384Y-84297517D01*
X249945073Y-84202612D01*
X249797388Y-84054927D01*
X249604429Y-83975000D01*
X249395571Y-83975000D01*
X249202612Y-84054927D01*
X249054927Y-84202612D01*
X249000000Y-84335216D01*
X248945073Y-84202612D01*
X248797388Y-84054927D01*
X248604429Y-83975000D01*
X248395571Y-83975000D01*
X248202612Y-84054927D01*
X248054927Y-84202612D01*
X247975000Y-84395571D01*
X247975000Y-84604429D01*
X248054927Y-84797388D01*
X248202612Y-84945073D01*
X248395571Y-85025000D01*
X248604429Y-85025000D01*
X248797388Y-84945073D01*
X248945073Y-84797388D01*
X249000000Y-84664784D01*
X249054927Y-84797388D01*
X249057539Y-84800000D01*
X249004927Y-84852612D01*
X248925000Y-85045571D01*
X248925000Y-85254429D01*
X249004927Y-85447388D01*
X249152612Y-85595073D01*
X249345571Y-85675000D01*
X249554429Y-85675000D01*
X249747388Y-85595073D01*
X249895073Y-85447388D01*
X249975000Y-85254429D01*
X249975000Y-85045571D01*
X249895073Y-84852612D01*
X249892461Y-84850000D01*
X249945073Y-84797388D01*
X249991995Y-84684111D01*
X250031306Y-84779016D01*
X250178991Y-84926701D01*
X250371950Y-85006628D01*
X250496623Y-85006628D01*
X250554927Y-85147384D01*
X250702612Y-85295069D01*
X250895571Y-85374996D01*
X251104429Y-85374996D01*
X251297388Y-85295069D01*
X251445073Y-85147384D01*
X251495767Y-85025000D01*
X251604429Y-85025000D01*
X251700001Y-84985412D01*
X251700001Y-85078789D01*
X251746418Y-85312144D01*
X251923234Y-85576767D01*
X252187857Y-85753583D01*
X252500000Y-85815672D01*
X252812144Y-85753583D01*
X253076767Y-85576767D01*
X253253583Y-85312144D01*
X253300000Y-85078789D01*
X253300000Y-82176360D01*
X254250000Y-82176360D01*
X254250000Y-82673640D01*
X254440301Y-83133068D01*
X254791932Y-83484699D01*
X255251360Y-83675000D01*
X255748640Y-83675000D01*
X256208068Y-83484699D01*
X256559699Y-83133068D01*
X256750000Y-82673640D01*
X256750000Y-82176360D01*
X256559699Y-81716932D01*
X256208068Y-81365301D01*
X255748640Y-81175000D01*
X255251360Y-81175000D01*
X254791932Y-81365301D01*
X254440301Y-81716932D01*
X254250000Y-82176360D01*
X253300000Y-82176360D01*
X253300000Y-81578783D01*
X253315671Y-81499999D01*
X253300000Y-81421215D01*
X253300000Y-81421211D01*
X253253583Y-81187856D01*
X253076767Y-80923233D01*
X253009975Y-80878604D01*
X252026942Y-79895571D01*
X263475000Y-79895571D01*
X263475000Y-80104429D01*
X263554927Y-80297388D01*
X263702612Y-80445073D01*
X263895571Y-80525000D01*
X264104429Y-80525000D01*
X264297388Y-80445073D01*
X264445073Y-80297388D01*
X264525000Y-80104429D01*
X264525000Y-79895571D01*
X264445073Y-79702612D01*
X264297388Y-79554927D01*
X264104429Y-79475000D01*
X263895571Y-79475000D01*
X263702612Y-79554927D01*
X263554927Y-79702612D01*
X263475000Y-79895571D01*
X252026942Y-79895571D01*
X251621398Y-79490028D01*
X251576767Y-79423233D01*
X251312144Y-79246417D01*
X251078789Y-79200000D01*
X251078784Y-79200000D01*
X251000000Y-79184329D01*
X250921216Y-79200000D01*
X231978784Y-79200000D01*
X231900000Y-79184329D01*
X231821216Y-79200000D01*
X231821211Y-79200000D01*
X231587856Y-79246417D01*
X231323233Y-79423233D01*
X231278603Y-79490026D01*
X229378603Y-81390027D01*
X229246418Y-81587856D01*
X229184329Y-81900000D01*
X225392461Y-81900000D01*
X225372388Y-81879927D01*
X225179429Y-81800000D01*
X224970571Y-81800000D01*
X224777612Y-81879927D01*
X224629927Y-82027612D01*
X224550000Y-82220571D01*
X222238032Y-82220571D01*
X222172388Y-82154927D01*
X221979429Y-82075000D01*
X221770571Y-82075000D01*
X221577612Y-82154927D01*
X221429927Y-82302612D01*
X221350000Y-82495571D01*
X219091536Y-82495571D01*
X219150000Y-82354429D01*
X219150000Y-82145571D01*
X219070073Y-81952612D01*
X218922388Y-81804927D01*
X218729429Y-81725000D01*
X218520571Y-81725000D01*
X218327612Y-81804927D01*
X218275000Y-81857539D01*
X218222388Y-81804927D01*
X218029429Y-81725000D01*
X217820571Y-81725000D01*
X217627612Y-81804927D01*
X217479927Y-81952612D01*
X217400000Y-82145571D01*
X204950000Y-82145571D01*
X204950000Y-82075008D01*
X205104429Y-82075008D01*
X205297388Y-81995081D01*
X205445073Y-81847396D01*
X205525000Y-81654437D01*
X205525000Y-81445579D01*
X205445073Y-81252620D01*
X205297388Y-81104935D01*
X205104429Y-81025008D01*
X204895571Y-81025008D01*
X204702612Y-81104935D01*
X204554927Y-81252620D01*
X204475000Y-81445579D01*
X204475000Y-81525000D01*
X204320571Y-81525000D01*
X204127612Y-81604927D01*
X203979927Y-81752612D01*
X203900000Y-81945571D01*
X203775000Y-81945571D01*
X203775000Y-81895571D01*
X203695073Y-81702612D01*
X203547388Y-81554927D01*
X203354429Y-81475000D01*
X203145571Y-81475000D01*
X202952612Y-81554927D01*
X202925002Y-81582537D01*
X202925002Y-81395569D01*
X202845075Y-81202610D01*
X202697390Y-81054925D01*
X202554099Y-80995571D01*
X222175000Y-80995571D01*
X222175000Y-81204429D01*
X222254927Y-81397388D01*
X222402612Y-81545073D01*
X222595571Y-81625000D01*
X222804429Y-81625000D01*
X222997388Y-81545073D01*
X223145073Y-81397388D01*
X223225000Y-81204429D01*
X223225000Y-80995571D01*
X223145073Y-80802612D01*
X222997388Y-80654927D01*
X222804429Y-80575000D01*
X222595571Y-80575000D01*
X222402612Y-80654927D01*
X222254927Y-80802612D01*
X222175000Y-80995571D01*
X202554099Y-80995571D01*
X202504431Y-80974998D01*
X202295573Y-80974998D01*
X202102614Y-81054925D01*
X201954929Y-81202610D01*
X201875002Y-81395569D01*
X165375000Y-81395569D01*
X165375000Y-79895571D01*
X165475000Y-79895571D01*
X165475000Y-80104429D01*
X165554927Y-80297388D01*
X165702612Y-80445073D01*
X165895571Y-80525000D01*
X166104429Y-80525000D01*
X166297388Y-80445073D01*
X166445073Y-80297388D01*
X166525000Y-80104429D01*
X166525000Y-79895571D01*
X166445073Y-79702612D01*
X166297388Y-79554927D01*
X166104429Y-79475000D01*
X165895571Y-79475000D01*
X165702612Y-79554927D01*
X165554927Y-79702612D01*
X165475000Y-79895571D01*
X165375000Y-79895571D01*
X165375000Y-77523593D01*
X165400000Y-77325697D01*
X165400000Y-77917716D01*
X165719706Y-78689554D01*
X166310446Y-79280294D01*
X167082284Y-79600000D01*
X167917716Y-79600000D01*
X168689554Y-79280294D01*
X169128978Y-78840870D01*
X176700000Y-78840870D01*
X176700000Y-79159130D01*
X176821793Y-79453164D01*
X177046836Y-79678207D01*
X177340870Y-79800000D01*
X177659130Y-79800000D01*
X177759042Y-79758615D01*
X220475000Y-79758615D01*
X220475000Y-80166385D01*
X220631047Y-80543116D01*
X220919384Y-80831453D01*
X221296115Y-80987500D01*
X221703885Y-80987500D01*
X222080616Y-80831453D01*
X222368953Y-80543116D01*
X222525000Y-80166385D01*
X222525000Y-79758615D01*
X225475000Y-79758615D01*
X225475000Y-80166385D01*
X225631047Y-80543116D01*
X225919384Y-80831453D01*
X226296115Y-80987500D01*
X226703885Y-80987500D01*
X227080616Y-80831453D01*
X227368953Y-80543116D01*
X227525000Y-80166385D01*
X227525000Y-79758615D01*
X227368953Y-79381884D01*
X227080616Y-79093547D01*
X226703885Y-78937500D01*
X226296115Y-78937500D01*
X225919384Y-79093547D01*
X225631047Y-79381884D01*
X225475000Y-79758615D01*
X222525000Y-79758615D01*
X222368953Y-79381884D01*
X222080616Y-79093547D01*
X221703885Y-78937500D01*
X221296115Y-78937500D01*
X220919384Y-79093547D01*
X220631047Y-79381884D01*
X220475000Y-79758615D01*
X177759042Y-79758615D01*
X177953164Y-79678207D01*
X178178207Y-79453164D01*
X178300000Y-79159130D01*
X178300000Y-78870571D01*
X198200000Y-78870571D01*
X198200000Y-79079429D01*
X198279927Y-79272388D01*
X198427612Y-79420073D01*
X198620571Y-79500000D01*
X198829429Y-79500000D01*
X199022388Y-79420073D01*
X199170073Y-79272388D01*
X199250000Y-79079429D01*
X199250000Y-78870571D01*
X199170073Y-78677612D01*
X199022388Y-78529927D01*
X198829429Y-78450000D01*
X198620571Y-78450000D01*
X198427612Y-78529927D01*
X198279927Y-78677612D01*
X198200000Y-78870571D01*
X178300000Y-78870571D01*
X178300000Y-78840870D01*
X178178207Y-78546836D01*
X177953164Y-78321793D01*
X177659130Y-78200000D01*
X177340870Y-78200000D01*
X177046836Y-78321793D01*
X176821793Y-78546836D01*
X176700000Y-78840870D01*
X169128978Y-78840870D01*
X169280294Y-78689554D01*
X169567751Y-77995571D01*
X189575000Y-77995571D01*
X189575000Y-78204429D01*
X189654927Y-78397388D01*
X189802612Y-78545073D01*
X189995571Y-78625000D01*
X190204429Y-78625000D01*
X190397388Y-78545073D01*
X190545073Y-78397388D01*
X190625000Y-78204429D01*
X190625000Y-77995571D01*
X190604290Y-77945571D01*
X192125000Y-77945571D01*
X192125000Y-78154429D01*
X192204927Y-78347388D01*
X192352612Y-78495073D01*
X192545571Y-78575000D01*
X192754429Y-78575000D01*
X192947388Y-78495073D01*
X192996890Y-78445571D01*
X202400000Y-78445571D01*
X202400000Y-78654429D01*
X202479927Y-78847388D01*
X202627612Y-78995073D01*
X202820571Y-79075000D01*
X203029429Y-79075000D01*
X203100476Y-79045571D01*
X205350000Y-79045571D01*
X205350000Y-79254429D01*
X205429927Y-79447388D01*
X205577612Y-79595073D01*
X205770571Y-79675000D01*
X205979429Y-79675000D01*
X206172388Y-79595073D01*
X206320073Y-79447388D01*
X206400000Y-79254429D01*
X206400000Y-79045571D01*
X206320073Y-78852612D01*
X206172388Y-78704927D01*
X205979429Y-78625000D01*
X205770571Y-78625000D01*
X205577612Y-78704927D01*
X205429927Y-78852612D01*
X205350000Y-79045571D01*
X203100476Y-79045571D01*
X203222388Y-78995073D01*
X203370073Y-78847388D01*
X203450000Y-78654429D01*
X203450000Y-78445571D01*
X203370073Y-78252612D01*
X203222388Y-78104927D01*
X203029429Y-78025000D01*
X202820571Y-78025000D01*
X202627612Y-78104927D01*
X202479927Y-78252612D01*
X202400000Y-78445571D01*
X192996890Y-78445571D01*
X193095073Y-78347388D01*
X193175000Y-78154429D01*
X193175000Y-77945571D01*
X193095073Y-77752612D01*
X192947388Y-77604927D01*
X192754429Y-77525000D01*
X192545571Y-77525000D01*
X192352612Y-77604927D01*
X192204927Y-77752612D01*
X192125000Y-77945571D01*
X190604290Y-77945571D01*
X190545073Y-77802612D01*
X190397388Y-77654927D01*
X190204429Y-77575000D01*
X189995571Y-77575000D01*
X189802612Y-77654927D01*
X189654927Y-77802612D01*
X189575000Y-77995571D01*
X169567751Y-77995571D01*
X169600000Y-77917716D01*
X169600000Y-77082284D01*
X169522661Y-76895571D01*
X203950000Y-76895571D01*
X203950000Y-77104429D01*
X204029927Y-77297388D01*
X204177612Y-77445073D01*
X204370571Y-77525000D01*
X204579429Y-77525000D01*
X204772388Y-77445073D01*
X204920073Y-77297388D01*
X205000000Y-77104429D01*
X205000000Y-76895571D01*
X204970296Y-76823858D01*
X219600000Y-76823858D01*
X219600000Y-77701141D01*
X219652219Y-77963662D01*
X219851136Y-78261364D01*
X220148837Y-78460281D01*
X220500000Y-78530132D01*
X220851162Y-78460281D01*
X221148864Y-78261364D01*
X221347781Y-77963663D01*
X221400000Y-77701142D01*
X221400000Y-76823859D01*
X226600000Y-76823859D01*
X226600000Y-77701142D01*
X226652220Y-77963663D01*
X226851137Y-78261364D01*
X227148838Y-78460281D01*
X227500000Y-78530132D01*
X227851163Y-78460281D01*
X228148864Y-78261364D01*
X228347781Y-77963663D01*
X228400000Y-77701142D01*
X228400000Y-77695571D01*
X233875000Y-77695571D01*
X233875000Y-77904429D01*
X233954927Y-78097388D01*
X234102612Y-78245073D01*
X234295571Y-78325000D01*
X234504429Y-78325000D01*
X234697388Y-78245073D01*
X234845073Y-78097388D01*
X234925000Y-77904429D01*
X234925000Y-77695571D01*
X234845073Y-77502612D01*
X234697388Y-77354927D01*
X234507713Y-77276360D01*
X239150000Y-77276360D01*
X239150000Y-77773640D01*
X239340301Y-78233068D01*
X239691932Y-78584699D01*
X240151360Y-78775000D01*
X240648640Y-78775000D01*
X241108068Y-78584699D01*
X241459699Y-78233068D01*
X241650000Y-77773640D01*
X241650000Y-77276360D01*
X254850000Y-77276360D01*
X254850000Y-77773640D01*
X255040301Y-78233068D01*
X255391932Y-78584699D01*
X255851360Y-78775000D01*
X256348640Y-78775000D01*
X256808068Y-78584699D01*
X257159699Y-78233068D01*
X257350000Y-77773640D01*
X257350000Y-77276360D01*
X257159699Y-76816932D01*
X256808068Y-76465301D01*
X256348640Y-76275000D01*
X255851360Y-76275000D01*
X255391932Y-76465301D01*
X255040301Y-76816932D01*
X254850000Y-77276360D01*
X241650000Y-77276360D01*
X241459699Y-76816932D01*
X241108068Y-76465301D01*
X240648640Y-76275000D01*
X240151360Y-76275000D01*
X239691932Y-76465301D01*
X239340301Y-76816932D01*
X239150000Y-77276360D01*
X234507713Y-77276360D01*
X234504429Y-77275000D01*
X234295571Y-77275000D01*
X234102612Y-77354927D01*
X233954927Y-77502612D01*
X233875000Y-77695571D01*
X228400000Y-77695571D01*
X228400000Y-76823858D01*
X228347781Y-76561337D01*
X228148864Y-76263636D01*
X227851162Y-76064719D01*
X227500000Y-75994868D01*
X227148837Y-76064719D01*
X226851136Y-76263636D01*
X226652219Y-76561338D01*
X226600000Y-76823859D01*
X221400000Y-76823859D01*
X221400000Y-76823858D01*
X221347781Y-76561337D01*
X221148864Y-76263636D01*
X220851163Y-76064719D01*
X220500000Y-75994868D01*
X220148838Y-76064719D01*
X219851137Y-76263636D01*
X219652220Y-76561337D01*
X219600000Y-76823858D01*
X204970296Y-76823858D01*
X204920073Y-76702612D01*
X204772388Y-76554927D01*
X204579429Y-76475000D01*
X204370571Y-76475000D01*
X204177612Y-76554927D01*
X204029927Y-76702612D01*
X203950000Y-76895571D01*
X169522661Y-76895571D01*
X169280294Y-76310446D01*
X168865419Y-75895571D01*
X169475000Y-75895571D01*
X169475000Y-76104429D01*
X169554927Y-76297388D01*
X169702612Y-76445073D01*
X169895571Y-76525000D01*
X170104429Y-76525000D01*
X170297388Y-76445073D01*
X170445073Y-76297388D01*
X170525000Y-76104429D01*
X170525000Y-75895571D01*
X259475000Y-75895571D01*
X259475000Y-76104429D01*
X259554927Y-76297388D01*
X259702612Y-76445073D01*
X259895571Y-76525000D01*
X260104429Y-76525000D01*
X260297388Y-76445073D01*
X260445073Y-76297388D01*
X260525000Y-76104429D01*
X260525000Y-75895571D01*
X260445073Y-75702612D01*
X260297388Y-75554927D01*
X260104429Y-75475000D01*
X259895571Y-75475000D01*
X259702612Y-75554927D01*
X259554927Y-75702612D01*
X259475000Y-75895571D01*
X170525000Y-75895571D01*
X170445073Y-75702612D01*
X170297388Y-75554927D01*
X170104429Y-75475000D01*
X169895571Y-75475000D01*
X169702612Y-75554927D01*
X169554927Y-75702612D01*
X169475000Y-75895571D01*
X168865419Y-75895571D01*
X168689554Y-75719706D01*
X167917716Y-75400000D01*
X167273279Y-75400000D01*
X167384303Y-75378821D01*
X167505891Y-75375000D01*
X262476407Y-75375000D01*
X262674303Y-75400000D01*
D17*
G04 #@! TO.N,+1V1*
G36*
X247925000Y-88231066D02*
X247925000Y-96418934D01*
X247546967Y-96796967D01*
X247530709Y-96821299D01*
X247525000Y-96850000D01*
X247525000Y-97050000D01*
X247530709Y-97078701D01*
X247546967Y-97103033D01*
X247575000Y-97131066D01*
X247575000Y-97318934D01*
X247168934Y-97725000D01*
X246631066Y-97725000D01*
X245965099Y-97059033D01*
X246003090Y-97021042D01*
X246071598Y-96855648D01*
X246071598Y-96676626D01*
X246003090Y-96511232D01*
X245876503Y-96384645D01*
X245711109Y-96316137D01*
X245532087Y-96316137D01*
X245366693Y-96384645D01*
X245328702Y-96422636D01*
X243253033Y-94346967D01*
X243228701Y-94330709D01*
X243200000Y-94325000D01*
X242481066Y-94325000D01*
X242475000Y-94318934D01*
X242475000Y-94100000D01*
X242469291Y-94071299D01*
X242453033Y-94046967D01*
X242353033Y-93946967D01*
X242328701Y-93930709D01*
X242314227Y-93927830D01*
X242296886Y-93910489D01*
X243800000Y-93910489D01*
X243800000Y-94089511D01*
X243868508Y-94254905D01*
X243995095Y-94381492D01*
X244160489Y-94450000D01*
X244339511Y-94450000D01*
X244504905Y-94381492D01*
X244631492Y-94254905D01*
X244700000Y-94089511D01*
X244700000Y-93910489D01*
X246050000Y-93910489D01*
X246050000Y-94089511D01*
X246118508Y-94254905D01*
X246245095Y-94381492D01*
X246410489Y-94450000D01*
X246589511Y-94450000D01*
X246754905Y-94381492D01*
X246881492Y-94254905D01*
X246950000Y-94089511D01*
X246950000Y-93910489D01*
X246881492Y-93745095D01*
X246754905Y-93618508D01*
X246589511Y-93550000D01*
X246410489Y-93550000D01*
X246245095Y-93618508D01*
X246118508Y-93745095D01*
X246050000Y-93910489D01*
X244700000Y-93910489D01*
X244631492Y-93745095D01*
X244504905Y-93618508D01*
X244339511Y-93550000D01*
X244160489Y-93550000D01*
X243995095Y-93618508D01*
X243868508Y-93745095D01*
X243800000Y-93910489D01*
X242296886Y-93910489D01*
X242204905Y-93818508D01*
X242039511Y-93750000D01*
X241860489Y-93750000D01*
X241695095Y-93818508D01*
X241568508Y-93945095D01*
X241547061Y-93996873D01*
X241496967Y-94046967D01*
X241480709Y-94071299D01*
X241475000Y-94100000D01*
X241475000Y-94268934D01*
X241418934Y-94325000D01*
X228631066Y-94325000D01*
X227853033Y-93546967D01*
X227828701Y-93530709D01*
X227800000Y-93525000D01*
X227600000Y-93525000D01*
X227571299Y-93530709D01*
X227546967Y-93546967D01*
X227543934Y-93550000D01*
X227510489Y-93550000D01*
X227345095Y-93618508D01*
X227218508Y-93745095D01*
X227150000Y-93910489D01*
X227150000Y-93943934D01*
X226946967Y-94146967D01*
X226930709Y-94171299D01*
X226925000Y-94200000D01*
X226925000Y-94968934D01*
X226368934Y-95525000D01*
X225831066Y-95525000D01*
X225475000Y-95168934D01*
X225475000Y-94800000D01*
X225469291Y-94771299D01*
X225453033Y-94746967D01*
X223921232Y-93215166D01*
X223981492Y-93154905D01*
X224050000Y-92989511D01*
X224050000Y-92810489D01*
X223981492Y-92645095D01*
X223854905Y-92518508D01*
X223810222Y-92500000D01*
X223854905Y-92481492D01*
X223981492Y-92354905D01*
X224050000Y-92189511D01*
X224050000Y-92010489D01*
X224550000Y-92010489D01*
X224550000Y-92189511D01*
X224618508Y-92354905D01*
X224745095Y-92481492D01*
X224789778Y-92500000D01*
X224745095Y-92518508D01*
X224618508Y-92645095D01*
X224550000Y-92810489D01*
X224550000Y-92989511D01*
X224618508Y-93154905D01*
X224745095Y-93281492D01*
X224910489Y-93350000D01*
X225089511Y-93350000D01*
X225254905Y-93281492D01*
X225381492Y-93154905D01*
X225450000Y-92989511D01*
X225450000Y-92810489D01*
X225381492Y-92645095D01*
X225254905Y-92518508D01*
X225210222Y-92500000D01*
X225254905Y-92481492D01*
X225381492Y-92354905D01*
X225450000Y-92189511D01*
X225450000Y-92010489D01*
X225950000Y-92010489D01*
X225950000Y-92189511D01*
X226018508Y-92354905D01*
X226145095Y-92481492D01*
X226189778Y-92500000D01*
X226145095Y-92518508D01*
X226018508Y-92645095D01*
X225950000Y-92810489D01*
X225950000Y-92989511D01*
X226018508Y-93154905D01*
X226145095Y-93281492D01*
X226310489Y-93350000D01*
X226489511Y-93350000D01*
X226654905Y-93281492D01*
X226781492Y-93154905D01*
X226850000Y-92989511D01*
X226850000Y-92810489D01*
X226781492Y-92645095D01*
X226654905Y-92518508D01*
X226610222Y-92500000D01*
X226654905Y-92481492D01*
X226781492Y-92354905D01*
X226850000Y-92189511D01*
X226850000Y-92010489D01*
X226781492Y-91845095D01*
X226654905Y-91718508D01*
X226489511Y-91650000D01*
X226310489Y-91650000D01*
X226145095Y-91718508D01*
X226018508Y-91845095D01*
X225950000Y-92010489D01*
X225450000Y-92010489D01*
X225381492Y-91845095D01*
X225254905Y-91718508D01*
X225089511Y-91650000D01*
X224910489Y-91650000D01*
X224745095Y-91718508D01*
X224618508Y-91845095D01*
X224550000Y-92010489D01*
X224050000Y-92010489D01*
X223981492Y-91845095D01*
X223854905Y-91718508D01*
X223689511Y-91650000D01*
X223675000Y-91650000D01*
X223675000Y-90400000D01*
X223669291Y-90371299D01*
X223653033Y-90346967D01*
X223275000Y-89968934D01*
X223275000Y-89631066D01*
X223431066Y-89475000D01*
X224518934Y-89475000D01*
X224575000Y-89531066D01*
X224575000Y-89850000D01*
X224580709Y-89878701D01*
X224596967Y-89903033D01*
X224797061Y-90103127D01*
X224818508Y-90154905D01*
X224945095Y-90281492D01*
X225110489Y-90350000D01*
X225289511Y-90350000D01*
X225454905Y-90281492D01*
X225581492Y-90154905D01*
X225650000Y-89989511D01*
X225650000Y-89810489D01*
X225625000Y-89750133D01*
X225625000Y-89531066D01*
X225681066Y-89475000D01*
X226568934Y-89475000D01*
X226925000Y-89831066D01*
X226925000Y-91000000D01*
X226930709Y-91028701D01*
X226946967Y-91053033D01*
X227746967Y-91853033D01*
X227771299Y-91869291D01*
X227800000Y-91875000D01*
X245000000Y-91875000D01*
X245028701Y-91869291D01*
X245053033Y-91853033D01*
X246088482Y-90817584D01*
X246050000Y-90910489D01*
X246050000Y-91089511D01*
X246118508Y-91254905D01*
X246245095Y-91381492D01*
X246410489Y-91450000D01*
X246589511Y-91450000D01*
X246754905Y-91381492D01*
X246881492Y-91254905D01*
X246950000Y-91089511D01*
X246950000Y-90910489D01*
X246881492Y-90745095D01*
X246754905Y-90618508D01*
X246589511Y-90550000D01*
X246410489Y-90550000D01*
X246317584Y-90588482D01*
X246853033Y-90053033D01*
X246869291Y-90028701D01*
X246875000Y-90000000D01*
X246875000Y-88431066D01*
X247231066Y-88075000D01*
X247768934Y-88075000D01*
X247925000Y-88231066D01*
X247925000Y-88231066D01*
G37*
X247925000Y-88231066D02*
X247925000Y-96418934D01*
X247546967Y-96796967D01*
X247530709Y-96821299D01*
X247525000Y-96850000D01*
X247525000Y-97050000D01*
X247530709Y-97078701D01*
X247546967Y-97103033D01*
X247575000Y-97131066D01*
X247575000Y-97318934D01*
X247168934Y-97725000D01*
X246631066Y-97725000D01*
X245965099Y-97059033D01*
X246003090Y-97021042D01*
X246071598Y-96855648D01*
X246071598Y-96676626D01*
X246003090Y-96511232D01*
X245876503Y-96384645D01*
X245711109Y-96316137D01*
X245532087Y-96316137D01*
X245366693Y-96384645D01*
X245328702Y-96422636D01*
X243253033Y-94346967D01*
X243228701Y-94330709D01*
X243200000Y-94325000D01*
X242481066Y-94325000D01*
X242475000Y-94318934D01*
X242475000Y-94100000D01*
X242469291Y-94071299D01*
X242453033Y-94046967D01*
X242353033Y-93946967D01*
X242328701Y-93930709D01*
X242314227Y-93927830D01*
X242296886Y-93910489D01*
X243800000Y-93910489D01*
X243800000Y-94089511D01*
X243868508Y-94254905D01*
X243995095Y-94381492D01*
X244160489Y-94450000D01*
X244339511Y-94450000D01*
X244504905Y-94381492D01*
X244631492Y-94254905D01*
X244700000Y-94089511D01*
X244700000Y-93910489D01*
X246050000Y-93910489D01*
X246050000Y-94089511D01*
X246118508Y-94254905D01*
X246245095Y-94381492D01*
X246410489Y-94450000D01*
X246589511Y-94450000D01*
X246754905Y-94381492D01*
X246881492Y-94254905D01*
X246950000Y-94089511D01*
X246950000Y-93910489D01*
X246881492Y-93745095D01*
X246754905Y-93618508D01*
X246589511Y-93550000D01*
X246410489Y-93550000D01*
X246245095Y-93618508D01*
X246118508Y-93745095D01*
X246050000Y-93910489D01*
X244700000Y-93910489D01*
X244631492Y-93745095D01*
X244504905Y-93618508D01*
X244339511Y-93550000D01*
X244160489Y-93550000D01*
X243995095Y-93618508D01*
X243868508Y-93745095D01*
X243800000Y-93910489D01*
X242296886Y-93910489D01*
X242204905Y-93818508D01*
X242039511Y-93750000D01*
X241860489Y-93750000D01*
X241695095Y-93818508D01*
X241568508Y-93945095D01*
X241547061Y-93996873D01*
X241496967Y-94046967D01*
X241480709Y-94071299D01*
X241475000Y-94100000D01*
X241475000Y-94268934D01*
X241418934Y-94325000D01*
X228631066Y-94325000D01*
X227853033Y-93546967D01*
X227828701Y-93530709D01*
X227800000Y-93525000D01*
X227600000Y-93525000D01*
X227571299Y-93530709D01*
X227546967Y-93546967D01*
X227543934Y-93550000D01*
X227510489Y-93550000D01*
X227345095Y-93618508D01*
X227218508Y-93745095D01*
X227150000Y-93910489D01*
X227150000Y-93943934D01*
X226946967Y-94146967D01*
X226930709Y-94171299D01*
X226925000Y-94200000D01*
X226925000Y-94968934D01*
X226368934Y-95525000D01*
X225831066Y-95525000D01*
X225475000Y-95168934D01*
X225475000Y-94800000D01*
X225469291Y-94771299D01*
X225453033Y-94746967D01*
X223921232Y-93215166D01*
X223981492Y-93154905D01*
X224050000Y-92989511D01*
X224050000Y-92810489D01*
X223981492Y-92645095D01*
X223854905Y-92518508D01*
X223810222Y-92500000D01*
X223854905Y-92481492D01*
X223981492Y-92354905D01*
X224050000Y-92189511D01*
X224050000Y-92010489D01*
X224550000Y-92010489D01*
X224550000Y-92189511D01*
X224618508Y-92354905D01*
X224745095Y-92481492D01*
X224789778Y-92500000D01*
X224745095Y-92518508D01*
X224618508Y-92645095D01*
X224550000Y-92810489D01*
X224550000Y-92989511D01*
X224618508Y-93154905D01*
X224745095Y-93281492D01*
X224910489Y-93350000D01*
X225089511Y-93350000D01*
X225254905Y-93281492D01*
X225381492Y-93154905D01*
X225450000Y-92989511D01*
X225450000Y-92810489D01*
X225381492Y-92645095D01*
X225254905Y-92518508D01*
X225210222Y-92500000D01*
X225254905Y-92481492D01*
X225381492Y-92354905D01*
X225450000Y-92189511D01*
X225450000Y-92010489D01*
X225950000Y-92010489D01*
X225950000Y-92189511D01*
X226018508Y-92354905D01*
X226145095Y-92481492D01*
X226189778Y-92500000D01*
X226145095Y-92518508D01*
X226018508Y-92645095D01*
X225950000Y-92810489D01*
X225950000Y-92989511D01*
X226018508Y-93154905D01*
X226145095Y-93281492D01*
X226310489Y-93350000D01*
X226489511Y-93350000D01*
X226654905Y-93281492D01*
X226781492Y-93154905D01*
X226850000Y-92989511D01*
X226850000Y-92810489D01*
X226781492Y-92645095D01*
X226654905Y-92518508D01*
X226610222Y-92500000D01*
X226654905Y-92481492D01*
X226781492Y-92354905D01*
X226850000Y-92189511D01*
X226850000Y-92010489D01*
X226781492Y-91845095D01*
X226654905Y-91718508D01*
X226489511Y-91650000D01*
X226310489Y-91650000D01*
X226145095Y-91718508D01*
X226018508Y-91845095D01*
X225950000Y-92010489D01*
X225450000Y-92010489D01*
X225381492Y-91845095D01*
X225254905Y-91718508D01*
X225089511Y-91650000D01*
X224910489Y-91650000D01*
X224745095Y-91718508D01*
X224618508Y-91845095D01*
X224550000Y-92010489D01*
X224050000Y-92010489D01*
X223981492Y-91845095D01*
X223854905Y-91718508D01*
X223689511Y-91650000D01*
X223675000Y-91650000D01*
X223675000Y-90400000D01*
X223669291Y-90371299D01*
X223653033Y-90346967D01*
X223275000Y-89968934D01*
X223275000Y-89631066D01*
X223431066Y-89475000D01*
X224518934Y-89475000D01*
X224575000Y-89531066D01*
X224575000Y-89850000D01*
X224580709Y-89878701D01*
X224596967Y-89903033D01*
X224797061Y-90103127D01*
X224818508Y-90154905D01*
X224945095Y-90281492D01*
X225110489Y-90350000D01*
X225289511Y-90350000D01*
X225454905Y-90281492D01*
X225581492Y-90154905D01*
X225650000Y-89989511D01*
X225650000Y-89810489D01*
X225625000Y-89750133D01*
X225625000Y-89531066D01*
X225681066Y-89475000D01*
X226568934Y-89475000D01*
X226925000Y-89831066D01*
X226925000Y-91000000D01*
X226930709Y-91028701D01*
X226946967Y-91053033D01*
X227746967Y-91853033D01*
X227771299Y-91869291D01*
X227800000Y-91875000D01*
X245000000Y-91875000D01*
X245028701Y-91869291D01*
X245053033Y-91853033D01*
X246088482Y-90817584D01*
X246050000Y-90910489D01*
X246050000Y-91089511D01*
X246118508Y-91254905D01*
X246245095Y-91381492D01*
X246410489Y-91450000D01*
X246589511Y-91450000D01*
X246754905Y-91381492D01*
X246881492Y-91254905D01*
X246950000Y-91089511D01*
X246950000Y-90910489D01*
X246881492Y-90745095D01*
X246754905Y-90618508D01*
X246589511Y-90550000D01*
X246410489Y-90550000D01*
X246317584Y-90588482D01*
X246853033Y-90053033D01*
X246869291Y-90028701D01*
X246875000Y-90000000D01*
X246875000Y-88431066D01*
X247231066Y-88075000D01*
X247768934Y-88075000D01*
X247925000Y-88231066D01*
G04 #@! TD*
M02*
