G04 #@! TF.GenerationSoftware,KiCad,Pcbnew,5.0.2-bee76a0~70~ubuntu18.04.1*
G04 #@! TF.CreationDate,2020-11-03T11:03:39+00:00*
G04 #@! TF.ProjectId,picostation,7069636f-7374-4617-9469-6f6e2e6b6963,rev?*
G04 #@! TF.SameCoordinates,Original*
G04 #@! TF.FileFunction,Legend,Top*
G04 #@! TF.FilePolarity,Positive*
%FSLAX46Y46*%
G04 Gerber Fmt 4.6, Leading zero omitted, Abs format (unit mm)*
G04 Created by KiCad (PCBNEW 5.0.2-bee76a0~70~ubuntu18.04.1) date Tue 03 Nov 2020 11:03:39 GMT*
%MOMM*%
%LPD*%
G01*
G04 APERTURE LIST*
%ADD10C,0.120000*%
%ADD11C,0.300000*%
%ADD12C,0.150000*%
%ADD13C,0.200000*%
%ADD14C,0.100000*%
G04 APERTURE END LIST*
D10*
X210983333Y-89816666D02*
X210750000Y-89483333D01*
X210583333Y-89816666D02*
X210583333Y-89116666D01*
X210850000Y-89116666D01*
X210916666Y-89150000D01*
X210950000Y-89183333D01*
X210983333Y-89250000D01*
X210983333Y-89350000D01*
X210950000Y-89416666D01*
X210916666Y-89450000D01*
X210850000Y-89483333D01*
X210583333Y-89483333D01*
X211283333Y-89450000D02*
X211516666Y-89450000D01*
X211616666Y-89816666D02*
X211283333Y-89816666D01*
X211283333Y-89116666D01*
X211616666Y-89116666D01*
X211883333Y-89783333D02*
X211983333Y-89816666D01*
X212150000Y-89816666D01*
X212216666Y-89783333D01*
X212250000Y-89750000D01*
X212283333Y-89683333D01*
X212283333Y-89616666D01*
X212250000Y-89550000D01*
X212216666Y-89516666D01*
X212150000Y-89483333D01*
X212016666Y-89450000D01*
X211950000Y-89416666D01*
X211916666Y-89383333D01*
X211883333Y-89316666D01*
X211883333Y-89250000D01*
X211916666Y-89183333D01*
X211950000Y-89150000D01*
X212016666Y-89116666D01*
X212183333Y-89116666D01*
X212283333Y-89150000D01*
X212583333Y-89450000D02*
X212816666Y-89450000D01*
X212916666Y-89816666D02*
X212583333Y-89816666D01*
X212583333Y-89116666D01*
X212916666Y-89116666D01*
X213116666Y-89116666D02*
X213516666Y-89116666D01*
X213316666Y-89816666D02*
X213316666Y-89116666D01*
X211116666Y-79600000D02*
X211216666Y-79633333D01*
X211250000Y-79666666D01*
X211283333Y-79733333D01*
X211283333Y-79833333D01*
X211250000Y-79900000D01*
X211216666Y-79933333D01*
X211150000Y-79966666D01*
X210883333Y-79966666D01*
X210883333Y-79266666D01*
X211116666Y-79266666D01*
X211183333Y-79300000D01*
X211216666Y-79333333D01*
X211250000Y-79400000D01*
X211250000Y-79466666D01*
X211216666Y-79533333D01*
X211183333Y-79566666D01*
X211116666Y-79600000D01*
X210883333Y-79600000D01*
X211716666Y-79266666D02*
X211850000Y-79266666D01*
X211916666Y-79300000D01*
X211983333Y-79366666D01*
X212016666Y-79500000D01*
X212016666Y-79733333D01*
X211983333Y-79866666D01*
X211916666Y-79933333D01*
X211850000Y-79966666D01*
X211716666Y-79966666D01*
X211650000Y-79933333D01*
X211583333Y-79866666D01*
X211550000Y-79733333D01*
X211550000Y-79500000D01*
X211583333Y-79366666D01*
X211650000Y-79300000D01*
X211716666Y-79266666D01*
X212450000Y-79266666D02*
X212583333Y-79266666D01*
X212650000Y-79300000D01*
X212716666Y-79366666D01*
X212750000Y-79500000D01*
X212750000Y-79733333D01*
X212716666Y-79866666D01*
X212650000Y-79933333D01*
X212583333Y-79966666D01*
X212450000Y-79966666D01*
X212383333Y-79933333D01*
X212316666Y-79866666D01*
X212283333Y-79733333D01*
X212283333Y-79500000D01*
X212316666Y-79366666D01*
X212383333Y-79300000D01*
X212450000Y-79266666D01*
X212950000Y-79266666D02*
X213350000Y-79266666D01*
X213150000Y-79966666D02*
X213150000Y-79266666D01*
X213550000Y-79933333D02*
X213650000Y-79966666D01*
X213816666Y-79966666D01*
X213883333Y-79933333D01*
X213916666Y-79900000D01*
X213950000Y-79833333D01*
X213950000Y-79766666D01*
X213916666Y-79700000D01*
X213883333Y-79666666D01*
X213816666Y-79633333D01*
X213683333Y-79600000D01*
X213616666Y-79566666D01*
X213583333Y-79533333D01*
X213550000Y-79466666D01*
X213550000Y-79400000D01*
X213583333Y-79333333D01*
X213616666Y-79300000D01*
X213683333Y-79266666D01*
X213850000Y-79266666D01*
X213950000Y-79300000D01*
X214250000Y-79600000D02*
X214483333Y-79600000D01*
X214583333Y-79966666D02*
X214250000Y-79966666D01*
X214250000Y-79266666D01*
X214583333Y-79266666D01*
X215216666Y-79966666D02*
X214883333Y-79966666D01*
X214883333Y-79266666D01*
D11*
X235571428Y-107678571D02*
X235571428Y-106178571D01*
X236142857Y-106178571D01*
X236285714Y-106250000D01*
X236357142Y-106321428D01*
X236428571Y-106464285D01*
X236428571Y-106678571D01*
X236357142Y-106821428D01*
X236285714Y-106892857D01*
X236142857Y-106964285D01*
X235571428Y-106964285D01*
X237285714Y-107678571D02*
X237142857Y-107607142D01*
X237071428Y-107464285D01*
X237071428Y-106178571D01*
X238500000Y-107678571D02*
X238500000Y-106892857D01*
X238428571Y-106750000D01*
X238285714Y-106678571D01*
X238000000Y-106678571D01*
X237857142Y-106750000D01*
X238500000Y-107607142D02*
X238357142Y-107678571D01*
X238000000Y-107678571D01*
X237857142Y-107607142D01*
X237785714Y-107464285D01*
X237785714Y-107321428D01*
X237857142Y-107178571D01*
X238000000Y-107107142D01*
X238357142Y-107107142D01*
X238500000Y-107035714D01*
X239071428Y-106678571D02*
X239428571Y-107678571D01*
X239785714Y-106678571D02*
X239428571Y-107678571D01*
X239285714Y-108035714D01*
X239214285Y-108107142D01*
X239071428Y-108178571D01*
X240928571Y-107607142D02*
X240785714Y-107678571D01*
X240500000Y-107678571D01*
X240357142Y-107607142D01*
X240285714Y-107464285D01*
X240285714Y-106892857D01*
X240357142Y-106750000D01*
X240500000Y-106678571D01*
X240785714Y-106678571D01*
X240928571Y-106750000D01*
X241000000Y-106892857D01*
X241000000Y-107035714D01*
X240285714Y-107178571D01*
X241642857Y-107678571D02*
X241642857Y-106678571D01*
X241642857Y-106964285D02*
X241714285Y-106821428D01*
X241785714Y-106750000D01*
X241928571Y-106678571D01*
X242071428Y-106678571D01*
X244500000Y-107678571D02*
X243642857Y-107678571D01*
X244071428Y-107678571D02*
X244071428Y-106178571D01*
X243928571Y-106392857D01*
X243785714Y-106535714D01*
X243642857Y-106607142D01*
X185571428Y-107678571D02*
X185571428Y-106178571D01*
X186142857Y-106178571D01*
X186285714Y-106250000D01*
X186357142Y-106321428D01*
X186428571Y-106464285D01*
X186428571Y-106678571D01*
X186357142Y-106821428D01*
X186285714Y-106892857D01*
X186142857Y-106964285D01*
X185571428Y-106964285D01*
X187285714Y-107678571D02*
X187142857Y-107607142D01*
X187071428Y-107464285D01*
X187071428Y-106178571D01*
X188500000Y-107678571D02*
X188500000Y-106892857D01*
X188428571Y-106750000D01*
X188285714Y-106678571D01*
X188000000Y-106678571D01*
X187857142Y-106750000D01*
X188500000Y-107607142D02*
X188357142Y-107678571D01*
X188000000Y-107678571D01*
X187857142Y-107607142D01*
X187785714Y-107464285D01*
X187785714Y-107321428D01*
X187857142Y-107178571D01*
X188000000Y-107107142D01*
X188357142Y-107107142D01*
X188500000Y-107035714D01*
X189071428Y-106678571D02*
X189428571Y-107678571D01*
X189785714Y-106678571D02*
X189428571Y-107678571D01*
X189285714Y-108035714D01*
X189214285Y-108107142D01*
X189071428Y-108178571D01*
X190928571Y-107607142D02*
X190785714Y-107678571D01*
X190500000Y-107678571D01*
X190357142Y-107607142D01*
X190285714Y-107464285D01*
X190285714Y-106892857D01*
X190357142Y-106750000D01*
X190500000Y-106678571D01*
X190785714Y-106678571D01*
X190928571Y-106750000D01*
X191000000Y-106892857D01*
X191000000Y-107035714D01*
X190285714Y-107178571D01*
X191642857Y-107678571D02*
X191642857Y-106678571D01*
X191642857Y-106964285D02*
X191714285Y-106821428D01*
X191785714Y-106750000D01*
X191928571Y-106678571D01*
X192071428Y-106678571D01*
X194000000Y-106178571D02*
X194142857Y-106178571D01*
X194285714Y-106250000D01*
X194357142Y-106321428D01*
X194428571Y-106464285D01*
X194500000Y-106750000D01*
X194500000Y-107107142D01*
X194428571Y-107392857D01*
X194357142Y-107535714D01*
X194285714Y-107607142D01*
X194142857Y-107678571D01*
X194000000Y-107678571D01*
X193857142Y-107607142D01*
X193785714Y-107535714D01*
X193714285Y-107392857D01*
X193642857Y-107107142D01*
X193642857Y-106750000D01*
X193714285Y-106464285D01*
X193785714Y-106321428D01*
X193857142Y-106250000D01*
X194000000Y-106178571D01*
D10*
X229364333Y-100601666D02*
X229364333Y-101001666D01*
X228664333Y-100801666D02*
X229364333Y-100801666D01*
X229364333Y-101168333D02*
X228664333Y-101635000D01*
X229364333Y-101635000D02*
X228664333Y-101168333D01*
X228664333Y-101901666D02*
X229364333Y-101901666D01*
X229364333Y-102068333D01*
X229331000Y-102168333D01*
X229264333Y-102235000D01*
X229197666Y-102268333D01*
X229064333Y-102301666D01*
X228964333Y-102301666D01*
X228831000Y-102268333D01*
X228764333Y-102235000D01*
X228697666Y-102168333D01*
X228664333Y-102068333D01*
X228664333Y-101901666D01*
X231204333Y-101101666D02*
X231537666Y-100868333D01*
X231204333Y-100701666D02*
X231904333Y-100701666D01*
X231904333Y-100968333D01*
X231871000Y-101035000D01*
X231837666Y-101068333D01*
X231771000Y-101101666D01*
X231671000Y-101101666D01*
X231604333Y-101068333D01*
X231571000Y-101035000D01*
X231537666Y-100968333D01*
X231537666Y-100701666D01*
X231904333Y-101335000D02*
X231204333Y-101801666D01*
X231904333Y-101801666D02*
X231204333Y-101335000D01*
X231204333Y-102068333D02*
X231904333Y-102068333D01*
X231904333Y-102235000D01*
X231871000Y-102335000D01*
X231804333Y-102401666D01*
X231737666Y-102435000D01*
X231604333Y-102468333D01*
X231504333Y-102468333D01*
X231371000Y-102435000D01*
X231304333Y-102401666D01*
X231237666Y-102335000D01*
X231204333Y-102235000D01*
X231204333Y-102068333D01*
X233777666Y-100668333D02*
X233744333Y-100768333D01*
X233744333Y-100935000D01*
X233777666Y-101001666D01*
X233811000Y-101035000D01*
X233877666Y-101068333D01*
X233944333Y-101068333D01*
X234011000Y-101035000D01*
X234044333Y-101001666D01*
X234077666Y-100935000D01*
X234111000Y-100801666D01*
X234144333Y-100735000D01*
X234177666Y-100701666D01*
X234244333Y-100668333D01*
X234311000Y-100668333D01*
X234377666Y-100701666D01*
X234411000Y-100735000D01*
X234444333Y-100801666D01*
X234444333Y-100968333D01*
X234411000Y-101068333D01*
X234444333Y-101301666D02*
X233744333Y-101468333D01*
X234244333Y-101601666D01*
X233744333Y-101735000D01*
X234444333Y-101901666D01*
X233811000Y-102568333D02*
X233777666Y-102535000D01*
X233744333Y-102435000D01*
X233744333Y-102368333D01*
X233777666Y-102268333D01*
X233844333Y-102201666D01*
X233911000Y-102168333D01*
X234044333Y-102135000D01*
X234144333Y-102135000D01*
X234277666Y-102168333D01*
X234344333Y-102201666D01*
X234411000Y-102268333D01*
X234444333Y-102368333D01*
X234444333Y-102435000D01*
X234411000Y-102535000D01*
X234377666Y-102568333D01*
X233744333Y-103201666D02*
X233744333Y-102868333D01*
X234444333Y-102868333D01*
X233744333Y-103435000D02*
X234444333Y-103435000D01*
X233744333Y-103835000D02*
X234144333Y-103535000D01*
X234444333Y-103835000D02*
X234044333Y-103435000D01*
X236317666Y-100668333D02*
X236284333Y-100768333D01*
X236284333Y-100935000D01*
X236317666Y-101001666D01*
X236351000Y-101035000D01*
X236417666Y-101068333D01*
X236484333Y-101068333D01*
X236551000Y-101035000D01*
X236584333Y-101001666D01*
X236617666Y-100935000D01*
X236651000Y-100801666D01*
X236684333Y-100735000D01*
X236717666Y-100701666D01*
X236784333Y-100668333D01*
X236851000Y-100668333D01*
X236917666Y-100701666D01*
X236951000Y-100735000D01*
X236984333Y-100801666D01*
X236984333Y-100968333D01*
X236951000Y-101068333D01*
X236984333Y-101301666D02*
X236284333Y-101468333D01*
X236784333Y-101601666D01*
X236284333Y-101735000D01*
X236984333Y-101901666D01*
X236284333Y-102168333D02*
X236984333Y-102168333D01*
X236984333Y-102335000D01*
X236951000Y-102435000D01*
X236884333Y-102501666D01*
X236817666Y-102535000D01*
X236684333Y-102568333D01*
X236584333Y-102568333D01*
X236451000Y-102535000D01*
X236384333Y-102501666D01*
X236317666Y-102435000D01*
X236284333Y-102335000D01*
X236284333Y-102168333D01*
X236284333Y-102868333D02*
X236984333Y-102868333D01*
X236984333Y-103335000D02*
X236984333Y-103468333D01*
X236951000Y-103535000D01*
X236884333Y-103601666D01*
X236751000Y-103635000D01*
X236517666Y-103635000D01*
X236384333Y-103601666D01*
X236317666Y-103535000D01*
X236284333Y-103468333D01*
X236284333Y-103335000D01*
X236317666Y-103268333D01*
X236384333Y-103201666D01*
X236517666Y-103168333D01*
X236751000Y-103168333D01*
X236884333Y-103201666D01*
X236951000Y-103268333D01*
X236984333Y-103335000D01*
X239491000Y-101068333D02*
X239524333Y-101001666D01*
X239524333Y-100901666D01*
X239491000Y-100801666D01*
X239424333Y-100735000D01*
X239357666Y-100701666D01*
X239224333Y-100668333D01*
X239124333Y-100668333D01*
X238991000Y-100701666D01*
X238924333Y-100735000D01*
X238857666Y-100801666D01*
X238824333Y-100901666D01*
X238824333Y-100968333D01*
X238857666Y-101068333D01*
X238891000Y-101101666D01*
X239124333Y-101101666D01*
X239124333Y-100968333D01*
X238824333Y-101401666D02*
X239524333Y-101401666D01*
X238824333Y-101801666D01*
X239524333Y-101801666D01*
X238824333Y-102135000D02*
X239524333Y-102135000D01*
X239524333Y-102301666D01*
X239491000Y-102401666D01*
X239424333Y-102468333D01*
X239357666Y-102501666D01*
X239224333Y-102535000D01*
X239124333Y-102535000D01*
X238991000Y-102501666D01*
X238924333Y-102468333D01*
X238857666Y-102401666D01*
X238824333Y-102301666D01*
X238824333Y-102135000D01*
D11*
X206928571Y-105678571D02*
X206928571Y-104178571D01*
X207500000Y-104178571D01*
X207642857Y-104250000D01*
X207714285Y-104321428D01*
X207785714Y-104464285D01*
X207785714Y-104678571D01*
X207714285Y-104821428D01*
X207642857Y-104892857D01*
X207500000Y-104964285D01*
X206928571Y-104964285D01*
X208428571Y-105678571D02*
X208428571Y-104678571D01*
X208428571Y-104178571D02*
X208357142Y-104250000D01*
X208428571Y-104321428D01*
X208500000Y-104250000D01*
X208428571Y-104178571D01*
X208428571Y-104321428D01*
X209785714Y-105607142D02*
X209642857Y-105678571D01*
X209357142Y-105678571D01*
X209214285Y-105607142D01*
X209142857Y-105535714D01*
X209071428Y-105392857D01*
X209071428Y-104964285D01*
X209142857Y-104821428D01*
X209214285Y-104750000D01*
X209357142Y-104678571D01*
X209642857Y-104678571D01*
X209785714Y-104750000D01*
X210642857Y-105678571D02*
X210500000Y-105607142D01*
X210428571Y-105535714D01*
X210357142Y-105392857D01*
X210357142Y-104964285D01*
X210428571Y-104821428D01*
X210500000Y-104750000D01*
X210642857Y-104678571D01*
X210857142Y-104678571D01*
X211000000Y-104750000D01*
X211071428Y-104821428D01*
X211142857Y-104964285D01*
X211142857Y-105392857D01*
X211071428Y-105535714D01*
X211000000Y-105607142D01*
X210857142Y-105678571D01*
X210642857Y-105678571D01*
X211714285Y-105607142D02*
X211928571Y-105678571D01*
X212285714Y-105678571D01*
X212428571Y-105607142D01*
X212500000Y-105535714D01*
X212571428Y-105392857D01*
X212571428Y-105250000D01*
X212500000Y-105107142D01*
X212428571Y-105035714D01*
X212285714Y-104964285D01*
X212000000Y-104892857D01*
X211857142Y-104821428D01*
X211785714Y-104750000D01*
X211714285Y-104607142D01*
X211714285Y-104464285D01*
X211785714Y-104321428D01*
X211857142Y-104250000D01*
X212000000Y-104178571D01*
X212357142Y-104178571D01*
X212571428Y-104250000D01*
X213000000Y-104678571D02*
X213571428Y-104678571D01*
X213214285Y-104178571D02*
X213214285Y-105464285D01*
X213285714Y-105607142D01*
X213428571Y-105678571D01*
X213571428Y-105678571D01*
X214714285Y-105678571D02*
X214714285Y-104892857D01*
X214642857Y-104750000D01*
X214500000Y-104678571D01*
X214214285Y-104678571D01*
X214071428Y-104750000D01*
X214714285Y-105607142D02*
X214571428Y-105678571D01*
X214214285Y-105678571D01*
X214071428Y-105607142D01*
X214000000Y-105464285D01*
X214000000Y-105321428D01*
X214071428Y-105178571D01*
X214214285Y-105107142D01*
X214571428Y-105107142D01*
X214714285Y-105035714D01*
X215214285Y-104678571D02*
X215785714Y-104678571D01*
X215428571Y-104178571D02*
X215428571Y-105464285D01*
X215500000Y-105607142D01*
X215642857Y-105678571D01*
X215785714Y-105678571D01*
X216285714Y-105678571D02*
X216285714Y-104678571D01*
X216285714Y-104178571D02*
X216214285Y-104250000D01*
X216285714Y-104321428D01*
X216357142Y-104250000D01*
X216285714Y-104178571D01*
X216285714Y-104321428D01*
X217214285Y-105678571D02*
X217071428Y-105607142D01*
X217000000Y-105535714D01*
X216928571Y-105392857D01*
X216928571Y-104964285D01*
X217000000Y-104821428D01*
X217071428Y-104750000D01*
X217214285Y-104678571D01*
X217428571Y-104678571D01*
X217571428Y-104750000D01*
X217642857Y-104821428D01*
X217714285Y-104964285D01*
X217714285Y-105392857D01*
X217642857Y-105535714D01*
X217571428Y-105607142D01*
X217428571Y-105678571D01*
X217214285Y-105678571D01*
X218357142Y-104678571D02*
X218357142Y-105678571D01*
X218357142Y-104821428D02*
X218428571Y-104750000D01*
X218571428Y-104678571D01*
X218785714Y-104678571D01*
X218928571Y-104750000D01*
X219000000Y-104892857D01*
X219000000Y-105678571D01*
X220714285Y-104178571D02*
X221642857Y-104178571D01*
X221142857Y-104750000D01*
X221357142Y-104750000D01*
X221500000Y-104821428D01*
X221571428Y-104892857D01*
X221642857Y-105035714D01*
X221642857Y-105392857D01*
X221571428Y-105535714D01*
X221500000Y-105607142D01*
X221357142Y-105678571D01*
X220928571Y-105678571D01*
X220785714Y-105607142D01*
X220714285Y-105535714D01*
X222285714Y-105678571D02*
X222285714Y-104178571D01*
X222642857Y-104178571D01*
X222857142Y-104250000D01*
X223000000Y-104392857D01*
X223071428Y-104535714D01*
X223142857Y-104821428D01*
X223142857Y-105035714D01*
X223071428Y-105321428D01*
X223000000Y-105464285D01*
X222857142Y-105607142D01*
X222642857Y-105678571D01*
X222285714Y-105678571D01*
D12*
X243380952Y-78952380D02*
X243380952Y-79666666D01*
X243333333Y-79809523D01*
X243238095Y-79904761D01*
X243095238Y-79952380D01*
X243000000Y-79952380D01*
X244333333Y-79952380D02*
X243857142Y-79952380D01*
X243857142Y-78952380D01*
X245238095Y-79857142D02*
X245190476Y-79904761D01*
X245047619Y-79952380D01*
X244952380Y-79952380D01*
X244809523Y-79904761D01*
X244714285Y-79809523D01*
X244666666Y-79714285D01*
X244619047Y-79523809D01*
X244619047Y-79380952D01*
X244666666Y-79190476D01*
X244714285Y-79095238D01*
X244809523Y-79000000D01*
X244952380Y-78952380D01*
X245047619Y-78952380D01*
X245190476Y-79000000D01*
X245238095Y-79047619D01*
X245952380Y-78952380D02*
X245952380Y-79666666D01*
X245904761Y-79809523D01*
X245809523Y-79904761D01*
X245666666Y-79952380D01*
X245571428Y-79952380D01*
X246904761Y-79952380D02*
X246428571Y-79952380D01*
X246428571Y-78952380D01*
X247809523Y-79857142D02*
X247761904Y-79904761D01*
X247619047Y-79952380D01*
X247523809Y-79952380D01*
X247380952Y-79904761D01*
X247285714Y-79809523D01*
X247238095Y-79714285D01*
X247190476Y-79523809D01*
X247190476Y-79380952D01*
X247238095Y-79190476D01*
X247285714Y-79095238D01*
X247380952Y-79000000D01*
X247523809Y-78952380D01*
X247619047Y-78952380D01*
X247761904Y-79000000D01*
X247809523Y-79047619D01*
X248523809Y-78952380D02*
X248523809Y-79666666D01*
X248476190Y-79809523D01*
X248380952Y-79904761D01*
X248238095Y-79952380D01*
X248142857Y-79952380D01*
X249476190Y-79952380D02*
X249000000Y-79952380D01*
X249000000Y-78952380D01*
X250380952Y-79857142D02*
X250333333Y-79904761D01*
X250190476Y-79952380D01*
X250095238Y-79952380D01*
X249952380Y-79904761D01*
X249857142Y-79809523D01*
X249809523Y-79714285D01*
X249761904Y-79523809D01*
X249761904Y-79380952D01*
X249809523Y-79190476D01*
X249857142Y-79095238D01*
X249952380Y-79000000D01*
X250095238Y-78952380D01*
X250190476Y-78952380D01*
X250333333Y-79000000D01*
X250380952Y-79047619D01*
X251095238Y-78952380D02*
X251095238Y-79666666D01*
X251047619Y-79809523D01*
X250952380Y-79904761D01*
X250809523Y-79952380D01*
X250714285Y-79952380D01*
X252047619Y-79952380D02*
X251571428Y-79952380D01*
X251571428Y-78952380D01*
X252952380Y-79857142D02*
X252904761Y-79904761D01*
X252761904Y-79952380D01*
X252666666Y-79952380D01*
X252523809Y-79904761D01*
X252428571Y-79809523D01*
X252380952Y-79714285D01*
X252333333Y-79523809D01*
X252333333Y-79380952D01*
X252380952Y-79190476D01*
X252428571Y-79095238D01*
X252523809Y-79000000D01*
X252666666Y-78952380D01*
X252761904Y-78952380D01*
X252904761Y-79000000D01*
X252952380Y-79047619D01*
D10*
G04 #@! TO.C,SW2*
X215200000Y-85300000D02*
X210800000Y-85300000D01*
X210800000Y-85300000D02*
X210800000Y-85420000D01*
X210800000Y-86430000D02*
X210800000Y-87570000D01*
X210800000Y-88580000D02*
X210800000Y-88700000D01*
X210800000Y-88700000D02*
X215200000Y-88700000D01*
X215200000Y-88700000D02*
X215200000Y-88580000D01*
X215200000Y-87570000D02*
X215200000Y-86430000D01*
X215200000Y-85420000D02*
X215200000Y-85300000D01*
G04 #@! TO.C,SW1*
X215200000Y-80420000D02*
X215200000Y-80300000D01*
X215200000Y-82570000D02*
X215200000Y-81430000D01*
X215200000Y-83700000D02*
X215200000Y-83580000D01*
X210800000Y-83700000D02*
X215200000Y-83700000D01*
X210800000Y-83580000D02*
X210800000Y-83700000D01*
X210800000Y-81430000D02*
X210800000Y-82570000D01*
X210800000Y-80300000D02*
X210800000Y-80420000D01*
X215200000Y-80300000D02*
X210800000Y-80300000D01*
G04 #@! TO.C,C5*
X228990000Y-80162779D02*
X228990000Y-79837221D01*
X230010000Y-80162779D02*
X230010000Y-79837221D01*
G04 #@! TO.C,C9*
X176337221Y-91490000D02*
X176662779Y-91490000D01*
X176337221Y-92510000D02*
X176662779Y-92510000D01*
G04 #@! TO.C,C10*
X179337221Y-91490000D02*
X179662779Y-91490000D01*
X179337221Y-92510000D02*
X179662779Y-92510000D01*
G04 #@! TO.C,D1*
X187300000Y-76265000D02*
X185015000Y-76265000D01*
X185015000Y-76265000D02*
X185015000Y-77735000D01*
X185015000Y-77735000D02*
X187300000Y-77735000D01*
G04 #@! TO.C,D2*
X229515000Y-77735000D02*
X231800000Y-77735000D01*
X229515000Y-76265000D02*
X229515000Y-77735000D01*
X231800000Y-76265000D02*
X229515000Y-76265000D01*
G04 #@! TO.C,J1*
X227900000Y-80262500D02*
X227450000Y-80262500D01*
X227900000Y-78412500D02*
X227900000Y-80262500D01*
X220100000Y-75862500D02*
X220100000Y-76112500D01*
X227900000Y-75862500D02*
X227900000Y-76112500D01*
X220100000Y-78412500D02*
X220100000Y-80262500D01*
X220100000Y-80262500D02*
X220550000Y-80262500D01*
X225700000Y-80812500D02*
X225250000Y-80812500D01*
X225700000Y-80812500D02*
X225700000Y-80362500D01*
G04 #@! TO.C,J2*
X181310000Y-75000000D02*
X173690000Y-75000000D01*
X181310000Y-75000000D02*
X181310000Y-76270000D01*
X173690000Y-75000000D02*
X173690000Y-76270000D01*
G04 #@! TO.C,J3*
X208000000Y-92000000D02*
X191000000Y-92000000D01*
X191000000Y-92000000D02*
X191000000Y-75000000D01*
X191000000Y-75000000D02*
X208000000Y-75000000D01*
X208000000Y-75000000D02*
X208000000Y-92000000D01*
X204500000Y-75000000D02*
X204500000Y-78000000D01*
X204500000Y-78000000D02*
X197000000Y-78000000D01*
X197000000Y-78000000D02*
X197000000Y-75000000D01*
D12*
G04 #@! TO.C,J4*
X170000000Y-110000000D02*
X170000000Y-129000000D01*
X213000000Y-110000000D02*
X213000000Y-129000000D01*
D10*
G04 #@! TO.C,J5*
X240490000Y-100330000D02*
X240490000Y-97670000D01*
X230270000Y-100330000D02*
X240490000Y-100330000D01*
X230270000Y-97670000D02*
X240490000Y-97670000D01*
X230270000Y-100330000D02*
X230270000Y-97670000D01*
X229000000Y-100330000D02*
X227670000Y-100330000D01*
X227670000Y-100330000D02*
X227670000Y-99000000D01*
D12*
G04 #@! TO.C,J6*
X217000000Y-110000000D02*
X217000000Y-129000000D01*
X260000000Y-110000000D02*
X260000000Y-129000000D01*
G04 #@! TO.C,J7*
X240350000Y-75025000D02*
X240350000Y-76225000D01*
X256150000Y-75025000D02*
X256150000Y-76225000D01*
X240350000Y-75025000D02*
X256150000Y-75025000D01*
G04 #@! TO.C,U1*
X228000000Y-88850000D02*
X228650000Y-88850000D01*
X228650000Y-88850000D02*
X228650000Y-89500000D01*
X228000000Y-96150000D02*
X228650000Y-96150000D01*
X228650000Y-96150000D02*
X228650000Y-95500000D01*
X222000000Y-96150000D02*
X221350000Y-96150000D01*
X221350000Y-96150000D02*
X221350000Y-95500000D01*
X222000000Y-88850000D02*
X221000000Y-88850000D01*
D10*
G04 #@! TO.C,U2*
X232390000Y-84100000D02*
X232390000Y-85900000D01*
X235610000Y-85900000D02*
X235610000Y-83450000D01*
G04 #@! TO.C,U4*
X250110000Y-95635000D02*
X250110000Y-96110000D01*
X250110000Y-96110000D02*
X249635000Y-96110000D01*
X242890000Y-89365000D02*
X242890000Y-88890000D01*
X242890000Y-88890000D02*
X243365000Y-88890000D01*
X242890000Y-95635000D02*
X242890000Y-96110000D01*
X242890000Y-96110000D02*
X243365000Y-96110000D01*
X250110000Y-89365000D02*
X250110000Y-88890000D01*
D12*
G04 #@! TO.C,U5*
X256650000Y-89850000D02*
X258150000Y-89850000D01*
X258150000Y-89850000D02*
X258150000Y-91850000D01*
X256650000Y-89850000D02*
X258150000Y-89850000D01*
X258150000Y-89850000D02*
X258150000Y-91850000D01*
X256650000Y-98150000D02*
X258150000Y-98150000D01*
X258150000Y-98150000D02*
X258150000Y-96150000D01*
X256650000Y-89850000D02*
X258150000Y-89850000D01*
X258150000Y-89850000D02*
X258150000Y-91850000D01*
X253350000Y-98150000D02*
X251850000Y-98150000D01*
X251850000Y-98150000D02*
X251850000Y-96150000D01*
X253350000Y-89850000D02*
X253000000Y-89850000D01*
X253000000Y-89850000D02*
X251850000Y-91000000D01*
X251850000Y-91000000D02*
X251850000Y-91850000D01*
D13*
X252100000Y-90000000D02*
G75*
G03X252100000Y-90000000I-100000J0D01*
G01*
D10*
G04 #@! TO.C,Y1*
X221000000Y-97350000D02*
X221000000Y-100650000D01*
X221000000Y-100650000D02*
X225000000Y-100650000D01*
G04 #@! TO.C,U3*
X220000000Y-82390000D02*
X223000000Y-82390000D01*
X217000000Y-87610000D02*
X223000000Y-87610000D01*
G04 #@! TO.C,SW2*
X212066666Y-87283333D02*
X212166666Y-87316666D01*
X212333333Y-87316666D01*
X212400000Y-87283333D01*
X212433333Y-87250000D01*
X212466666Y-87183333D01*
X212466666Y-87116666D01*
X212433333Y-87050000D01*
X212400000Y-87016666D01*
X212333333Y-86983333D01*
X212200000Y-86950000D01*
X212133333Y-86916666D01*
X212100000Y-86883333D01*
X212066666Y-86816666D01*
X212066666Y-86750000D01*
X212100000Y-86683333D01*
X212133333Y-86650000D01*
X212200000Y-86616666D01*
X212366666Y-86616666D01*
X212466666Y-86650000D01*
X212700000Y-86616666D02*
X212866666Y-87316666D01*
X213000000Y-86816666D01*
X213133333Y-87316666D01*
X213300000Y-86616666D01*
X213533333Y-86683333D02*
X213566666Y-86650000D01*
X213633333Y-86616666D01*
X213800000Y-86616666D01*
X213866666Y-86650000D01*
X213900000Y-86683333D01*
X213933333Y-86750000D01*
X213933333Y-86816666D01*
X213900000Y-86916666D01*
X213500000Y-87316666D01*
X213933333Y-87316666D01*
G04 #@! TO.C,SW1*
X212066666Y-82283333D02*
X212166666Y-82316666D01*
X212333333Y-82316666D01*
X212400000Y-82283333D01*
X212433333Y-82250000D01*
X212466666Y-82183333D01*
X212466666Y-82116666D01*
X212433333Y-82050000D01*
X212400000Y-82016666D01*
X212333333Y-81983333D01*
X212200000Y-81950000D01*
X212133333Y-81916666D01*
X212100000Y-81883333D01*
X212066666Y-81816666D01*
X212066666Y-81750000D01*
X212100000Y-81683333D01*
X212133333Y-81650000D01*
X212200000Y-81616666D01*
X212366666Y-81616666D01*
X212466666Y-81650000D01*
X212700000Y-81616666D02*
X212866666Y-82316666D01*
X213000000Y-81816666D01*
X213133333Y-82316666D01*
X213300000Y-81616666D01*
X213933333Y-82316666D02*
X213533333Y-82316666D01*
X213733333Y-82316666D02*
X213733333Y-81616666D01*
X213666666Y-81716666D01*
X213600000Y-81783333D01*
X213533333Y-81816666D01*
G04 #@! TO.C,C15*
X219895000Y-101723000D02*
X219861666Y-101756333D01*
X219761666Y-101789666D01*
X219695000Y-101789666D01*
X219595000Y-101756333D01*
X219528333Y-101689666D01*
X219495000Y-101623000D01*
X219461666Y-101489666D01*
X219461666Y-101389666D01*
X219495000Y-101256333D01*
X219528333Y-101189666D01*
X219595000Y-101123000D01*
X219695000Y-101089666D01*
X219761666Y-101089666D01*
X219861666Y-101123000D01*
X219895000Y-101156333D01*
X220561666Y-101789666D02*
X220161666Y-101789666D01*
X220361666Y-101789666D02*
X220361666Y-101089666D01*
X220295000Y-101189666D01*
X220228333Y-101256333D01*
X220161666Y-101289666D01*
X221195000Y-101089666D02*
X220861666Y-101089666D01*
X220828333Y-101423000D01*
X220861666Y-101389666D01*
X220928333Y-101356333D01*
X221095000Y-101356333D01*
X221161666Y-101389666D01*
X221195000Y-101423000D01*
X221228333Y-101489666D01*
X221228333Y-101656333D01*
X221195000Y-101723000D01*
X221161666Y-101756333D01*
X221095000Y-101789666D01*
X220928333Y-101789666D01*
X220861666Y-101756333D01*
X220828333Y-101723000D01*
G04 #@! TO.C,C5*
X230883333Y-80250000D02*
X230850000Y-80283333D01*
X230750000Y-80316666D01*
X230683333Y-80316666D01*
X230583333Y-80283333D01*
X230516666Y-80216666D01*
X230483333Y-80150000D01*
X230450000Y-80016666D01*
X230450000Y-79916666D01*
X230483333Y-79783333D01*
X230516666Y-79716666D01*
X230583333Y-79650000D01*
X230683333Y-79616666D01*
X230750000Y-79616666D01*
X230850000Y-79650000D01*
X230883333Y-79683333D01*
X231516666Y-79616666D02*
X231183333Y-79616666D01*
X231150000Y-79950000D01*
X231183333Y-79916666D01*
X231250000Y-79883333D01*
X231416666Y-79883333D01*
X231483333Y-79916666D01*
X231516666Y-79950000D01*
X231550000Y-80016666D01*
X231550000Y-80183333D01*
X231516666Y-80250000D01*
X231483333Y-80283333D01*
X231416666Y-80316666D01*
X231250000Y-80316666D01*
X231183333Y-80283333D01*
X231150000Y-80250000D01*
G04 #@! TO.C,C6*
X174383333Y-94250000D02*
X174350000Y-94283333D01*
X174250000Y-94316666D01*
X174183333Y-94316666D01*
X174083333Y-94283333D01*
X174016666Y-94216666D01*
X173983333Y-94150000D01*
X173950000Y-94016666D01*
X173950000Y-93916666D01*
X173983333Y-93783333D01*
X174016666Y-93716666D01*
X174083333Y-93650000D01*
X174183333Y-93616666D01*
X174250000Y-93616666D01*
X174350000Y-93650000D01*
X174383333Y-93683333D01*
X174983333Y-93616666D02*
X174850000Y-93616666D01*
X174783333Y-93650000D01*
X174750000Y-93683333D01*
X174683333Y-93783333D01*
X174650000Y-93916666D01*
X174650000Y-94183333D01*
X174683333Y-94250000D01*
X174716666Y-94283333D01*
X174783333Y-94316666D01*
X174916666Y-94316666D01*
X174983333Y-94283333D01*
X175016666Y-94250000D01*
X175050000Y-94183333D01*
X175050000Y-94016666D01*
X175016666Y-93950000D01*
X174983333Y-93916666D01*
X174916666Y-93883333D01*
X174783333Y-93883333D01*
X174716666Y-93916666D01*
X174683333Y-93950000D01*
X174650000Y-94016666D01*
G04 #@! TO.C,C7*
X181383333Y-94250000D02*
X181350000Y-94283333D01*
X181250000Y-94316666D01*
X181183333Y-94316666D01*
X181083333Y-94283333D01*
X181016666Y-94216666D01*
X180983333Y-94150000D01*
X180950000Y-94016666D01*
X180950000Y-93916666D01*
X180983333Y-93783333D01*
X181016666Y-93716666D01*
X181083333Y-93650000D01*
X181183333Y-93616666D01*
X181250000Y-93616666D01*
X181350000Y-93650000D01*
X181383333Y-93683333D01*
X181616666Y-93616666D02*
X182083333Y-93616666D01*
X181783333Y-94316666D01*
G04 #@! TO.C,C9*
X173883333Y-92250000D02*
X173850000Y-92283333D01*
X173750000Y-92316666D01*
X173683333Y-92316666D01*
X173583333Y-92283333D01*
X173516666Y-92216666D01*
X173483333Y-92150000D01*
X173450000Y-92016666D01*
X173450000Y-91916666D01*
X173483333Y-91783333D01*
X173516666Y-91716666D01*
X173583333Y-91650000D01*
X173683333Y-91616666D01*
X173750000Y-91616666D01*
X173850000Y-91650000D01*
X173883333Y-91683333D01*
X174216666Y-92316666D02*
X174350000Y-92316666D01*
X174416666Y-92283333D01*
X174450000Y-92250000D01*
X174516666Y-92150000D01*
X174550000Y-92016666D01*
X174550000Y-91750000D01*
X174516666Y-91683333D01*
X174483333Y-91650000D01*
X174416666Y-91616666D01*
X174283333Y-91616666D01*
X174216666Y-91650000D01*
X174183333Y-91683333D01*
X174150000Y-91750000D01*
X174150000Y-91916666D01*
X174183333Y-91983333D01*
X174216666Y-92016666D01*
X174283333Y-92050000D01*
X174416666Y-92050000D01*
X174483333Y-92016666D01*
X174516666Y-91983333D01*
X174550000Y-91916666D01*
G04 #@! TO.C,C10*
X181550000Y-92250000D02*
X181516666Y-92283333D01*
X181416666Y-92316666D01*
X181350000Y-92316666D01*
X181250000Y-92283333D01*
X181183333Y-92216666D01*
X181150000Y-92150000D01*
X181116666Y-92016666D01*
X181116666Y-91916666D01*
X181150000Y-91783333D01*
X181183333Y-91716666D01*
X181250000Y-91650000D01*
X181350000Y-91616666D01*
X181416666Y-91616666D01*
X181516666Y-91650000D01*
X181550000Y-91683333D01*
X182216666Y-92316666D02*
X181816666Y-92316666D01*
X182016666Y-92316666D02*
X182016666Y-91616666D01*
X181950000Y-91716666D01*
X181883333Y-91783333D01*
X181816666Y-91816666D01*
X182650000Y-91616666D02*
X182716666Y-91616666D01*
X182783333Y-91650000D01*
X182816666Y-91683333D01*
X182850000Y-91750000D01*
X182883333Y-91883333D01*
X182883333Y-92050000D01*
X182850000Y-92183333D01*
X182816666Y-92250000D01*
X182783333Y-92283333D01*
X182716666Y-92316666D01*
X182650000Y-92316666D01*
X182583333Y-92283333D01*
X182550000Y-92250000D01*
X182516666Y-92183333D01*
X182483333Y-92050000D01*
X182483333Y-91883333D01*
X182516666Y-91750000D01*
X182550000Y-91683333D01*
X182583333Y-91650000D01*
X182650000Y-91616666D01*
G04 #@! TO.C,C12*
X234025000Y-84045000D02*
X233991666Y-84078333D01*
X233891666Y-84111666D01*
X233825000Y-84111666D01*
X233725000Y-84078333D01*
X233658333Y-84011666D01*
X233625000Y-83945000D01*
X233591666Y-83811666D01*
X233591666Y-83711666D01*
X233625000Y-83578333D01*
X233658333Y-83511666D01*
X233725000Y-83445000D01*
X233825000Y-83411666D01*
X233891666Y-83411666D01*
X233991666Y-83445000D01*
X234025000Y-83478333D01*
X234691666Y-84111666D02*
X234291666Y-84111666D01*
X234491666Y-84111666D02*
X234491666Y-83411666D01*
X234425000Y-83511666D01*
X234358333Y-83578333D01*
X234291666Y-83611666D01*
X234958333Y-83478333D02*
X234991666Y-83445000D01*
X235058333Y-83411666D01*
X235225000Y-83411666D01*
X235291666Y-83445000D01*
X235325000Y-83478333D01*
X235358333Y-83545000D01*
X235358333Y-83611666D01*
X235325000Y-83711666D01*
X234925000Y-84111666D01*
X235358333Y-84111666D01*
G04 #@! TO.C,C14*
X234000000Y-88795000D02*
X233966666Y-88828333D01*
X233866666Y-88861666D01*
X233800000Y-88861666D01*
X233700000Y-88828333D01*
X233633333Y-88761666D01*
X233600000Y-88695000D01*
X233566666Y-88561666D01*
X233566666Y-88461666D01*
X233600000Y-88328333D01*
X233633333Y-88261666D01*
X233700000Y-88195000D01*
X233800000Y-88161666D01*
X233866666Y-88161666D01*
X233966666Y-88195000D01*
X234000000Y-88228333D01*
X234666666Y-88861666D02*
X234266666Y-88861666D01*
X234466666Y-88861666D02*
X234466666Y-88161666D01*
X234400000Y-88261666D01*
X234333333Y-88328333D01*
X234266666Y-88361666D01*
X235266666Y-88395000D02*
X235266666Y-88861666D01*
X235100000Y-88128333D02*
X234933333Y-88628333D01*
X235366666Y-88628333D01*
G04 #@! TO.C,C17*
X225102000Y-101723000D02*
X225068666Y-101756333D01*
X224968666Y-101789666D01*
X224902000Y-101789666D01*
X224802000Y-101756333D01*
X224735333Y-101689666D01*
X224702000Y-101623000D01*
X224668666Y-101489666D01*
X224668666Y-101389666D01*
X224702000Y-101256333D01*
X224735333Y-101189666D01*
X224802000Y-101123000D01*
X224902000Y-101089666D01*
X224968666Y-101089666D01*
X225068666Y-101123000D01*
X225102000Y-101156333D01*
X225768666Y-101789666D02*
X225368666Y-101789666D01*
X225568666Y-101789666D02*
X225568666Y-101089666D01*
X225502000Y-101189666D01*
X225435333Y-101256333D01*
X225368666Y-101289666D01*
X226002000Y-101089666D02*
X226468666Y-101089666D01*
X226168666Y-101789666D01*
G04 #@! TO.C,C19*
X217050000Y-81750000D02*
X217016666Y-81783333D01*
X216916666Y-81816666D01*
X216850000Y-81816666D01*
X216750000Y-81783333D01*
X216683333Y-81716666D01*
X216650000Y-81650000D01*
X216616666Y-81516666D01*
X216616666Y-81416666D01*
X216650000Y-81283333D01*
X216683333Y-81216666D01*
X216750000Y-81150000D01*
X216850000Y-81116666D01*
X216916666Y-81116666D01*
X217016666Y-81150000D01*
X217050000Y-81183333D01*
X217716666Y-81816666D02*
X217316666Y-81816666D01*
X217516666Y-81816666D02*
X217516666Y-81116666D01*
X217450000Y-81216666D01*
X217383333Y-81283333D01*
X217316666Y-81316666D01*
X218050000Y-81816666D02*
X218183333Y-81816666D01*
X218250000Y-81783333D01*
X218283333Y-81750000D01*
X218350000Y-81650000D01*
X218383333Y-81516666D01*
X218383333Y-81250000D01*
X218350000Y-81183333D01*
X218316666Y-81150000D01*
X218250000Y-81116666D01*
X218116666Y-81116666D01*
X218050000Y-81150000D01*
X218016666Y-81183333D01*
X217983333Y-81250000D01*
X217983333Y-81416666D01*
X218016666Y-81483333D01*
X218050000Y-81516666D01*
X218116666Y-81550000D01*
X218250000Y-81550000D01*
X218316666Y-81516666D01*
X218350000Y-81483333D01*
X218383333Y-81416666D01*
G04 #@! TO.C,D1*
X185983333Y-79316666D02*
X185983333Y-78616666D01*
X186150000Y-78616666D01*
X186250000Y-78650000D01*
X186316666Y-78716666D01*
X186350000Y-78783333D01*
X186383333Y-78916666D01*
X186383333Y-79016666D01*
X186350000Y-79150000D01*
X186316666Y-79216666D01*
X186250000Y-79283333D01*
X186150000Y-79316666D01*
X185983333Y-79316666D01*
X187050000Y-79316666D02*
X186650000Y-79316666D01*
X186850000Y-79316666D02*
X186850000Y-78616666D01*
X186783333Y-78716666D01*
X186716666Y-78783333D01*
X186650000Y-78816666D01*
G04 #@! TO.C,D2*
X231983333Y-78816666D02*
X231983333Y-78116666D01*
X232150000Y-78116666D01*
X232250000Y-78150000D01*
X232316666Y-78216666D01*
X232350000Y-78283333D01*
X232383333Y-78416666D01*
X232383333Y-78516666D01*
X232350000Y-78650000D01*
X232316666Y-78716666D01*
X232250000Y-78783333D01*
X232150000Y-78816666D01*
X231983333Y-78816666D01*
X232650000Y-78183333D02*
X232683333Y-78150000D01*
X232750000Y-78116666D01*
X232916666Y-78116666D01*
X232983333Y-78150000D01*
X233016666Y-78183333D01*
X233050000Y-78250000D01*
X233050000Y-78316666D01*
X233016666Y-78416666D01*
X232616666Y-78816666D01*
X233050000Y-78816666D01*
G04 #@! TO.C,J1*
X223766666Y-81229166D02*
X223766666Y-81729166D01*
X223733333Y-81829166D01*
X223666666Y-81895833D01*
X223566666Y-81929166D01*
X223500000Y-81929166D01*
X224466666Y-81929166D02*
X224066666Y-81929166D01*
X224266666Y-81929166D02*
X224266666Y-81229166D01*
X224200000Y-81329166D01*
X224133333Y-81395833D01*
X224066666Y-81429166D01*
G04 #@! TO.C,J2*
X182766666Y-88316666D02*
X182766666Y-88816666D01*
X182733333Y-88916666D01*
X182666666Y-88983333D01*
X182566666Y-89016666D01*
X182500000Y-89016666D01*
X183066666Y-88383333D02*
X183100000Y-88350000D01*
X183166666Y-88316666D01*
X183333333Y-88316666D01*
X183400000Y-88350000D01*
X183433333Y-88383333D01*
X183466666Y-88450000D01*
X183466666Y-88516666D01*
X183433333Y-88616666D01*
X183033333Y-89016666D01*
X183466666Y-89016666D01*
G04 #@! TO.C,J3*
X199766666Y-92616666D02*
X199766666Y-93116666D01*
X199733333Y-93216666D01*
X199666666Y-93283333D01*
X199566666Y-93316666D01*
X199500000Y-93316666D01*
X200033333Y-92616666D02*
X200466666Y-92616666D01*
X200233333Y-92883333D01*
X200333333Y-92883333D01*
X200400000Y-92916666D01*
X200433333Y-92950000D01*
X200466666Y-93016666D01*
X200466666Y-93183333D01*
X200433333Y-93250000D01*
X200400000Y-93283333D01*
X200333333Y-93316666D01*
X200133333Y-93316666D01*
X200066666Y-93283333D01*
X200033333Y-93250000D01*
D14*
X200628571Y-75828571D02*
X200628571Y-76361904D01*
X200285714Y-75828571D02*
X200285714Y-76247619D01*
X200323809Y-76323809D01*
X200400000Y-76361904D01*
X200514285Y-76361904D01*
X200590476Y-76323809D01*
X200628571Y-76285714D01*
X200971428Y-76323809D02*
X201085714Y-76361904D01*
X201276190Y-76361904D01*
X201352380Y-76323809D01*
X201390476Y-76285714D01*
X201428571Y-76209523D01*
X201428571Y-76133333D01*
X201390476Y-76057142D01*
X201352380Y-76019047D01*
X201276190Y-75980952D01*
X201123809Y-75942857D01*
X201047619Y-75904761D01*
X201009523Y-75866666D01*
X200971428Y-75790476D01*
X200971428Y-75714285D01*
X201009523Y-75638095D01*
X201047619Y-75600000D01*
X201123809Y-75561904D01*
X201314285Y-75561904D01*
X201428571Y-75600000D01*
X201771428Y-76361904D02*
X201771428Y-75561904D01*
X201961904Y-75561904D01*
X202076190Y-75600000D01*
X202152380Y-75676190D01*
X202190476Y-75752380D01*
X202228571Y-75904761D01*
X202228571Y-76019047D01*
X202190476Y-76171428D01*
X202152380Y-76247619D01*
X202076190Y-76323809D01*
X201961904Y-76361904D01*
X201771428Y-76361904D01*
X203180952Y-76285714D02*
X203219047Y-76323809D01*
X203180952Y-76361904D01*
X203142857Y-76323809D01*
X203180952Y-76285714D01*
X203180952Y-76361904D01*
X203180952Y-75866666D02*
X203219047Y-75904761D01*
X203180952Y-75942857D01*
X203142857Y-75904761D01*
X203180952Y-75866666D01*
X203180952Y-75942857D01*
X203485714Y-76666666D02*
X203523809Y-76628571D01*
X203600000Y-76514285D01*
X203638095Y-76438095D01*
X203676190Y-76323809D01*
X203714285Y-76133333D01*
X203714285Y-75980952D01*
X203676190Y-75790476D01*
X203638095Y-75676190D01*
X203600000Y-75600000D01*
X203523809Y-75485714D01*
X203485714Y-75447619D01*
G04 #@! TO.C,J4*
D10*
X168766666Y-109616666D02*
X168766666Y-110116666D01*
X168733333Y-110216666D01*
X168666666Y-110283333D01*
X168566666Y-110316666D01*
X168500000Y-110316666D01*
X169400000Y-109850000D02*
X169400000Y-110316666D01*
X169233333Y-109583333D02*
X169066666Y-110083333D01*
X169500000Y-110083333D01*
D12*
X187309523Y-113904761D02*
X187452380Y-113952380D01*
X187690476Y-113952380D01*
X187785714Y-113904761D01*
X187833333Y-113857142D01*
X187880952Y-113761904D01*
X187880952Y-113666666D01*
X187833333Y-113571428D01*
X187785714Y-113523809D01*
X187690476Y-113476190D01*
X187500000Y-113428571D01*
X187404761Y-113380952D01*
X187357142Y-113333333D01*
X187309523Y-113238095D01*
X187309523Y-113142857D01*
X187357142Y-113047619D01*
X187404761Y-113000000D01*
X187500000Y-112952380D01*
X187738095Y-112952380D01*
X187880952Y-113000000D01*
X188309523Y-113952380D02*
X188309523Y-112952380D01*
X188880952Y-113952380D01*
X188880952Y-112952380D01*
X189357142Y-113428571D02*
X189690476Y-113428571D01*
X189833333Y-113952380D02*
X189357142Y-113952380D01*
X189357142Y-112952380D01*
X189833333Y-112952380D01*
X190214285Y-113904761D02*
X190357142Y-113952380D01*
X190595238Y-113952380D01*
X190690476Y-113904761D01*
X190738095Y-113857142D01*
X190785714Y-113761904D01*
X190785714Y-113666666D01*
X190738095Y-113571428D01*
X190690476Y-113523809D01*
X190595238Y-113476190D01*
X190404761Y-113428571D01*
X190309523Y-113380952D01*
X190261904Y-113333333D01*
X190214285Y-113238095D01*
X190214285Y-113142857D01*
X190261904Y-113047619D01*
X190309523Y-113000000D01*
X190404761Y-112952380D01*
X190642857Y-112952380D01*
X190785714Y-113000000D01*
X191976190Y-113857142D02*
X192023809Y-113904761D01*
X191976190Y-113952380D01*
X191928571Y-113904761D01*
X191976190Y-113857142D01*
X191976190Y-113952380D01*
X191976190Y-113333333D02*
X192023809Y-113380952D01*
X191976190Y-113428571D01*
X191928571Y-113380952D01*
X191976190Y-113333333D01*
X191976190Y-113428571D01*
X192357142Y-114333333D02*
X192404761Y-114285714D01*
X192500000Y-114142857D01*
X192547619Y-114047619D01*
X192595238Y-113904761D01*
X192642857Y-113666666D01*
X192642857Y-113476190D01*
X192595238Y-113238095D01*
X192547619Y-113095238D01*
X192500000Y-113000000D01*
X192404761Y-112857142D01*
X192357142Y-112809523D01*
G04 #@! TO.C,J5*
D10*
X241266666Y-98616666D02*
X241266666Y-99116666D01*
X241233333Y-99216666D01*
X241166666Y-99283333D01*
X241066666Y-99316666D01*
X241000000Y-99316666D01*
X241933333Y-98616666D02*
X241600000Y-98616666D01*
X241566666Y-98950000D01*
X241600000Y-98916666D01*
X241666666Y-98883333D01*
X241833333Y-98883333D01*
X241900000Y-98916666D01*
X241933333Y-98950000D01*
X241966666Y-99016666D01*
X241966666Y-99183333D01*
X241933333Y-99250000D01*
X241900000Y-99283333D01*
X241833333Y-99316666D01*
X241666666Y-99316666D01*
X241600000Y-99283333D01*
X241566666Y-99250000D01*
G04 #@! TO.C,J6*
X260766666Y-109616666D02*
X260766666Y-110116666D01*
X260733333Y-110216666D01*
X260666666Y-110283333D01*
X260566666Y-110316666D01*
X260500000Y-110316666D01*
X261400000Y-109616666D02*
X261266666Y-109616666D01*
X261200000Y-109650000D01*
X261166666Y-109683333D01*
X261100000Y-109783333D01*
X261066666Y-109916666D01*
X261066666Y-110183333D01*
X261100000Y-110250000D01*
X261133333Y-110283333D01*
X261200000Y-110316666D01*
X261333333Y-110316666D01*
X261400000Y-110283333D01*
X261433333Y-110250000D01*
X261466666Y-110183333D01*
X261466666Y-110016666D01*
X261433333Y-109950000D01*
X261400000Y-109916666D01*
X261333333Y-109883333D01*
X261200000Y-109883333D01*
X261133333Y-109916666D01*
X261100000Y-109950000D01*
X261066666Y-110016666D01*
D12*
X237309523Y-113904761D02*
X237452380Y-113952380D01*
X237690476Y-113952380D01*
X237785714Y-113904761D01*
X237833333Y-113857142D01*
X237880952Y-113761904D01*
X237880952Y-113666666D01*
X237833333Y-113571428D01*
X237785714Y-113523809D01*
X237690476Y-113476190D01*
X237500000Y-113428571D01*
X237404761Y-113380952D01*
X237357142Y-113333333D01*
X237309523Y-113238095D01*
X237309523Y-113142857D01*
X237357142Y-113047619D01*
X237404761Y-113000000D01*
X237500000Y-112952380D01*
X237738095Y-112952380D01*
X237880952Y-113000000D01*
X238309523Y-113952380D02*
X238309523Y-112952380D01*
X238880952Y-113952380D01*
X238880952Y-112952380D01*
X239357142Y-113428571D02*
X239690476Y-113428571D01*
X239833333Y-113952380D02*
X239357142Y-113952380D01*
X239357142Y-112952380D01*
X239833333Y-112952380D01*
X240214285Y-113904761D02*
X240357142Y-113952380D01*
X240595238Y-113952380D01*
X240690476Y-113904761D01*
X240738095Y-113857142D01*
X240785714Y-113761904D01*
X240785714Y-113666666D01*
X240738095Y-113571428D01*
X240690476Y-113523809D01*
X240595238Y-113476190D01*
X240404761Y-113428571D01*
X240309523Y-113380952D01*
X240261904Y-113333333D01*
X240214285Y-113238095D01*
X240214285Y-113142857D01*
X240261904Y-113047619D01*
X240309523Y-113000000D01*
X240404761Y-112952380D01*
X240642857Y-112952380D01*
X240785714Y-113000000D01*
X241976190Y-113857142D02*
X242023809Y-113904761D01*
X241976190Y-113952380D01*
X241928571Y-113904761D01*
X241976190Y-113857142D01*
X241976190Y-113952380D01*
X241976190Y-113333333D02*
X242023809Y-113380952D01*
X241976190Y-113428571D01*
X241928571Y-113380952D01*
X241976190Y-113333333D01*
X241976190Y-113428571D01*
X242357142Y-114333333D02*
X242404761Y-114285714D01*
X242500000Y-114142857D01*
X242547619Y-114047619D01*
X242595238Y-113904761D01*
X242642857Y-113666666D01*
X242642857Y-113476190D01*
X242595238Y-113238095D01*
X242547619Y-113095238D01*
X242500000Y-113000000D01*
X242404761Y-112857142D01*
X242357142Y-112809523D01*
G04 #@! TO.C,J7*
D10*
X238266666Y-77116666D02*
X238266666Y-77616666D01*
X238233333Y-77716666D01*
X238166666Y-77783333D01*
X238066666Y-77816666D01*
X238000000Y-77816666D01*
X238533333Y-77116666D02*
X239000000Y-77116666D01*
X238700000Y-77816666D01*
G04 #@! TO.C,R1*
X174383333Y-97316666D02*
X174150000Y-96983333D01*
X173983333Y-97316666D02*
X173983333Y-96616666D01*
X174250000Y-96616666D01*
X174316666Y-96650000D01*
X174350000Y-96683333D01*
X174383333Y-96750000D01*
X174383333Y-96850000D01*
X174350000Y-96916666D01*
X174316666Y-96950000D01*
X174250000Y-96983333D01*
X173983333Y-96983333D01*
X175050000Y-97316666D02*
X174650000Y-97316666D01*
X174850000Y-97316666D02*
X174850000Y-96616666D01*
X174783333Y-96716666D01*
X174716666Y-96783333D01*
X174650000Y-96816666D01*
G04 #@! TO.C,R2*
X181383333Y-97316666D02*
X181150000Y-96983333D01*
X180983333Y-97316666D02*
X180983333Y-96616666D01*
X181250000Y-96616666D01*
X181316666Y-96650000D01*
X181350000Y-96683333D01*
X181383333Y-96750000D01*
X181383333Y-96850000D01*
X181350000Y-96916666D01*
X181316666Y-96950000D01*
X181250000Y-96983333D01*
X180983333Y-96983333D01*
X181650000Y-96683333D02*
X181683333Y-96650000D01*
X181750000Y-96616666D01*
X181916666Y-96616666D01*
X181983333Y-96650000D01*
X182016666Y-96683333D01*
X182050000Y-96750000D01*
X182050000Y-96816666D01*
X182016666Y-96916666D01*
X181616666Y-97316666D01*
X182050000Y-97316666D01*
G04 #@! TO.C,R3*
X174383333Y-96316666D02*
X174150000Y-95983333D01*
X173983333Y-96316666D02*
X173983333Y-95616666D01*
X174250000Y-95616666D01*
X174316666Y-95650000D01*
X174350000Y-95683333D01*
X174383333Y-95750000D01*
X174383333Y-95850000D01*
X174350000Y-95916666D01*
X174316666Y-95950000D01*
X174250000Y-95983333D01*
X173983333Y-95983333D01*
X174616666Y-95616666D02*
X175050000Y-95616666D01*
X174816666Y-95883333D01*
X174916666Y-95883333D01*
X174983333Y-95916666D01*
X175016666Y-95950000D01*
X175050000Y-96016666D01*
X175050000Y-96183333D01*
X175016666Y-96250000D01*
X174983333Y-96283333D01*
X174916666Y-96316666D01*
X174716666Y-96316666D01*
X174650000Y-96283333D01*
X174616666Y-96250000D01*
G04 #@! TO.C,R4*
X181383333Y-96316666D02*
X181150000Y-95983333D01*
X180983333Y-96316666D02*
X180983333Y-95616666D01*
X181250000Y-95616666D01*
X181316666Y-95650000D01*
X181350000Y-95683333D01*
X181383333Y-95750000D01*
X181383333Y-95850000D01*
X181350000Y-95916666D01*
X181316666Y-95950000D01*
X181250000Y-95983333D01*
X180983333Y-95983333D01*
X181983333Y-95850000D02*
X181983333Y-96316666D01*
X181816666Y-95583333D02*
X181650000Y-96083333D01*
X182083333Y-96083333D01*
G04 #@! TO.C,R5*
X174383333Y-95316666D02*
X174150000Y-94983333D01*
X173983333Y-95316666D02*
X173983333Y-94616666D01*
X174250000Y-94616666D01*
X174316666Y-94650000D01*
X174350000Y-94683333D01*
X174383333Y-94750000D01*
X174383333Y-94850000D01*
X174350000Y-94916666D01*
X174316666Y-94950000D01*
X174250000Y-94983333D01*
X173983333Y-94983333D01*
X175016666Y-94616666D02*
X174683333Y-94616666D01*
X174650000Y-94950000D01*
X174683333Y-94916666D01*
X174750000Y-94883333D01*
X174916666Y-94883333D01*
X174983333Y-94916666D01*
X175016666Y-94950000D01*
X175050000Y-95016666D01*
X175050000Y-95183333D01*
X175016666Y-95250000D01*
X174983333Y-95283333D01*
X174916666Y-95316666D01*
X174750000Y-95316666D01*
X174683333Y-95283333D01*
X174650000Y-95250000D01*
G04 #@! TO.C,R6*
X181383333Y-95316666D02*
X181150000Y-94983333D01*
X180983333Y-95316666D02*
X180983333Y-94616666D01*
X181250000Y-94616666D01*
X181316666Y-94650000D01*
X181350000Y-94683333D01*
X181383333Y-94750000D01*
X181383333Y-94850000D01*
X181350000Y-94916666D01*
X181316666Y-94950000D01*
X181250000Y-94983333D01*
X180983333Y-94983333D01*
X181983333Y-94616666D02*
X181850000Y-94616666D01*
X181783333Y-94650000D01*
X181750000Y-94683333D01*
X181683333Y-94783333D01*
X181650000Y-94916666D01*
X181650000Y-95183333D01*
X181683333Y-95250000D01*
X181716666Y-95283333D01*
X181783333Y-95316666D01*
X181916666Y-95316666D01*
X181983333Y-95283333D01*
X182016666Y-95250000D01*
X182050000Y-95183333D01*
X182050000Y-95016666D01*
X182016666Y-94950000D01*
X181983333Y-94916666D01*
X181916666Y-94883333D01*
X181783333Y-94883333D01*
X181716666Y-94916666D01*
X181683333Y-94950000D01*
X181650000Y-95016666D01*
G04 #@! TO.C,R7*
X189383333Y-79316666D02*
X189150000Y-78983333D01*
X188983333Y-79316666D02*
X188983333Y-78616666D01*
X189250000Y-78616666D01*
X189316666Y-78650000D01*
X189350000Y-78683333D01*
X189383333Y-78750000D01*
X189383333Y-78850000D01*
X189350000Y-78916666D01*
X189316666Y-78950000D01*
X189250000Y-78983333D01*
X188983333Y-78983333D01*
X189616666Y-78616666D02*
X190083333Y-78616666D01*
X189783333Y-79316666D01*
G04 #@! TO.C,R8*
X233883333Y-78816666D02*
X233650000Y-78483333D01*
X233483333Y-78816666D02*
X233483333Y-78116666D01*
X233750000Y-78116666D01*
X233816666Y-78150000D01*
X233850000Y-78183333D01*
X233883333Y-78250000D01*
X233883333Y-78350000D01*
X233850000Y-78416666D01*
X233816666Y-78450000D01*
X233750000Y-78483333D01*
X233483333Y-78483333D01*
X234283333Y-78416666D02*
X234216666Y-78383333D01*
X234183333Y-78350000D01*
X234150000Y-78283333D01*
X234150000Y-78250000D01*
X234183333Y-78183333D01*
X234216666Y-78150000D01*
X234283333Y-78116666D01*
X234416666Y-78116666D01*
X234483333Y-78150000D01*
X234516666Y-78183333D01*
X234550000Y-78250000D01*
X234550000Y-78283333D01*
X234516666Y-78350000D01*
X234483333Y-78383333D01*
X234416666Y-78416666D01*
X234283333Y-78416666D01*
X234216666Y-78450000D01*
X234183333Y-78483333D01*
X234150000Y-78550000D01*
X234150000Y-78683333D01*
X234183333Y-78750000D01*
X234216666Y-78783333D01*
X234283333Y-78816666D01*
X234416666Y-78816666D01*
X234483333Y-78783333D01*
X234516666Y-78750000D01*
X234550000Y-78683333D01*
X234550000Y-78550000D01*
X234516666Y-78483333D01*
X234483333Y-78450000D01*
X234416666Y-78416666D01*
G04 #@! TO.C,R9*
X227383333Y-87316666D02*
X227150000Y-86983333D01*
X226983333Y-87316666D02*
X226983333Y-86616666D01*
X227250000Y-86616666D01*
X227316666Y-86650000D01*
X227350000Y-86683333D01*
X227383333Y-86750000D01*
X227383333Y-86850000D01*
X227350000Y-86916666D01*
X227316666Y-86950000D01*
X227250000Y-86983333D01*
X226983333Y-86983333D01*
X227716666Y-87316666D02*
X227850000Y-87316666D01*
X227916666Y-87283333D01*
X227950000Y-87250000D01*
X228016666Y-87150000D01*
X228050000Y-87016666D01*
X228050000Y-86750000D01*
X228016666Y-86683333D01*
X227983333Y-86650000D01*
X227916666Y-86616666D01*
X227783333Y-86616666D01*
X227716666Y-86650000D01*
X227683333Y-86683333D01*
X227650000Y-86750000D01*
X227650000Y-86916666D01*
X227683333Y-86983333D01*
X227716666Y-87016666D01*
X227783333Y-87050000D01*
X227916666Y-87050000D01*
X227983333Y-87016666D01*
X228016666Y-86983333D01*
X228050000Y-86916666D01*
G04 #@! TO.C,R10*
X224050000Y-85816666D02*
X223816666Y-85483333D01*
X223650000Y-85816666D02*
X223650000Y-85116666D01*
X223916666Y-85116666D01*
X223983333Y-85150000D01*
X224016666Y-85183333D01*
X224050000Y-85250000D01*
X224050000Y-85350000D01*
X224016666Y-85416666D01*
X223983333Y-85450000D01*
X223916666Y-85483333D01*
X223650000Y-85483333D01*
X224716666Y-85816666D02*
X224316666Y-85816666D01*
X224516666Y-85816666D02*
X224516666Y-85116666D01*
X224450000Y-85216666D01*
X224383333Y-85283333D01*
X224316666Y-85316666D01*
X225150000Y-85116666D02*
X225216666Y-85116666D01*
X225283333Y-85150000D01*
X225316666Y-85183333D01*
X225350000Y-85250000D01*
X225383333Y-85383333D01*
X225383333Y-85550000D01*
X225350000Y-85683333D01*
X225316666Y-85750000D01*
X225283333Y-85783333D01*
X225216666Y-85816666D01*
X225150000Y-85816666D01*
X225083333Y-85783333D01*
X225050000Y-85750000D01*
X225016666Y-85683333D01*
X224983333Y-85550000D01*
X224983333Y-85383333D01*
X225016666Y-85250000D01*
X225050000Y-85183333D01*
X225083333Y-85150000D01*
X225150000Y-85116666D01*
G04 #@! TO.C,R11*
X213050000Y-84816666D02*
X212816666Y-84483333D01*
X212650000Y-84816666D02*
X212650000Y-84116666D01*
X212916666Y-84116666D01*
X212983333Y-84150000D01*
X213016666Y-84183333D01*
X213050000Y-84250000D01*
X213050000Y-84350000D01*
X213016666Y-84416666D01*
X212983333Y-84450000D01*
X212916666Y-84483333D01*
X212650000Y-84483333D01*
X213716666Y-84816666D02*
X213316666Y-84816666D01*
X213516666Y-84816666D02*
X213516666Y-84116666D01*
X213450000Y-84216666D01*
X213383333Y-84283333D01*
X213316666Y-84316666D01*
X214383333Y-84816666D02*
X213983333Y-84816666D01*
X214183333Y-84816666D02*
X214183333Y-84116666D01*
X214116666Y-84216666D01*
X214050000Y-84283333D01*
X213983333Y-84316666D01*
G04 #@! TO.C,R12*
X215050000Y-91016666D02*
X214816666Y-90683333D01*
X214650000Y-91016666D02*
X214650000Y-90316666D01*
X214916666Y-90316666D01*
X214983333Y-90350000D01*
X215016666Y-90383333D01*
X215050000Y-90450000D01*
X215050000Y-90550000D01*
X215016666Y-90616666D01*
X214983333Y-90650000D01*
X214916666Y-90683333D01*
X214650000Y-90683333D01*
X215716666Y-91016666D02*
X215316666Y-91016666D01*
X215516666Y-91016666D02*
X215516666Y-90316666D01*
X215450000Y-90416666D01*
X215383333Y-90483333D01*
X215316666Y-90516666D01*
X215983333Y-90383333D02*
X216016666Y-90350000D01*
X216083333Y-90316666D01*
X216250000Y-90316666D01*
X216316666Y-90350000D01*
X216350000Y-90383333D01*
X216383333Y-90450000D01*
X216383333Y-90516666D01*
X216350000Y-90616666D01*
X215950000Y-91016666D01*
X216383333Y-91016666D01*
G04 #@! TO.C,R15*
X251816666Y-86950000D02*
X251483333Y-87183333D01*
X251816666Y-87350000D02*
X251116666Y-87350000D01*
X251116666Y-87083333D01*
X251150000Y-87016666D01*
X251183333Y-86983333D01*
X251250000Y-86950000D01*
X251350000Y-86950000D01*
X251416666Y-86983333D01*
X251450000Y-87016666D01*
X251483333Y-87083333D01*
X251483333Y-87350000D01*
X251816666Y-86283333D02*
X251816666Y-86683333D01*
X251816666Y-86483333D02*
X251116666Y-86483333D01*
X251216666Y-86550000D01*
X251283333Y-86616666D01*
X251316666Y-86683333D01*
X251116666Y-85650000D02*
X251116666Y-85983333D01*
X251450000Y-86016666D01*
X251416666Y-85983333D01*
X251383333Y-85916666D01*
X251383333Y-85750000D01*
X251416666Y-85683333D01*
X251450000Y-85650000D01*
X251516666Y-85616666D01*
X251683333Y-85616666D01*
X251750000Y-85650000D01*
X251783333Y-85683333D01*
X251816666Y-85750000D01*
X251816666Y-85916666D01*
X251783333Y-85983333D01*
X251750000Y-86016666D01*
G04 #@! TO.C,R16*
X253816666Y-86950000D02*
X253483333Y-87183333D01*
X253816666Y-87350000D02*
X253116666Y-87350000D01*
X253116666Y-87083333D01*
X253150000Y-87016666D01*
X253183333Y-86983333D01*
X253250000Y-86950000D01*
X253350000Y-86950000D01*
X253416666Y-86983333D01*
X253450000Y-87016666D01*
X253483333Y-87083333D01*
X253483333Y-87350000D01*
X253816666Y-86283333D02*
X253816666Y-86683333D01*
X253816666Y-86483333D02*
X253116666Y-86483333D01*
X253216666Y-86550000D01*
X253283333Y-86616666D01*
X253316666Y-86683333D01*
X253116666Y-85683333D02*
X253116666Y-85816666D01*
X253150000Y-85883333D01*
X253183333Y-85916666D01*
X253283333Y-85983333D01*
X253416666Y-86016666D01*
X253683333Y-86016666D01*
X253750000Y-85983333D01*
X253783333Y-85950000D01*
X253816666Y-85883333D01*
X253816666Y-85750000D01*
X253783333Y-85683333D01*
X253750000Y-85650000D01*
X253683333Y-85616666D01*
X253516666Y-85616666D01*
X253450000Y-85650000D01*
X253416666Y-85683333D01*
X253383333Y-85750000D01*
X253383333Y-85883333D01*
X253416666Y-85950000D01*
X253450000Y-85983333D01*
X253516666Y-86016666D01*
G04 #@! TO.C,R17*
X255816666Y-86950000D02*
X255483333Y-87183333D01*
X255816666Y-87350000D02*
X255116666Y-87350000D01*
X255116666Y-87083333D01*
X255150000Y-87016666D01*
X255183333Y-86983333D01*
X255250000Y-86950000D01*
X255350000Y-86950000D01*
X255416666Y-86983333D01*
X255450000Y-87016666D01*
X255483333Y-87083333D01*
X255483333Y-87350000D01*
X255816666Y-86283333D02*
X255816666Y-86683333D01*
X255816666Y-86483333D02*
X255116666Y-86483333D01*
X255216666Y-86550000D01*
X255283333Y-86616666D01*
X255316666Y-86683333D01*
X255116666Y-86050000D02*
X255116666Y-85583333D01*
X255816666Y-85883333D01*
G04 #@! TO.C,R18*
X257816666Y-86950000D02*
X257483333Y-87183333D01*
X257816666Y-87350000D02*
X257116666Y-87350000D01*
X257116666Y-87083333D01*
X257150000Y-87016666D01*
X257183333Y-86983333D01*
X257250000Y-86950000D01*
X257350000Y-86950000D01*
X257416666Y-86983333D01*
X257450000Y-87016666D01*
X257483333Y-87083333D01*
X257483333Y-87350000D01*
X257816666Y-86283333D02*
X257816666Y-86683333D01*
X257816666Y-86483333D02*
X257116666Y-86483333D01*
X257216666Y-86550000D01*
X257283333Y-86616666D01*
X257316666Y-86683333D01*
X257416666Y-85883333D02*
X257383333Y-85950000D01*
X257350000Y-85983333D01*
X257283333Y-86016666D01*
X257250000Y-86016666D01*
X257183333Y-85983333D01*
X257150000Y-85950000D01*
X257116666Y-85883333D01*
X257116666Y-85750000D01*
X257150000Y-85683333D01*
X257183333Y-85650000D01*
X257250000Y-85616666D01*
X257283333Y-85616666D01*
X257350000Y-85650000D01*
X257383333Y-85683333D01*
X257416666Y-85750000D01*
X257416666Y-85883333D01*
X257450000Y-85950000D01*
X257483333Y-85983333D01*
X257550000Y-86016666D01*
X257683333Y-86016666D01*
X257750000Y-85983333D01*
X257783333Y-85950000D01*
X257816666Y-85883333D01*
X257816666Y-85750000D01*
X257783333Y-85683333D01*
X257750000Y-85650000D01*
X257683333Y-85616666D01*
X257550000Y-85616666D01*
X257483333Y-85650000D01*
X257450000Y-85683333D01*
X257416666Y-85750000D01*
G04 #@! TO.C,R20*
X252816666Y-86950000D02*
X252483333Y-87183333D01*
X252816666Y-87350000D02*
X252116666Y-87350000D01*
X252116666Y-87083333D01*
X252150000Y-87016666D01*
X252183333Y-86983333D01*
X252250000Y-86950000D01*
X252350000Y-86950000D01*
X252416666Y-86983333D01*
X252450000Y-87016666D01*
X252483333Y-87083333D01*
X252483333Y-87350000D01*
X252183333Y-86683333D02*
X252150000Y-86650000D01*
X252116666Y-86583333D01*
X252116666Y-86416666D01*
X252150000Y-86350000D01*
X252183333Y-86316666D01*
X252250000Y-86283333D01*
X252316666Y-86283333D01*
X252416666Y-86316666D01*
X252816666Y-86716666D01*
X252816666Y-86283333D01*
X252116666Y-85850000D02*
X252116666Y-85783333D01*
X252150000Y-85716666D01*
X252183333Y-85683333D01*
X252250000Y-85650000D01*
X252383333Y-85616666D01*
X252550000Y-85616666D01*
X252683333Y-85650000D01*
X252750000Y-85683333D01*
X252783333Y-85716666D01*
X252816666Y-85783333D01*
X252816666Y-85850000D01*
X252783333Y-85916666D01*
X252750000Y-85950000D01*
X252683333Y-85983333D01*
X252550000Y-86016666D01*
X252383333Y-86016666D01*
X252250000Y-85983333D01*
X252183333Y-85950000D01*
X252150000Y-85916666D01*
X252116666Y-85850000D01*
G04 #@! TO.C,R21*
X254816666Y-86950000D02*
X254483333Y-87183333D01*
X254816666Y-87350000D02*
X254116666Y-87350000D01*
X254116666Y-87083333D01*
X254150000Y-87016666D01*
X254183333Y-86983333D01*
X254250000Y-86950000D01*
X254350000Y-86950000D01*
X254416666Y-86983333D01*
X254450000Y-87016666D01*
X254483333Y-87083333D01*
X254483333Y-87350000D01*
X254183333Y-86683333D02*
X254150000Y-86650000D01*
X254116666Y-86583333D01*
X254116666Y-86416666D01*
X254150000Y-86350000D01*
X254183333Y-86316666D01*
X254250000Y-86283333D01*
X254316666Y-86283333D01*
X254416666Y-86316666D01*
X254816666Y-86716666D01*
X254816666Y-86283333D01*
X254816666Y-85616666D02*
X254816666Y-86016666D01*
X254816666Y-85816666D02*
X254116666Y-85816666D01*
X254216666Y-85883333D01*
X254283333Y-85950000D01*
X254316666Y-86016666D01*
G04 #@! TO.C,R22*
X256816666Y-86950000D02*
X256483333Y-87183333D01*
X256816666Y-87350000D02*
X256116666Y-87350000D01*
X256116666Y-87083333D01*
X256150000Y-87016666D01*
X256183333Y-86983333D01*
X256250000Y-86950000D01*
X256350000Y-86950000D01*
X256416666Y-86983333D01*
X256450000Y-87016666D01*
X256483333Y-87083333D01*
X256483333Y-87350000D01*
X256183333Y-86683333D02*
X256150000Y-86650000D01*
X256116666Y-86583333D01*
X256116666Y-86416666D01*
X256150000Y-86350000D01*
X256183333Y-86316666D01*
X256250000Y-86283333D01*
X256316666Y-86283333D01*
X256416666Y-86316666D01*
X256816666Y-86716666D01*
X256816666Y-86283333D01*
X256183333Y-86016666D02*
X256150000Y-85983333D01*
X256116666Y-85916666D01*
X256116666Y-85750000D01*
X256150000Y-85683333D01*
X256183333Y-85650000D01*
X256250000Y-85616666D01*
X256316666Y-85616666D01*
X256416666Y-85650000D01*
X256816666Y-86050000D01*
X256816666Y-85616666D01*
G04 #@! TO.C,R23*
X258816666Y-86950000D02*
X258483333Y-87183333D01*
X258816666Y-87350000D02*
X258116666Y-87350000D01*
X258116666Y-87083333D01*
X258150000Y-87016666D01*
X258183333Y-86983333D01*
X258250000Y-86950000D01*
X258350000Y-86950000D01*
X258416666Y-86983333D01*
X258450000Y-87016666D01*
X258483333Y-87083333D01*
X258483333Y-87350000D01*
X258183333Y-86683333D02*
X258150000Y-86650000D01*
X258116666Y-86583333D01*
X258116666Y-86416666D01*
X258150000Y-86350000D01*
X258183333Y-86316666D01*
X258250000Y-86283333D01*
X258316666Y-86283333D01*
X258416666Y-86316666D01*
X258816666Y-86716666D01*
X258816666Y-86283333D01*
X258116666Y-86050000D02*
X258116666Y-85616666D01*
X258383333Y-85850000D01*
X258383333Y-85750000D01*
X258416666Y-85683333D01*
X258450000Y-85650000D01*
X258516666Y-85616666D01*
X258683333Y-85616666D01*
X258750000Y-85650000D01*
X258783333Y-85683333D01*
X258816666Y-85750000D01*
X258816666Y-85950000D01*
X258783333Y-86016666D01*
X258750000Y-86050000D01*
G04 #@! TO.C,U1*
X228966666Y-88116666D02*
X228966666Y-88683333D01*
X229000000Y-88750000D01*
X229033333Y-88783333D01*
X229100000Y-88816666D01*
X229233333Y-88816666D01*
X229300000Y-88783333D01*
X229333333Y-88750000D01*
X229366666Y-88683333D01*
X229366666Y-88116666D01*
X230066666Y-88816666D02*
X229666666Y-88816666D01*
X229866666Y-88816666D02*
X229866666Y-88116666D01*
X229800000Y-88216666D01*
X229733333Y-88283333D01*
X229666666Y-88316666D01*
G04 #@! TO.C,U2*
X236516666Y-85533333D02*
X237083333Y-85533333D01*
X237150000Y-85500000D01*
X237183333Y-85466666D01*
X237216666Y-85400000D01*
X237216666Y-85266666D01*
X237183333Y-85200000D01*
X237150000Y-85166666D01*
X237083333Y-85133333D01*
X236516666Y-85133333D01*
X236583333Y-84833333D02*
X236550000Y-84800000D01*
X236516666Y-84733333D01*
X236516666Y-84566666D01*
X236550000Y-84500000D01*
X236583333Y-84466666D01*
X236650000Y-84433333D01*
X236716666Y-84433333D01*
X236816666Y-84466666D01*
X237216666Y-84866666D01*
X237216666Y-84433333D01*
G04 #@! TO.C,U4*
X249966666Y-96616666D02*
X249966666Y-97183333D01*
X250000000Y-97250000D01*
X250033333Y-97283333D01*
X250100000Y-97316666D01*
X250233333Y-97316666D01*
X250300000Y-97283333D01*
X250333333Y-97250000D01*
X250366666Y-97183333D01*
X250366666Y-96616666D01*
X251000000Y-96850000D02*
X251000000Y-97316666D01*
X250833333Y-96583333D02*
X250666666Y-97083333D01*
X251100000Y-97083333D01*
G04 #@! TO.C,U5*
X257966666Y-98616666D02*
X257966666Y-99183333D01*
X258000000Y-99250000D01*
X258033333Y-99283333D01*
X258100000Y-99316666D01*
X258233333Y-99316666D01*
X258300000Y-99283333D01*
X258333333Y-99250000D01*
X258366666Y-99183333D01*
X258366666Y-98616666D01*
X259033333Y-98616666D02*
X258700000Y-98616666D01*
X258666666Y-98950000D01*
X258700000Y-98916666D01*
X258766666Y-98883333D01*
X258933333Y-98883333D01*
X259000000Y-98916666D01*
X259033333Y-98950000D01*
X259066666Y-99016666D01*
X259066666Y-99183333D01*
X259033333Y-99250000D01*
X259000000Y-99283333D01*
X258933333Y-99316666D01*
X258766666Y-99316666D01*
X258700000Y-99283333D01*
X258666666Y-99250000D01*
G04 #@! TO.C,Y1*
X222666666Y-101483333D02*
X222666666Y-101816666D01*
X222433333Y-101116666D02*
X222666666Y-101483333D01*
X222900000Y-101116666D01*
X223500000Y-101816666D02*
X223100000Y-101816666D01*
X223300000Y-101816666D02*
X223300000Y-101116666D01*
X223233333Y-101216666D01*
X223166666Y-101283333D01*
X223100000Y-101316666D01*
G04 #@! TO.C,U3*
X217466666Y-88116666D02*
X217466666Y-88683333D01*
X217500000Y-88750000D01*
X217533333Y-88783333D01*
X217600000Y-88816666D01*
X217733333Y-88816666D01*
X217800000Y-88783333D01*
X217833333Y-88750000D01*
X217866666Y-88683333D01*
X217866666Y-88116666D01*
X218133333Y-88116666D02*
X218566666Y-88116666D01*
X218333333Y-88383333D01*
X218433333Y-88383333D01*
X218500000Y-88416666D01*
X218533333Y-88450000D01*
X218566666Y-88516666D01*
X218566666Y-88683333D01*
X218533333Y-88750000D01*
X218500000Y-88783333D01*
X218433333Y-88816666D01*
X218233333Y-88816666D01*
X218166666Y-88783333D01*
X218133333Y-88750000D01*
G04 #@! TD*
M02*
